M48
;Layer_Color=9474304
;FILE_FORMAT=4:4
METRIC,LZ
;TYPE=PLATED
T01F00S00C0.1524
T02F00S00C0.2032
T03F00S00C0.2540
%
T01
X00372501Y00365301
Y00375301
Y00385301
Y00395301
X00382501
X00392501
Y00385301
X00382501
Y00375301
X00392501
Y00365301
X00382501
X00402501
X004125
Y00375301
X00402501
Y00385301
X004125
Y00395301
X00402501
X004225
Y00385301
Y00375301
Y00365301
X004325
Y00375301
Y00385301
Y00395301
X00442501
Y00385301
Y00375301
Y00365301
X00452501
Y00375301
Y00385301
Y00395301
X00462501
Y00385301
Y00375301
Y00365301
X00472501
X00482501
Y00375301
X00472501
Y00385301
X00482501
Y00395301
X00472501
X00492501
Y00385301
Y00375301
Y00365301
X00502501
Y00375301
Y00385301
Y00395301
X00512501
Y00385301
Y00375301
Y00365301
X00522501
X00532501
Y00375301
X00522501
Y00385301
X00532501
Y00395301
X00522501
X00542501
Y00385301
Y00375301
Y00365301
X00552501
Y00375301
Y00385301
Y00395301
X00562501
Y00385301
Y00375301
Y00365301
X00572501
X00582501
Y00375301
X00572501
Y00385301
X00582501
Y00395301
X00572501
X00592501
Y00385301
Y00375301
Y00365301
X00602501
Y00375301
Y00385301
Y00395301
X00612501
X00622501
Y00385301
X00612501
Y00375301
X00622501
Y00365301
X00612501
X00632501
Y00375301
Y00385301
Y00395301
X00642501
Y00385301
Y00375301
Y00365301
X00652501
Y00375301
Y00385301
Y00395301
X00662501
Y00385301
Y00375301
Y00365301
X00692501
X00702501
X00712501
X00722501
X007325
X007425
X007525
Y00375301
Y00385301
Y00395301
X007425
Y00385301
Y00375301
X007325
X00722501
Y00385301
X007325
Y00395301
X00722501
X00712501
X00702501
Y00385301
X00712501
Y00375301
X00702501
X00692501
Y00385301
Y00395301
X00762501
X00772501
X00782501
X00792501
Y00385301
Y00375301
Y00365301
X00782501
Y00375301
Y00385301
X00772501
Y00375301
Y00365301
X00762501
Y00375301
Y00385301
X00802501
X00812501
X00822501
X00832501
X00842501
X00852501
X00862501
X00872501
X00882501
X00892501
X00902501
X00912501
X00922501
X00932501
X00942501
X00952501
X00962501
X00972501
X00982501
Y00375301
Y00365301
X00972501
Y00375301
X00962501
Y00365301
X00952501
Y00375301
X00942501
X00932501
Y00365301
X00942501
X00922501
Y00375301
X00912501
Y00365301
X00902501
X00892501
Y00375301
X00902501
X00882501
Y00365301
X00872501
Y00375301
X00862501
Y00365301
X00852501
X00842501
Y00375301
X00852501
X00832501
Y00365301
X00822501
Y00375301
X00812501
Y00365301
X00802501
Y00375301
Y00395301
X00812501
X00822501
X00832501
X00842501
X00852501
X00862501
X00872501
X00882501
X00892501
X00902501
X00912501
X00922501
X00932501
X00942501
X00952501
X00962501
X00972501
X00982501
Y00405301
Y00415301
Y00425301
X00972501
Y00415301
Y00405301
X00962501
Y00415301
Y00425301
X00952501
Y00415301
Y00405301
X00942501
Y00415301
X00932501
Y00405301
X00922501
Y00415301
Y00425301
X00932501
X00942501
Y00435301
Y00445301
X00932501
Y00435301
X00922501
Y00445301
Y00455301
X00932501
X00942501
X00952501
X00962501
X00972501
X00982501
Y00445301
Y00435301
X00972501
Y00445301
X00962501
Y00435301
X00952501
Y00445301
X00912501
Y00435301
X00902501
Y00445301
X00892501
Y00435301
X00882501
Y00445301
Y00455301
X00892501
X00902501
X00912501
Y00425301
Y00415301
Y00405301
X00902501
Y00415301
X00892501
Y00405301
X00882501
Y00415301
Y00425301
X00892501
X00902501
X00872501
Y00415301
Y00405301
X00862501
Y00415301
Y00425301
X00852501
X00842501
Y00415301
Y00405301
X00852501
Y00415301
X00832501
Y00405301
X00822501
Y00415301
Y00425301
X00832501
Y00435301
Y00445301
X00842501
X00852501
Y00435301
X00842501
X00862501
Y00445301
X00872501
Y00435301
Y00455301
X00862501
X00852501
X00842501
X00832501
X00822501
Y00445301
Y00435301
X00812501
Y00445301
Y00455301
X00802501
Y00445301
Y00435301
Y00425301
X00812501
Y00415301
Y00405301
X00802501
Y00415301
X008025Y006153
X008125
X008225
X008325
X008425
X008525
X008625
X008725
X008825
X008925
X009025
X009125
X009225
X009325
X009425
X009525
X009625
X009725
X009825
Y006253
Y006353
Y006453
Y006553
Y006653
Y006753
X009725
Y006653
Y006553
Y006453
Y006353
Y006253
X009625
Y006353
Y006453
Y006553
Y006653
Y006753
X009525
Y006653
Y006553
Y006453
Y006353
Y006253
X009425
X009325
Y006353
X009425
Y006453
Y006553
Y006653
X009325
Y006553
Y006453
X009225
Y006553
Y006653
Y006753
X009325
X009425
Y006853
Y006953
X009325
Y006853
X009225
Y006953
Y007053
X009325
X009425
X009525
X009625
X009725
X009825
Y006953
Y006853
X009725
Y006953
X009625
Y006853
X009525
Y006953
X009125
Y006853
X009025
Y006953
X008925
Y006853
X008825
Y006953
Y007053
X008925
X009025
X009125
Y006753
Y006653
Y006553
Y006453
Y006353
X009225
Y006253
X009125
X009025
X008925
Y006353
X009025
Y006453
Y006553
Y006653
X008925
Y006553
Y006453
X008825
Y006553
Y006653
Y006753
X008925
X009025
X008725
Y006653
Y006553
Y006453
Y006353
X008825
Y006253
X008725
X008625
Y006353
Y006453
Y006553
Y006653
Y006753
X008525
X008425
Y006653
Y006553
X008525
Y006653
Y006453
X008425
Y006353
X008525
Y006253
X008425
X008325
Y006353
Y006453
Y006553
Y006653
Y006753
X008225
Y006653
Y006553
Y006453
Y006353
Y006253
X008125
Y006353
Y006453
Y006553
Y006653
Y006753
X008025
Y006653
Y006553
Y006453
Y006353
Y006253
Y006853
Y006953
X008125
Y006853
X008225
Y006953
X008325
Y006853
X008425
X008525
Y006953
X008425
Y007053
X008525
X008625
X008725
Y006953
Y006853
X008625
Y006953
X008325Y007053
X008225
X008125
X008025
X007925
Y006953
Y006853
X007825
Y006953
Y007053
X007725
Y006953
Y006853
X007625
Y006953
Y007053
X007525
Y006953
Y006853
X007425
Y006953
Y007053
X007325
X007225
Y006953
X007325
Y006853
X007225
X007125
Y006953
X007025
Y006853
X006925
Y006953
Y007053
X007025
X007125
Y006753
X007025
Y006653
Y006553
X007125
Y006653
X007225
X007325
Y006553
X007225
Y006453
X007325
X007425
Y006553
Y006653
X007525
Y006553
Y006453
Y006353
Y006253
Y006153
X007425
Y006253
Y006353
X007325
X007225
Y006253
X007325
Y006153
X007225
X007125
X007025
Y006253
X007125
Y006353
X007025
Y006453
X007125
X006925
Y006553
Y006653
Y006753
X006625
Y006653
Y006553
Y006453
Y006353
Y006253
Y006153
X006525
Y006253
Y006353
Y006453
Y006553
Y006653
Y006753
X006425
Y006653
Y006553
Y006453
Y006353
Y006253
Y006153
X006325
Y006253
Y006353
Y006453
Y006553
Y006653
Y006753
X006225
X006125
Y006653
Y006553
X006225
Y006653
Y006453
X006125
Y006353
X006225
Y006253
X006125
Y006153
X006225
X006025
Y006253
Y006353
Y006453
Y006553
Y006653
Y006753
X005925
Y006653
Y006553
Y006453
Y006353
Y006253
Y006153
X005825
X005725
Y006253
X005825
Y006353
X005725
Y006453
X005825
Y006553
Y006653
X005725
Y006553
X005625
Y006653
Y006753
X005725
X005825
Y006853
Y006953
X005725
Y006853
X005625
Y006953
Y007053
X005725
X005825
X005925
X006025
X006125
X006225
X006325
X006425
X006525
X006625
Y006953
Y006853
X006525
Y006953
X006425
Y006853
X006325
Y006953
X006225
Y006853
X006125
Y006953
X006025
Y006853
X005925
Y006953
X005525
Y006853
X005425
Y006953
Y007053
X005525
X005325
X005225
Y006953
X005325
Y006853
X005225
X005125
Y006953
Y007053
X005025
Y006953
Y006853
X004925
Y006953
Y007053
X004825
X004725
Y006953
X004825
Y006853
X004725
X004625
Y006953
Y007053
X004525
Y006953
Y006853
X004425
Y006953
Y007053
X004325
Y006953
Y006853
X004225
Y006953
Y007053
X004125
X004025
Y006953
X004125
Y006853
X004025
Y006753
X004125
X004225
X004325
Y006653
Y006553
Y006453
Y006353
Y006253
Y006153
X004225
Y006253
Y006353
Y006453
Y006553
Y006653
X004125
X004025
Y006553
X004125
Y006453
X004025
Y006353
X004125
Y006253
X004025
Y006153
X004125
X004425
X004525
X004625
X004725
X004825
X004925
X005025
X005125
X005225
X005325
X005425
X005525
X005625
Y006253
Y006353
Y006453
X005525
Y006553
Y006653
Y006753
X005425
Y006653
Y006553
Y006453
Y006353
X005525
Y006253
X005425
X005325
X005225
Y006353
X005325
Y006453
Y006553
Y006653
X005225
Y006553
Y006453
X005125
Y006553
Y006653
Y006753
X005225
X005325
X005025
Y006653
Y006553
Y006453
Y006353
X005125
Y006253
X005025
X004925
Y006353
Y006453
Y006553
Y006653
Y006753
X004825
X004725
Y006653
Y006553
X004825
Y006653
Y006453
X004725
Y006353
X004825
Y006253
X004725
X004625
Y006353
Y006453
Y006553
Y006653
Y006753
X004525
Y006653
Y006553
Y006453
Y006353
Y006253
X004425
Y006353
Y006453
Y006553
Y006653
Y006753
X00442501Y00455301
Y00445301
Y00435301
X00452501
Y00445301
Y00455301
X00462501
Y00445301
Y00435301
X00472501
Y00445301
X00482501
Y00435301
X00492501
Y00445301
Y00455301
X00482501
X00472501
X00502501
Y00445301
Y00435301
X00512501
Y00445301
Y00455301
X00522501
X00532501
Y00445301
X00522501
Y00435301
X00532501
X00542501
Y00445301
Y00455301
X00552501
Y00445301
Y00435301
X00562501
Y00445301
Y00455301
X00572501
X00582501
Y00445301
X00572501
Y00435301
X00582501
X00592501
Y00445301
Y00455301
X00602501
Y00445301
Y00435301
X00612501
Y00445301
X00622501
Y00435301
X00632501
Y00445301
Y00455301
X00622501
X00612501
X00642501
Y00445301
Y00435301
X00652501
Y00445301
Y00455301
X00662501
Y00445301
Y00435301
Y00425301
X00652501
X00642501
X00632501
X00622501
X00612501
X00602501
X00592501
X00582501
X00572501
X00562501
X00552501
X00542501
X00532501
X00522501
X00512501
X00502501
X00492501
X00482501
X00472501
X00462501
X00452501
X00442501
Y00415301
Y00405301
X00452501
Y00415301
X00462501
Y00405301
X00472501
Y00415301
X00482501
Y00405301
X00492501
Y00415301
X00502501
Y00405301
X00512501
Y00415301
X00522501
Y00405301
X00532501
Y00415301
X00542501
Y00405301
X00552501
Y00415301
X00562501
Y00405301
X00572501
Y00415301
X00582501
Y00405301
X00592501
Y00415301
X00602501
Y00405301
X00612501
Y00415301
X00622501
Y00405301
X00632501
Y00415301
X00642501
Y00405301
X00652501
Y00415301
X00662501
Y00405301
X00692501
Y00415301
X00702501
Y00405301
X00712501
Y00415301
X00722501
X007325
Y00405301
X00722501
X007425
Y00415301
X007525
Y00405301
X00762501
Y00415301
X00772501
Y00405301
X00782501
Y00415301
X00792501
Y00405301
Y00425301
X00782501
X00772501
X00762501
Y00435301
Y00445301
X00772501
Y00435301
X00782501
Y00445301
X00792501
Y00435301
Y00455301
X00782501
X00772501
X00762501
X007525
Y00445301
Y00435301
X007425
Y00445301
Y00455301
X007325
X00722501
Y00445301
X007325
Y00435301
X00722501
X00712501
Y00445301
X00702501
Y00435301
X00692501
Y00445301
Y00455301
X00702501
X00712501
Y00425301
X00702501
X00692501
X00722501
X007325
X007425
X007525
X007625Y006153
X007725
X007825
X007925
Y006253
Y006353
Y006453
Y006553
Y006653
Y006753
X007825
Y006653
Y006553
Y006453
Y006353
Y006253
X007725
Y006353
Y006453
Y006553
Y006653
Y006753
X007625
Y006653
Y006553
Y006453
Y006353
Y006253
X007525Y006753
X007425
X007325
X007225
X006925Y006353
Y006253
Y006153
X004325Y00455301
X004225
X004125
X00402501
Y00445301
X004125
Y00435301
X00402501
Y00425301
X004125
Y00415301
X00402501
Y00405301
X004125
X004225
Y00415301
Y00425301
X004325
Y00415301
Y00405301
Y00435301
Y00445301
X004225
Y00435301
X00392501
X00382501
Y00445301
X00392501
Y00455301
X00382501
X00372501
Y00445301
Y00435301
Y00425301
Y00415301
Y00405301
X00382501
Y00415301
X00392501
Y00405301
Y00425301
X00382501
X003825Y006153
X003925
Y006253
X003825
Y006353
X003925
Y006453
Y006553
Y006653
X003825
Y006553
Y006453
X003725
Y006553
Y006653
Y006753
X003825
X003925
Y006853
Y006953
X003825
Y006853
X003725
Y006953
Y007053
X003825
X003925
X003725Y006353
Y006253
Y006153
X00795501Y01502301
X00805501
X00815501
X00825501
X00835501
X00845501
X00855501
X00865501
X00875501
X00885501
X00895501
X00905501
Y01512301
Y01522301
X00895501
Y01512301
X00885501
Y01522301
X00875501
Y01512301
X00865501
Y01522301
X00855501
Y01512301
X00845501
Y01522301
X00835501
Y01512301
X00825501
Y01522301
X00815501
Y01512301
X00805501
Y01522301
X00795501
Y01512301
Y01532301
X00805501
X00815501
X00825501
X00835501
X00845501
X00855501
X00865501
X00875501
X00885501
X00895501
X00905501
Y01542301
Y01552301
Y01562301
Y01572301
Y01582301
X00895501
Y01572301
Y01562301
Y01552301
Y01542301
X00885501
Y01552301
Y01562301
Y01572301
Y01582301
X00875501
X00865501
Y01572301
X00875501
Y01562301
Y01552301
Y01542301
X00865501
Y01552301
Y01562301
X00855501
Y01552301
Y01542301
X00845501
Y01552301
Y01562301
Y01572301
X00855501
Y01582301
X00845501
X00835501
Y01572301
Y01562301
Y01552301
Y01542301
X00825501
Y01552301
Y01562301
X00815501
Y01552301
Y01542301
X00805501
Y01552301
Y01562301
Y01572301
X00815501
X00825501
Y01582301
X00815501
X00805501
X00795501
Y01572301
Y01562301
Y01552301
Y01542301
X00915501
Y01552301
Y01562301
X00925501
Y01552301
Y01542301
X00935501
X00945501
Y01552301
X00935501
Y01562301
X00945501
X00955501
X00965501
Y01552301
Y01542301
X00955501
Y01552301
Y01532301
X00965501
X00975501
Y01542301
Y01552301
Y01562301
Y01572301
Y01582301
X00965501
X00955501
Y01572301
X00965501
X00945501
X00935501
Y01582301
X00945501
X00925501
Y01572301
X00915501
Y01582301
Y01532301
X00925501
X00935501
X00945501
Y01522301
X00935501
Y01512301
X00945501
X00955501
X00965501
Y01522301
X00955501
X00975501
Y01512301
Y01502301
X00965501
X00955501
X00945501
X00935501
X00925501
Y01512301
Y01522301
X00915501
Y01512301
Y01502301
X00785501
Y01512301
Y01522301
X00775501
Y01512301
X00765501
Y01522301
X00755501
Y01512301
Y01502301
X00765501
X00775501
X00745501
Y01512301
Y01522301
X00735501
Y01512301
X00725501
Y01522301
X00715501
Y01512301
Y01502301
X00725501
X00735501
X00705501
Y01512301
Y01522301
X00695501
Y01512301
X00685501
Y01522301
Y01532301
Y01542301
Y01552301
Y01562301
Y01572301
Y01582301
X00695501
X00705501
X00715501
X00725501
X00735501
X00745501
X00755501
X00765501
X00775501
X00785501
Y01572301
Y01562301
Y01552301
Y01542301
Y01532301
X00775501
X00765501
Y01542301
Y01552301
X00775501
Y01542301
Y01562301
X00765501
Y01572301
X00775501
X00755501
Y01562301
Y01552301
Y01542301
Y01532301
X00745501
Y01542301
Y01552301
Y01562301
Y01572301
X00735501
X00725501
Y01562301
X00735501
Y01552301
Y01542301
X00725501
Y01552301
X00715501
Y01542301
Y01532301
X00725501
X00735501
X00705501
Y01542301
Y01552301
Y01562301
X00715501
Y01572301
X00705501
X00695501
Y01562301
Y01552301
Y01542301
Y01532301
Y01502301
X00685501
X00655501
Y01512301
Y01522301
X00645501
Y01512301
X00635501
Y01522301
X00625501
X00615501
Y01512301
X00625501
Y01502301
X00615501
X00605501
Y01512301
Y01522301
X00595501
Y01512301
Y01502301
X00585501
Y01512301
Y01522301
X00575501
Y01512301
Y01502301
X00565501
Y01512301
Y01522301
X00555501
Y01512301
X00545501
Y01522301
X00535501
Y01512301
Y01502301
X00545501
X00555501
X00525501
Y01512301
Y01522301
X00515501
Y01512301
Y01502301
X00505501
X00495501
Y01512301
X00505501
Y01522301
X00495501
X00485501
Y01512301
Y01502301
X00475501
Y01512301
Y01522301
X00465501
Y01512301
Y01502301
X00455501
X00445501
Y01512301
X00455501
Y01522301
X00445501
X00435501
Y01512301
Y01502301
X00425501
Y01512301
Y01522301
X00415501
Y01512301
X00405501
Y01522301
Y01532301
X00415501
X00425501
X00435501
X00445501
X00455501
X00465501
X00475501
X00485501
X00495501
X00505501
X00515501
X00525501
X00535501
X00545501
X00555501
X00565501
X00575501
X00585501
Y01542301
Y01552301
Y01562301
Y01572301
Y01582301
X00575501
Y01572301
Y01562301
Y01552301
Y01542301
X00565501
Y01552301
Y01562301
Y01572301
Y01582301
X00555501
X00545501
Y01572301
X00555501
Y01562301
Y01552301
Y01542301
X00545501
Y01552301
Y01562301
X00535501
Y01552301
Y01542301
X00525501
Y01552301
Y01562301
Y01572301
X00535501
Y01582301
X00525501
X00515501
Y01572301
Y01562301
Y01552301
Y01542301
X00505501
Y01552301
Y01562301
X00495501
Y01552301
Y01542301
X00485501
Y01552301
Y01562301
Y01572301
X00495501
X00505501
Y01582301
X00495501
X00485501
X00475501
Y01572301
Y01562301
Y01552301
Y01542301
X00465501
Y01552301
Y01562301
Y01572301
Y01582301
X00455501
X00445501
Y01572301
X00455501
Y01562301
Y01552301
Y01542301
X00445501
Y01552301
Y01562301
X00435501
Y01552301
Y01542301
X00425501
Y01552301
Y01562301
Y01572301
X00435501
Y01582301
X00425501
X00415501
X00405501
Y01572301
X00415501
Y01562301
Y01552301
Y01542301
X00405501
Y01552301
Y01562301
Y01502301
X00415501
X00595501Y01532301
X00605501
X00615501
X00625501
X00635501
X00645501
X00655501
Y01542301
Y01552301
Y01562301
Y01572301
Y01582301
X00645501
X00635501
Y01572301
X00645501
Y01562301
Y01552301
Y01542301
X00635501
Y01552301
Y01562301
X00625501
X00615501
Y01552301
X00625501
Y01542301
X00615501
X00605501
Y01552301
Y01562301
Y01572301
X00615501
X00625501
Y01582301
X00615501
X00605501
X00595501
Y01572301
Y01562301
Y01552301
Y01542301
X00635501Y01502301
X00645501
X00395501
Y01512301
Y01522301
X00385501
Y01512301
Y01502301
X00375501
Y01512301
Y01522301
X00365501
Y01512301
Y01502301
Y01532301
X00375501
X00385501
X00395501
Y01542301
Y01552301
Y01562301
Y01572301
Y01582301
X00385501
Y01572301
Y01562301
Y01552301
Y01542301
X00375501
Y01552301
Y01562301
Y01572301
Y01582301
X00365501
Y01572301
Y01562301
Y01552301
Y01542301
Y01592301
X00375501
X00385501
X00395501
Y01752301
Y01762301
Y01772301
X00385501
Y01762301
Y01752301
X00375501
Y01762301
Y01772301
X00365501
Y01762301
Y01752301
Y01782301
X00375501
X00385501
X00395501
Y01792301
Y01802301
Y01812301
Y01822301
Y01832301
Y01842301
X00385501
Y01832301
Y01822301
Y01812301
Y01802301
Y01792301
X00375501
Y01802301
Y01812301
Y01822301
Y01832301
Y01842301
X00365501
Y01832301
Y01822301
Y01812301
Y01802301
Y01792301
X00405501
Y01802301
X00415501
Y01792301
X00425501
Y01802301
Y01812301
X00435501
Y01802301
Y01792301
X00445501
Y01802301
X00455501
Y01792301
X00465501
Y01802301
Y01812301
X00475501
Y01802301
Y01792301
X00485501
Y01802301
Y01812301
X00495501
X00505501
Y01802301
Y01792301
X00495501
Y01802301
Y01782301
X00505501
X00515501
X00525501
X00535501
X00545501
X00555501
X00565501
X00575501
X00585501
Y01792301
Y01802301
Y01812301
Y01822301
Y01832301
Y01842301
X00575501
Y01832301
Y01822301
Y01812301
Y01802301
Y01792301
X00565501
Y01802301
Y01812301
Y01822301
Y01832301
Y01842301
X00555501
X00545501
Y01832301
X00555501
Y01822301
X00545501
Y01812301
X00555501
Y01802301
Y01792301
X00545501
Y01802301
X00535501
Y01792301
X00525501
Y01802301
Y01812301
X00535501
Y01822301
Y01832301
Y01842301
X00525501
Y01832301
Y01822301
X00515501
Y01812301
Y01802301
Y01792301
Y01772301
Y01762301
X00525501
Y01772301
X00535501
Y01762301
X00545501
X00555501
Y01772301
X00545501
X00565501
Y01762301
X00575501
Y01772301
X00585501
Y01762301
Y01752301
X00575501
X00565501
X00555501
X00545501
X00535501
X00525501
X00515501
X00505501
X00495501
Y01762301
X00505501
Y01772301
X00495501
X00485501
Y01762301
Y01752301
X00475501
Y01762301
Y01772301
X00465501
Y01762301
Y01752301
X00455501
X00445501
Y01762301
X00455501
Y01772301
X00445501
X00435501
Y01762301
Y01752301
X00425501
Y01762301
Y01772301
X00415501
Y01762301
X00405501
Y01772301
Y01782301
X00415501
X00425501
X00435501
X00445501
X00455501
X00465501
X00475501
X00485501
Y01822301
X00495501
X00505501
Y01832301
X00495501
Y01842301
X00505501
X00515501
Y01832301
X00485501
Y01842301
X00475501
Y01832301
Y01822301
X00465501
Y01832301
Y01842301
X00455501
X00445501
Y01832301
X00455501
Y01822301
X00445501
Y01812301
X00455501
X00435501Y01822301
Y01832301
Y01842301
X00425501
Y01832301
Y01822301
X00415501
X00405501
Y01812301
X00415501
Y01832301
X00405501
Y01842301
X00415501
Y01752301
X00405501
Y01592301
X00415501
X00425501
X00435501
X00445501
X00455501
X00465501
X00475501
X00485501
X00495501
X00505501
X00515501
X00525501
X00535501
X00545501
X00555501
X00565501
X00575501
X00585501
X00595501
X00605501
X00615501
X00625501
X00635501
X00645501
X00655501
X00685501
X00695501
X00705501
X00715501
X00725501
X00735501
X00745501
X00755501
X00765501
X00775501
X00785501
Y01752301
Y01762301
Y01772301
X00775501
Y01762301
X00765501
Y01772301
X00755501
Y01762301
Y01752301
X00765501
X00775501
X00745501
Y01762301
Y01772301
X00735501
Y01762301
X00725501
Y01772301
X00715501
Y01762301
Y01752301
X00725501
X00735501
X00705501
Y01762301
Y01772301
X00695501
Y01762301
Y01752301
X00685501
Y01762301
Y01772301
Y01782301
X00695501
X00705501
X00715501
X00725501
X00735501
X00745501
X00755501
X00765501
X00775501
X00785501
Y01792301
Y01802301
Y01812301
Y01822301
Y01832301
Y01842301
X00775501
X00765501
Y01832301
X00775501
Y01822301
X00765501
Y01812301
X00775501
Y01802301
Y01792301
X00765501
Y01802301
X00755501
Y01792301
X00745501
Y01802301
Y01812301
X00755501
Y01822301
Y01832301
Y01842301
X00745501
Y01832301
Y01822301
X00735501
X00725501
Y01812301
X00735501
Y01802301
Y01792301
X00725501
Y01802301
X00715501
Y01792301
X00705501
Y01802301
Y01812301
X00715501
Y01822301
Y01832301
X00725501
X00735501
Y01842301
X00725501
X00715501
X00705501
Y01832301
Y01822301
X00695501
Y01812301
Y01802301
Y01792301
X00685501
Y01802301
Y01812301
Y01822301
Y01832301
X00695501
Y01842301
X00685501
X00655501
Y01832301
Y01822301
Y01812301
Y01802301
Y01792301
Y01782301
X00645501
X00635501
Y01792301
Y01802301
X00645501
Y01792301
Y01812301
X00635501
Y01822301
X00645501
Y01832301
X00635501
Y01842301
X00645501
X00625501
X00615501
Y01832301
X00625501
Y01822301
X00615501
Y01812301
X00625501
Y01802301
X00615501
Y01792301
X00625501
Y01782301
X00615501
X00605501
Y01792301
Y01802301
Y01812301
Y01822301
Y01832301
Y01842301
X00595501
Y01832301
Y01822301
Y01812301
Y01802301
Y01792301
Y01782301
Y01772301
Y01762301
X00605501
Y01772301
X00615501
X00625501
Y01762301
X00615501
Y01752301
X00625501
X00635501
X00645501
X00655501
Y01762301
Y01772301
X00645501
Y01762301
X00635501
Y01772301
X00605501Y01752301
X00595501
X00795501
X00805501
X00815501
X00825501
X00835501
X00845501
X00855501
X00865501
X00875501
X00885501
X00895501
X00905501
Y01762301
Y01772301
X00895501
Y01762301
X00885501
Y01772301
X00875501
Y01762301
X00865501
Y01772301
X00855501
Y01762301
X00845501
Y01772301
X00835501
Y01762301
X00825501
Y01772301
X00815501
Y01762301
X00805501
Y01772301
X00795501
Y01762301
Y01782301
X00805501
X00815501
X00825501
X00835501
X00845501
X00855501
X00865501
X00875501
X00885501
X00895501
X00905501
Y01792301
Y01802301
Y01812301
Y01822301
Y01832301
Y01842301
X00895501
Y01832301
Y01822301
Y01812301
Y01802301
Y01792301
X00885501
Y01802301
Y01812301
Y01822301
Y01832301
Y01842301
X00875501
X00865501
Y01832301
X00875501
Y01822301
X00865501
Y01812301
X00875501
Y01802301
Y01792301
X00865501
Y01802301
X00855501
Y01792301
X00845501
Y01802301
Y01812301
X00855501
Y01822301
Y01832301
Y01842301
X00845501
Y01832301
Y01822301
X00835501
Y01812301
Y01802301
Y01792301
X00825501
Y01802301
Y01812301
X00815501
Y01802301
Y01792301
X00805501
Y01802301
Y01812301
Y01822301
X00815501
X00825501
Y01832301
X00815501
Y01842301
X00825501
X00835501
Y01832301
X00805501
Y01842301
X00795501
Y01832301
Y01822301
Y01812301
Y01802301
Y01792301
X00915501
Y01802301
Y01812301
X00925501
Y01802301
Y01792301
X00935501
X00945501
Y01802301
X00935501
Y01812301
X00945501
X00955501
X00965501
Y01802301
Y01792301
X00955501
Y01802301
Y01782301
X00965501
X00975501
Y01792301
Y01802301
Y01812301
Y01822301
Y01832301
Y01842301
X00965501
X00955501
Y01832301
X00965501
Y01822301
X00955501
X00945501
X00935501
Y01832301
X00945501
Y01842301
X00935501
X00925501
Y01832301
Y01822301
X00915501
Y01832301
Y01842301
Y01782301
X00925501
X00935501
X00945501
Y01772301
X00935501
Y01762301
X00945501
X00955501
X00965501
Y01772301
X00955501
X00975501
Y01762301
Y01752301
X00965501
X00955501
X00945501
X00935501
X00925501
Y01762301
Y01772301
X00915501
Y01762301
Y01752301
Y01592301
X00925501
X00935501
X00945501
X00955501
X00965501
X00975501
X00905501
X00895501
X00885501
X00875501
X00865501
X00855501
X00845501
X00835501
X00825501
X00815501
X00805501
X00795501
T02
X0026543Y00276606
X00279146Y00277368
X00292862Y00277114
X00307594Y0027686
X0032258
X00335788Y00277622
X0034925Y00277114
X00362712Y00277368
X00377444
X00390652
X00384556Y00298958
X00370332Y00297942
X00355854Y00297688
X00342646Y00297942
X00329438Y00297688
X00315722Y00297942
X0030099Y00297688
X00286766Y00297434
X00272542Y00297942
X00279654Y00316738
X00293878Y003175
X00308102Y00317246
X00322072
X00336042Y00317754
X0034925Y0031623
X0036322Y003175
X00377698Y00316992
X00391733Y00316521
X00384302Y00337058
X00370332Y00337566
X00356108Y0033655
X00342646Y00336804
X0032893
X0031496Y00337312
X00300736
X00286512
X0027305Y00337566
X0026543Y00317754
X00405384Y003175
X004191
X0043307
X00446786Y00316992
X0046101Y00317754
X0047498
X00489204Y00317246
X00503174
X00516636Y00317754
X00531114
X005461Y003175
X0056007Y00316992
X00573024Y00317754
X00586486Y003175
X00600456Y00316992
X00614934Y00318008
X00629158Y00317246
X00643382Y00317754
X00657352Y00318008
X0067183Y0031623
X00686562
X00700532Y00315976
X0071501Y00315722
X00728726Y0031623
X00742696Y00315976
X00756158
X00769366Y0031623
X00784352Y00316738
X00791464Y0033528
X00776986Y00336042
X00762508Y00335788
X00749808Y0033528
X007366Y00335788
X00722376Y0033528
X00707898
X0069342Y00335534
X0067945Y00336042
X0065024Y00337058
X0063627Y00336804
X00622554Y0033655
X00608076Y00337312
X00593598Y00337058
X00580136Y00337312
X00566674Y00337566
X00554025Y00336127
X00538734Y00335788
X00524146Y0033666
X00510286Y0033782
X00496062Y00337312
X00481584Y00338074
X00467106Y00337058
X00453898
X0044069Y00337566
X0042545Y00337312
X00411734
X00397764Y00337058
X00398526Y00297942
X00411734
X00425704Y00296672
X00440436Y00297688
X00453898Y00296418
X00468122Y00296926
X004826Y00297434
X00496316
X00510032
X00523748Y00296672
X00538226Y00296164
X00553212Y00296672
X0056642Y00296926
X00579882
X00593344Y00296418
X00608076Y00297688
X00621792Y00296672
X00637032Y00297434
X00650494
X00664464Y0029845
X0067945Y0029718
X00693674Y00296672
X00707898Y00297434
X00721614Y0029718
X00736346Y00297942
X00749554Y00297434
X00763016Y00296926
X0077724
X00791718Y0029718
X00784606Y0027686
X00770128Y00276606
X00756666Y0027686
X00743204Y00276098
X0072898Y0027686
X00714756Y00277114
X0070104Y00276098
X00686816Y00276606
X00672084Y00277114
X00657352Y00276606
X00643636Y00277368
X00629158Y00277876
X00615442Y00277114
X0060071
X00585724Y00277368
X00571754Y0027686
X00559308Y00277368
X00545338Y0027686
X00530606Y00277114
X00516636
X0050292
X00489712
X00474726Y00277622
X00460756Y0027686
X0044704Y00277876
X00432816Y00277114
X00419354
X00404876
X00798576Y00277368
X00812038Y00277114
X00825754Y00277368
X00839724
X00853694Y00276352
X00867664Y00276606
X0088138Y0027686
X00896366Y00277368
X00910336Y00276352
X00924052Y00277876
X00937514Y00277114
X00951992
X00966978Y00277876
X00979678Y00277622
X00993394
X01007872Y00277114
X01021842Y00277622
X01036066Y00277876
X01049782Y00277622
X01063498
X01057402Y00296672
X01043686Y00296418
X01028446Y0029718
X01016018Y00296815
X01001014Y00296672
X0098679
X0097282Y0029718
X00959866Y00297434
X00945388
X00930402Y00296672
X00917448Y00297688
X0090297Y00297434
X00888746Y0029718
X00874522Y00296672
X0086106Y00296418
X0084709Y00296926
X0083312Y00296672
X00818896Y00297688
X00805434
X00798322Y00316484
X00812292Y00316738
X00826008Y0031623
X00839724Y00315976
X00854456Y00316992
X00867664Y00315468
X00881634Y00315722
X00896874Y00316484
X00909828Y00316738
X00924052Y00316484
X00937768
X00953516
X00966978Y00316992
X00979678Y00316484
X00993394Y00316992
X0100838Y00316738
X01022096Y00316992
X01036066Y00316738
X01049528
X01063625Y00317119
X01056894Y00335788
X01042797Y00335915
X01029208Y0033655
X01015492Y00335534
X0100076Y00336296
X00987044Y00336804
X00973582Y0033655
X00960374
X00945388Y00334137
X00931164Y00335788
X0091715Y00335998
X00902708Y00335018
X00888746Y0033528
X00874776
X00861314Y00335788
X0084709Y00336296
X00832612
X00818896Y00335026
X0080518
X0107188Y00297434
X01003554Y00419862
X01003808Y0042672
X01007872Y0050165
X01022604Y00500888
X01019049Y00516827
X01033273Y00516573
X01047243Y00517335
X01061467Y00517589
X01075183Y00516827
X01068579Y00540703
X01054609
X01040639Y00540195
X01026669
X01012699Y00540449
X00998729Y00539687
X00984505Y00540195
X00971043
X00956819Y00540449
X00942595Y00540957
X00929387Y00540449
X00915417
X00900431Y00540703
X00885953Y00539941
X00872491Y00539687
X00858521Y00540195
X00844043Y00539941
X00830327Y00540195
X00816357Y00539687
X00802641Y00539941
X00796291Y00557975
X00810007Y00559245
X00823723Y00558483
X00837439
X00851663Y00558737
X00864871
X00878841
X00893065Y00558483
X00908051Y00558991
X00921513Y00557721
X00935483
X00948818Y00557975
X00963931Y00557721
X00977901Y00558737
X00991363Y00558483
X01005333Y00558229
X01019684Y00559118
X01033019Y00558483
X01047751Y00558229
X0106134Y00558102
X01075183Y00558229
X01082549Y00540703
X01083057Y00580073
X01068325Y00580835
X01054355Y00580581
X01040639Y00580073
X01026542Y00580454
X01012953Y00579311
X00998221Y00579819
X00984505
X00970535Y00580073
X00956819Y00579311
X00942849Y00579819
X00929387
X00914909Y00580073
X00900685Y00580581
X00886207Y00579819
X00872491Y00580327
X00859029Y00579819
X00844805Y00580073
X00830073Y00579057
X00816484Y00579565
X00802895Y00579819
X00796037Y00517335
X00809753Y00516573
X00823723Y00517081
X00837185
X00851409
X00865379Y00517589
X00878841Y00517335
X00893065Y00517843
X00908051Y00517335
X00921513Y00516573
X00935229Y00517335
X00949199
X00963677Y00516573
X00977393
X00976884Y00504698
X00991363Y00516573
X01004825Y00516319
X00923798Y0050165
X00921512Y00766572
X0090805Y00767334
X00893064Y00767842
X0087884Y00767334
X00865378Y00767588
X00851408Y0076708
X00837184
X00823722
X00809752Y00766572
X00796036Y00767334
X0080264Y0078994
X00816356Y00789686
X00830326Y00790194
X00844042Y0078994
X0085852Y00790194
X0087249Y00789686
X00885952Y0078994
X0090043Y00790702
X00915416Y00790448
X00929386
X00942594Y00790956
X00956818Y00790448
X00971042Y00790194
X00984504
X00998728Y00789686
X01012698Y00790448
X01026668Y00790194
X01040638
X01054608Y00790702
X01068578
X01082548
X01075182Y00766826
X01061466Y00767588
X01047242Y00767334
X01033272Y00766572
X01019048Y00766826
X01004824Y00766318
X00991362Y00766572
X00977392
X00963676
X00949198Y00767334
X00935228
X00968756Y00751078
X0098171Y00750824
X0102235Y00682244
X01023366Y00673608
X00788163Y00579565
X00774447Y00579819
X00761112Y00580073
X00748031Y00579311
X00733553Y00579565
X00719202Y00579946
X00705105Y00580073
X00690881Y00580327
X00670561Y00578295
X00655575Y00579057
X00642113Y00578549
X00627889Y00579057
X00613919Y00579311
X00599949Y00578549
X00585471Y00579311
X00572263
X00557531Y00579057
X00544069Y00579311
X00529845Y00579057
X00516129
X00502159Y00579311
X00487935Y00578803
X00473711
X00459995
X00445771Y00579057
X00431293Y00579565
X00417577Y00579057
X00404115Y00579311
X00411227Y00557721
X00424689Y00557213
X00438913Y00557467
X00452883Y00557721
X00466599Y00557213
X00480823
X00495047Y00556705
X00509017Y00557467
X00522987Y00556959
X00536703
X00551181Y00557213
X00565405Y00556959
X00578867Y00557721
X00592329Y00556959
X00606807Y00557213
X00621031Y00557797
X00634747Y00557213
X00649225Y00556705
X00662941Y00557213
X00683769Y00558483
X00698501
X00712217
X00726695Y00558229
X00740665Y00558737
X00754381Y00558483
X00767589Y00558737
X00781305Y00558483
X00788671Y00540449
X00773939Y00539179
X00760985Y00539687
X00747523
X00733807Y00539941
X00719329Y00540195
X00705105Y00540703
X00691389Y00539687
X00670053Y00539179
X00655575
X00641859
X00627889Y00539433
X00614427Y00539687
X00599949Y00539433
X00585979Y00539179
X00571755
X00558547Y00538671
X00543815Y00538925
X00529591
X00515875Y00539179
X00501905
X00487681
X00473203
X00459995
X00445771
X00431293Y00539433
X00417831Y00538925
X00404115
X00397003Y00557467
Y00515811
X00410719Y00516065
X00424689
X00438659
X00452883Y00515303
X00466599Y00515811
X00480569Y00515557
X00494793Y00515811
X00509017
X00522987Y00515557
X00536195Y00515303
X00550927Y00515049
X00564643Y00516065
X00578613
X00592583Y00516319
X00606807Y00516065
X00621031Y00515811
X00634493Y00516065
X00648717
X00662687Y00516319
X00683769Y00517335
X00698501Y00517589
X00712725Y00517081
X00726441Y00517121
X00740665Y00517843
X00754127Y00516827
X00767589Y00517081
X00781051Y00517335
X00669545Y00499809
X00669544Y00749808
X00662686Y00766318
X00648716Y00766064
X00634492
X0062103Y0076581
X00606806Y00766064
X00592582Y00766318
X00578612Y00766064
X00564642
X00550926Y00765048
X00536194Y00765302
X00522986Y00765556
X00509016Y0076581
X00494792
X00480568Y00765556
X00466598Y0076581
X00465836Y00752602
X00452882Y00765302
X00438658Y00766064
X00424688
X00410718
X00397002Y0076581
X00404114Y00788924
X0041783
X00431292Y00789432
X0044577Y00789178
X00459994
X00473202
X0048768
X00501904
X00515874
X0052959Y00788924
X00543814
X00558546Y0078867
X00571754Y00789178
X00585978
X00599948Y00789432
X00614426Y00789686
X00627888Y00789432
X00641858Y00789178
X00655574
X00670052
X00691388Y00789686
X00705104Y00790702
X00719328Y00790194
X00733806Y0078994
X00747522Y00789686
X00760984
X00773938Y00789178
X0078867Y00790448
X0078105Y00767334
X00767588Y0076708
X00754126Y00766826
X00740664Y00767842
X0072644Y0076712
X00712724Y0076708
X006985Y00767588
X00683768Y00767334
X0038354Y00766064
X00368808Y0076581
X003683Y00756158
X00381254Y0075184
X00355092Y0076581
X00341884Y00766064
X00328168
X00314198Y00766318
X0029972
X00285496Y00766064
X00271018
X002794Y00787654
X002921Y00787908
X00306832Y00788924
X00321056Y00789178
X00335026
X00348234Y0078867
X00361696Y00789432
X0037592Y0078867
X00390398
X00338582Y00691896
X00339344Y0068326
X00337312Y00666496
X00335027Y00579311
X00348235Y00579057
X00361697Y00579565
X00375921Y00579057
X00390399
X00383541Y00557467
X00368809
X00354839Y00556959
X00341885Y00557467
X00328169
X00313945Y00557721
X00299721Y00557213
X00285497
X00271019
X00279401Y00537655
X00292101Y00537909
X00306833Y00538925
X00321057Y00539179
X00335027
X00348235Y00538671
X00361697Y00539433
X00375921Y00538671
X00390399
X00383541Y00516065
X00381254Y0050419
X00367538
X00368809Y00515811
X00355093
X00341885Y00516065
X00328169
X00314199Y00516319
X00299721
X00285497Y00516065
X00271019
X00278639Y00579057
X00292355
X00306833
X00321565Y00579311
X00328168Y00807466
X00341884
X00354838Y00806958
X00368808Y00807466
X0038354
X00390398Y00829056
X0037592
X00361696Y00829564
X00348234Y00829056
X00335026Y0082931
X00321564
X00306832Y00829056
X00292354
X00278638
X00285496Y00847344
X00271272Y0084836
X00278638Y0086868
X00292354Y00867918
X00306578Y00868426
X00321056Y0086868
X00334772Y00868172
X00348742Y00868934
X00361696Y0086868
X00376174Y00868172
X00390398Y00868426
X0038354Y00887984
X00368808Y0088773
X00355092
X00341376Y00887222
X00328168Y0088773
X00313944Y00887476
X0029972Y00887984
X0028575Y0088773
X00271272Y00887984
X00278638Y00907542
X002921Y00907034
X00306832Y00907288
X00320548Y00907542
X00335026
X00348742
X00362204Y00907288
X00375666
X00390144Y00907034
X00383286Y00848868
X00368554Y00849376
X00355092Y00849122
X00341884Y00848868
X00327914Y00848614
X00314198
X0029972Y0084836
Y00807212
X00285496
X00271018
X00313944Y0080772
X00397002Y00807466
X00411226Y0080772
X00424688Y00807212
X00438912Y00807466
X00452882Y0080772
X00466598Y00807212
X00480822
X00495046Y00806704
X00509016Y00807466
X00522986Y00806958
X00536702
X0055118Y00807212
X00565404Y00806958
X00578866Y0080772
X00592328Y00806958
X00606806Y00807212
X0062103Y00807795
X00634746Y00807212
X00649224Y00806704
X0066294Y00807212
X00683768Y00808482
X006985
X00712216
X00726694Y00808228
X00740664Y00808736
X0075438Y00808482
X00767588Y00808736
X00781304Y00808482
X00788162Y00829564
X00774446Y00829818
X00761111Y00830072
X0074803Y0082931
X00733552Y00829564
X00719201Y00829945
X00705104Y00830072
X0069088Y00830326
X0067056Y00828294
X00655574Y00829056
X00642112Y00828548
X00627888Y00829056
X00613918Y0082931
X00599948Y00828548
X0058547Y0082931
X00572262
X0055753Y00829056
X00544068Y0082931
X00529844Y00829056
X00516128
X00502158Y0082931
X00487934Y00828802
X0047371
X00459994
X0044577Y00829056
X00431292Y00829564
X00417576Y00829056
X00404114Y0082931
X00410845Y00848741
X00424688Y00848868
X00437896Y0084836
X00452882Y00849376
X00466598Y00848868
X00480568
X00494792Y00848614
X00509016
X00522986
X00536448Y00848868
X00550418
X00565404
X0057912Y00849122
X0059182Y00848614
X00606806Y00848868
X00620776Y0084836
X00635
X00649224Y00848614
X00662686
X00683768Y00850138
X00697992Y0084963
X00712216
X00726948
X0074041Y00849884
X0075438Y00849122
X00767588Y00849376
X00781558Y00849122
X0078867Y00869188
X007747Y00869696
X00761492Y0086995
X00747776Y00869188
X00733806Y00868934
X00719328Y00869442
X00705104Y00869696
X00691134Y00869188
X00670306Y00867918
X00655828Y0086868
X00642112Y00868934
X00627888Y00868172
X00614172Y0086868
X00599694Y00868934
X0058547Y0086868
X00572008
X005588Y00868172
X00544068
X0052959Y00868426
X00515874
X00501904Y00868934
X00488188Y0086868
X00473456Y00868426
X00459994Y00867156
X00446278Y0086868
X00431546Y00867918
X00418084
X00404114Y00868426
X00397256Y0088773
X00410718Y00887984
X00424688Y00888238
X0043815Y0088773
X0045212
X00466344Y00887476
X00480568Y0088773
X00495046Y00887222
X00509016Y00887476
X00522732Y0088773
X00536194
X00551942Y00887476
X00565658Y00887222
X00578358Y00887476
X0059182Y0088773
X00606806Y00887476
X00620522Y0088773
X00634746Y00887222
X0064897Y00887984
X0066294Y00887603
X00683006Y00889254
X00698373Y00889381
X00712216Y00889254
X00726948
X00741172Y00889508
X00754634Y00889762
X00767842Y00889
X00781558Y00889508
X00788416Y00908304
X00774192Y00908812
X00760476Y0090932
X00747522Y00908812
X00733806Y00909066
X00719582Y00908558
X00704596
X00691642Y00908812
X00655828Y00907542
X00642112Y00907034
X00628142Y00907542
X00613918Y00907796
X00599694Y00907288
X00585724Y00906526
X00572516Y00907034
X00559054Y00907542
X00544068Y0090678
X00529844Y00907288
X00516001Y00907669
X0050165Y00907542
X00487934
X00473456
X0045974Y00907288
X0044577Y00906526
X00431292Y00907288
X00417576Y00907034
X0040386Y00907288
X00397002Y00849122
X0079629Y00850138
X00810006Y00849122
X0082296Y00849376
X0083693
X00851408Y00849884
X00865632Y00849122
X00879348Y00850138
X00893318Y00849884
X00907796Y00850138
X00921639Y00850011
X00935228Y0084963
X00948944
X00963676Y00849884
X00978281Y00849503
X00991108Y00849122
X01004824Y00848868
X01019048Y00850392
X01033272Y00849376
X0104775Y0084963
X0106172Y00850138
X01075182Y00849376
X01068324Y00830834
X01054354Y0083058
X01040638Y00830072
X01026541Y00830453
X01012952Y0082931
X0099822Y00829818
X00984504
X00970534Y00830072
X00956818Y0082931
X00942848Y00829818
X00929386
X00914908Y00830072
X00900684Y0083058
X00886206Y00829818
X0087249Y00830326
X00859028Y00829818
X00844804Y00830072
X00830072Y00829056
X00816483Y00829564
X00802894Y00829818
X00810006Y00809244
X00823722Y00808482
X00837438
X00851662Y00808736
X0086487
X0087884
X00893064Y00808482
X0090805Y0080899
X00921512Y0080772
X00935482
X00948817Y00807974
X0096393Y0080772
X009779Y00808736
X00991362Y00808482
X01005332Y00808228
X01019683Y00809117
X01033018Y00808482
X0104775Y00808228
X01061339Y00808101
X01075182Y00808228
X01083056Y00830072
X01082548Y00869696
X01068578Y00869442
X01054608
X01040892
X01026414Y00868934
X0101219Y00869442
X00997966Y0086995
X00984758Y00869188
X00970407Y00869823
X00956818Y00868934
X0094234Y00869188
X00929132Y0086995
X00914654Y00869442
X00900176Y00869188
X00886206Y00869442
X00872236Y00869188
X00858266Y00869442
X00844042Y0086995
X00830834Y00869696
X00816864Y0086995
X00803148Y00868934
X00796798Y00889
X0081026Y00888746
X00824484Y00889
X00837692
X00851154Y00889508
X00865886Y00889
X00879094
X00893064Y00888746
X00907288
X00921766Y00889254
X00935228
X00949452Y00888746
X0096393Y0088773
X009779Y00888746
X00991235Y00889127
X01004824Y00889254
X01019302
X01033526
X01047496Y00889
X01061466
X01075182
X01068578Y0090805
X01054354Y00908304
X01040892Y0090805
X01026668Y00908558
X01011682Y0090805
X00997966Y00908304
X00985012Y00909066
X0097155Y00908558
X00957072Y00908304
X00942848
X00928878Y0090805
X009144Y00908304
X00900557Y00908177
X00885952Y00908304
X0087249Y00908558
X0085852Y00908812
X00844042
X0083058Y0090805
X00816356Y00908558
X0080264Y00908304
X0079629Y00807974
X00803933Y01300821
X00818157Y01300313
X00832Y01299932
X00846351Y01300059
X00860067
X00874545
X00888261Y01300313
X00902231Y01301075
X00916709Y01300313
X00930425Y01300567
X00944141Y01300313
X00957857Y01300567
X00972335Y01300313
X00985797
X00999259Y01300059
X01012975
X01027453
X01041169Y01300313
X01055901Y01300567
X01069363Y01300059
X01076729Y01319617
X01062251Y01319871
X01048281Y01319617
X01034057Y01320125
X01019833Y01319871
X01006625Y01320379
X00992909Y01319871
X00979193
X00964461Y01319617
X00950745Y01319871
X00937283Y01319617
X00923313Y01319363
X00909851Y01319871
X00895881
X00881657Y01320125
X00867433Y01319871
X00852955Y01320379
X00838985Y01320125
X00825269Y01319871
X00811807
X00796059Y01320125
X00803933Y01339429
X00818411Y01339175
X00832127
X00846097Y01338667
X00859813Y01338921
X00874545Y01339175
X00888007Y01340445
X00901723Y01338921
X00916455Y01339683
X00929917
X00943887Y01339175
X00957603
X00971827Y01339429
X00986305Y01338921
X00999259Y01338667
X01013229Y01339429
X01026945Y01338921
X01041423Y01339175
X01055647Y01339683
X01069363Y01338921
X01076729Y01359241
X01062505Y01360257
X01048281Y01359241
X01033803Y01358987
X01020087
X01006117Y01358733
X00992909Y01358479
X00979447Y01358225
X00964715Y01358733
X00950999Y01358479
X00937156Y0135886
X00923313Y01358733
X00910105Y01359241
X00895119Y01358225
X00881403Y01358733
X00867433
X00853209Y01358987
X00838985
X00825015
X00811553Y01358733
X00797583
X00803933Y01378291
X00818157Y01378545
X00831873
X00845843Y01378291
X00860067Y01378799
X00874291
X00888007
X00902231Y01378545
X00916709Y01378037
X00930425Y01378545
X00943887Y01378291
X00957603Y01378545
X00972081
X00986305Y01378037
X00999767Y01378545
X01012975Y01378291
X01026437
X01041169Y01378545
X01055647
X01069363
X01062505Y01400389
X01048281
X01034057Y01399881
X01019833Y01400135
X01006117
X00993163Y01400643
X00979193Y01400135
X00964461
X00950999
X00936775Y01399881
X00923313Y01400389
X00909089Y01400135
X00895119Y01399881
X00881403Y01400389
X00867179
X00852955Y01400897
X00838985Y01400135
X00825015Y01400643
X00811299
X00796821Y01400389
X00804187Y01418677
X00818411
X00832127Y01418423
X00846097
X00860321
X00874799
X00888007
X00902231
X00916709Y01418169
X00930171Y01418677
X00943887
X00957603Y01418931
X00972081
X00986305Y01418169
X00999767Y01418931
X01012975Y01418423
X01026945
X01041169Y01418677
X01055901Y01419693
X01068601Y01419947
X01062505Y01441537
X01048281Y01441283
X01033803
X01019833Y01441537
X01006117
X00992909Y01441791
X00979193
X00980948Y01453642
X0096647Y01452626
X00964461Y01441537
X00950999Y01441791
X00937283Y01441537
X00923313
X00909343
X00895119Y01442299
X00894334Y01453134
X00881403Y01441791
X00867433Y01442045
X00853209Y01441791
X00838985
X00825015Y01442045
X00811807Y01442299
X00797075Y01442553
X01076983Y01441537
Y01400389
X0102235Y01515364
X01021334Y01526286
X0102108Y01545844
X00783359Y01441537
X00769389
X00755419Y01441283
X00741195Y01441537
X00726971Y01441791
X00713509Y01441537
X00699285
X00685315Y01441283
X0066548Y01441196
X00649501Y01440013
X00635277Y01440521
X00621561Y01440482
X00607337Y01439759
X00593875Y01440775
X00580413Y01440521
X00566951Y01440267
X00551965
X00538249Y01441029
X00524279Y01440521
X00510817
X00496593
X00482623Y01440013
X00469161Y01440267
X00454937Y01439759
X00439951Y01440267
X00426489Y01441029
X00412773Y01440267
X00398803
X00405407Y01416645
X00418615Y01417153
X00432585
X00447571Y01416899
X00462049Y01417661
X00475511Y01417915
X00489481Y01417407
X00503959Y01417661
X00517675Y01417407
X00531645Y01417915
X00545361Y01417661
X00559331Y01417153
X00574063Y01418423
X00587017Y01417915
X00600479
X00614195Y01417661
X00628673Y01417407
X00642897Y01416899
X00656613Y01417915
X00677949Y01418423
X00692427
X00706143
X00720113Y01418169
X00733575Y01417915
X00748053Y01418169
X00762023Y01418423
X00776247
X00789455Y01418931
X00782597Y01400643
X00769135Y01399881
X00755673Y01400643
X00741195Y01400389
X00726971Y01399806
X00713255Y01400389
X00698777Y01400897
X00685061Y01400389
X00665988Y01398778
X00649501Y01399119
X00635785
X00621307Y01399373
X00607337Y01398865
X00593621Y01399119
X00580413Y01398865
X00566697Y01399119
X00551711Y01399627
X00537995Y01398357
X00524279Y01399119
X00510563
X00496339Y01398865
X00483131
X00469161
X00454937Y01399119
X00439951Y01398611
X00426489Y01399881
X00412519
X00399184Y01399627
X00405153Y01377783
X00418615
X00433093Y01377529
X00447317Y01377021
X00461795Y01377783
X00475511Y01377275
X00488973Y01377783
X00503197Y01377529
X00517929Y01378545
X00531518Y01378037
X00545107Y01377783
X00559839Y01378037
X00573555Y01377783
X0058689Y01377529
X00599971Y01378291
X00614449Y01378037
X006288Y01377656
X00642897Y01377529
X00657121Y01377275
X00677418Y0137922
X00692427Y01378545
X00705889Y01379053
X00720113Y01378545
X00734083Y01378291
X00748053Y01379053
X00762531Y01378291
X00775739
X00790471Y01378545
X00782597Y01358733
X00768881Y01358479
X00756181Y01358987
X00741195Y01358733
X00727225Y01359241
X00713001
X00698777Y01358987
X00685315
X00665734Y01359662
X00650009Y01357971
X00635785
X00621053
X00607591Y01357717
X00593621Y01358479
X00580413Y01358225
X00566443Y01358479
X00551711Y01357463
X00537995Y01358479
X00525041Y01358225
X00511071
X00496593Y01357717
X00482369Y01358479
X00468653Y01357463
X00454683Y01357717
X00440205Y01357463
X00426362Y0135759
X00412773Y01357971
X00399057
X00405661Y01338413
X00418869Y01337651
X00433347Y01338159
X00447825Y01338413
X00461795Y01338159
X00475765Y01338413
X00489735Y01338159
X00503959Y01337651
X00517167Y01337905
X00531137Y01337651
X00544853Y01338667
X00559331Y01338413
X00573301Y01337905
X00586509Y01337651
X00600225Y01338413
X00614195Y01338667
X00628673Y01338159
X00642897Y01337905
X00656867Y01338413
X00677695Y01339683
X00692173Y01338921
X00705889Y01338667
X00720113Y01339429
X00733829Y01338921
X00748307Y01338667
X00762531Y01338921
X00775993
X00789201Y01339429
X00782343Y01320379
X00769643Y01320125
X00756181Y01319871
X00741195Y01320125
X00727479Y01319871
X00713255Y01320379
X00699031Y01319617
X00685061Y01319998
X00664995Y01318347
X00649628Y0131822
X00635785Y01318347
X00621053
X00606829Y01318093
X00593367Y01317839
X00580159Y01318601
X00566443Y01318093
X00551203Y01318601
X00537741Y01318855
X00523517Y01318601
X00510309
X00496847Y01318093
X00482115Y01318601
X00468907
X00454937Y01318855
X00440713
X00426235Y01318347
X00412773
X00398549Y01318855
X00405153Y01299297
X00419123Y01299551
X00433601Y01299297
X00447444Y01299424
X00462049Y01299297
X00475511Y01299043
X00489481Y01298789
X00503959
X00517421Y01299551
X00531645Y01299043
X00545361Y01299297
X00559585
X00573809Y01298789
X00587525Y01298281
X00600479Y01298789
X00614195Y01298535
X00628419Y01299043
X00643405
X00656359Y01298789
X00692173Y01300059
X00705889Y01300567
X00719859Y01300059
X00734083Y01299805
X00748307Y01300313
X00762277Y01301075
X00775485Y01300567
X00788947Y01300059
X00678457Y01457793
X00384325Y01441029
X00370609
X00356639
X00343177Y01441283
X00328953Y01440775
X00314729Y01441029
X00300759Y01440267
X00286535Y01440013
X00272819Y01440775
X00279423Y01416899
X00265453
X00272819Y01399373
X00286662Y013995
X00300251Y01399373
X00314983Y01399119
X00328318Y01398484
X00342669Y01399373
X00356639Y01399119
X00370101Y01398865
X00384071Y01399881
X00391183Y01417153
X00376959Y01417407
X00363497
X00349273Y01417915
X00335303Y01417153
X00321333Y01417407
X00307363
X00293393Y01416899
X00293647Y01377021
X00279677Y01376767
X00264945Y01377529
X00272819Y01358225
X00286281Y01357463
X00300251Y01357971
X00314729Y01358225
X00328953Y01357209
X00343177Y01358733
X00356893Y01358479
X0036972Y01358098
X00384325Y01357717
X00391183Y01338667
X00377594Y01337778
X00363243Y01338413
X00350035Y01337651
X00335811Y01338159
X00321587Y01338667
X00307109Y01338159
X00293393
X00279423
X00265453Y01337905
X00272819Y01318601
X00286535
X00300505
X00314475Y01318347
X00328699
X00343177
X00356766Y01318474
X00370101Y01318855
X00384071Y01319871
X00390929Y01299297
X00376451Y01299043
X00362989Y01298535
X00350035Y01299297
X00336319Y01299551
X00321333Y01299043
X00307109Y01299551
X00293647Y01299297
X00279423Y01299551
X00307363Y01377529
X0032146Y01377148
X00335049Y01378291
X00349781Y01377783
X00363497
X00377467Y01377529
X00391183Y01378291
X00363728Y01457452
X00349758Y0145669
X00332232Y0152654
X00332994Y0153543
X00335049Y01628291
X0032146Y01627148
X00307363Y01627529
X00293647Y01627021
X00279677Y01626767
X00264945Y01627529
X00272819Y01649373
X00286662Y016495
X00300251Y01649373
X00314983Y01649119
X00328318Y01648484
X00342669Y01649373
X00356639Y01649119
X00370101Y01648865
X00384071Y01649881
X00391183Y01667153
X00376959Y01667407
X00363497
X00349273Y01667915
X00335303Y01667153
X00321333Y01667407
X00307363
X00293393Y01666899
X00279423
X00265453
X00272819Y01690775
X00286535Y01690013
X00300759Y01690267
X00314729Y01691029
X00328953Y01690775
X00343177Y01691283
X00356639Y01691029
X00370609
X00384325
X00363474Y01707388
X00350266Y01707642
X00349781Y01627783
X00363497
X00377467Y01627529
X00391183Y01628291
X0033782Y01777746
Y01786636
X00332509Y01872069
X00318793Y01871053
X00305204Y01871688
X00291107Y01871815
X00284376Y01890484
X00298473Y01890865
X00311935
X00325905Y01890611
X00339621Y01890865
X00354607Y01890611
X00368323Y01891119
X00381023Y01890611
X00394485Y01891119
X00388135Y01910169
X00375181Y01910423
X00361211Y01910931
X00346987
X00331983Y01910788
X00319555Y01910423
X00304315Y01911185
X00290599Y01910931
X00276121Y01910169
X00284503Y01929981
X00298219
X00311935Y01929727
X00326159Y01929981
X00340129Y01930489
X00354607Y01929981
X00368323
X00381023Y01929727
X00396009Y01930489
X00387627Y01871053
X00374419
X00360957Y01870799
X00347241Y01871307
X00402613Y01873466
X00416837Y01871815
X00430851Y01871605
X00445293Y01872585
X00459255Y01872323
X00473225
X00486687Y01871815
X00500911Y01871307
X00515389
X00529105Y01872577
X00542821
X00556537Y01872323
X00571015Y01871561
X00585493Y01871815
X00598193Y01872323
X00611401Y01871815
X00625625Y01872323
X00640103
X00654581Y01872069
X00668551Y01871561
X00676021Y01890865
X00661439Y01891373
X00647469Y01891627
X00632991Y01891881
X00619275Y01891373
X00605305Y01891627
X00591843
X00578635Y01891373
X00563649Y01890865
X00549679Y01891119
X00535709Y01890865
X00521993Y01891373
X00508277Y01891627
X00493545Y01890611
X00480337Y01892135
X00466367Y01891881
X00451127Y01891119
X00438173Y01890865
X00423949Y01891119
X00410233
X00402613Y01910169
X00417599Y01910931
X00430553Y01909915
X00445031Y01910169
X00459255Y01910423
X00473479Y01910931
X00486941Y01911185
X00500911Y01910677
X00514881Y01910931
X00529105Y01909915
X00542567
X00556283Y01910423
X00570761Y01910677
X00584985
X00598447Y01910169
X00611655Y01909661
X00626387Y01910423
X00640103Y01910169
X00654327Y01910931
X00668551Y01910423
X00683895Y01909153
X00697507Y01910169
X00710969
X00726209Y01910931
X00739925Y01909915
X00754657Y01911185
X00768119Y01910677
X00781581
X00776247Y01930743
X00788693Y01930235
X00762277
X00747291Y01930489
X00732559
X00718843Y01929727
X00704365Y01930235
X0069088Y01931416
X00675917Y01930489
X00661185Y01930997
X00646961Y01931505
X00633245Y01930489
X00619021Y01930743
X00604797Y01931505
X00591335Y01930743
X00577873Y01930997
X00563395Y01930743
X00549425Y01930235
X00535963Y01930489
X00522247Y01930235
X00508277
X00494307Y01931251
X00480337Y01930997
X00466621Y01930743
X00451635Y01930235
X00437665Y01931251
X00423949Y01929727
X00410487Y01930489
X00412773Y01690267
X00398803
X00426489Y01691029
X00439951Y01690267
X00454937Y01689759
X00469161Y01690267
X00482623Y01690013
X00496593Y01690521
X00510817
X00524279
X00538249Y01691029
X00551965Y01690267
X00566951
X00580413Y01690521
X00593875Y01690775
X00607337Y01689759
X00621561Y01690482
X00635277Y01690521
X00649501Y01690013
X00664233Y01690267
X00685315Y01691283
X00699285Y01691537
X00713509
X00726971Y01691791
X00741195Y01691537
X00755419Y01691283
X00769389Y01691537
X00783359
X00789455Y01668931
X00776247Y01668423
X00762023
X00748053Y01668169
X00733575Y01667915
X00720113Y01668169
X00706143Y01668423
X00692427
X00677949
X00656613Y01667915
X00642897Y01666899
X00628673Y01667407
X00614195Y01667661
X00600479Y01667915
X00587017
X00574063Y01668423
X00559331Y01667153
X00545361Y01667661
X00531645Y01667915
X00517675Y01667407
X00503959Y01667661
X00489481Y01667407
X00475511Y01667915
X00462049Y01667661
X00447571Y01666899
X00432585Y01667153
X00418615
X00405407Y01666645
X00399184Y01649627
X00412519Y01649881
X00426489
X00439951Y01648611
X00454937Y01649119
X00469161Y01648865
X00483131
X00496339
X00510563Y01649119
X00524279
X00537995Y01648357
X00551711Y01649627
X00566697Y01649119
X00580413Y01648865
X00593621Y01649119
X00607337Y01648865
X00621307Y01649373
X00635785Y01649119
X00649501
X00664233
X00685061Y01650389
X00698777Y01650897
X00713255Y01650389
X00726971Y01649806
X00741195Y01650389
X00755673Y01650643
X00769135Y01649881
X00782597Y01650643
X00775739Y01628291
X00762531
X00748053Y01629053
X00734083Y01628291
X00720113Y01628545
X00705889Y01629053
X00692427Y01628545
X00677441Y01629307
X00657121Y01627275
X00642897Y01627529
X006288Y01627656
X00614449Y01628037
X00599971Y01628291
X0058689Y01627529
X00573555Y01627783
X00559839Y01628037
X00545107Y01627783
X00531518Y01628037
X00517929Y01628545
X00503197Y01627529
X00488973Y01627783
X00475511Y01627275
X00461795Y01627783
X00447317Y01627021
X00433093Y01627529
X00418615Y01627783
X00405153
X00678457Y01707793
X00697761Y01870545
X00711731Y01870799
X00725447Y01871053
X00739925Y01870291
X00754403Y01870545
X00767865Y01870291
X00781327Y01870037
X00774977Y01889849
X00787931Y01890611
X00761515Y01890103
X00747545Y01890611
X00733067Y01889595
X00718843Y01890357
X00704619Y01889849
X00690649Y01889595
X00790471Y01628545
X00803933Y01628291
X00818157Y01628545
X00831873
X00845843Y01628291
X00860067Y01628799
X00874291
X00888007
X00902231Y01628545
X00916709Y01628037
X00930425Y01628545
X00943887Y01628291
X00957603Y01628545
X00972081
X00986305Y01628037
X00999767Y01628545
X01012975Y01628291
X01026437
X01041169Y01628545
X01055647
X01069363
X01062505Y01650389
X01048281
X01034057Y01649881
X01019833Y01650135
X01006117
X00993163Y01650643
X00979193Y01650135
X00964461
X00950999
X00936775Y01649881
X00923313Y01650389
X00909089Y01650135
X00895119Y01649881
X00881403Y01650389
X00867179
X00852955Y01650897
X00838985Y01650135
X00825015Y01650643
X00811299
X00796821Y01650389
X00804187Y01668677
X00818411
X00832127Y01668423
X00846097
X00860321
X00874799
X00888007
X00902231
X00916709Y01668169
X00930171Y01668677
X00943887
X00957603Y01668931
X00972081
X00986305Y01668169
X00999767Y01668931
X01012975Y01668423
X01026945
X01041169Y01668677
X01055901Y01669693
X01068601Y01669947
X01062505Y01691537
X01076983
X01048281Y01691283
X01033803
X01019833Y01691537
X01006117
X00992909Y01691791
X00993394Y0170307
X00986536Y01708912
X00979193Y01691791
X00964461Y01691537
X00950999Y01691791
X00937283Y01691537
X00923313
X00909343
X00895119Y01692299
X00894334Y01702054
X00881403Y01691791
X00867433Y01692045
X00853209Y01691791
X00838985
X00825015Y01692045
X00811807Y01692299
X00797075Y01692553
X00793976Y01871476
X00809267Y01871815
X00823855Y01870943
X00837715Y01869783
X00851939Y01870291
X00866417Y01869529
X00880895Y01870545
X00894103
X00907311Y01870037
X00922551Y01870291
X00936267
X00950237Y01870545
X00963699
X00977669Y01870037
X00991893Y01871053
X01005355Y01870799
X01019071
X01033041Y01870291
X01047265
X01061489
X01074951Y01870037
X01082571Y01889849
X01068347Y01890865
X01054123Y01890103
X01039899Y01890357
X01025929
X01011959Y01889849
X00998751Y01891373
X00984781Y01890103
X00970303Y01890611
X00956268Y01891082
X00942617Y01890103
X00928901
X00914931
X00901215Y01890611
X00886991Y01889849
X00873021
X00858797Y01890357
X00844827
X00831365Y01889849
X00816887
X00801901Y01890103
X00794789Y01910931
X00809775Y01911439
X00824253Y01910931
X00837969Y01910169
X00851685
X00865401
X00879879Y01910677
X00894103Y01911185
X00907565Y01909915
X00922297Y01910931
X00936267Y01909661
X00949475
X00963445Y01908645
X00977669Y01909661
X00992147Y01909915
X01005355Y01909661
X01018563Y01909915
X01032279Y01909661
X01047011Y01909915
X01061235Y01910169
X01075459Y01909661
X01068855Y01930235
X01055139Y01930489
X01040407Y01930743
X01025421
X01012213Y01929981
X00998751Y01930489
X00985289Y01930235
X00970557
X00957349
X00943125Y01930489
X00928647
X00915185
X00900961Y01929727
X00887245Y01930743
X00873275Y01929981
X00858289Y01930489
X00845081
X00831365
X00817395
X00802663Y01930743
X01082294Y01930908
X01012952Y01796542
X01012722Y01777214
X0101346Y0176784
X01076983Y01650389
T03
X00254Y00381
X01016
X01143
X012065Y00762
X01143Y00635
X01016
X00254
Y00889
X003175Y01016
X00381Y01143
X00254
X00508
X00635
X00762
X006985Y01016
X005715
X004445
X008255
X009525
X010795
X01143Y01143
X01016
X00889
X012065Y01016
Y01524
X010795
X01143Y01397
X010795Y0127
X009525
X008255
X006985
X005715
X004445
X003175
X00254Y01397
Y01651
X003175Y01778
X010795
X012065
M30
