%TF.GenerationSoftware,Altium Limited,Altium Designer,26.2.0 (7)*%
G04 Layer_Color=0*
%FSLAX45Y45*%
%MOMM*%
%TF.SameCoordinates,308F974B-A3E2-4051-A376-383C510F139A*%
%TF.FilePolarity,Positive*%
%TF.FileFunction,Profile,NP*%
%TF.Part,Single*%
G01*
G75*
%TA.AperFunction,Profile*%
%ADD25C,0.02540*%
G36*
X12129977Y18397678D02*
X12122439Y18409676D01*
X12115585Y18422076D01*
X12109437Y18434840D01*
X12104015Y18447932D01*
X12099335Y18461307D01*
X12095413Y18474921D01*
X12092260Y18488734D01*
X12089887Y18502702D01*
X12088300Y18516783D01*
X12087506Y18530930D01*
Y18545099D01*
X12088300Y18559245D01*
X12089887Y18573325D01*
X12092260Y18587294D01*
X12095413Y18601108D01*
X12099335Y18614723D01*
X12104015Y18628098D01*
X12109437Y18641187D01*
X12115585Y18653954D01*
X12122439Y18666354D01*
X12129977Y18678351D01*
X12138176Y18689906D01*
X12147011Y18700984D01*
X12156452Y18711549D01*
X12166471Y18721568D01*
X12177036Y18731010D01*
X12188114Y18739844D01*
X12199669Y18748042D01*
X12211666Y18755582D01*
X12224067Y18762434D01*
X12236833Y18768584D01*
X12249923Y18774005D01*
X12263297Y18778685D01*
X12276912Y18782607D01*
X12290726Y18785760D01*
X12304695Y18788133D01*
X12318774Y18789720D01*
X12332921Y18790514D01*
X12347090D01*
X12361237Y18789720D01*
X12375317Y18788133D01*
X12389285Y18785760D01*
X12403099Y18782607D01*
X12416714Y18778685D01*
X12430088Y18774005D01*
X12443179Y18768584D01*
X12455944Y18762434D01*
X12468345Y18755582D01*
X12480342Y18748042D01*
X12491898Y18739844D01*
X12502976Y18731010D01*
X12513541Y18721568D01*
X12523560Y18711549D01*
X12533001Y18700984D01*
X12541835Y18689906D01*
X12550035Y18678351D01*
X12557573Y18666354D01*
X12564427Y18653954D01*
X12570574Y18641187D01*
X12575996Y18628098D01*
X12580676Y18614723D01*
X12584599Y18601108D01*
X12587751Y18587294D01*
X12590125Y18573325D01*
X12591711Y18559245D01*
X12592506Y18545099D01*
Y18530930D01*
X12591711Y18516783D01*
X12590125Y18502702D01*
X12587751Y18488734D01*
X12584599Y18474921D01*
X12580676Y18461307D01*
X12575996Y18447932D01*
X12570574Y18434840D01*
X12564427Y18422076D01*
X12557573Y18409676D01*
X12550035Y18397678D01*
X12541835Y18386122D01*
X12533001Y18375044D01*
X12523560Y18364479D01*
X12513541Y18354460D01*
X12502976Y18345020D01*
X12491898Y18336185D01*
X12480342Y18327985D01*
X12468345Y18320447D01*
X12455944Y18313593D01*
X12443179Y18307446D01*
X12430088Y18302023D01*
X12416714Y18297343D01*
X12403099Y18293420D01*
X12389285Y18290269D01*
X12375317Y18287895D01*
X12361237Y18286308D01*
X12347090Y18285513D01*
X12332921D01*
X12318774Y18286308D01*
X12304695Y18287895D01*
X12290726Y18290269D01*
X12276912Y18293420D01*
X12263297Y18297343D01*
X12249923Y18302023D01*
X12236833Y18307446D01*
X12224067Y18313593D01*
X12211666Y18320447D01*
X12199669Y18327985D01*
X12188114Y18336185D01*
X12177036Y18345020D01*
X12166471Y18354460D01*
X12156452Y18364479D01*
X12147011Y18375044D01*
X12138176Y18386122D01*
X12129977Y18397678D01*
D02*
G37*
G36*
X12122439Y18409676D02*
X12115585Y18422076D01*
X12109437Y18434840D01*
X12104015Y18447932D01*
X12099335Y18461307D01*
X12095413Y18474921D01*
X12092260Y18488734D01*
X12089887Y18502702D01*
X12088300Y18516783D01*
X12087506Y18530930D01*
Y18545099D01*
X12088300Y18559245D01*
X12089887Y18573325D01*
X12092260Y18587294D01*
X12095413Y18601108D01*
X12099335Y18614723D01*
X12104015Y18628098D01*
X12109437Y18641187D01*
X12115585Y18653954D01*
X12122439Y18666354D01*
X12129977Y18678351D01*
X12138176Y18689906D01*
X12147011Y18700984D01*
X12156452Y18711549D01*
X12166471Y18721568D01*
X12177036Y18731010D01*
X12188114Y18739844D01*
X12199669Y18748042D01*
X12211666Y18755582D01*
X12224067Y18762434D01*
X12236833Y18768584D01*
X12249923Y18774005D01*
X12263297Y18778685D01*
X12276912Y18782607D01*
X12290726Y18785760D01*
X12304695Y18788133D01*
X12318774Y18789720D01*
X12332921Y18790514D01*
X12347090D01*
X12361237Y18789720D01*
X12375317Y18788133D01*
X12389285Y18785760D01*
X12403099Y18782607D01*
X12416714Y18778685D01*
X12430088Y18774005D01*
X12443179Y18768584D01*
X12455944Y18762434D01*
X12468345Y18755582D01*
X12480342Y18748042D01*
X12491898Y18739844D01*
X12502976Y18731010D01*
X12513541Y18721568D01*
X12523560Y18711549D01*
X12533001Y18700984D01*
X12541835Y18689906D01*
X12550035Y18678351D01*
X12557573Y18666354D01*
X12564427Y18653954D01*
X12570574Y18641187D01*
X12575996Y18628098D01*
X12580676Y18614723D01*
X12584599Y18601108D01*
X12587751Y18587294D01*
X12590125Y18573325D01*
X12591711Y18559245D01*
X12592506Y18545099D01*
Y18530930D01*
X12591711Y18516783D01*
X12590125Y18502702D01*
X12587751Y18488734D01*
X12584599Y18474921D01*
X12580676Y18461307D01*
X12575996Y18447932D01*
X12570574Y18434840D01*
X12564427Y18422076D01*
X12557573Y18409676D01*
X12550035Y18397678D01*
X12541835Y18386122D01*
X12533001Y18375044D01*
X12523560Y18364479D01*
X12513541Y18354460D01*
X12502976Y18345020D01*
X12491898Y18336185D01*
X12480342Y18327985D01*
X12468345Y18320447D01*
X12455944Y18313593D01*
X12443179Y18307446D01*
X12430088Y18302023D01*
X12416714Y18297343D01*
X12403099Y18293420D01*
X12389285Y18290269D01*
X12375317Y18287895D01*
X12361237Y18286308D01*
X12347090Y18285513D01*
X12332921D01*
X12318774Y18286308D01*
X12304695Y18287895D01*
X12290726Y18290269D01*
X12276912Y18293420D01*
X12263297Y18297343D01*
X12249923Y18302023D01*
X12236833Y18307446D01*
X12224067Y18313593D01*
X12211666Y18320447D01*
X12199669Y18327985D01*
X12188114Y18336185D01*
X12177036Y18345020D01*
X12166471Y18354460D01*
X12156452Y18364479D01*
X12147011Y18375044D01*
X12138176Y18386122D01*
X12129977Y18397678D01*
X12122439Y18409676D01*
D02*
G37*
G36*
X12121334Y3311764D02*
X12133170Y3293186D01*
X12146579Y3275710D01*
X12161461Y3259470D01*
X12177702Y3244588D01*
X12195178Y3231178D01*
X12213756Y3219343D01*
X12233295Y3209171D01*
X12253646Y3200742D01*
X12274654Y3194118D01*
X12296160Y3189350D01*
X12317999Y3186475D01*
X12340006Y3185514D01*
X12362013Y3186475D01*
X12383852Y3189350D01*
X12405358Y3194118D01*
X12426366Y3200742D01*
X12446717Y3209171D01*
X12466256Y3219343D01*
X12484834Y3231178D01*
X12502310Y3244588D01*
X12518550Y3259470D01*
X12533432Y3275710D01*
X12546842Y3293186D01*
X12558677Y3311764D01*
X12568849Y3331303D01*
X12577278Y3351654D01*
X12583902Y3372662D01*
X12588670Y3394168D01*
X12591545Y3416007D01*
X12592506Y3438014D01*
Y3638014D01*
X12591545Y3660021D01*
X12588670Y3681861D01*
X12583902Y3703366D01*
X12577278Y3724374D01*
X12568849Y3744726D01*
X12558677Y3764264D01*
X12546842Y3782842D01*
X12533432Y3800318D01*
X12518550Y3816559D01*
X12502310Y3831440D01*
X12484834Y3844850D01*
X12466256Y3856686D01*
X12446717Y3866857D01*
X12426366Y3875287D01*
X12405358Y3881910D01*
X12383852Y3886678D01*
X12362013Y3889553D01*
X12340006Y3890514D01*
X12317999Y3889553D01*
X12296160Y3886678D01*
X12274654Y3881910D01*
X12253646Y3875287D01*
X12233295Y3866857D01*
X12213756Y3856686D01*
X12195178Y3844850D01*
X12177702Y3831440D01*
X12161461Y3816559D01*
X12146579Y3800318D01*
X12133170Y3782842D01*
X12121334Y3764264D01*
X12111163Y3744726D01*
X12102733Y3724374D01*
X12096109Y3703366D01*
X12091342Y3681861D01*
X12088467Y3660021D01*
X12087506Y3638014D01*
Y3438014D01*
X12088467Y3416007D01*
X12091342Y3394168D01*
X12096109Y3372662D01*
X12102733Y3351654D01*
X12111163Y3331303D01*
X12121334Y3311764D01*
D02*
G37*
D25*
X2394260Y2665941D02*
X2380198Y2688014D01*
X2368114Y2711229D01*
X2358098Y2735408D01*
X2350228Y2760369D01*
X2344564Y2785920D01*
X2341147Y2811867D01*
X2340006Y2838014D01*
Y19238014D01*
X2341147Y19264162D01*
X2344564Y19290108D01*
X2350228Y19315660D01*
X2358098Y19340620D01*
X2368114Y19364799D01*
X2380198Y19388014D01*
X2394260Y19410088D01*
X2410192Y19430850D01*
X2427873Y19450146D01*
X2447170Y19467828D01*
X2467933Y19483760D01*
X2490006Y19497823D01*
X2513220Y19509906D01*
X2537400Y19519922D01*
X2562360Y19527792D01*
X2587911Y19533456D01*
X2613859Y19536873D01*
X2640006Y19538014D01*
X12740006D01*
X12766153Y19536873D01*
X12792100Y19533456D01*
X12817651Y19527792D01*
X12842612Y19519922D01*
X12866791Y19509906D01*
X12890005Y19497823D01*
X12912079Y19483760D01*
X12932841Y19467828D01*
X12952138Y19450146D01*
X12969820Y19430850D01*
X12985751Y19410088D01*
X12999812Y19388014D01*
X13011897Y19364799D01*
X13021915Y19340620D01*
X13029784Y19315660D01*
X13035448Y19290108D01*
X13038864Y19264162D01*
X13040005Y19238014D01*
Y2838014D01*
X13038864Y2811867D01*
X13035448Y2785920D01*
X13029784Y2760369D01*
X13021915Y2735408D01*
X13011897Y2711229D01*
X12999812Y2688014D01*
X12985751Y2665941D01*
X12969820Y2645178D01*
X12952138Y2625882D01*
X12932841Y2608201D01*
X12912079Y2592269D01*
X12890005Y2578207D01*
X12866791Y2566122D01*
X12842612Y2556106D01*
X12817651Y2548236D01*
X12792100Y2542572D01*
X12766153Y2539156D01*
X12740006Y2538014D01*
X2640006D01*
X2613859Y2539156D01*
X2587911Y2542572D01*
X2562360Y2548236D01*
X2537400Y2556106D01*
X2513220Y2566122D01*
X2490006Y2578207D01*
X2467933Y2592269D01*
X2447170Y2608201D01*
X2427873Y2625882D01*
X2410192Y2645178D01*
X2394260Y2665941D01*
%TF.MD5,a04e1b10f76a1007a7e7a0f6c9599b6b*%
M02*
