%TF.GenerationSoftware,Altium Limited,Altium Designer,26.2.0 (7)*%
G04 Layer_Color=8388736*
%FSLAX45Y45*%
%MOMM*%
%TF.SameCoordinates,308F974B-A3E2-4051-A376-383C510F139A*%
%TF.FilePolarity,Negative*%
%TF.FileFunction,Soldermask,Top*%
%TF.Part,Single*%
G01*
G75*
%TA.AperFunction,SMDPad,CuDef*%
%ADD21R,10.21080X6.40080*%
%ADD22R,0.65080X0.56080*%
%ADD23R,0.56080X0.65080*%
%TA.AperFunction,ViaPad*%
%ADD24C,0.71120*%
G36*
X12347162Y18793066D02*
X12347234Y18793073D01*
X12361381Y18792278D01*
X12361451Y18792264D01*
X12361524Y18792265D01*
X12375604Y18790678D01*
X12375675Y18790662D01*
X12375746Y18790659D01*
X12389714Y18788286D01*
X12389784Y18788264D01*
X12389855Y18788257D01*
X12403669Y18785104D01*
X12403736Y18785080D01*
X12403808Y18785069D01*
X12417423Y18781146D01*
X12417490Y18781117D01*
X12417560Y18781104D01*
X12430934Y18776424D01*
X12430999Y18776390D01*
X12431069Y18776372D01*
X12444159Y18770950D01*
X12444221Y18770914D01*
X12444290Y18770891D01*
X12457056Y18764743D01*
X12457116Y18764703D01*
X12457183Y18764677D01*
X12469584Y18757823D01*
X12469642Y18757780D01*
X12469708Y18757750D01*
X12481705Y18750212D01*
X12481761Y18750166D01*
X12481825Y18750133D01*
X12493380Y18741933D01*
X12493433Y18741884D01*
X12493495Y18741847D01*
X12504573Y18733012D01*
X12504623Y18732961D01*
X12504683Y18732919D01*
X12515248Y18723479D01*
X12515295Y18723424D01*
X12515352Y18723380D01*
X12525371Y18713361D01*
X12525415Y18713304D01*
X12525470Y18713255D01*
X12534911Y18702692D01*
X12534952Y18702631D01*
X12535004Y18702582D01*
X12543839Y18691504D01*
X12543876Y18691441D01*
X12543925Y18691389D01*
X12552124Y18679832D01*
X12552158Y18679768D01*
X12552204Y18679713D01*
X12559742Y18667717D01*
X12559772Y18667651D01*
X12559815Y18667593D01*
X12566669Y18655193D01*
X12566695Y18655125D01*
X12566735Y18655064D01*
X12572882Y18642299D01*
X12572905Y18642230D01*
X12572941Y18642168D01*
X12578363Y18629077D01*
X12578382Y18629007D01*
X12578415Y18628943D01*
X12583094Y18615569D01*
X12583109Y18615498D01*
X12583138Y18615433D01*
X12587060Y18601817D01*
X12587071Y18601746D01*
X12587096Y18601678D01*
X12590249Y18587865D01*
X12590256Y18587791D01*
X12590277Y18587723D01*
X12592650Y18573753D01*
X12592653Y18573683D01*
X12592671Y18573611D01*
X12594257Y18559532D01*
X12594256Y18559459D01*
X12594269Y18559389D01*
X12595063Y18545242D01*
X12595058Y18545171D01*
X12595068Y18545099D01*
Y18530930D01*
X12595058Y18530858D01*
X12595063Y18530786D01*
X12594269Y18516640D01*
X12594256Y18516570D01*
X12594257Y18516496D01*
X12592671Y18502415D01*
X12592653Y18502345D01*
X12592650Y18502274D01*
X12590277Y18488306D01*
X12590255Y18488235D01*
X12590249Y18488164D01*
X12587096Y18474352D01*
X12587071Y18474284D01*
X12587060Y18474213D01*
X12583138Y18460597D01*
X12583109Y18460530D01*
X12583094Y18460460D01*
X12578415Y18447086D01*
X12578382Y18447021D01*
X12578363Y18446951D01*
X12572941Y18433861D01*
X12572905Y18433800D01*
X12572882Y18433730D01*
X12566735Y18420964D01*
X12566695Y18420903D01*
X12566669Y18420836D01*
X12559815Y18408437D01*
X12559772Y18408379D01*
X12559742Y18408311D01*
X12552204Y18396315D01*
X12552158Y18396259D01*
X12552124Y18396194D01*
X12543925Y18384641D01*
X12543876Y18384587D01*
X12543838Y18384525D01*
X12535004Y18373447D01*
X12534952Y18373396D01*
X12534911Y18373337D01*
X12525470Y18362772D01*
X12525415Y18362724D01*
X12525371Y18362668D01*
X12515352Y18352649D01*
X12515295Y18352605D01*
X12515248Y18352550D01*
X12504683Y18343109D01*
X12504623Y18343068D01*
X12504573Y18343016D01*
X12493495Y18334183D01*
X12493433Y18334145D01*
X12493380Y18334094D01*
X12481825Y18325896D01*
X12481760Y18325862D01*
X12481705Y18325816D01*
X12469708Y18318279D01*
X12469642Y18318248D01*
X12469584Y18318205D01*
X12457183Y18311351D01*
X12457115Y18311324D01*
X12457056Y18311285D01*
X12444290Y18305138D01*
X12444221Y18305115D01*
X12444159Y18305080D01*
X12431069Y18299657D01*
X12430999Y18299638D01*
X12430934Y18299606D01*
X12417561Y18294926D01*
X12417490Y18294911D01*
X12417423Y18294882D01*
X12403808Y18290961D01*
X12403736Y18290948D01*
X12403669Y18290924D01*
X12389856Y18287772D01*
X12389783Y18287764D01*
X12389715Y18287743D01*
X12375746Y18285370D01*
X12375674Y18285367D01*
X12375603Y18285349D01*
X12361524Y18283763D01*
X12361451Y18283765D01*
X12361381Y18283751D01*
X12347234Y18282956D01*
X12347162Y18282962D01*
X12347090Y18282951D01*
X12332921D01*
X12332850Y18282962D01*
X12332778Y18282956D01*
X12318631Y18283751D01*
X12318560Y18283765D01*
X12318488Y18283763D01*
X12304408Y18285349D01*
X12304337Y18285367D01*
X12304265Y18285370D01*
X12290297Y18287743D01*
X12290227Y18287766D01*
X12290156Y18287772D01*
X12276342Y18290924D01*
X12276275Y18290948D01*
X12276203Y18290961D01*
X12262588Y18294882D01*
X12262522Y18294911D01*
X12262451Y18294926D01*
X12249077Y18299606D01*
X12249013Y18299638D01*
X12248943Y18299657D01*
X12235853Y18305080D01*
X12235790Y18305115D01*
X12235722Y18305138D01*
X12222956Y18311285D01*
X12222895Y18311325D01*
X12222828Y18311351D01*
X12210427Y18318205D01*
X12210369Y18318248D01*
X12210303Y18318279D01*
X12198306Y18325816D01*
X12198251Y18325862D01*
X12198187Y18325896D01*
X12186631Y18334094D01*
X12186578Y18334145D01*
X12186516Y18334183D01*
X12175438Y18343016D01*
X12175389Y18343068D01*
X12175329Y18343109D01*
X12164764Y18352550D01*
X12164716Y18352605D01*
X12164659Y18352649D01*
X12154640Y18362668D01*
X12154596Y18362724D01*
X12154541Y18362772D01*
X12145100Y18373337D01*
X12145059Y18373396D01*
X12145008Y18373447D01*
X12136173Y18384525D01*
X12136136Y18384587D01*
X12136087Y18384641D01*
X12127888Y18396194D01*
X12127854Y18396260D01*
X12127808Y18396315D01*
X12120270Y18408311D01*
X12120239Y18408379D01*
X12120197Y18408437D01*
X12113343Y18420836D01*
X12113316Y18420905D01*
X12113277Y18420964D01*
X12107129Y18433730D01*
X12107107Y18433800D01*
X12107071Y18433861D01*
X12101648Y18446951D01*
X12101630Y18447021D01*
X12101597Y18447086D01*
X12096917Y18460460D01*
X12096903Y18460530D01*
X12096874Y18460597D01*
X12092951Y18474213D01*
X12092940Y18474284D01*
X12092915Y18474352D01*
X12089762Y18488164D01*
X12089756Y18488235D01*
X12089734Y18488306D01*
X12087361Y18502274D01*
X12087358Y18502345D01*
X12087341Y18502417D01*
X12085754Y18516496D01*
X12085756Y18516570D01*
X12085742Y18516640D01*
X12084948Y18530786D01*
X12084953Y18530858D01*
X12084944Y18530930D01*
Y18545099D01*
X12084953Y18545171D01*
X12084948Y18545242D01*
X12085742Y18559389D01*
X12085756Y18559460D01*
X12085754Y18559532D01*
X12087341Y18573611D01*
X12087358Y18573682D01*
X12087361Y18573753D01*
X12089734Y18587723D01*
X12089756Y18587793D01*
X12089762Y18587865D01*
X12092915Y18601678D01*
X12092941Y18601746D01*
X12092951Y18601817D01*
X12096874Y18615433D01*
X12096903Y18615498D01*
X12096917Y18615569D01*
X12101597Y18628943D01*
X12101630Y18629007D01*
X12101648Y18629077D01*
X12107071Y18642168D01*
X12107107Y18642230D01*
X12107129Y18642299D01*
X12113277Y18655064D01*
X12113316Y18655125D01*
X12113343Y18655193D01*
X12120197Y18667593D01*
X12120239Y18667651D01*
X12120270Y18667717D01*
X12127808Y18679713D01*
X12127854Y18679768D01*
X12127888Y18679832D01*
X12136087Y18691389D01*
X12136136Y18691441D01*
X12136173Y18691504D01*
X12145008Y18702582D01*
X12145059Y18702631D01*
X12145100Y18702692D01*
X12154541Y18713255D01*
X12154596Y18713304D01*
X12154640Y18713361D01*
X12164659Y18723380D01*
X12164716Y18723424D01*
X12164764Y18723479D01*
X12175329Y18732919D01*
X12175389Y18732961D01*
X12175438Y18733012D01*
X12186516Y18741847D01*
X12186578Y18741884D01*
X12186631Y18741933D01*
X12198187Y18750133D01*
X12198251Y18750166D01*
X12198306Y18750212D01*
X12210303Y18757750D01*
X12210369Y18757780D01*
X12210427Y18757823D01*
X12222828Y18764677D01*
X12222895Y18764703D01*
X12222956Y18764743D01*
X12235722Y18770891D01*
X12235790Y18770914D01*
X12235853Y18770950D01*
X12248943Y18776372D01*
X12249013Y18776390D01*
X12249077Y18776424D01*
X12262451Y18781104D01*
X12262522Y18781117D01*
X12262588Y18781146D01*
X12276203Y18785069D01*
X12276275Y18785080D01*
X12276342Y18785104D01*
X12290156Y18788257D01*
X12290228Y18788264D01*
X12290297Y18788284D01*
X12304265Y18790659D01*
X12304337Y18790662D01*
X12304408Y18790678D01*
X12318488Y18792265D01*
X12318561Y18792264D01*
X12318631Y18792278D01*
X12332778Y18793073D01*
X12332850Y18793066D01*
X12332921Y18793076D01*
X12347090D01*
X12347162Y18793066D01*
D02*
G37*
G36*
X12345160Y3616740D02*
X12345329D01*
X12355232Y3615436D01*
X12355395Y3615392D01*
X12355561Y3615370D01*
X12365209Y3612785D01*
X12365364Y3612721D01*
X12365526Y3612678D01*
X12374755Y3608855D01*
X12374899Y3608772D01*
X12375056Y3608707D01*
X12383706Y3603713D01*
X12383839Y3603610D01*
X12383985Y3603526D01*
X12391909Y3597445D01*
X12392028Y3597327D01*
X12392161Y3597224D01*
X12399224Y3590161D01*
X12399326Y3590028D01*
X12399445Y3589910D01*
X12405526Y3581985D01*
X12405610Y3581839D01*
X12405713Y3581706D01*
X12410707Y3573056D01*
X12410771Y3572900D01*
X12410855Y3572755D01*
X12414677Y3563527D01*
X12414721Y3563364D01*
X12414785Y3563209D01*
X12417370Y3553561D01*
X12417392Y3553395D01*
X12417436Y3553232D01*
X12418740Y3543329D01*
Y3543161D01*
X12418762Y3542994D01*
Y3538000D01*
Y3533006D01*
X12418740Y3532840D01*
Y3532671D01*
X12417436Y3522768D01*
X12417392Y3522605D01*
X12417370Y3522439D01*
X12414785Y3512791D01*
X12414721Y3512636D01*
X12414677Y3512474D01*
X12410855Y3503245D01*
X12410772Y3503101D01*
X12410707Y3502944D01*
X12405713Y3494294D01*
X12405610Y3494161D01*
X12405526Y3494015D01*
X12399445Y3486091D01*
X12399326Y3485972D01*
X12399224Y3485839D01*
X12392161Y3478776D01*
X12392028Y3478674D01*
X12391909Y3478555D01*
X12383985Y3472474D01*
X12383839Y3472390D01*
X12383706Y3472287D01*
X12375056Y3467293D01*
X12374900Y3467229D01*
X12374755Y3467145D01*
X12365526Y3463323D01*
X12365364Y3463279D01*
X12365209Y3463215D01*
X12355561Y3460630D01*
X12355395Y3460608D01*
X12355232Y3460564D01*
X12345329Y3459260D01*
X12345160D01*
X12344994Y3459238D01*
X12335006D01*
X12334839Y3459260D01*
X12334671D01*
X12324768Y3460564D01*
X12324605Y3460608D01*
X12324439Y3460630D01*
X12314791Y3463215D01*
X12314636Y3463279D01*
X12314473Y3463323D01*
X12305245Y3467145D01*
X12305101Y3467228D01*
X12304944Y3467293D01*
X12296294Y3472287D01*
X12296161Y3472390D01*
X12296015Y3472474D01*
X12288090Y3478555D01*
X12287972Y3478674D01*
X12287839Y3478776D01*
X12280776Y3485839D01*
X12280673Y3485972D01*
X12280555Y3486091D01*
X12274474Y3494015D01*
X12274389Y3494161D01*
X12274287Y3494294D01*
X12269293Y3502944D01*
X12269229Y3503100D01*
X12269145Y3503245D01*
X12265322Y3512474D01*
X12265279Y3512636D01*
X12265215Y3512791D01*
X12262630Y3522439D01*
X12262608Y3522605D01*
X12262564Y3522768D01*
X12261260Y3532671D01*
Y3532840D01*
X12261238Y3533006D01*
Y3538000D01*
Y3542994D01*
X12261260Y3543161D01*
Y3543329D01*
X12262564Y3553232D01*
X12262608Y3553395D01*
X12262630Y3553561D01*
X12265215Y3563209D01*
X12265279Y3563364D01*
X12265322Y3563527D01*
X12269145Y3572755D01*
X12269228Y3572899D01*
X12269293Y3573056D01*
X12274287Y3581706D01*
X12274390Y3581839D01*
X12274474Y3581985D01*
X12280555Y3589910D01*
X12280673Y3590028D01*
X12280776Y3590161D01*
X12287839Y3597224D01*
X12287972Y3597327D01*
X12288090Y3597445D01*
X12296015Y3603526D01*
X12296161Y3603611D01*
X12296294Y3603713D01*
X12304944Y3608707D01*
X12305100Y3608771D01*
X12305245Y3608855D01*
X12314473Y3612678D01*
X12314636Y3612721D01*
X12314791Y3612785D01*
X12324439Y3615370D01*
X12324605Y3615392D01*
X12324768Y3615436D01*
X12334671Y3616740D01*
X12334839D01*
X12335006Y3616762D01*
X12344994D01*
X12345160Y3616740D01*
D02*
G37*
D21*
X11866880Y4820920D02*
D03*
Y8816340D02*
D03*
Y16807179D02*
D03*
X3522980Y11041380D02*
D03*
X11866880Y12811760D02*
D03*
D22*
X2649446Y13719414D02*
D03*
X2865346Y13521294D02*
D03*
X3568926Y13041135D02*
D03*
Y13130135D02*
D03*
X3215866Y13325714D02*
D03*
Y13236714D02*
D03*
X3779746Y13719414D02*
D03*
Y13630414D02*
D03*
X3076166Y14511894D02*
D03*
Y14422894D02*
D03*
X5738086Y13325714D02*
D03*
Y13236714D02*
D03*
X5039586Y13719414D02*
D03*
Y13630414D02*
D03*
X5870166Y13719414D02*
D03*
Y13630414D02*
D03*
X6500086Y13041135D02*
D03*
Y13130135D02*
D03*
X5870166Y14511894D02*
D03*
Y14422894D02*
D03*
X5595846Y14511894D02*
D03*
Y14422894D02*
D03*
X4826226Y13432294D02*
D03*
Y13521294D02*
D03*
X3914366Y13325714D02*
D03*
Y13236714D02*
D03*
X4193766Y13325714D02*
D03*
Y13236714D02*
D03*
X3286986Y13432294D02*
D03*
Y13521294D02*
D03*
Y14257794D02*
D03*
Y14346794D02*
D03*
X5451066Y13325714D02*
D03*
Y13236714D02*
D03*
X5153886Y14875014D02*
D03*
Y14964014D02*
D03*
X5804126Y14260333D02*
D03*
Y14349335D02*
D03*
X4826226Y13846313D02*
D03*
Y13935313D02*
D03*
X5804126Y13432294D02*
D03*
Y13521294D02*
D03*
X6357846Y13432294D02*
D03*
Y13521294D02*
D03*
X6500086Y14257794D02*
D03*
Y14346794D02*
D03*
X3772126Y14511894D02*
D03*
Y14422894D02*
D03*
X3073626Y12934554D02*
D03*
Y12845554D02*
D03*
X3634966Y13325714D02*
D03*
Y13236714D02*
D03*
X3434306Y13432294D02*
D03*
Y13521294D02*
D03*
X3530826Y14964014D02*
D03*
Y14875014D02*
D03*
X4038826D02*
D03*
Y14964014D02*
D03*
X2728186Y13935313D02*
D03*
Y13846313D02*
D03*
X2933926Y14115654D02*
D03*
Y14026654D02*
D03*
X4475706Y14511894D02*
D03*
Y14422894D02*
D03*
X4264886Y14257794D02*
D03*
Y14346794D02*
D03*
X4620486Y13325714D02*
D03*
Y13236714D02*
D03*
X6662420Y13928140D02*
D03*
Y13839140D02*
D03*
X5245326Y13846313D02*
D03*
Y13935313D02*
D03*
X4125186Y13041135D02*
D03*
Y13130135D02*
D03*
X4404586Y13846313D02*
D03*
Y13935313D02*
D03*
X4620486Y13719414D02*
D03*
Y13630414D02*
D03*
Y14511894D02*
D03*
Y14422894D02*
D03*
X6144486Y12934554D02*
D03*
Y12845554D02*
D03*
X5595846Y13325714D02*
D03*
Y13236714D02*
D03*
X6144486Y13719414D02*
D03*
Y13630414D02*
D03*
X5595846Y14115654D02*
D03*
Y14026654D02*
D03*
X4140426Y14875014D02*
D03*
Y14964014D02*
D03*
X2799306Y13719414D02*
D03*
Y13630414D02*
D03*
X2865346Y14257794D02*
D03*
Y14346794D02*
D03*
X4404586Y14257794D02*
D03*
Y14346794D02*
D03*
X4125186Y14257794D02*
D03*
Y14346794D02*
D03*
X4549366Y13041135D02*
D03*
Y13130135D02*
D03*
X5560286Y14875014D02*
D03*
Y14964014D02*
D03*
X6144486Y14875014D02*
D03*
Y14964014D02*
D03*
X5382486Y13846313D02*
D03*
Y13935313D02*
D03*
X5313906Y13719414D02*
D03*
Y13630414D02*
D03*
X3629886Y12934554D02*
D03*
Y12845554D02*
D03*
X2936466Y13325714D02*
D03*
Y13236714D02*
D03*
X4549366Y13432294D02*
D03*
Y13521294D02*
D03*
X3495266Y14115654D02*
D03*
Y14026654D02*
D03*
X4549366Y14257794D02*
D03*
Y14346794D02*
D03*
X5357086Y14875014D02*
D03*
Y14964014D02*
D03*
X5953986Y14875014D02*
D03*
Y14964014D02*
D03*
X6073366Y13432294D02*
D03*
Y13521294D02*
D03*
X3990566Y13432294D02*
D03*
Y13521294D02*
D03*
Y14257794D02*
D03*
Y14346794D02*
D03*
X5649186Y14875014D02*
D03*
Y14964014D02*
D03*
X6004786Y14511894D02*
D03*
Y14422894D02*
D03*
X4968466Y13432294D02*
D03*
Y13521294D02*
D03*
X3764506Y12934554D02*
D03*
Y12845554D02*
D03*
X2799306Y13325714D02*
D03*
Y13236714D02*
D03*
X3147286Y13432294D02*
D03*
Y13521294D02*
D03*
X3429226Y14257794D02*
D03*
Y14346794D02*
D03*
X5313906Y13325714D02*
D03*
Y13236714D02*
D03*
X5936206Y13041135D02*
D03*
Y13130135D02*
D03*
X5108166Y13041135D02*
D03*
Y13130135D02*
D03*
X4968466Y14257794D02*
D03*
Y14346794D02*
D03*
X3286986Y13041135D02*
D03*
Y13130135D02*
D03*
X3495266Y12934554D02*
D03*
Y12845554D02*
D03*
X3843246Y13432294D02*
D03*
Y13521294D02*
D03*
X3497806Y13719414D02*
D03*
Y13630414D02*
D03*
X3147286Y14257794D02*
D03*
Y14346794D02*
D03*
X3845786Y14257794D02*
D03*
Y14346794D02*
D03*
X4755106Y13325714D02*
D03*
Y13236714D02*
D03*
X5804126Y13041135D02*
D03*
Y13130135D02*
D03*
X5666966Y14257794D02*
D03*
Y14346794D02*
D03*
X5936206Y14257794D02*
D03*
Y14346794D02*
D03*
X5052286Y14875014D02*
D03*
Y14964014D02*
D03*
X5936206Y13432294D02*
D03*
Y13521294D02*
D03*
X6431506Y13719414D02*
D03*
Y13630414D02*
D03*
Y12934554D02*
D03*
Y12845554D02*
D03*
X5108166Y13432294D02*
D03*
Y13521294D02*
D03*
Y14257794D02*
D03*
Y14346794D02*
D03*
X3990566Y13041135D02*
D03*
Y13130135D02*
D03*
X4264886Y13846313D02*
D03*
Y13935313D02*
D03*
X3213326Y14115654D02*
D03*
Y14026654D02*
D03*
X6286726Y13325714D02*
D03*
Y13236714D02*
D03*
X4264886Y13041135D02*
D03*
Y13130135D02*
D03*
X5519646Y13041135D02*
D03*
Y13130135D02*
D03*
X6286726Y14115654D02*
D03*
Y14026654D02*
D03*
X5519646Y13846313D02*
D03*
Y13935313D02*
D03*
X4894806Y14115654D02*
D03*
Y14026654D02*
D03*
X6431506Y14115654D02*
D03*
Y14026654D02*
D03*
X5738086Y14115654D02*
D03*
Y14026654D02*
D03*
X4755106Y14511894D02*
D03*
Y14422894D02*
D03*
X3695926Y13041135D02*
D03*
Y13130135D02*
D03*
X3358106Y13325714D02*
D03*
Y13236714D02*
D03*
X3835626Y14875014D02*
D03*
Y14964014D02*
D03*
X3215866Y14511894D02*
D03*
Y14422894D02*
D03*
X4193766Y14115654D02*
D03*
Y14026654D02*
D03*
X3701006Y13846313D02*
D03*
Y13935313D02*
D03*
X4333466Y12934554D02*
D03*
Y12845554D02*
D03*
X4691606Y13041135D02*
D03*
Y13130135D02*
D03*
X6004786Y13719414D02*
D03*
Y13630414D02*
D03*
X5176746Y14511894D02*
D03*
Y14422894D02*
D03*
Y13719414D02*
D03*
Y13630414D02*
D03*
X2657066Y14422894D02*
D03*
Y14511894D02*
D03*
X6568666Y13325714D02*
D03*
Y13236714D02*
D03*
X2649446Y13630414D02*
D03*
X4056606Y12934554D02*
D03*
Y12845554D02*
D03*
X4333466Y13719414D02*
D03*
Y13630414D02*
D03*
X6357846Y13041135D02*
D03*
Y13130135D02*
D03*
X5666966Y13846313D02*
D03*
Y13935313D02*
D03*
X4691606Y14257794D02*
D03*
Y14346794D02*
D03*
X6215606Y13432294D02*
D03*
Y13521294D02*
D03*
X6568666Y14115654D02*
D03*
Y14026654D02*
D03*
X4056606Y14115654D02*
D03*
Y14026654D02*
D03*
X2796766Y14115654D02*
D03*
Y14026654D02*
D03*
X4475706Y12934554D02*
D03*
Y12845554D02*
D03*
X6144486Y14511894D02*
D03*
Y14422894D02*
D03*
X5313906Y14511894D02*
D03*
Y14422894D02*
D03*
X3007586Y13041135D02*
D03*
Y13130135D02*
D03*
X2728186Y13521294D02*
D03*
Y13432294D02*
D03*
X4242026Y14875014D02*
D03*
Y14964014D02*
D03*
X3007586Y13846313D02*
D03*
Y13935313D02*
D03*
X4475706Y14115654D02*
D03*
Y14026654D02*
D03*
X3568926Y13846313D02*
D03*
Y13935313D02*
D03*
X5176746Y13325714D02*
D03*
Y13236714D02*
D03*
X6004786Y13325714D02*
D03*
Y13236714D02*
D03*
X6654800Y14344701D02*
D03*
Y14255701D02*
D03*
X5039586Y14511894D02*
D03*
Y14422894D02*
D03*
X3914366Y14115654D02*
D03*
Y14026654D02*
D03*
X4894806Y13325714D02*
D03*
Y13236714D02*
D03*
X6073366Y14257794D02*
D03*
Y14346794D02*
D03*
X5451066Y14511894D02*
D03*
Y14422894D02*
D03*
X3076166Y13325714D02*
D03*
Y13236714D02*
D03*
X2865346Y13041135D02*
D03*
Y13130135D02*
D03*
X4343626Y14875014D02*
D03*
Y14964014D02*
D03*
X3073626Y14115654D02*
D03*
Y14026654D02*
D03*
X3353026Y14115654D02*
D03*
Y14026654D02*
D03*
X5039586Y12934554D02*
D03*
Y12845554D02*
D03*
X5870166Y12934554D02*
D03*
Y12845554D02*
D03*
X5382486Y13041135D02*
D03*
Y13130135D02*
D03*
X3213326Y12934554D02*
D03*
Y12845554D02*
D03*
X3767046Y13325714D02*
D03*
Y13236714D02*
D03*
X3568926Y13432294D02*
D03*
Y13521294D02*
D03*
X3767046Y14115654D02*
D03*
Y14026654D02*
D03*
X4826226Y13041135D02*
D03*
Y13130135D02*
D03*
X6246086Y14875014D02*
D03*
Y14964014D02*
D03*
X6500086Y13432294D02*
D03*
Y13521294D02*
D03*
X5039586Y14115654D02*
D03*
Y14026654D02*
D03*
X5870166Y14115654D02*
D03*
Y14026654D02*
D03*
X5738086Y12934554D02*
D03*
Y12845554D02*
D03*
X5039586Y13325714D02*
D03*
Y13236714D02*
D03*
X3914366Y12934554D02*
D03*
Y12845554D02*
D03*
X4193766Y12934554D02*
D03*
Y12845554D02*
D03*
Y13719414D02*
D03*
Y13630414D02*
D03*
X3286986Y13846313D02*
D03*
Y13935313D02*
D03*
X5451066Y12934554D02*
D03*
Y12845554D02*
D03*
X5666966Y13041135D02*
D03*
Y13130135D02*
D03*
X6357846Y13846313D02*
D03*
Y13935313D02*
D03*
X6347686Y14875014D02*
D03*
Y14964014D02*
D03*
X5451066Y13719414D02*
D03*
Y13630414D02*
D03*
X6500086Y13846313D02*
D03*
Y13935313D02*
D03*
X5804126Y13846313D02*
D03*
Y13935313D02*
D03*
X4826226Y14257794D02*
D03*
Y14346794D02*
D03*
X3436846Y13041135D02*
D03*
Y13130135D02*
D03*
X3634966Y13719414D02*
D03*
Y13630414D02*
D03*
X2728186Y14346794D02*
D03*
Y14257794D02*
D03*
X2936466Y14511894D02*
D03*
Y14422894D02*
D03*
X4620486Y12934554D02*
D03*
Y12845554D02*
D03*
X5245326Y14257794D02*
D03*
Y14346794D02*
D03*
X4750026Y14875014D02*
D03*
Y14964014D02*
D03*
X5245326Y13432294D02*
D03*
Y13521294D02*
D03*
X6647406Y13043674D02*
D03*
Y13132674D02*
D03*
X4125186Y13432294D02*
D03*
Y13521294D02*
D03*
X4404586Y13432294D02*
D03*
Y13521294D02*
D03*
X4546826Y14875014D02*
D03*
Y14964014D02*
D03*
X4620486Y14115654D02*
D03*
Y14026654D02*
D03*
X6144486Y13325714D02*
D03*
Y13236714D02*
D03*
X5595846Y13719414D02*
D03*
Y13630414D02*
D03*
X6449286Y14875014D02*
D03*
Y14964014D02*
D03*
X4125186Y13846313D02*
D03*
Y13935313D02*
D03*
X4648426Y14875014D02*
D03*
Y14964014D02*
D03*
X3734026Y14875014D02*
D03*
Y14964014D02*
D03*
X2865346Y13846313D02*
D03*
Y13935313D02*
D03*
X6215606Y14257794D02*
D03*
Y14346794D02*
D03*
X5382486Y14257794D02*
D03*
Y14346794D02*
D03*
X4851626Y14875014D02*
D03*
Y14964014D02*
D03*
X3147286Y13041135D02*
D03*
Y13130135D02*
D03*
X4549366Y13846313D02*
D03*
Y13935313D02*
D03*
X2933926Y12934554D02*
D03*
Y12845554D02*
D03*
X2936466Y13719414D02*
D03*
Y13630414D02*
D03*
X3497806Y14511894D02*
D03*
Y14422894D02*
D03*
X6073366Y13041135D02*
D03*
Y13130135D02*
D03*
X5245326Y13041135D02*
D03*
Y13130135D02*
D03*
X2649446Y13236714D02*
D03*
Y13325714D02*
D03*
X3990566Y13846313D02*
D03*
Y13935313D02*
D03*
X4968466Y13041135D02*
D03*
Y13130135D02*
D03*
X5519646Y14257794D02*
D03*
Y14346794D02*
D03*
X6004786Y14115654D02*
D03*
Y14026654D02*
D03*
X4968466Y13846313D02*
D03*
Y13935313D02*
D03*
X2796766Y12934554D02*
D03*
Y12845554D02*
D03*
X3634966Y14511894D02*
D03*
Y14422894D02*
D03*
X3147286Y13846313D02*
D03*
Y13935313D02*
D03*
X3429226Y13846313D02*
D03*
Y13935313D02*
D03*
X5313906Y12934554D02*
D03*
Y12845554D02*
D03*
X5255486Y14875014D02*
D03*
Y14964014D02*
D03*
X5852386Y14875014D02*
D03*
Y14964014D02*
D03*
X6286726Y14511894D02*
D03*
Y14422894D02*
D03*
X3500346Y13325714D02*
D03*
Y13236714D02*
D03*
X3937226Y14875014D02*
D03*
Y14964014D02*
D03*
X4056606Y13719414D02*
D03*
Y13630414D02*
D03*
X3843246Y13846313D02*
D03*
Y13935313D02*
D03*
X4755106Y12934554D02*
D03*
Y12845554D02*
D03*
X5750786Y14875014D02*
D03*
Y14964014D02*
D03*
X5108166Y13846313D02*
D03*
Y13935313D02*
D03*
X4755106Y13719414D02*
D03*
Y13630414D02*
D03*
X6431506Y13325714D02*
D03*
Y13236714D02*
D03*
X5936206Y13846313D02*
D03*
Y13935313D02*
D03*
X4264886Y13432294D02*
D03*
Y13521294D02*
D03*
X4445226Y14875014D02*
D03*
Y14964014D02*
D03*
X3215866Y13719414D02*
D03*
Y13630414D02*
D03*
X4894806Y12934554D02*
D03*
Y12845554D02*
D03*
X6286726Y13719414D02*
D03*
Y13630414D02*
D03*
X5519646Y13432294D02*
D03*
Y13521294D02*
D03*
X4755106Y14115654D02*
D03*
Y14026654D02*
D03*
X5738086Y13719414D02*
D03*
Y13630414D02*
D03*
X6431506Y14511894D02*
D03*
Y14422894D02*
D03*
X6555966Y14875014D02*
D03*
Y14964014D02*
D03*
X3355566Y12934554D02*
D03*
Y12845554D02*
D03*
X3698466Y13432294D02*
D03*
Y13521294D02*
D03*
X3007586Y14257794D02*
D03*
Y14346794D02*
D03*
X4193766Y14511894D02*
D03*
Y14422894D02*
D03*
X5176746Y14115654D02*
D03*
Y14026654D02*
D03*
X4691606Y13432294D02*
D03*
Y13521294D02*
D03*
X4950686Y14875014D02*
D03*
Y14964014D02*
D03*
X6568666Y12934554D02*
D03*
Y12845554D02*
D03*
X2654526Y14026654D02*
D03*
Y14115654D02*
D03*
X6568666Y13719414D02*
D03*
Y13630414D02*
D03*
X4056606Y13325714D02*
D03*
Y13236714D02*
D03*
X4333466Y14115654D02*
D03*
Y14026654D02*
D03*
Y13325714D02*
D03*
Y13236714D02*
D03*
X6215606Y13041135D02*
D03*
Y13130135D02*
D03*
Y13846313D02*
D03*
Y13935313D02*
D03*
X4691606Y13846313D02*
D03*
Y13935313D02*
D03*
X5666966Y13432294D02*
D03*
Y13521294D02*
D03*
X6662420Y13526820D02*
D03*
Y13437820D02*
D03*
X6568666Y14511894D02*
D03*
Y14422894D02*
D03*
X2799306Y14511894D02*
D03*
Y14422894D02*
D03*
X4333466Y14511894D02*
D03*
Y14422894D02*
D03*
X4056606Y14511894D02*
D03*
Y14422894D02*
D03*
X6286726Y12934554D02*
D03*
Y12845554D02*
D03*
X4475706Y13325714D02*
D03*
Y13236714D02*
D03*
X6144486Y14115654D02*
D03*
Y14026654D02*
D03*
X5313906Y14115654D02*
D03*
Y14026654D02*
D03*
X2728186Y13130135D02*
D03*
Y13041135D02*
D03*
X3007586Y13432294D02*
D03*
Y13521294D02*
D03*
X4475706Y13719414D02*
D03*
Y13630414D02*
D03*
X3634966Y14115654D02*
D03*
Y14026654D02*
D03*
X3568926Y14257794D02*
D03*
Y14346794D02*
D03*
X5176746Y12934554D02*
D03*
Y12845554D02*
D03*
X6004786Y12934554D02*
D03*
Y12845554D02*
D03*
X4404586Y13041135D02*
D03*
Y13130135D02*
D03*
X3914366Y13719414D02*
D03*
Y13630414D02*
D03*
Y14511894D02*
D03*
Y14422894D02*
D03*
X5595846Y12934554D02*
D03*
Y12845554D02*
D03*
X6073366Y13846313D02*
D03*
Y13935313D02*
D03*
X6055586Y14875014D02*
D03*
Y14964014D02*
D03*
X5451066Y14115654D02*
D03*
Y14026654D02*
D03*
X4894806Y13719414D02*
D03*
Y13630414D02*
D03*
X3833086Y13041135D02*
D03*
Y13130135D02*
D03*
X3632426Y14875014D02*
D03*
Y14964014D02*
D03*
X3355566Y13719414D02*
D03*
Y13630414D02*
D03*
X2865346Y13432294D02*
D03*
X3076166Y13719414D02*
D03*
Y13630414D02*
D03*
X3358106Y14511894D02*
D03*
Y14422894D02*
D03*
X3706086Y14257794D02*
D03*
Y14346794D02*
D03*
X5870166Y13325714D02*
D03*
Y13236714D02*
D03*
X5458686Y14875014D02*
D03*
Y14964014D02*
D03*
X6357846Y14257794D02*
D03*
Y14346794D02*
D03*
X5738086Y14511894D02*
D03*
Y14422894D02*
D03*
X4894806Y14511894D02*
D03*
Y14422894D02*
D03*
X5382486Y13432294D02*
D03*
Y13521294D02*
D03*
X6853146Y14358273D02*
D03*
X6749006Y14962794D02*
D03*
X6774406Y13337193D02*
D03*
Y13730894D02*
D03*
X6782026Y14523373D02*
D03*
X6779486Y14127135D02*
D03*
X6853146Y13141614D02*
D03*
Y13532774D02*
D03*
X6682966Y18652734D02*
D03*
Y18563734D02*
D03*
X6004786Y16615654D02*
D03*
Y16526654D02*
D03*
X3990566Y16435313D02*
D03*
Y16346313D02*
D03*
X5781266Y18848314D02*
D03*
Y18759314D02*
D03*
X4968466Y16435313D02*
D03*
Y16346313D02*
D03*
X5519646Y16846794D02*
D03*
Y16757794D02*
D03*
X5082766Y18848314D02*
D03*
Y18759314D02*
D03*
X5313906Y16219414D02*
D03*
Y16130414D02*
D03*
X3429226Y16435313D02*
D03*
Y16346313D02*
D03*
X3147286Y16435313D02*
D03*
Y16346313D02*
D03*
X2799306Y16219414D02*
D03*
Y16130414D02*
D03*
X5255486Y17464014D02*
D03*
Y17375014D02*
D03*
X4140426Y17464014D02*
D03*
Y17375014D02*
D03*
X3634966Y17011894D02*
D03*
Y16922894D02*
D03*
X5565366Y18652734D02*
D03*
Y18563734D02*
D03*
X5428206Y18652734D02*
D03*
Y18563734D02*
D03*
X2911066Y18652734D02*
D03*
Y18563734D02*
D03*
X6286726Y17011894D02*
D03*
Y16922894D02*
D03*
X5852386Y17464014D02*
D03*
Y17375014D02*
D03*
X4755106Y16219414D02*
D03*
Y16130414D02*
D03*
X3843246Y16435313D02*
D03*
Y16346313D02*
D03*
X6545806Y19043893D02*
D03*
Y18954893D02*
D03*
X5108166Y16435313D02*
D03*
Y16346313D02*
D03*
X3937226Y17464014D02*
D03*
Y17375014D02*
D03*
X4869406Y18652734D02*
D03*
Y18563734D02*
D03*
X5936206Y16435313D02*
D03*
Y16346313D02*
D03*
X5750786Y17464014D02*
D03*
Y17375014D02*
D03*
X3614646Y19043893D02*
D03*
Y18954893D02*
D03*
X5738086Y16219414D02*
D03*
Y16130414D02*
D03*
X4755106Y16615654D02*
D03*
Y16526654D02*
D03*
X3215866Y16219414D02*
D03*
Y16130414D02*
D03*
X6286726Y16219414D02*
D03*
Y16130414D02*
D03*
X4445226Y17464014D02*
D03*
Y17375014D02*
D03*
X5009106Y18652734D02*
D03*
Y18563734D02*
D03*
X6431506Y17011894D02*
D03*
Y16922894D02*
D03*
X5633946Y19239474D02*
D03*
Y19150475D02*
D03*
X4379186Y19239474D02*
D03*
Y19150475D02*
D03*
X5176746Y16615654D02*
D03*
Y16526654D02*
D03*
X4950686Y17464014D02*
D03*
Y17375014D02*
D03*
X4193766Y17011894D02*
D03*
Y16922894D02*
D03*
X2654526Y16615654D02*
D03*
Y16526654D02*
D03*
X3007586Y16846794D02*
D03*
Y16757794D02*
D03*
X3469866Y18652734D02*
D03*
Y18563734D02*
D03*
X6568666Y16219414D02*
D03*
Y16130414D02*
D03*
X3261586Y18848314D02*
D03*
Y18759314D02*
D03*
X3812766Y19239474D02*
D03*
Y19150475D02*
D03*
X4805906Y19239474D02*
D03*
Y19150475D02*
D03*
X4333466Y16615654D02*
D03*
Y16526654D02*
D03*
X3568926Y16435313D02*
D03*
Y16346313D02*
D03*
X6329906Y18848314D02*
D03*
Y18759314D02*
D03*
X5052286Y17464014D02*
D03*
Y17375014D02*
D03*
X4691606Y16435313D02*
D03*
Y16346313D02*
D03*
X6215606Y16435313D02*
D03*
Y16346313D02*
D03*
X6568666Y17011894D02*
D03*
Y16922894D02*
D03*
X4447766Y19043893D02*
D03*
Y18954893D02*
D03*
X4170906Y19043893D02*
D03*
Y18954893D02*
D03*
X5781266Y19239474D02*
D03*
Y19150475D02*
D03*
X6401026Y18652734D02*
D03*
Y18563734D02*
D03*
X6144486Y16615654D02*
D03*
Y16526654D02*
D03*
X5313906Y16615654D02*
D03*
Y16526654D02*
D03*
X4333466Y17011894D02*
D03*
Y16922894D02*
D03*
X4056606Y17011894D02*
D03*
Y16922894D02*
D03*
X2799306Y17011894D02*
D03*
Y16922894D02*
D03*
X4590006Y19043893D02*
D03*
Y18954893D02*
D03*
X6119086Y18652734D02*
D03*
Y18563734D02*
D03*
X6004786Y16219414D02*
D03*
Y16130414D02*
D03*
X4475706Y16219414D02*
D03*
Y16130414D02*
D03*
X3568926Y16846794D02*
D03*
Y16757794D02*
D03*
X5291046Y18652734D02*
D03*
Y18563734D02*
D03*
X2842486Y18848314D02*
D03*
Y18759314D02*
D03*
X3121886Y19239474D02*
D03*
Y19150475D02*
D03*
X4894806Y16219414D02*
D03*
Y16130414D02*
D03*
X5451066Y16615654D02*
D03*
Y16526654D02*
D03*
X3914366Y16219414D02*
D03*
Y16130414D02*
D03*
Y17011894D02*
D03*
Y16922894D02*
D03*
X5710146Y18652734D02*
D03*
Y18563734D02*
D03*
X6073366Y16435313D02*
D03*
Y16346313D02*
D03*
X6055586Y17464014D02*
D03*
Y17375014D02*
D03*
X3706086Y16846794D02*
D03*
Y16757794D02*
D03*
X3355566Y16219414D02*
D03*
Y16130414D02*
D03*
X3076166Y16219414D02*
D03*
Y16130414D02*
D03*
X5984466Y19043893D02*
D03*
Y18954893D02*
D03*
X4894806Y17011894D02*
D03*
Y16922894D02*
D03*
X5458686Y17464014D02*
D03*
Y17375014D02*
D03*
X3358106Y17011894D02*
D03*
Y16922894D02*
D03*
X3632426Y17464014D02*
D03*
Y17375014D02*
D03*
X6357846Y16846794D02*
D03*
Y16757794D02*
D03*
X3947386Y18848314D02*
D03*
Y18759314D02*
D03*
X2979646Y19239474D02*
D03*
Y19150475D02*
D03*
X5496786Y19239474D02*
D03*
Y19150475D02*
D03*
X5870166Y16219414D02*
D03*
Y16130414D02*
D03*
X5039586Y16219414D02*
D03*
Y16130414D02*
D03*
X3779746Y16219414D02*
D03*
Y16130414D02*
D03*
X6614386Y18848314D02*
D03*
Y18759314D02*
D03*
X5852386Y19043893D02*
D03*
Y18954893D02*
D03*
X3076166Y17011894D02*
D03*
Y16922894D02*
D03*
X5870166Y17011894D02*
D03*
Y16922894D02*
D03*
X5595846Y17011894D02*
D03*
Y16922894D02*
D03*
X3683226Y18848314D02*
D03*
Y18759314D02*
D03*
X3330166Y19043893D02*
D03*
Y18954893D02*
D03*
X4940526Y19239474D02*
D03*
Y19150475D02*
D03*
X3286986Y16846794D02*
D03*
Y16757794D02*
D03*
X5565366Y19043893D02*
D03*
Y18954893D02*
D03*
X5153886Y17464014D02*
D03*
Y17375014D02*
D03*
X3772126Y17011894D02*
D03*
Y16922894D02*
D03*
X5804126Y16849335D02*
D03*
Y16760333D02*
D03*
X6500086Y16846794D02*
D03*
Y16757794D02*
D03*
X6472146Y19239474D02*
D03*
Y19150475D02*
D03*
X4308066Y19043893D02*
D03*
Y18954893D02*
D03*
X4028666Y19043893D02*
D03*
Y18954893D02*
D03*
X3401286Y19239474D02*
D03*
Y19150475D02*
D03*
X5918426Y19239474D02*
D03*
Y19150475D02*
D03*
X4264886Y16846794D02*
D03*
Y16757794D02*
D03*
X2728186Y16435313D02*
D03*
Y16346313D02*
D03*
X5245326Y16435313D02*
D03*
Y16346313D02*
D03*
X3634966Y16615654D02*
D03*
Y16526654D02*
D03*
X2933926Y16615654D02*
D03*
Y16526654D02*
D03*
X4038826Y17464014D02*
D03*
Y17375014D02*
D03*
X3530826Y17464014D02*
D03*
Y17375014D02*
D03*
X3187926Y18652734D02*
D03*
Y18563734D02*
D03*
X4518886Y18848314D02*
D03*
Y18759314D02*
D03*
X4734786Y19043893D02*
D03*
Y18954893D02*
D03*
X3749266Y19043893D02*
D03*
Y18954893D02*
D03*
X3548606Y19239474D02*
D03*
Y19150475D02*
D03*
X6761711Y19235089D02*
D03*
Y19146088D02*
D03*
X5595846Y16615654D02*
D03*
Y16526654D02*
D03*
X4620486Y16219414D02*
D03*
Y16130414D02*
D03*
X4404586Y16435313D02*
D03*
Y16346313D02*
D03*
X6144486Y16219414D02*
D03*
Y16130414D02*
D03*
X5710146Y19043893D02*
D03*
Y18954893D02*
D03*
X4620486Y17011894D02*
D03*
Y16922894D02*
D03*
X6642326Y16846794D02*
D03*
Y16757794D02*
D03*
X4239486Y18848314D02*
D03*
Y18759314D02*
D03*
X4404586Y16846794D02*
D03*
Y16757794D02*
D03*
X4125186Y16846794D02*
D03*
Y16757794D02*
D03*
X5560286Y17464014D02*
D03*
Y17375014D02*
D03*
X5382486Y16435313D02*
D03*
Y16346313D02*
D03*
X2865346Y16846794D02*
D03*
Y16757794D02*
D03*
X6144486Y17464014D02*
D03*
Y17375014D02*
D03*
X6050506Y19239474D02*
D03*
Y19150475D02*
D03*
X4663666Y18848314D02*
D03*
Y18759314D02*
D03*
X4549366Y16846794D02*
D03*
Y16757794D02*
D03*
X5357086Y17464014D02*
D03*
Y17375014D02*
D03*
X3495266Y16615654D02*
D03*
Y16526654D02*
D03*
X3744186Y18652734D02*
D03*
Y18563734D02*
D03*
X5953986Y17464014D02*
D03*
Y17375014D02*
D03*
X6187666Y19239474D02*
D03*
Y19150475D02*
D03*
X3050766Y19043893D02*
D03*
Y18954893D02*
D03*
X4663666Y19239474D02*
D03*
Y19150475D02*
D03*
X3990566Y16846794D02*
D03*
Y16757794D02*
D03*
X3215866Y17011894D02*
D03*
Y16922894D02*
D03*
X6004786Y17011894D02*
D03*
Y16922894D02*
D03*
X5738086Y17011894D02*
D03*
Y16922894D02*
D03*
X5649186Y17464014D02*
D03*
Y17375014D02*
D03*
X4104866Y19239474D02*
D03*
Y19150475D02*
D03*
X5082766Y19239474D02*
D03*
Y19150475D02*
D03*
X3429226Y16846794D02*
D03*
Y16757794D02*
D03*
X6050506Y18848314D02*
D03*
Y18759314D02*
D03*
X5222466Y18848314D02*
D03*
Y18759314D02*
D03*
X5428206Y19043893D02*
D03*
Y18954893D02*
D03*
X4968466Y16846794D02*
D03*
Y16757794D02*
D03*
X4308066Y18652734D02*
D03*
Y18563734D02*
D03*
X3878806Y18652734D02*
D03*
Y18563734D02*
D03*
X3048226Y18652734D02*
D03*
Y18563734D02*
D03*
X2913606Y19043893D02*
D03*
Y18954893D02*
D03*
X3261586Y19239474D02*
D03*
Y19150475D02*
D03*
X6545806Y18652734D02*
D03*
Y18563734D02*
D03*
X3845786Y16846794D02*
D03*
Y16757794D02*
D03*
X3497806Y16219414D02*
D03*
Y16130414D02*
D03*
X6431506Y16219414D02*
D03*
Y16130414D02*
D03*
X5918426Y18848314D02*
D03*
Y18759314D02*
D03*
X5108166Y16846794D02*
D03*
Y16757794D02*
D03*
X3147286Y16846794D02*
D03*
Y16757794D02*
D03*
X3609566Y18652734D02*
D03*
Y18563734D02*
D03*
X5936206Y16846794D02*
D03*
Y16757794D02*
D03*
X5666966Y16846794D02*
D03*
Y16757794D02*
D03*
X3401286Y18848314D02*
D03*
Y18759314D02*
D03*
X4869406Y19043893D02*
D03*
Y18954893D02*
D03*
X3957546Y19239474D02*
D03*
Y19150475D02*
D03*
X5222466Y19239474D02*
D03*
Y19150475D02*
D03*
X6431506Y16615654D02*
D03*
Y16526654D02*
D03*
X6286726Y16615654D02*
D03*
Y16526654D02*
D03*
X5738086Y16615654D02*
D03*
Y16526654D02*
D03*
X4264886Y16435313D02*
D03*
Y16346313D02*
D03*
X5633946Y18848314D02*
D03*
Y18759314D02*
D03*
X6401026Y19043893D02*
D03*
Y18954893D02*
D03*
X4755106Y17011894D02*
D03*
Y16922894D02*
D03*
X3213326Y16615654D02*
D03*
Y16526654D02*
D03*
X5519646Y16435313D02*
D03*
Y16346313D02*
D03*
X4104866Y18848314D02*
D03*
Y18759314D02*
D03*
X4379186Y18848314D02*
D03*
Y18759314D02*
D03*
X5176746Y16219414D02*
D03*
Y16130414D02*
D03*
X4193766Y16615654D02*
D03*
Y16526654D02*
D03*
X3701006Y16435313D02*
D03*
Y16346313D02*
D03*
X6789651Y18843929D02*
D03*
Y18754929D02*
D03*
X5176746Y17011894D02*
D03*
Y16922894D02*
D03*
X4475706Y17011894D02*
D03*
Y16922894D02*
D03*
X3835626Y17464014D02*
D03*
Y17375014D02*
D03*
X2657066Y17011894D02*
D03*
Y16922894D02*
D03*
X4447766Y18652734D02*
D03*
Y18563734D02*
D03*
X4805906Y18848314D02*
D03*
Y18759314D02*
D03*
X3810226Y18848314D02*
D03*
Y18759314D02*
D03*
X3472406Y19043893D02*
D03*
Y18954893D02*
D03*
X6682966Y19043893D02*
D03*
Y18954893D02*
D03*
X4333466Y16219414D02*
D03*
Y16130414D02*
D03*
X4056606Y16219414D02*
D03*
Y16130414D02*
D03*
X4691606Y16846794D02*
D03*
Y16757794D02*
D03*
X4826226Y16435313D02*
D03*
Y16346313D02*
D03*
X4170906Y18652734D02*
D03*
Y18563734D02*
D03*
X5666966Y16435313D02*
D03*
Y16346313D02*
D03*
X6568666Y16615654D02*
D03*
Y16526654D02*
D03*
X6329906Y19239474D02*
D03*
Y19150475D02*
D03*
X4056606Y16615654D02*
D03*
Y16526654D02*
D03*
X5313906Y17011894D02*
D03*
Y16922894D02*
D03*
X2796766Y16615654D02*
D03*
Y16526654D02*
D03*
X4590006Y18652734D02*
D03*
Y18563734D02*
D03*
X6144486Y17011894D02*
D03*
Y16922894D02*
D03*
X6258786Y18652734D02*
D03*
Y18563734D02*
D03*
X4475706Y16615654D02*
D03*
Y16526654D02*
D03*
X6119086Y19043893D02*
D03*
Y18954893D02*
D03*
X5291046Y19043893D02*
D03*
Y18954893D02*
D03*
X5039586Y17011894D02*
D03*
Y16922894D02*
D03*
X4242026Y17464014D02*
D03*
Y17375014D02*
D03*
X3007586Y16435313D02*
D03*
Y16346313D02*
D03*
X3121886Y18848314D02*
D03*
Y18759314D02*
D03*
X2842486Y19239474D02*
D03*
Y19150475D02*
D03*
X4894806Y16615654D02*
D03*
Y16526654D02*
D03*
X3914366Y16615654D02*
D03*
Y16526654D02*
D03*
X5451066Y17011894D02*
D03*
Y16922894D02*
D03*
X6073366Y16846794D02*
D03*
Y16757794D02*
D03*
X5009106Y19043893D02*
D03*
Y18954893D02*
D03*
X5496786Y18848314D02*
D03*
Y18759314D02*
D03*
X4343626Y17464014D02*
D03*
Y17375014D02*
D03*
X3353026Y16615654D02*
D03*
Y16526654D02*
D03*
X3073626Y16615654D02*
D03*
Y16526654D02*
D03*
X5984466Y18652734D02*
D03*
Y18563734D02*
D03*
X5153886Y18652734D02*
D03*
Y18563734D02*
D03*
X2979646Y18848314D02*
D03*
Y18759314D02*
D03*
X3190466Y19043893D02*
D03*
Y18954893D02*
D03*
X5870166Y16615654D02*
D03*
Y16526654D02*
D03*
X5039586Y16615654D02*
D03*
Y16526654D02*
D03*
X3767046Y16615654D02*
D03*
Y16526654D02*
D03*
X5852386Y18652734D02*
D03*
Y18563734D02*
D03*
X3327626Y18652734D02*
D03*
Y18563734D02*
D03*
X6246086Y17464014D02*
D03*
Y17375014D02*
D03*
X6614386Y19239474D02*
D03*
Y19150475D02*
D03*
X4940526Y18848314D02*
D03*
Y18759314D02*
D03*
X5153886Y19043893D02*
D03*
Y18954893D02*
D03*
X3881346Y19043893D02*
D03*
Y18954893D02*
D03*
X3683226Y19239474D02*
D03*
Y19150475D02*
D03*
X5451066Y16219414D02*
D03*
Y16130414D02*
D03*
X4193766Y16219414D02*
D03*
Y16130414D02*
D03*
X3286986Y16435313D02*
D03*
Y16346313D02*
D03*
X4826226Y16846794D02*
D03*
Y16757794D02*
D03*
X4028666Y18652734D02*
D03*
Y18563734D02*
D03*
X6347686Y17464014D02*
D03*
Y17375014D02*
D03*
X6500086Y16435313D02*
D03*
Y16346313D02*
D03*
X6357846Y16435313D02*
D03*
Y16346313D02*
D03*
X5804126Y16435313D02*
D03*
Y16346313D02*
D03*
X3634966Y16219414D02*
D03*
Y16130414D02*
D03*
X2649446Y16219414D02*
D03*
Y16130414D02*
D03*
X5245326Y16846794D02*
D03*
Y16757794D02*
D03*
X4750026Y17464014D02*
D03*
Y17375014D02*
D03*
X2936466Y17011894D02*
D03*
Y16922894D02*
D03*
X2728186Y16846794D02*
D03*
Y16757794D02*
D03*
X4734786Y18652734D02*
D03*
Y18563734D02*
D03*
X6644871Y16420769D02*
D03*
Y16331767D02*
D03*
X5359626Y19239474D02*
D03*
Y19150475D02*
D03*
X3551146Y18848314D02*
D03*
Y18759314D02*
D03*
X5595846Y16219414D02*
D03*
Y16130414D02*
D03*
X4620486Y16615654D02*
D03*
Y16526654D02*
D03*
X6258786Y19043893D02*
D03*
Y18954893D02*
D03*
X4546826Y17464014D02*
D03*
Y17375014D02*
D03*
X6449286Y17464014D02*
D03*
Y17375014D02*
D03*
X4518886Y19239474D02*
D03*
Y19150475D02*
D03*
X4239486Y19239474D02*
D03*
Y19150475D02*
D03*
X4125186Y16435313D02*
D03*
Y16346313D02*
D03*
X2865346Y16435313D02*
D03*
Y16346313D02*
D03*
X6472146Y18848314D02*
D03*
Y18759314D02*
D03*
X5382486Y16846794D02*
D03*
Y16757794D02*
D03*
X4851626Y17464014D02*
D03*
Y17375014D02*
D03*
X4648426Y17464014D02*
D03*
Y17375014D02*
D03*
X3734026Y17464014D02*
D03*
Y17375014D02*
D03*
X6215606Y16846794D02*
D03*
Y16757794D02*
D03*
X4549366Y16435313D02*
D03*
Y16346313D02*
D03*
X2936466Y16219414D02*
D03*
Y16130414D02*
D03*
X6187666Y18848314D02*
D03*
Y18759314D02*
D03*
X5359626Y18848314D02*
D03*
Y18759314D02*
D03*
X3497806Y17011894D02*
D03*
Y16922894D02*
D03*
X6553431Y17462169D02*
D03*
Y17373167D02*
D03*
X2763746Y19043893D02*
D03*
Y18954893D02*
D03*
X10541226Y19144174D02*
D03*
X10398986D02*
D03*
X10825706D02*
D03*
X10683466D02*
D03*
X10752046Y18948595D02*
D03*
X10470106D02*
D03*
X10614886D02*
D03*
X10256746Y19144174D02*
D03*
X10119586D02*
D03*
X10188166Y18948595D02*
D03*
X10327866D02*
D03*
X10053546D02*
D03*
X10683466Y18753014D02*
D03*
X10541226D02*
D03*
X10825706D02*
D03*
X10398986D02*
D03*
X10256746D02*
D03*
X10119586D02*
D03*
X9850346Y19144174D02*
D03*
X9703026D02*
D03*
X9987506D02*
D03*
X9779226Y18948595D02*
D03*
X9921466D02*
D03*
X9634446D02*
D03*
X9565866Y19144174D02*
D03*
X9428706D02*
D03*
X9291546D02*
D03*
X9360126Y18948595D02*
D03*
X9497286D02*
D03*
X9222966D02*
D03*
X9703026Y18753014D02*
D03*
X9987506D02*
D03*
X9850346D02*
D03*
X9428706D02*
D03*
X9565866D02*
D03*
X9291546D02*
D03*
X10327866Y18557434D02*
D03*
X10053546D02*
D03*
X10188166D02*
D03*
X10614886D02*
D03*
X10470106D02*
D03*
X10752046D02*
D03*
X9921466D02*
D03*
X10129746Y16934373D02*
D03*
X10556466D02*
D03*
X10411686D02*
D03*
X10693626D02*
D03*
X10269446D02*
D03*
X10198326Y16769273D02*
D03*
X10061166D02*
D03*
X9995126Y16934373D02*
D03*
X9929086Y16771814D02*
D03*
X9779226Y18557434D02*
D03*
X9634446D02*
D03*
X9672546Y17376334D02*
D03*
X9779226Y17373795D02*
D03*
X9497286Y18557434D02*
D03*
X9360126D02*
D03*
X9469346Y17376334D02*
D03*
X9568406D02*
D03*
X9273766Y17373795D02*
D03*
X9367746D02*
D03*
X9576026Y16934373D02*
D03*
X9863046D02*
D03*
X9791926Y16769273D02*
D03*
X9720806Y16934373D02*
D03*
X9644606Y16769273D02*
D03*
X9301706Y16934373D02*
D03*
X9438866D02*
D03*
X9507446Y16769273D02*
D03*
X9233126D02*
D03*
X9370286D02*
D03*
X9009606Y19144174D02*
D03*
X8874986D02*
D03*
X9151846D02*
D03*
X8938486Y18948595D02*
D03*
X9078186D02*
D03*
X8803866D02*
D03*
X8732746Y19144174D02*
D03*
X8587966D02*
D03*
X8659086Y18948595D02*
D03*
X8516846D02*
D03*
X9151846Y18753014D02*
D03*
X9009606D02*
D03*
X8874986D02*
D03*
X8587966D02*
D03*
X8448266D02*
D03*
X8732746D02*
D03*
X8173946Y19144174D02*
D03*
X8026626D02*
D03*
X8448266D02*
D03*
X8308566D02*
D03*
X8377146Y18948595D02*
D03*
X8097746D02*
D03*
X8239986D02*
D03*
X7881846Y19144174D02*
D03*
X7752306D02*
D03*
X7950426Y18948595D02*
D03*
X7818346D02*
D03*
X8308566Y18753014D02*
D03*
X8173946D02*
D03*
X7752306D02*
D03*
X8016466D02*
D03*
X7879306D02*
D03*
X9222966Y18557434D02*
D03*
X9078186D02*
D03*
X8938486D02*
D03*
X9172166Y17373795D02*
D03*
X9070566D02*
D03*
X8968966D02*
D03*
X8803866Y18557434D02*
D03*
X8659086D02*
D03*
X8516846D02*
D03*
X8763226Y17373795D02*
D03*
X8867366D02*
D03*
X8560026D02*
D03*
X8661626D02*
D03*
X9164546Y16934373D02*
D03*
X9019766D02*
D03*
X9093426Y16769273D02*
D03*
X8880066Y16934373D02*
D03*
X8951186Y16769273D02*
D03*
X8816566D02*
D03*
X8600666Y16934373D02*
D03*
X8745446D02*
D03*
X8377146Y18557434D02*
D03*
X8239986D02*
D03*
X8097746D02*
D03*
X8356826Y17373795D02*
D03*
X8255226D02*
D03*
X8458426D02*
D03*
X8049486D02*
D03*
X8153626D02*
D03*
X7947886Y18557434D02*
D03*
X7813266D02*
D03*
X7947886Y17373795D02*
D03*
X7744686D02*
D03*
X7846286D02*
D03*
X8318726Y16934373D02*
D03*
X8458426D02*
D03*
X8181566D02*
D03*
X8250146Y16769273D02*
D03*
X7897086Y16934373D02*
D03*
X7759926D02*
D03*
X8039326D02*
D03*
X8115526Y16769273D02*
D03*
X7831046D02*
D03*
X7970746D02*
D03*
X10767286D02*
D03*
X10625046D02*
D03*
X10482806D02*
D03*
X10693626Y16538133D02*
D03*
X10556466D02*
D03*
X10411686D02*
D03*
X10340566Y16769273D02*
D03*
X10269446Y16538133D02*
D03*
X10129746D02*
D03*
X10625046Y16357794D02*
D03*
X10482806D02*
D03*
X10767286D02*
D03*
X10693626Y16141895D02*
D03*
X10556466D02*
D03*
X10340566Y16357794D02*
D03*
X10198326D02*
D03*
X10061166D02*
D03*
X10129746Y16141895D02*
D03*
X9995126Y16538133D02*
D03*
X9863046D02*
D03*
X9720806D02*
D03*
X9644606Y16357794D02*
D03*
X9576026Y16538133D02*
D03*
X9507446Y16357794D02*
D03*
X9301706Y16538133D02*
D03*
X9438866D02*
D03*
X9929086Y16357794D02*
D03*
X9791926D02*
D03*
X9720806Y16141895D02*
D03*
X9370286Y16357794D02*
D03*
X9233126D02*
D03*
X9576026Y16141895D02*
D03*
X9301706D02*
D03*
X10269446D02*
D03*
X9995126D02*
D03*
X10411686D02*
D03*
X10269446Y14434373D02*
D03*
X10129746D02*
D03*
X10411686D02*
D03*
X9995126D02*
D03*
X10693626D02*
D03*
X10556466D02*
D03*
X10625046Y14269273D02*
D03*
X10482806D02*
D03*
X9929086Y14271814D02*
D03*
X10061166Y14269273D02*
D03*
X9863046Y16141895D02*
D03*
X9779226Y14873795D02*
D03*
X9672546Y14876334D02*
D03*
X9438866Y16141895D02*
D03*
X9469346Y14876334D02*
D03*
X9568406D02*
D03*
X9273766Y14873795D02*
D03*
X9367746D02*
D03*
X9863046Y14434373D02*
D03*
X9720806D02*
D03*
X9576026D02*
D03*
X9791926Y14269273D02*
D03*
X9644606D02*
D03*
X9301706Y14434373D02*
D03*
X9438866D02*
D03*
X9370286Y14269273D02*
D03*
X9164546Y16538133D02*
D03*
X9019766D02*
D03*
X8880066D02*
D03*
X8674326Y16769273D02*
D03*
X8529546D02*
D03*
X8745446Y16538133D02*
D03*
X8600666D02*
D03*
X9093426Y16357794D02*
D03*
X8951186D02*
D03*
X9164546Y16141895D02*
D03*
X8816566Y16357794D02*
D03*
X8674326D02*
D03*
X8529546D02*
D03*
X8600666Y16141895D02*
D03*
X8389846Y16769273D02*
D03*
X8458426Y16538133D02*
D03*
X8318726D02*
D03*
X8181566D02*
D03*
X8039326D02*
D03*
X7759926D02*
D03*
X7892006D02*
D03*
X8389846Y16357794D02*
D03*
X8250146D02*
D03*
X8458426Y16141895D02*
D03*
X8318726D02*
D03*
X7968206Y16357794D02*
D03*
X7825966D02*
D03*
X8115526D02*
D03*
X9019766Y16141895D02*
D03*
X8880066D02*
D03*
X9172166Y14873795D02*
D03*
X9070566D02*
D03*
X8867366D02*
D03*
X8968966D02*
D03*
X8745446Y16141895D02*
D03*
X8458426Y14873795D02*
D03*
X8661626D02*
D03*
X8763226D02*
D03*
X8560026D02*
D03*
X8600666Y14434373D02*
D03*
X9164546D02*
D03*
X9019766D02*
D03*
X8880066D02*
D03*
X8951186Y14269273D02*
D03*
X8745446Y14434373D02*
D03*
X8816566Y14269273D02*
D03*
X8529546D02*
D03*
X8181566Y16141895D02*
D03*
X8356826Y14873795D02*
D03*
X8255226D02*
D03*
X8049486D02*
D03*
X8153626D02*
D03*
X8039326Y16141895D02*
D03*
X7904706D02*
D03*
X7759926D02*
D03*
X7947886Y14873795D02*
D03*
X7744686D02*
D03*
X7846286D02*
D03*
X8318726Y14434373D02*
D03*
X8181566D02*
D03*
X8458426D02*
D03*
X8250146Y14269273D02*
D03*
X8039326Y14434373D02*
D03*
X7897086D02*
D03*
X7759926D02*
D03*
X7970746Y14269273D02*
D03*
X10767286D02*
D03*
X10693626Y14038133D02*
D03*
X10625046Y13857794D02*
D03*
X10767286D02*
D03*
X10693626Y13641895D02*
D03*
X10556466D02*
D03*
X10625046Y13443774D02*
D03*
X10556466Y14038133D02*
D03*
X10411686D02*
D03*
X10482806Y13857794D02*
D03*
X10411686Y13641895D02*
D03*
X10767286Y13443774D02*
D03*
X10693626Y13248193D02*
D03*
X10556466D02*
D03*
X10767286Y13052614D02*
D03*
X10625046D02*
D03*
X10482806Y13443774D02*
D03*
X10411686Y13248193D02*
D03*
X10482806Y13052614D02*
D03*
X10340566Y14269273D02*
D03*
X10198326D02*
D03*
X10269446Y14038133D02*
D03*
X10340566Y13857794D02*
D03*
X10269446Y13641895D02*
D03*
X10198326Y13857794D02*
D03*
Y13443774D02*
D03*
X10129746Y14038133D02*
D03*
X9995126D02*
D03*
X10129746Y13641895D02*
D03*
X10061166Y13857794D02*
D03*
X9995126Y13641895D02*
D03*
X10340566Y13443774D02*
D03*
X10269446Y13248193D02*
D03*
X10340566Y13052614D02*
D03*
X10198326D02*
D03*
X10129746Y13248193D02*
D03*
X10061166Y13443774D02*
D03*
X9995126Y13248193D02*
D03*
X10061166Y13052614D02*
D03*
X9995126Y12857034D02*
D03*
X10693626D02*
D03*
X10683240Y9230460D02*
D03*
X10614660Y9034880D02*
D03*
X10830560Y8839300D02*
D03*
X10751820Y9034880D02*
D03*
X10680700Y8839300D02*
D03*
X10556466Y12857034D02*
D03*
X10546080Y9230460D02*
D03*
X10411686Y12857034D02*
D03*
X10543540Y8839300D02*
D03*
X10472420Y9034880D02*
D03*
X10751820Y8643720D02*
D03*
X10614660D02*
D03*
X10830560Y8445600D02*
D03*
X10751820Y8229700D02*
D03*
X10680700Y8445600D02*
D03*
X10614660Y8229700D02*
D03*
X10543540Y8445600D02*
D03*
X10472420Y8643720D02*
D03*
X10546080Y8049360D02*
D03*
X10472420Y8229700D02*
D03*
X10406380Y9230460D02*
D03*
X10269446Y12857034D02*
D03*
X10266680Y9230460D02*
D03*
X10403840Y8839300D02*
D03*
X10332720Y9034880D02*
D03*
X10193020D02*
D03*
X10264140Y8839300D02*
D03*
X10129746Y12857034D02*
D03*
X10124440Y9230460D02*
D03*
X10121900Y8839300D02*
D03*
X10043160Y9034880D02*
D03*
X10403840Y8445600D02*
D03*
X10332720Y8643720D02*
D03*
X10264140Y8445600D02*
D03*
X10332720Y8229700D02*
D03*
X10193020D02*
D03*
X10266680Y8049360D02*
D03*
X10193020Y8643720D02*
D03*
X10045700D02*
D03*
X10124440Y8445600D02*
D03*
X10050780Y8229700D02*
D03*
X9863046Y14038133D02*
D03*
X9791926Y13857794D02*
D03*
X9929086D02*
D03*
Y13443774D02*
D03*
X9863046Y13641895D02*
D03*
X9720806Y14038133D02*
D03*
Y13641895D02*
D03*
X9644606Y13857794D02*
D03*
Y13443774D02*
D03*
X9791926D02*
D03*
X9863046Y13248193D02*
D03*
X9929086Y13052614D02*
D03*
X9791926D02*
D03*
X9720806Y13248193D02*
D03*
X9644606Y13052614D02*
D03*
X9576026Y14038133D02*
D03*
X9507446Y14269273D02*
D03*
X9438866Y14038133D02*
D03*
X9576026Y13641895D02*
D03*
X9507446Y13443774D02*
D03*
Y13857794D02*
D03*
X9438866Y13641895D02*
D03*
X9370286Y13857794D02*
D03*
X9301706Y14038133D02*
D03*
X9370286Y13443774D02*
D03*
X9301706Y13641895D02*
D03*
X9576026Y13248193D02*
D03*
X9438866D02*
D03*
X9576026Y12857034D02*
D03*
X9507446Y13052614D02*
D03*
X9301706Y13248193D02*
D03*
X9370286Y13052614D02*
D03*
X9301706Y12857034D02*
D03*
X9984740Y9230460D02*
D03*
X9863046Y12857034D02*
D03*
X9850120Y9230460D02*
D03*
X9911080Y9034880D02*
D03*
X9979660Y8839300D02*
D03*
X9845040D02*
D03*
X9720806Y12857034D02*
D03*
X9715500Y9230460D02*
D03*
X9784080Y9034880D02*
D03*
X9712960Y8839300D02*
D03*
X9911080Y8643720D02*
D03*
X9982200Y8445600D02*
D03*
X9845040D02*
D03*
X9911080Y8229700D02*
D03*
X9781540Y8643720D02*
D03*
X9700260Y8445600D02*
D03*
X9779000Y8229700D02*
D03*
X9565640Y9230460D02*
D03*
X9438866Y12857034D02*
D03*
X9423400Y9230460D02*
D03*
X9646920Y9034880D02*
D03*
X9565640Y8839300D02*
D03*
X9489440Y9034880D02*
D03*
X9423400Y8839300D02*
D03*
X9286240Y9230460D02*
D03*
X9354820Y9034880D02*
D03*
X9286240Y8839300D02*
D03*
X9636760Y8643720D02*
D03*
X9489440D02*
D03*
X9423400Y8445600D02*
D03*
X9636760Y8229700D02*
D03*
X9565640Y8445600D02*
D03*
X9489440Y8229700D02*
D03*
X9354820Y8643720D02*
D03*
Y8229700D02*
D03*
X9286240Y8445600D02*
D03*
X10825480Y8049360D02*
D03*
X10683240D02*
D03*
X10822940Y7653120D02*
D03*
X10751820Y7818220D02*
D03*
X10614660D02*
D03*
X10680700Y7653120D02*
D03*
X10472420Y7818220D02*
D03*
X10406380Y8049360D02*
D03*
X10543540Y7653120D02*
D03*
X10403840D02*
D03*
X10830566Y5945614D02*
D03*
X10680706D02*
D03*
X10614666Y5729714D02*
D03*
X10825486Y5549374D02*
D03*
X10751826Y5729714D02*
D03*
X10683246Y5549374D02*
D03*
X10543546Y5945614D02*
D03*
X10403846D02*
D03*
X10472426Y5729714D02*
D03*
X10126980Y8049360D02*
D03*
X10193020Y7818220D02*
D03*
X10332720D02*
D03*
X10264140Y7653120D02*
D03*
X10121900D02*
D03*
X9984740Y8049360D02*
D03*
X9911080Y7818220D02*
D03*
X10050780D02*
D03*
X9982200Y7653120D02*
D03*
X9949180Y7201000D02*
D03*
X10264146Y5945614D02*
D03*
X10193026Y5729714D02*
D03*
X10332726D02*
D03*
X10266686Y5549374D02*
D03*
X10126986D02*
D03*
X10124446Y5945614D02*
D03*
X9982206D02*
D03*
X10050786Y5729714D02*
D03*
X9911086D02*
D03*
X9984746Y5549374D02*
D03*
X10751826Y5318234D02*
D03*
X10546086Y5549374D02*
D03*
X10614666Y5318234D02*
D03*
X10822946Y5153134D02*
D03*
X10680706D02*
D03*
X10543546D02*
D03*
X10568946Y3512294D02*
D03*
X10472426Y5318234D02*
D03*
X10406386Y5549374D02*
D03*
X10332726Y5318234D02*
D03*
X10431786Y3512294D02*
D03*
X10403846Y5153134D02*
D03*
X10637526Y3316714D02*
D03*
X10500366D02*
D03*
X10716266Y3121134D02*
D03*
X10637526Y2925554D02*
D03*
X10566406Y3121134D02*
D03*
X10500366Y2925554D02*
D03*
X10358126Y3316714D02*
D03*
X10429246Y3121134D02*
D03*
X10358126Y2925554D02*
D03*
X10193026Y5318234D02*
D03*
X10050786D02*
D03*
X10264146Y5153134D02*
D03*
X10152386Y3512294D02*
D03*
X10292086D02*
D03*
X10121906Y5153134D02*
D03*
X9982206D02*
D03*
X9911086Y5318234D02*
D03*
X10010146Y3512294D02*
D03*
X9949186Y4701014D02*
D03*
X10218426Y3316714D02*
D03*
X10289546Y3121134D02*
D03*
X10218426Y2925554D02*
D03*
X10149846Y3121134D02*
D03*
X10078726Y3316714D02*
D03*
X9928866D02*
D03*
X10078726Y2925554D02*
D03*
X10007606Y3121134D02*
D03*
X9931406Y2925554D02*
D03*
X9845040Y8049360D02*
D03*
Y7653120D02*
D03*
X9847580Y7201000D02*
D03*
X9773920Y7818220D02*
D03*
X9745980Y7201000D02*
D03*
X9712960Y8049360D02*
D03*
X9634220Y7818220D02*
D03*
X9707880Y7653120D02*
D03*
X9644380Y7201000D02*
D03*
X9845046Y5945614D02*
D03*
Y5549374D02*
D03*
X9779006Y5729714D02*
D03*
X9700266Y5945614D02*
D03*
X9712966Y5549374D02*
D03*
X9636766Y5729714D02*
D03*
X9565640Y8049360D02*
D03*
X9489440Y7818220D02*
D03*
X9423400Y8049360D02*
D03*
X9565640Y7653120D02*
D03*
X9542780Y7201000D02*
D03*
X9423400Y7653120D02*
D03*
X9441180Y7201000D02*
D03*
X9354820Y7818220D02*
D03*
X9286240Y8049360D02*
D03*
X9339580Y7201000D02*
D03*
X9286240Y7653120D02*
D03*
X9565646Y5945614D02*
D03*
X9423406D02*
D03*
X9489446Y5729714D02*
D03*
X9423406Y5549374D02*
D03*
X9286246Y5945614D02*
D03*
X9354826Y5729714D02*
D03*
X9286246Y5549374D02*
D03*
X9845046Y5153134D02*
D03*
X9773926Y5318234D02*
D03*
X9847586Y4701014D02*
D03*
X9870446Y3512294D02*
D03*
X9745986Y4701014D02*
D03*
X9735826Y3512294D02*
D03*
X9707886Y5153134D02*
D03*
X9634226Y5318234D02*
D03*
X9644386Y4701014D02*
D03*
X9601206Y3512294D02*
D03*
X9796786Y3316714D02*
D03*
X9865366Y3121134D02*
D03*
X9730746D02*
D03*
X9796786Y2925554D02*
D03*
X9669786Y3316714D02*
D03*
X9667246Y2925554D02*
D03*
X9598666Y3121134D02*
D03*
X9565646Y5549374D02*
D03*
X9489446Y5318234D02*
D03*
X9423406Y5153134D02*
D03*
X9565646D02*
D03*
X9542786Y4701014D02*
D03*
X9441186D02*
D03*
X9451346Y3512294D02*
D03*
X9354826Y5318234D02*
D03*
X9286246Y5153134D02*
D03*
X9339586Y4701014D02*
D03*
X9237986D02*
D03*
X9532626Y3316714D02*
D03*
X9375146D02*
D03*
X9522466Y2925554D02*
D03*
X9451346Y3121134D02*
D03*
X9375146Y2925554D02*
D03*
X9309106Y3512294D02*
D03*
X9240526Y3316714D02*
D03*
X9309106Y3121134D02*
D03*
X9240526Y2925554D02*
D03*
X9233126Y14269273D02*
D03*
X9164546Y14038133D02*
D03*
X9093426Y14269273D02*
D03*
X9233126Y13857794D02*
D03*
X9164546Y13641895D02*
D03*
X9093426Y13857794D02*
D03*
X9019766Y13641895D02*
D03*
Y14038133D02*
D03*
X8880066D02*
D03*
X8951186Y13443774D02*
D03*
Y13857794D02*
D03*
X8880066Y13641895D02*
D03*
X9233126Y13443774D02*
D03*
X9093426D02*
D03*
X9019766Y13248193D02*
D03*
X9233126Y13052614D02*
D03*
X9164546Y13248193D02*
D03*
X9093426Y13052614D02*
D03*
X8880066Y13248193D02*
D03*
X8951186Y13052614D02*
D03*
X8745446Y14038133D02*
D03*
X8674326Y14269273D02*
D03*
X8816566Y13857794D02*
D03*
X8745446Y13641895D02*
D03*
X8674326Y13857794D02*
D03*
X8600666Y14038133D02*
D03*
X8458426D02*
D03*
X8529546Y13857794D02*
D03*
X8600666Y13641895D02*
D03*
X8458426D02*
D03*
X8529546Y13443774D02*
D03*
X8816566D02*
D03*
X8674326D02*
D03*
X8745446Y13248193D02*
D03*
X8816566Y13052614D02*
D03*
X8674326D02*
D03*
X8600666Y13248193D02*
D03*
X8458426D02*
D03*
X8529546Y13052614D02*
D03*
X8458426Y12857034D02*
D03*
X9164546D02*
D03*
X9146540Y9230460D02*
D03*
X9019766Y12857034D02*
D03*
X9215120Y9034880D02*
D03*
X9146540Y8839300D02*
D03*
X9075420Y9034880D02*
D03*
X9004300Y8839300D02*
D03*
Y9230460D02*
D03*
X8880066Y12857034D02*
D03*
X8859520Y9230460D02*
D03*
X8930640Y9034880D02*
D03*
Y8643720D02*
D03*
X9215120D02*
D03*
X9146540Y8445600D02*
D03*
X9075420Y8643720D02*
D03*
X9215120Y8229700D02*
D03*
X9146540Y8049360D02*
D03*
X9075420Y8229700D02*
D03*
X9004300Y8049360D02*
D03*
Y8445600D02*
D03*
X8859520D02*
D03*
X8930640Y8229700D02*
D03*
X8859520Y8049360D02*
D03*
X8745446Y12857034D02*
D03*
X8724900Y9230460D02*
D03*
X8653780Y9034880D02*
D03*
X8859520Y8839300D02*
D03*
X8788400Y9034880D02*
D03*
X8724900Y8839300D02*
D03*
X8600666Y12857034D02*
D03*
X8585200Y9230460D02*
D03*
Y8839300D02*
D03*
X8511540Y9034880D02*
D03*
X8440420Y8839300D02*
D03*
X8788400Y8643720D02*
D03*
X8724900Y8445600D02*
D03*
X8788400Y8229700D02*
D03*
X8653780D02*
D03*
X8724900Y8049360D02*
D03*
X8653780Y8643720D02*
D03*
X8511540D02*
D03*
X8585200Y8049360D02*
D03*
Y8445600D02*
D03*
X8511540Y8229700D02*
D03*
X8389846Y14269273D02*
D03*
X8318726Y14038133D02*
D03*
X8389846Y13857794D02*
D03*
X8318726Y13641895D02*
D03*
X8250146Y13857794D02*
D03*
Y13443774D02*
D03*
X8181566Y14038133D02*
D03*
X8115526Y14269273D02*
D03*
X8181566Y13641895D02*
D03*
X8115526Y13443774D02*
D03*
X8389846D02*
D03*
X8318726Y13248193D02*
D03*
X8389846Y13052614D02*
D03*
X8318726Y12857034D02*
D03*
X8181566Y13248193D02*
D03*
X8250146Y13052614D02*
D03*
X8115526D02*
D03*
X8039326Y14038133D02*
D03*
X7892006D02*
D03*
X8115526Y13857794D02*
D03*
X8039326Y13641895D02*
D03*
X7968206Y13857794D02*
D03*
X7904706Y13641895D02*
D03*
X7831046Y14269273D02*
D03*
X7825966Y13857794D02*
D03*
X7759926Y14038133D02*
D03*
X7823426Y13443774D02*
D03*
X7759926Y13641895D02*
D03*
X7968206Y13443774D02*
D03*
X7892006Y13248193D02*
D03*
X8039326D02*
D03*
X7958046Y13052614D02*
D03*
X7759926Y13248193D02*
D03*
X7820886Y13052614D02*
D03*
X8440420Y9230460D02*
D03*
X8303260D02*
D03*
X8371840Y9034880D02*
D03*
Y8643720D02*
D03*
X8303260Y8839300D02*
D03*
X8234680Y8643720D02*
D03*
X8181566Y12857034D02*
D03*
X8166100Y9230460D02*
D03*
X8234680Y9034880D02*
D03*
X8166100Y8839300D02*
D03*
X8440420Y8445600D02*
D03*
X8303260D02*
D03*
X8440420Y8049360D02*
D03*
X8371840Y8229700D02*
D03*
X8303260Y8049360D02*
D03*
X8166100Y8445600D02*
D03*
X8234680Y8229700D02*
D03*
X8097520D02*
D03*
X8166100Y8049360D02*
D03*
X8039326Y12857034D02*
D03*
X8028940Y9230460D02*
D03*
X7889466Y12857034D02*
D03*
X8097520Y9034880D02*
D03*
X8028940Y8839300D02*
D03*
X7960360Y9034880D02*
D03*
X7884160Y8839300D02*
D03*
Y9230460D02*
D03*
X7754846Y12857034D02*
D03*
X7741920Y9230460D02*
D03*
X7813040Y8643720D02*
D03*
Y9034880D02*
D03*
X7741920Y8839300D02*
D03*
X8097520Y8643720D02*
D03*
X8028940Y8445600D02*
D03*
X7960360Y8643720D02*
D03*
X8028940Y8049360D02*
D03*
X7960360Y8229700D02*
D03*
X7884160Y8445600D02*
D03*
X7741920D02*
D03*
X7884160Y8049360D02*
D03*
X7813040Y8229700D02*
D03*
X7741920Y8049360D02*
D03*
X9215120Y7818220D02*
D03*
X9075420D02*
D03*
X9146540Y7653120D02*
D03*
X9136380Y7201000D02*
D03*
X9237980D02*
D03*
X9034780D02*
D03*
X8930640Y7818220D02*
D03*
X9004300Y7653120D02*
D03*
X8933180Y7201000D02*
D03*
X8859520Y7653120D02*
D03*
X9146546Y5945614D02*
D03*
X9075426Y5729714D02*
D03*
X9215126D02*
D03*
X9146546Y5549374D02*
D03*
X9004306D02*
D03*
Y5945614D02*
D03*
X8859526D02*
D03*
X8930646Y5729714D02*
D03*
X8859526Y5549374D02*
D03*
X8788400Y7818220D02*
D03*
X8653780D02*
D03*
X8724900Y7653120D02*
D03*
X8831580Y7201000D02*
D03*
X8729980D02*
D03*
X8628380D02*
D03*
X8511540Y7818220D02*
D03*
X8585200Y7653120D02*
D03*
X8529320Y7201000D02*
D03*
X8788406Y5729714D02*
D03*
X8724906Y5945614D02*
D03*
X8653786Y5729714D02*
D03*
X8724906Y5549374D02*
D03*
X8585206Y5945614D02*
D03*
Y5549374D02*
D03*
X8511546Y5729714D02*
D03*
X9215126Y5318234D02*
D03*
X9146546Y5153134D02*
D03*
X9075426Y5318234D02*
D03*
X9004306Y5153134D02*
D03*
X9136386Y4701014D02*
D03*
X9034786D02*
D03*
X9032246Y3512294D02*
D03*
X8930646Y5318234D02*
D03*
X8859526Y5153134D02*
D03*
X8933186Y4701014D02*
D03*
X8890006Y3512294D02*
D03*
X9171946D02*
D03*
X9100826Y3316714D02*
D03*
X9171946Y3121134D02*
D03*
X9100826Y2925554D02*
D03*
X9032246Y3121134D02*
D03*
X8961126Y3316714D02*
D03*
Y2925554D02*
D03*
X8890006Y3121134D02*
D03*
X8788406Y5318234D02*
D03*
X8724906Y5153134D02*
D03*
X8653786Y5318234D02*
D03*
X8831586Y4701014D02*
D03*
X8745226Y3512294D02*
D03*
X8628386Y4701014D02*
D03*
X8729986D02*
D03*
X8585206Y5153134D02*
D03*
X8511546Y5318234D02*
D03*
X8610606Y3512294D02*
D03*
X8529326Y4701014D02*
D03*
X8470906Y3512294D02*
D03*
X8816346Y3316714D02*
D03*
X8674106D02*
D03*
X8816346Y2925554D02*
D03*
X8745226Y3121134D02*
D03*
X8674106Y2925554D02*
D03*
X8539486Y3316714D02*
D03*
X8610606Y3121134D02*
D03*
X8470906D02*
D03*
X8539486Y2925554D02*
D03*
X8371840Y7818220D02*
D03*
X8303260Y7653120D02*
D03*
X8440420D02*
D03*
X8427720Y7201000D02*
D03*
X8326120D02*
D03*
X8234680Y7818220D02*
D03*
X8224520Y7201000D02*
D03*
X8166100Y7653120D02*
D03*
X8166106Y5945614D02*
D03*
X8440426D02*
D03*
X8303266D02*
D03*
X8371846Y5729714D02*
D03*
X8440426Y5549374D02*
D03*
X8303266D02*
D03*
X8234686Y5729714D02*
D03*
X8166106Y5549374D02*
D03*
X8097520Y7818220D02*
D03*
X7960360D02*
D03*
X8028940Y7653120D02*
D03*
X8122920Y7201000D02*
D03*
X8021320D02*
D03*
X7919720D02*
D03*
X7813040Y7818220D02*
D03*
X7741920Y7653120D02*
D03*
X7884160D02*
D03*
X7830820Y7201000D02*
D03*
X7729220D02*
D03*
X8028946Y5945614D02*
D03*
X7884166D02*
D03*
X7960366Y5729714D02*
D03*
X8097526D02*
D03*
X8028946Y5549374D02*
D03*
X7884166D02*
D03*
X7741926Y5945614D02*
D03*
X7813046Y5729714D02*
D03*
X7741926Y5549374D02*
D03*
X8440426Y5153134D02*
D03*
X8371846Y5318234D02*
D03*
X8234686D02*
D03*
X8303266Y5153134D02*
D03*
X8427726Y4701014D02*
D03*
X8326126Y3512294D02*
D03*
Y4701014D02*
D03*
X8166106Y5153134D02*
D03*
X8097526Y5318234D02*
D03*
X8224526Y4701014D02*
D03*
X8122926D02*
D03*
X8188966Y3512294D02*
D03*
X8397246Y3316714D02*
D03*
Y2925554D02*
D03*
X8326126Y3121134D02*
D03*
X8257546Y2925554D02*
D03*
Y3316714D02*
D03*
X8120386D02*
D03*
X8188966Y3121134D02*
D03*
X8120386Y2925554D02*
D03*
X8028946Y5153134D02*
D03*
X7960366Y5318234D02*
D03*
X7884166Y5153134D02*
D03*
X8021326Y4701014D02*
D03*
X8051806Y3512294D02*
D03*
X7919726Y4701014D02*
D03*
X7813046Y5318234D02*
D03*
X7741926Y5153134D02*
D03*
X7830826Y4701014D02*
D03*
X7729226D02*
D03*
X7769866Y3512294D02*
D03*
X7914646D02*
D03*
X7983226Y3316714D02*
D03*
X8051806Y3121134D02*
D03*
X7914646D02*
D03*
X7983226Y2925554D02*
D03*
X7846066Y3316714D02*
D03*
Y2925554D02*
D03*
X7769866Y3121134D02*
D03*
X7683726Y18948595D02*
D03*
X7617686Y19144174D02*
D03*
X7541486Y18948595D02*
D03*
X7678646Y18557434D02*
D03*
X7620226Y18753014D02*
D03*
X7538946Y18557434D02*
D03*
X7470366Y19144174D02*
D03*
X7399246Y18948595D02*
D03*
X7470366Y18753014D02*
D03*
X7640546Y17373795D02*
D03*
X7559266D02*
D03*
X7693886Y16769273D02*
D03*
X7622766Y16934373D02*
D03*
X7554186Y16769273D02*
D03*
X7460206Y17373795D02*
D03*
X7483066Y16934373D02*
D03*
X7411946Y16769273D02*
D03*
X7330666Y19144174D02*
D03*
X7259546Y18948595D02*
D03*
X7396706Y18557434D02*
D03*
X7330666Y18753014D02*
D03*
X7190966D02*
D03*
X7257006Y18557434D02*
D03*
X7190966Y19144174D02*
D03*
X7048726D02*
D03*
X7119846Y18948595D02*
D03*
X7048726Y18753014D02*
D03*
X7117306Y18557434D02*
D03*
X7358606Y17373795D02*
D03*
X7257006D02*
D03*
X7201126Y16934373D02*
D03*
X7340826D02*
D03*
X7272246Y16769273D02*
D03*
X7155406Y17373795D02*
D03*
X7053806D02*
D03*
X7061426Y16934373D02*
D03*
X7132546Y16769273D02*
D03*
X7693886Y16357794D02*
D03*
X7620226Y16538133D02*
D03*
X7554186Y16357794D02*
D03*
X7622766Y16141895D02*
D03*
X7640546Y14873795D02*
D03*
X7559266D02*
D03*
X7477986Y16538133D02*
D03*
X7480526Y16141895D02*
D03*
X7460206Y14873795D02*
D03*
X7622766Y14434373D02*
D03*
X7554186Y14269273D02*
D03*
X7693886D02*
D03*
Y13857794D02*
D03*
X7620226Y14038133D02*
D03*
X7554186Y13857794D02*
D03*
X7483066Y14434373D02*
D03*
X7411946Y14269273D02*
D03*
X7477986Y14038133D02*
D03*
X7411946Y13857794D02*
D03*
Y16357794D02*
D03*
X7338286Y16538133D02*
D03*
X7198586D02*
D03*
X7272246Y16357794D02*
D03*
X7340826Y16141895D02*
D03*
X7358606Y14873795D02*
D03*
X7201126Y16141895D02*
D03*
X7257006Y14873795D02*
D03*
X7132546Y16357794D02*
D03*
X7058886Y16538133D02*
D03*
X7155406Y14873795D02*
D03*
X7061426Y16141895D02*
D03*
X7053806Y14873795D02*
D03*
X7340826Y14434373D02*
D03*
X7201126D02*
D03*
X7338286Y14038133D02*
D03*
X7272246Y14269273D02*
D03*
Y13857794D02*
D03*
X7061426Y14434373D02*
D03*
X7132546Y14269273D02*
D03*
X7198586Y14038133D02*
D03*
X7058886D02*
D03*
X7132546Y13857794D02*
D03*
X6982686Y18948595D02*
D03*
X6911566Y18753014D02*
D03*
X6980146Y18557434D02*
D03*
X6952206Y17373795D02*
D03*
X6924266Y16934373D02*
D03*
X6911566Y19144174D02*
D03*
X6832826Y18948595D02*
D03*
X6850606Y17373795D02*
D03*
X6749006D02*
D03*
X6782026Y16934373D02*
D03*
X6990306Y16769273D02*
D03*
X6921726Y16538133D02*
D03*
X6990306Y16357794D02*
D03*
X6924266Y16141895D02*
D03*
X6853146Y16357794D02*
D03*
Y16769273D02*
D03*
X6779486Y16538133D02*
D03*
X6774406Y16141895D02*
D03*
X6952206Y14873795D02*
D03*
X6749006D02*
D03*
X6850606D02*
D03*
X6990306Y14269273D02*
D03*
X6924266Y14434373D02*
D03*
X6782026D02*
D03*
X6853146Y14269273D02*
D03*
X6921726Y14038133D02*
D03*
X6853146Y13857794D02*
D03*
X6990306D02*
D03*
X6779486Y14038133D02*
D03*
X7480526Y13641895D02*
D03*
X7693886Y13443774D02*
D03*
X7622766Y13641895D02*
D03*
X7559266Y13443774D02*
D03*
X7340826Y13641895D02*
D03*
X7411946Y13443774D02*
D03*
X7272246D02*
D03*
X7625306Y13248193D02*
D03*
X7483066D02*
D03*
X7693886Y13052614D02*
D03*
X7561806D02*
D03*
X7340826Y13248193D02*
D03*
X7411946Y13052614D02*
D03*
X7272246D02*
D03*
X6924266Y13641895D02*
D03*
X7201126D02*
D03*
X7061426D02*
D03*
X7132546Y13443774D02*
D03*
X6990306D02*
D03*
X6774406Y13641895D02*
D03*
X6853146Y13443774D02*
D03*
X7201126Y13248193D02*
D03*
X7061426D02*
D03*
X7132546Y13052614D02*
D03*
X6990306D02*
D03*
X6924266Y13248193D02*
D03*
X6774406D02*
D03*
X6853146Y13052614D02*
D03*
X7620226Y12857034D02*
D03*
X7480526D02*
D03*
X7675880Y9034880D02*
D03*
X7609840Y9230460D02*
D03*
X7543800Y9034880D02*
D03*
X7475220Y9230460D02*
D03*
X7338286Y12857034D02*
D03*
X7335520Y9230460D02*
D03*
X7406640Y9034880D02*
D03*
X7264400D02*
D03*
X7609840Y8839300D02*
D03*
X7475220D02*
D03*
X7675880Y8643720D02*
D03*
X7543800D02*
D03*
X7335520Y8839300D02*
D03*
X7406640Y8643720D02*
D03*
X7264400D02*
D03*
X7198586Y12857034D02*
D03*
X7058886D02*
D03*
X7048500Y9230460D02*
D03*
X7193280D02*
D03*
X7122160Y9034880D02*
D03*
X7048500Y8839300D02*
D03*
X6921726Y12857034D02*
D03*
X6911340Y9230460D02*
D03*
X6979920Y9034880D02*
D03*
X6911340Y8839300D02*
D03*
X6832600Y9032340D02*
D03*
X6626860Y9023400D02*
D03*
X7193280Y8839300D02*
D03*
X7122160Y8643720D02*
D03*
X6979920D02*
D03*
X6705600Y8827820D02*
D03*
X6837680Y8643720D02*
D03*
X6626860Y8632240D02*
D03*
X6421120Y9218980D02*
D03*
X6558280D02*
D03*
X6489700Y9023400D02*
D03*
X6347460D02*
D03*
X6281420Y9218980D02*
D03*
X6141720D02*
D03*
X6207760Y9023400D02*
D03*
X6068060D02*
D03*
X6555740Y8827820D02*
D03*
X6418580D02*
D03*
X6489700Y8632240D02*
D03*
X6347460D02*
D03*
X6278880Y8827820D02*
D03*
X6139180D02*
D03*
X6207760Y8632240D02*
D03*
X5999480Y9218980D02*
D03*
X5859780D02*
D03*
X5918200Y9023400D02*
D03*
X5786120D02*
D03*
X5590540Y9218980D02*
D03*
X5725160D02*
D03*
X5659120Y9023400D02*
D03*
X5996940Y8827820D02*
D03*
X5854700D02*
D03*
X6068060Y8632240D02*
D03*
X5786120D02*
D03*
X5920740D02*
D03*
X5720080Y8827820D02*
D03*
X5588000D02*
D03*
X5656580Y8632240D02*
D03*
X5440680Y9218980D02*
D03*
X5161280D02*
D03*
X5021580D02*
D03*
X4734560D02*
D03*
X4599940D02*
D03*
X4460240D02*
D03*
X4315460D02*
D03*
X5298440D02*
D03*
X5229860Y9023400D02*
D03*
X5521960D02*
D03*
X5364480D02*
D03*
X5440680Y8827820D02*
D03*
X5161280D02*
D03*
X5298440D02*
D03*
X5090160Y9023400D02*
D03*
X4950460D02*
D03*
X4879340Y9218980D02*
D03*
X5021580Y8827820D02*
D03*
X4879340D02*
D03*
X5229860Y8632240D02*
D03*
X5511800D02*
D03*
X5364480D02*
D03*
X5090160D02*
D03*
X4950460D02*
D03*
X4528820Y9023400D02*
D03*
X4386580D02*
D03*
X4805680D02*
D03*
X4663440D02*
D03*
X4734560Y8827820D02*
D03*
X4460240D02*
D03*
X4599940D02*
D03*
X4246880Y9023400D02*
D03*
X4178300Y9218980D02*
D03*
X4109720Y9023400D02*
D03*
X4315460Y8827820D02*
D03*
X4178300D02*
D03*
X4528820Y8632240D02*
D03*
X4805680D02*
D03*
X4663440D02*
D03*
X4109720D02*
D03*
X4386580D02*
D03*
X4246880D02*
D03*
X4041140Y9218980D02*
D03*
X3903980D02*
D03*
X3759200D02*
D03*
X3484880D02*
D03*
X2923540D02*
D03*
X3835400Y9023400D02*
D03*
X3688080D02*
D03*
X3972560D02*
D03*
X3903980Y8827820D02*
D03*
X4041140D02*
D03*
X3759200D02*
D03*
X3616960Y9218980D02*
D03*
X3550920Y9023400D02*
D03*
X3418840D02*
D03*
X3616960Y8827820D02*
D03*
X3484880D02*
D03*
X3972560Y8632240D02*
D03*
X3835400D02*
D03*
X3550920D02*
D03*
X3418840D02*
D03*
X3688080D02*
D03*
X3350260Y9218980D02*
D03*
X3068320D02*
D03*
X3210560D02*
D03*
X3281680Y9023400D02*
D03*
X3210560Y8827820D02*
D03*
X3350260D02*
D03*
X3139440Y9023400D02*
D03*
X3068320Y8827820D02*
D03*
X2786380Y9218980D02*
D03*
X2712720Y9023400D02*
D03*
X2997200D02*
D03*
X2923540Y8827820D02*
D03*
X2854960Y9023400D02*
D03*
X2786380Y8827820D02*
D03*
X3281680Y8632240D02*
D03*
X3139440D02*
D03*
X2712720D02*
D03*
X2997200D02*
D03*
X2854960D02*
D03*
X7609840Y8445600D02*
D03*
X7475220D02*
D03*
X7543800Y8229700D02*
D03*
X7675880D02*
D03*
X7609840Y8049360D02*
D03*
X7475220D02*
D03*
X7335520Y8445600D02*
D03*
X7264400Y8229700D02*
D03*
X7406640D02*
D03*
X7193280Y8049360D02*
D03*
X7335520D02*
D03*
X7675880Y7815680D02*
D03*
X7543800Y7818220D02*
D03*
X7609840Y7653120D02*
D03*
X7475220D02*
D03*
X7406640Y7818220D02*
D03*
X7264400D02*
D03*
X7335520Y7653120D02*
D03*
X7193280D02*
D03*
Y8445600D02*
D03*
X7048500D02*
D03*
X6911340D02*
D03*
X6979920Y8229700D02*
D03*
X7122160D02*
D03*
X7048500Y8049360D02*
D03*
X6911340D02*
D03*
X6837680Y8229700D02*
D03*
X6555740Y8434120D02*
D03*
X6705600D02*
D03*
X6700520Y8037880D02*
D03*
X6626860Y8218220D02*
D03*
X6558280Y8037880D02*
D03*
X7122160Y7818220D02*
D03*
X6979920D02*
D03*
X6837680D02*
D03*
X7048500Y7653120D02*
D03*
X6911340D02*
D03*
X6626860Y7806740D02*
D03*
X6697980Y7641640D02*
D03*
X6555740D02*
D03*
X7424420Y7201000D02*
D03*
X7627620D02*
D03*
X7609846Y5945614D02*
D03*
X7526020Y7201000D02*
D03*
X7475226Y5945614D02*
D03*
X7233920Y7201000D02*
D03*
X7132320D02*
D03*
X7335520D02*
D03*
X7335526Y5945614D02*
D03*
X7048506D02*
D03*
X7193286D02*
D03*
X7406646Y5729714D02*
D03*
X7675886D02*
D03*
X7543806D02*
D03*
X7609846Y5549374D02*
D03*
X7335526D02*
D03*
X7475226D02*
D03*
X7264406Y5729714D02*
D03*
X7193286Y5549374D02*
D03*
X7122166Y5729714D02*
D03*
X7048506Y5549374D02*
D03*
X7030720Y7201000D02*
D03*
X6924040D02*
D03*
X6629400Y7202220D02*
D03*
X6731000D02*
D03*
X6911346Y5945614D02*
D03*
X6979926Y5729714D02*
D03*
X6837686D02*
D03*
X6911346Y5549374D02*
D03*
X6705606Y5934134D02*
D03*
X6555746D02*
D03*
X6626866Y5718234D02*
D03*
X6418580Y8434120D02*
D03*
X6278880D02*
D03*
X6489700Y8218220D02*
D03*
X6347460D02*
D03*
X6421120Y8037880D02*
D03*
X6207760Y8218220D02*
D03*
X6281420Y8037880D02*
D03*
X6139180Y8434120D02*
D03*
X5999480D02*
D03*
X5925820Y8218220D02*
D03*
X6068060D02*
D03*
X6141720Y8037880D02*
D03*
X6002020D02*
D03*
X6489700Y7806740D02*
D03*
X6207760D02*
D03*
X6347460D02*
D03*
X6068060D02*
D03*
X5996940Y7641640D02*
D03*
X5857240Y8434120D02*
D03*
X5575300D02*
D03*
X5720080D02*
D03*
X5786120Y8218220D02*
D03*
X5720080Y8037880D02*
D03*
X5859780D02*
D03*
X5654040Y8218220D02*
D03*
X5588000Y8037880D02*
D03*
X5440680Y8434120D02*
D03*
X5298440D02*
D03*
X5511800Y8218220D02*
D03*
X5440680Y8037880D02*
D03*
X5364480Y8218220D02*
D03*
X5298440Y8037880D02*
D03*
X5648960Y7806740D02*
D03*
X5925820D02*
D03*
X5786120D02*
D03*
X5509260D02*
D03*
X5364480D02*
D03*
X6418580Y7641640D02*
D03*
X6278880D02*
D03*
X6426200Y7202220D02*
D03*
X6324600D02*
D03*
X6527800D02*
D03*
X6223000D02*
D03*
X6278886Y5934134D02*
D03*
X6139180Y7641640D02*
D03*
X5920740Y7202220D02*
D03*
X6121400D02*
D03*
X6139186Y5934134D02*
D03*
X6019800Y7202220D02*
D03*
X5999486Y5934134D02*
D03*
X6418586D02*
D03*
X6489706Y5718234D02*
D03*
X6207766D02*
D03*
X6347466D02*
D03*
X6068066D02*
D03*
X6141726Y5537894D02*
D03*
X5925826Y5718234D02*
D03*
X6002026Y5537894D02*
D03*
X5857240Y7641640D02*
D03*
X5720080D02*
D03*
X5582920D02*
D03*
X5839460Y7202220D02*
D03*
X5633720D02*
D03*
X5735320D02*
D03*
X5440680Y7641640D02*
D03*
X5298440D02*
D03*
X5430520Y7202220D02*
D03*
X5532120D02*
D03*
X5326380D02*
D03*
X5298446Y5934134D02*
D03*
X5857246D02*
D03*
X5720086D02*
D03*
X5575306D02*
D03*
X5786126Y5718234D02*
D03*
X5654046D02*
D03*
X5720086Y5537894D02*
D03*
X5440686Y5934134D02*
D03*
X5364486Y5718234D02*
D03*
X5511806D02*
D03*
X7675886Y5315694D02*
D03*
X7543806Y5318234D02*
D03*
X7406646D02*
D03*
X7475226Y5153134D02*
D03*
X7264406Y5318234D02*
D03*
X7335526Y5153134D02*
D03*
X7122166Y5318234D02*
D03*
X7193286Y5153134D02*
D03*
X7609846D02*
D03*
X7627626Y4701014D02*
D03*
X7424426D02*
D03*
X7526026D02*
D03*
X7335526D02*
D03*
X7132326D02*
D03*
X7233926D02*
D03*
X6700526Y5537894D02*
D03*
X6837686Y5318234D02*
D03*
X7048506Y5153134D02*
D03*
X6979926Y5318234D02*
D03*
X6911346Y5153134D02*
D03*
X6626866Y5306754D02*
D03*
X6558286Y5537894D02*
D03*
X6697986Y5141654D02*
D03*
X6555746D02*
D03*
X6527806Y4702234D02*
D03*
X7030726Y4701014D02*
D03*
X6924046D02*
D03*
X6731006Y4702234D02*
D03*
X6629406D02*
D03*
X7627626Y3512294D02*
D03*
X7495546D02*
D03*
X7698746Y3316714D02*
D03*
X7561586D02*
D03*
X7429506D02*
D03*
X7360926Y3512294D02*
D03*
X7221226D02*
D03*
X7292346Y3316714D02*
D03*
X7150106D02*
D03*
X7627626Y3121134D02*
D03*
X7495546D02*
D03*
X7698746Y2925554D02*
D03*
X7561586D02*
D03*
X7429506D02*
D03*
X7360926Y3121134D02*
D03*
X7221226D02*
D03*
X7292346Y2925554D02*
D03*
X7150106D02*
D03*
X7078986Y3512294D02*
D03*
X7007866Y3316714D02*
D03*
X6934206Y3512294D02*
D03*
X6865626Y3316714D02*
D03*
X6797046Y3512294D02*
D03*
X6718306Y3314174D02*
D03*
X6499866Y3518594D02*
D03*
X6568446Y3323014D02*
D03*
X6934206Y3121134D02*
D03*
X6797046D02*
D03*
X7078986D02*
D03*
X7007866Y2925554D02*
D03*
X6865626D02*
D03*
X6647186Y3127434D02*
D03*
X6723386Y2925554D02*
D03*
X6568446Y2931854D02*
D03*
X6421126Y5537894D02*
D03*
X6281426D02*
D03*
X6489706Y5306754D02*
D03*
X6347466D02*
D03*
X6207766D02*
D03*
X6278886Y5141654D02*
D03*
X6068066Y5306754D02*
D03*
X5925826D02*
D03*
X5996946Y5141654D02*
D03*
X6418586D02*
D03*
X6426206Y4702234D02*
D03*
X6223006D02*
D03*
X6324606D02*
D03*
X6139186Y5141654D02*
D03*
X6121406Y4702234D02*
D03*
X5920746D02*
D03*
X6019806D02*
D03*
X5859786Y5537894D02*
D03*
X5588006D02*
D03*
X5786126Y5306754D02*
D03*
X5648966D02*
D03*
X5509266D02*
D03*
X5440686Y5537894D02*
D03*
X5298446D02*
D03*
X5440686Y5141654D02*
D03*
X5364486Y5306754D02*
D03*
X5298446Y5141654D02*
D03*
X5857246D02*
D03*
X5720086D02*
D03*
X5839466Y4702234D02*
D03*
X5633726D02*
D03*
X5582926Y5141654D02*
D03*
X5532126Y4702234D02*
D03*
X5326386D02*
D03*
X6362706Y3518594D02*
D03*
X6223006D02*
D03*
X6431286Y3323014D02*
D03*
X6149346D02*
D03*
X6289046D02*
D03*
X6083306Y3518594D02*
D03*
X5941066D02*
D03*
X6009646Y3323014D02*
D03*
X5938526Y3127434D02*
D03*
X6497326D02*
D03*
X6360166D02*
D03*
X6220466D02*
D03*
X6431286Y2931854D02*
D03*
X6289046D02*
D03*
X6080766Y3127434D02*
D03*
X6149346Y2931854D02*
D03*
X5862326D02*
D03*
X6009646D02*
D03*
X5801366Y3518594D02*
D03*
X5735326Y4702234D02*
D03*
X5666746Y3518594D02*
D03*
X5727706Y3323014D02*
D03*
X5859786D02*
D03*
X5600706D02*
D03*
X5532126Y3518594D02*
D03*
X5430526Y4702234D02*
D03*
X5382266Y3518594D02*
D03*
X5463546Y3323014D02*
D03*
X5306066D02*
D03*
X5796286Y3127434D02*
D03*
X5661666D02*
D03*
X5727706Y2931854D02*
D03*
X5598166D02*
D03*
X5529586Y3127434D02*
D03*
X5382266D02*
D03*
X5453386Y2931854D02*
D03*
X5306066D02*
D03*
X5161280Y8434120D02*
D03*
X5021580D02*
D03*
X5229860Y8218220D02*
D03*
X5090160D02*
D03*
X5161280Y8037880D02*
D03*
X4950460Y8218220D02*
D03*
X5021580Y8037880D02*
D03*
X4879340Y8434120D02*
D03*
X4734560D02*
D03*
X4805680Y8218220D02*
D03*
X4879340Y8037880D02*
D03*
X4663440Y8218220D02*
D03*
X4734560Y8037880D02*
D03*
X4950460Y7806740D02*
D03*
X5229860D02*
D03*
X5090160D02*
D03*
X4805680D02*
D03*
X4663440D02*
D03*
X4599940Y8434120D02*
D03*
X4460240D02*
D03*
X4315460D02*
D03*
X4386580Y8218220D02*
D03*
X4528820D02*
D03*
X4599940Y8037880D02*
D03*
X4315460D02*
D03*
X4460240D02*
D03*
X4178300Y8434120D02*
D03*
X4041140D02*
D03*
X4109720Y8218220D02*
D03*
X4246880D02*
D03*
X4178300Y8037880D02*
D03*
X4041140D02*
D03*
X4386580Y7806740D02*
D03*
X4599940Y7641640D02*
D03*
X4528820Y7806740D02*
D03*
X4246880D02*
D03*
X4109720D02*
D03*
X4178300Y7641640D02*
D03*
X4041140D02*
D03*
X5161280D02*
D03*
X5021580D02*
D03*
X5224780Y7202220D02*
D03*
X5123180D02*
D03*
X4919980D02*
D03*
X5021580D02*
D03*
X4879340Y7641640D02*
D03*
X4734560D02*
D03*
X4818380Y7202220D02*
D03*
X4879346Y5934134D02*
D03*
X4716780Y7202220D02*
D03*
X4734566Y5934134D02*
D03*
X5161286D02*
D03*
X5021586D02*
D03*
X5229866Y5718234D02*
D03*
X5090166D02*
D03*
X4950466D02*
D03*
X5021586Y5537894D02*
D03*
X4879346D02*
D03*
X4663446Y5718234D02*
D03*
X4805686D02*
D03*
X4460240Y7641640D02*
D03*
X4315460D02*
D03*
X4612640Y7202220D02*
D03*
X4511040D02*
D03*
X4460246Y5934134D02*
D03*
X4409440Y7202220D02*
D03*
X4315466Y5934134D02*
D03*
X4206240Y7202220D02*
D03*
X4112260D02*
D03*
X4307840D02*
D03*
X4178306Y5934134D02*
D03*
X4010660Y7199680D02*
D03*
X4041146Y5934134D02*
D03*
X4599946D02*
D03*
X4386586Y5718234D02*
D03*
X4599946Y5537894D02*
D03*
X4528826Y5718234D02*
D03*
X4460246Y5537894D02*
D03*
X4246886Y5718234D02*
D03*
X4315466Y5537894D02*
D03*
X4109726Y5718234D02*
D03*
X4178306Y5537894D02*
D03*
X3903980Y8434120D02*
D03*
X3759200D02*
D03*
X3972560Y8218220D02*
D03*
X3835400D02*
D03*
X3903980Y8037880D02*
D03*
X3688080Y8218220D02*
D03*
X3759200Y8037880D02*
D03*
X3616960Y8434120D02*
D03*
X3484880D02*
D03*
X3550920Y8218220D02*
D03*
X3616960Y8037880D02*
D03*
X3418840Y8218220D02*
D03*
X3484880Y8037880D02*
D03*
X3972560Y7806740D02*
D03*
X3688080D02*
D03*
X3835400D02*
D03*
X3550920Y7804200D02*
D03*
X3418840Y7806740D02*
D03*
X3350260Y8434120D02*
D03*
X3210560D02*
D03*
X3068320D02*
D03*
X3281680Y8218220D02*
D03*
X3210560Y8037880D02*
D03*
X3350260D02*
D03*
X3139440Y8218220D02*
D03*
X3068320Y8037880D02*
D03*
X2923540Y8434120D02*
D03*
X2786380D02*
D03*
X2712720Y8218220D02*
D03*
X2997200D02*
D03*
X2923540Y8037880D02*
D03*
X2854960Y8218220D02*
D03*
X2786380Y8037880D02*
D03*
X3281680Y7806740D02*
D03*
X3139440D02*
D03*
X2712720D02*
D03*
X2997200D02*
D03*
X2854960D02*
D03*
X3903980Y7641640D02*
D03*
X3759200D02*
D03*
X3616960D02*
D03*
X3911600Y7199680D02*
D03*
X3700780Y7202220D02*
D03*
X3807460Y7199680D02*
D03*
X3903986Y5934134D02*
D03*
X3759206D02*
D03*
X3972566Y5718234D02*
D03*
X3835406D02*
D03*
X3688086D02*
D03*
X3759206Y5537894D02*
D03*
X3616966D02*
D03*
Y5934134D02*
D03*
X3550926Y5718234D02*
D03*
X3350260Y7641640D02*
D03*
X3484880D02*
D03*
X3350266Y5934134D02*
D03*
X3484886D02*
D03*
X3068320Y7641640D02*
D03*
X2923540D02*
D03*
X3210560D02*
D03*
X2786380D02*
D03*
X3068326Y5934134D02*
D03*
X3210566D02*
D03*
X2786386D02*
D03*
X2923546D02*
D03*
X3418846Y5718234D02*
D03*
X3139446D02*
D03*
X3281686D02*
D03*
X2712726D02*
D03*
X2997206D02*
D03*
X3068326Y5537894D02*
D03*
X2854966Y5718234D02*
D03*
X2786386Y5537894D02*
D03*
X5161286D02*
D03*
X5229866Y5306754D02*
D03*
X5161286Y5141654D02*
D03*
X4950466Y5306754D02*
D03*
X5090166D02*
D03*
X4734566Y5537894D02*
D03*
X4805686Y5306754D02*
D03*
X4879346Y5141654D02*
D03*
X4663446Y5306754D02*
D03*
X4734566Y5141654D02*
D03*
X5021586D02*
D03*
X5224786Y4702234D02*
D03*
X5123186D02*
D03*
X5021586D02*
D03*
X4919986D02*
D03*
X4716786D02*
D03*
X4818386D02*
D03*
X4528826Y5306754D02*
D03*
X4386586D02*
D03*
X4460246Y5141654D02*
D03*
X4246886Y5306754D02*
D03*
X4315466Y5141654D02*
D03*
X4041146Y5537894D02*
D03*
X4109726Y5306754D02*
D03*
X4178306Y5141654D02*
D03*
X3972566Y5306754D02*
D03*
X4041146Y5141654D02*
D03*
X4599946D02*
D03*
X4612646Y4702234D02*
D03*
X4409446D02*
D03*
X4511046D02*
D03*
X4206246D02*
D03*
X4307846D02*
D03*
X4112266D02*
D03*
X4010666Y4699694D02*
D03*
X5240026Y3518594D02*
D03*
X5102866D02*
D03*
X4963166D02*
D03*
X5171446Y3323014D02*
D03*
X5031746D02*
D03*
X4820926Y3518594D02*
D03*
X4676146D02*
D03*
X4892046Y3323014D02*
D03*
X4747266D02*
D03*
X5240026Y3127434D02*
D03*
X5102866D02*
D03*
X4963166D02*
D03*
X5171446Y2931854D02*
D03*
X5031746D02*
D03*
X4892046D02*
D03*
X4820926Y3127434D02*
D03*
X4676146D02*
D03*
X4747266Y2931854D02*
D03*
X4605026D02*
D03*
X4541526Y3518594D02*
D03*
X4401826D02*
D03*
X4257046D02*
D03*
X4605026Y3323014D02*
D03*
X4470406D02*
D03*
X4328166D02*
D03*
X4119886Y3518594D02*
D03*
X3982726D02*
D03*
X4188466Y3323014D02*
D03*
X4051306D02*
D03*
X4541526Y3127434D02*
D03*
X4401826D02*
D03*
X4328166Y2931854D02*
D03*
X4470406D02*
D03*
X4257046Y3127434D02*
D03*
X4119886D02*
D03*
X3982726D02*
D03*
X4188466Y2931854D02*
D03*
X4051306D02*
D03*
X3903986Y5537894D02*
D03*
Y5141654D02*
D03*
X3835406Y5306754D02*
D03*
X3759206Y5141654D02*
D03*
X3688086Y5306754D02*
D03*
X3550926Y5304214D02*
D03*
X3700786Y4702234D02*
D03*
X3616966Y5141654D02*
D03*
X3911606Y4699694D02*
D03*
X3807466D02*
D03*
X3350266Y5537894D02*
D03*
X3210566D02*
D03*
X3484886D02*
D03*
X3281686Y5306754D02*
D03*
X3418846D02*
D03*
X3139446D02*
D03*
X2923546Y5537894D02*
D03*
X2997206Y5306754D02*
D03*
X2712726D02*
D03*
X2854966D02*
D03*
X3484886Y5141654D02*
D03*
X3350266D02*
D03*
X3068326D02*
D03*
X3210566D02*
D03*
X2786386D02*
D03*
X2923546D02*
D03*
X3845566Y3518594D02*
D03*
X3700786D02*
D03*
X3914146Y3323014D02*
D03*
X3776986D02*
D03*
X3629666D02*
D03*
X3558546Y3518594D02*
D03*
X3426466D02*
D03*
X3492506Y3323014D02*
D03*
X3360426D02*
D03*
X3426466Y3127434D02*
D03*
X3845566D02*
D03*
X3700786D02*
D03*
X3914146Y2931854D02*
D03*
X3776986D02*
D03*
X3558546Y3127434D02*
D03*
X3629666Y2931854D02*
D03*
X3360426D02*
D03*
X3492506D02*
D03*
X3291846Y3518594D02*
D03*
X3152146D02*
D03*
X3009906D02*
D03*
X3223266Y3323014D02*
D03*
X3081026D02*
D03*
X2938786D02*
D03*
X2865126Y3518594D02*
D03*
X2727966D02*
D03*
X2796546Y3323014D02*
D03*
X2654306D02*
D03*
X2727966Y3127434D02*
D03*
X3291846D02*
D03*
X3152146D02*
D03*
X3009906D02*
D03*
X3223266Y2931854D02*
D03*
X3081026D02*
D03*
X2865126Y3127434D02*
D03*
X2938786Y2931854D02*
D03*
X2654306D02*
D03*
X2796546D02*
D03*
X9779226Y17462794D02*
D03*
X9672546Y17465334D02*
D03*
X10693626Y17023373D02*
D03*
X10767286Y16858273D02*
D03*
X10693626Y16627135D02*
D03*
X10767286Y16446794D02*
D03*
X10693626Y16230894D02*
D03*
X10825706Y19233174D02*
D03*
X10752046Y19037595D02*
D03*
X10825706Y18842014D02*
D03*
X10752046Y18646434D02*
D03*
X9568406Y17465334D02*
D03*
X10556466Y17023373D02*
D03*
X10625046Y16858273D02*
D03*
X10556466Y16627135D02*
D03*
X10625046Y16446794D02*
D03*
X10556466Y16230894D02*
D03*
X10683466Y19233174D02*
D03*
X10614886Y19037595D02*
D03*
X10683466Y18842014D02*
D03*
X10614886Y18646434D02*
D03*
X9469346Y17465334D02*
D03*
X10411686Y17023373D02*
D03*
X10482806Y16858273D02*
D03*
X10411686Y16627135D02*
D03*
X10482806Y16446794D02*
D03*
X10411686Y16230894D02*
D03*
X10541226Y19233174D02*
D03*
X10470106Y19037595D02*
D03*
X10541226Y18842014D02*
D03*
X10470106Y18646434D02*
D03*
X9367746Y17462794D02*
D03*
X10269446Y17023373D02*
D03*
X10340566Y16858273D02*
D03*
X10269446Y16627135D02*
D03*
X10340566Y16446794D02*
D03*
X10269446Y16230894D02*
D03*
X10398986Y19233174D02*
D03*
X10327866Y19037595D02*
D03*
X10398986Y18842014D02*
D03*
X10327866Y18646434D02*
D03*
X9273766Y17462794D02*
D03*
X10129746Y17023373D02*
D03*
X10198326Y16858273D02*
D03*
X10129746Y16627135D02*
D03*
X10198326Y16446794D02*
D03*
X10129746Y16230894D02*
D03*
X10256746Y19233174D02*
D03*
X10188166Y19037595D02*
D03*
X10256746Y18842014D02*
D03*
X10188166Y18646434D02*
D03*
X9172166Y17462794D02*
D03*
X9995126Y17023373D02*
D03*
X10061166Y16858273D02*
D03*
X9995126Y16627135D02*
D03*
X10061166Y16446794D02*
D03*
X9995126Y16230894D02*
D03*
X10119586Y19233174D02*
D03*
X10053546Y19037595D02*
D03*
X10119586Y18842014D02*
D03*
X10053546Y18646434D02*
D03*
X9070566Y17462794D02*
D03*
X9863046Y17023373D02*
D03*
X9929086Y16860814D02*
D03*
X9863046Y16627135D02*
D03*
X9929086Y16446794D02*
D03*
X9863046Y16230894D02*
D03*
X9987506Y19233174D02*
D03*
X9921466Y19037595D02*
D03*
X9987506Y18842014D02*
D03*
X9921466Y18646434D02*
D03*
X8968966Y17462794D02*
D03*
X9720806Y17023373D02*
D03*
X9791926Y16858273D02*
D03*
X9720806Y16627135D02*
D03*
X9791926Y16446794D02*
D03*
X9720806Y16230894D02*
D03*
X9850346Y19233174D02*
D03*
X9779226Y19037595D02*
D03*
X9850346Y18842014D02*
D03*
X9779226Y18646434D02*
D03*
X8867366Y17462794D02*
D03*
X9576026Y17023373D02*
D03*
X9644606Y16858273D02*
D03*
X9576026Y16627135D02*
D03*
X9644606Y16446794D02*
D03*
X9576026Y16230894D02*
D03*
X9703026Y19233174D02*
D03*
X9634446Y19037595D02*
D03*
X9703026Y18842014D02*
D03*
X9634446Y18646434D02*
D03*
X8763226Y17462794D02*
D03*
X9438866Y17023373D02*
D03*
X9507446Y16858273D02*
D03*
X9438866Y16627135D02*
D03*
X9507446Y16446794D02*
D03*
X9438866Y16230894D02*
D03*
X9565866Y19233174D02*
D03*
X9497286Y19037595D02*
D03*
X9565866Y18842014D02*
D03*
X9497286Y18646434D02*
D03*
X8661626Y17462794D02*
D03*
X9301706Y17023373D02*
D03*
X9370286Y16858273D02*
D03*
X9301706Y16627135D02*
D03*
X9370286Y16446794D02*
D03*
X9301706Y16230894D02*
D03*
X9428706Y19233174D02*
D03*
X9360126Y19037595D02*
D03*
X9428706Y18842014D02*
D03*
X9360126Y18646434D02*
D03*
X8560026Y17462794D02*
D03*
X9164546Y17023373D02*
D03*
X9233126Y16858273D02*
D03*
X9164546Y16627135D02*
D03*
X9233126Y16446794D02*
D03*
X9164546Y16230894D02*
D03*
X9291546Y19233174D02*
D03*
X9222966Y19037595D02*
D03*
X9291546Y18842014D02*
D03*
X9222966Y18646434D02*
D03*
X8458426Y17462794D02*
D03*
X9019766Y17023373D02*
D03*
X9093426Y16858273D02*
D03*
X9019766Y16627135D02*
D03*
X9093426Y16446794D02*
D03*
X9019766Y16230894D02*
D03*
X9151846Y19233174D02*
D03*
X9078186Y19037595D02*
D03*
X9151846Y18842014D02*
D03*
X9078186Y18646434D02*
D03*
X8356826Y17462794D02*
D03*
X8880066Y17023373D02*
D03*
X8951186Y16858273D02*
D03*
X8880066Y16627135D02*
D03*
X8951186Y16446794D02*
D03*
X8880066Y16230894D02*
D03*
X9009606Y19233174D02*
D03*
X8938486Y19037595D02*
D03*
X9009606Y18842014D02*
D03*
X8938486Y18646434D02*
D03*
X8255226Y17462794D02*
D03*
X8745446Y17023373D02*
D03*
X8816566Y16858273D02*
D03*
X8745446Y16627135D02*
D03*
X8816566Y16446794D02*
D03*
X8745446Y16230894D02*
D03*
X8874986Y19233174D02*
D03*
X8803866Y19037595D02*
D03*
X8874986Y18842014D02*
D03*
X8803866Y18646434D02*
D03*
X8153626Y17462794D02*
D03*
X8600666Y17023373D02*
D03*
X8674326Y16858273D02*
D03*
X8600666Y16627135D02*
D03*
X8674326Y16446794D02*
D03*
X8600666Y16230894D02*
D03*
X8732746Y19233174D02*
D03*
X8659086Y19037595D02*
D03*
X8732746Y18842014D02*
D03*
X8659086Y18646434D02*
D03*
X8049486Y17462794D02*
D03*
X8458426Y17023373D02*
D03*
X8529546Y16858273D02*
D03*
X8458426Y16627135D02*
D03*
X8529546Y16446794D02*
D03*
X8458426Y16230894D02*
D03*
X8587966Y19233174D02*
D03*
X8516846Y19037595D02*
D03*
X8587966Y18842014D02*
D03*
X8516846Y18646434D02*
D03*
X7947886Y17462794D02*
D03*
X8318726Y17023373D02*
D03*
X8389846Y16858273D02*
D03*
X8318726Y16627135D02*
D03*
X8389846Y16446794D02*
D03*
X8318726Y16230894D02*
D03*
X8448266Y19233174D02*
D03*
X8377146Y19037595D02*
D03*
X8448266Y18842014D02*
D03*
X8377146Y18646434D02*
D03*
X7846286Y17462794D02*
D03*
X8181566Y17023373D02*
D03*
X8250146Y16858273D02*
D03*
X8181566Y16627135D02*
D03*
X8250146Y16446794D02*
D03*
X8181566Y16230894D02*
D03*
X8308566Y19233174D02*
D03*
X8239986Y19037595D02*
D03*
X8308566Y18842014D02*
D03*
X8239986Y18646434D02*
D03*
X7744686Y17462794D02*
D03*
X8039326Y17023373D02*
D03*
X8115526Y16858273D02*
D03*
X8039326Y16627135D02*
D03*
X8115526Y16446794D02*
D03*
X8039326Y16230894D02*
D03*
X8173946Y19233174D02*
D03*
X8097746Y19037595D02*
D03*
X8173946Y18842014D02*
D03*
X8097746Y18646434D02*
D03*
X7640546Y17462794D02*
D03*
X7897086Y17023373D02*
D03*
X7970746Y16858273D02*
D03*
X7892006Y16627135D02*
D03*
X7968206Y16446794D02*
D03*
X7904706Y16230894D02*
D03*
X8026626Y19233174D02*
D03*
X7950426Y19037595D02*
D03*
X8016466Y18842014D02*
D03*
X7947886Y18646434D02*
D03*
X7559266Y17462794D02*
D03*
X7759926Y17023373D02*
D03*
X7831046Y16858273D02*
D03*
X7759926Y16627135D02*
D03*
X7825966Y16446794D02*
D03*
X7759926Y16230894D02*
D03*
X7881846Y19233174D02*
D03*
X7818346Y19037595D02*
D03*
X7879306Y18842014D02*
D03*
X7813266Y18646434D02*
D03*
X7460206Y17462794D02*
D03*
X7622766Y17023373D02*
D03*
X7693886Y16858273D02*
D03*
X7620226Y16627135D02*
D03*
X7693886Y16446794D02*
D03*
X7622766Y16230894D02*
D03*
X7752306Y19233174D02*
D03*
X7683726Y19037595D02*
D03*
X7752306Y18842014D02*
D03*
X7678646Y18646434D02*
D03*
X7358606Y17462794D02*
D03*
X7483066Y17023373D02*
D03*
X7554186Y16858273D02*
D03*
X7477986Y16627135D02*
D03*
X7554186Y16446794D02*
D03*
X7480526Y16230894D02*
D03*
X7617686Y19233174D02*
D03*
X7541486Y19037595D02*
D03*
X7620226Y18842014D02*
D03*
X7538946Y18646434D02*
D03*
X7257006Y17462794D02*
D03*
X7340826Y17023373D02*
D03*
X7411946Y16858273D02*
D03*
X7338286Y16627135D02*
D03*
X7411946Y16446794D02*
D03*
X7340826Y16230894D02*
D03*
X7470366Y19233174D02*
D03*
X7399246Y19037595D02*
D03*
X7470366Y18842014D02*
D03*
X7396706Y18646434D02*
D03*
X7155406Y17462794D02*
D03*
X7201126Y17023373D02*
D03*
X7272246Y16858273D02*
D03*
X7198586Y16627135D02*
D03*
X7272246Y16446794D02*
D03*
X7201126Y16230894D02*
D03*
X7330666Y19233174D02*
D03*
X7259546Y19037595D02*
D03*
X7330666Y18842014D02*
D03*
X7257006Y18646434D02*
D03*
X7053806Y17462794D02*
D03*
X7061426Y17023373D02*
D03*
X7132546Y16858273D02*
D03*
X7058886Y16627135D02*
D03*
X7132546Y16446794D02*
D03*
X7061426Y16230894D02*
D03*
X7190966Y19233174D02*
D03*
X7119846Y19037595D02*
D03*
X7190966Y18842014D02*
D03*
X7117306Y18646434D02*
D03*
X6952206Y17462794D02*
D03*
X6924266Y17023373D02*
D03*
X6990306Y16858273D02*
D03*
X6921726Y16627135D02*
D03*
X6990306Y16446794D02*
D03*
X6924266Y16230894D02*
D03*
X7048726Y19233174D02*
D03*
X6982686Y19037595D02*
D03*
X7048726Y18842014D02*
D03*
X6980146Y18646434D02*
D03*
X6850606Y17462794D02*
D03*
X6749006D02*
D03*
X6782026Y17023373D02*
D03*
X6853146Y16858273D02*
D03*
X6779486Y16627135D02*
D03*
X6853146Y16446794D02*
D03*
X6774406Y16230894D02*
D03*
X6911566Y19233174D02*
D03*
X6832826Y19037595D02*
D03*
X6911566Y18842014D02*
D03*
X4178306Y5052654D02*
D03*
Y5845134D02*
D03*
X6705606D02*
D03*
X6697986Y5052654D02*
D03*
X5654046Y5629234D02*
D03*
X6139186Y5052654D02*
D03*
X5938526Y3038434D02*
D03*
X6426206Y4613234D02*
D03*
X5600706Y3234014D02*
D03*
X4963166Y3429594D02*
D03*
X4605026Y3234014D02*
D03*
X5161286Y5448894D02*
D03*
X2727966Y3038434D02*
D03*
X5240026Y3429594D02*
D03*
X4663446Y5217754D02*
D03*
X5021586Y5845134D02*
D03*
X3629666Y3234014D02*
D03*
X3081026Y2842854D02*
D03*
X3139446Y5629234D02*
D03*
X3688086D02*
D03*
X2786386Y5448894D02*
D03*
X6558286D02*
D03*
X4820926Y3429594D02*
D03*
X5298446Y5448894D02*
D03*
X4041146Y5845134D02*
D03*
Y5052654D02*
D03*
X3210566D02*
D03*
X4315466D02*
D03*
X5786126Y5629234D02*
D03*
X6289046Y3234014D02*
D03*
X6568446Y2842854D02*
D03*
X6019806Y4613234D02*
D03*
X4879346Y5448894D02*
D03*
X3291846Y3038434D02*
D03*
X4119886D02*
D03*
X5440686Y5448894D02*
D03*
X4401826Y3038434D02*
D03*
X3903986Y5052654D02*
D03*
X3281686Y5217754D02*
D03*
X4460246Y5448894D02*
D03*
X6281426D02*
D03*
X6002026D02*
D03*
X6431286Y3234014D02*
D03*
X6220466Y3038434D02*
D03*
X5920746Y4613234D02*
D03*
X4257046Y3429594D02*
D03*
X3914146Y3234014D02*
D03*
X3426466Y3429594D02*
D03*
X4315466Y5448894D02*
D03*
X6083306Y3429594D02*
D03*
X6121406Y4613234D02*
D03*
X4010666Y4610694D02*
D03*
X5588006Y5448894D02*
D03*
X3558546Y3429594D02*
D03*
X4470406Y3234014D02*
D03*
X5529586Y3038434D02*
D03*
X4257046D02*
D03*
X5727706Y2842854D02*
D03*
X2796546D02*
D03*
X3484886Y5448894D02*
D03*
X4528826Y5217754D02*
D03*
X6068066Y5629234D02*
D03*
X5382266Y3429594D02*
D03*
X5102866D02*
D03*
X3911606Y4610694D02*
D03*
X3845566Y3429594D02*
D03*
X5161286Y5845134D02*
D03*
X2938786Y3234014D02*
D03*
X2997206Y5629234D02*
D03*
X3903986Y5845134D02*
D03*
X3550926Y5629234D02*
D03*
X2854966D02*
D03*
X4109726Y5217754D02*
D03*
X6626866D02*
D03*
X6418586Y5052654D02*
D03*
X5720086Y5845134D02*
D03*
X5859786Y3234014D02*
D03*
X5532126Y4613234D02*
D03*
X4676146Y3429594D02*
D03*
X2654306Y3234014D02*
D03*
X4051306Y2842854D02*
D03*
X2712726Y5629234D02*
D03*
X5735326Y4613234D02*
D03*
X3807466Y4610694D02*
D03*
X4734566Y5448894D02*
D03*
X5171446Y2842854D02*
D03*
X4892046D02*
D03*
X3152146Y3038434D02*
D03*
X3759206Y5845134D02*
D03*
X6489706Y5629234D02*
D03*
X6527806Y4613234D02*
D03*
X5430526D02*
D03*
X5633726D02*
D03*
X5229866Y5629234D02*
D03*
X3972566Y5217754D02*
D03*
X3139446D02*
D03*
X6418586Y5845134D02*
D03*
X5857246Y5052654D02*
D03*
X6647186Y3038434D02*
D03*
X6362706Y3429594D02*
D03*
X5666746D02*
D03*
X4051306Y3234014D02*
D03*
X4805686Y5629234D02*
D03*
X3223266Y3234014D02*
D03*
X4386586Y5629234D02*
D03*
X4328166Y3234014D02*
D03*
X5364486Y5629234D02*
D03*
X3835406Y5217754D02*
D03*
X3350266Y5448894D02*
D03*
X6207766Y5629234D02*
D03*
X5925826D02*
D03*
X6499866Y3429594D02*
D03*
X6149346Y3234014D02*
D03*
X5021586Y4613234D02*
D03*
X4409446D02*
D03*
X5720086Y5052654D02*
D03*
X3982726Y3429594D02*
D03*
X4820926Y3038434D02*
D03*
X3068326Y5052654D02*
D03*
X4599946Y5845134D02*
D03*
X4246886Y5629234D02*
D03*
X5796286Y3038434D02*
D03*
X6324606Y4613234D02*
D03*
X4511046D02*
D03*
X5511806Y5629234D02*
D03*
X4541526Y3429594D02*
D03*
X2865126Y3038434D02*
D03*
X3418846Y5629234D02*
D03*
X4599946Y5448894D02*
D03*
X6139186Y5845134D02*
D03*
X5839466Y4613234D02*
D03*
X3700786D02*
D03*
X5090166Y5629234D02*
D03*
X5031746Y2842854D02*
D03*
X3776986D02*
D03*
X3068326Y5845134D02*
D03*
X3835406Y5629234D02*
D03*
X3616966Y5845134D02*
D03*
X2923546Y5052654D02*
D03*
X4178306Y5448894D02*
D03*
X6700526D02*
D03*
X6347466Y5217754D02*
D03*
X5941066Y3429594D02*
D03*
X5326386Y4613234D02*
D03*
X5161286Y5052654D02*
D03*
X2727966Y3429594D02*
D03*
X5598166Y2842854D02*
D03*
X4605026D02*
D03*
X2786386Y5845134D02*
D03*
X6080766Y3038434D02*
D03*
X5021586Y5448894D02*
D03*
X4663446Y5629234D02*
D03*
X3081026Y3234014D02*
D03*
X5240026Y3038434D02*
D03*
X4963166D02*
D03*
X3558546D02*
D03*
X3629666Y2842854D02*
D03*
X2786386Y5052654D02*
D03*
X6555746Y5845134D02*
D03*
Y5052654D02*
D03*
X5298446D02*
D03*
X5021586D02*
D03*
X5298446Y5845134D02*
D03*
X3009906Y3429594D02*
D03*
X4041146Y5448894D02*
D03*
X3210566D02*
D03*
X5786126Y5217754D02*
D03*
X6347466Y5629234D02*
D03*
X6568446Y3234014D02*
D03*
X6289046Y2842854D02*
D03*
X4119886Y3429594D02*
D03*
X4879346Y5845134D02*
D03*
X3291846Y3429594D02*
D03*
X4460246Y5845134D02*
D03*
X4206246Y4613234D02*
D03*
X5440686Y5052654D02*
D03*
Y5845134D02*
D03*
X3700786Y3429594D02*
D03*
X3281686Y5629234D02*
D03*
X3903986Y5448894D02*
D03*
X2923546Y5845134D02*
D03*
X4460246Y5052654D02*
D03*
X6278886Y5845134D02*
D03*
X5999486D02*
D03*
X5996946Y5052654D02*
D03*
X5648966Y5217754D02*
D03*
X6431286Y2842854D02*
D03*
X6629406Y4613234D02*
D03*
X4818386D02*
D03*
X5463546Y3234014D02*
D03*
X3426466Y3038434D02*
D03*
X3914146Y2842854D02*
D03*
X3616966Y5052654D02*
D03*
X2997206Y5217754D02*
D03*
X4315466Y5845134D02*
D03*
X6278886Y5052654D02*
D03*
X5727706Y3234014D02*
D03*
X5224786Y4613234D02*
D03*
X5575306Y5845134D02*
D03*
X2796546Y3234014D02*
D03*
X4470406Y2842854D02*
D03*
X3484886Y5845134D02*
D03*
X3759206Y5052654D02*
D03*
X3484886D02*
D03*
X4528826Y5629234D02*
D03*
X6068066Y5217754D02*
D03*
X5582926Y5052654D02*
D03*
X6009646Y2842854D02*
D03*
X5123186Y4613234D02*
D03*
X5382266Y3038434D02*
D03*
X5102866D02*
D03*
X3845566D02*
D03*
X3492506Y2842854D02*
D03*
X2938786D02*
D03*
X3550926Y5215214D02*
D03*
X2854966Y5217754D02*
D03*
X4109726Y5629234D02*
D03*
X6626866D02*
D03*
X6421126Y5448894D02*
D03*
X6223006Y3429594D02*
D03*
X5862326Y2842854D02*
D03*
X6731006Y4613234D02*
D03*
X6223006D02*
D03*
X5090166Y5217754D02*
D03*
X4879346Y5052654D02*
D03*
X4676146Y3038434D02*
D03*
X5661666D02*
D03*
X2654306Y2842854D02*
D03*
X4246886Y5217754D02*
D03*
X4892046Y3234014D02*
D03*
X5171446D02*
D03*
X4734566Y5052654D02*
D03*
X5509266Y5217754D02*
D03*
X4734566Y5845134D02*
D03*
X4950466Y5629234D02*
D03*
X3152146Y3429594D02*
D03*
X3700786Y3038434D02*
D03*
X3210566Y5845134D02*
D03*
X3759206Y5448894D02*
D03*
X2712726Y5217754D02*
D03*
X6489706D02*
D03*
X4716786Y4613234D02*
D03*
X4747266Y3234014D02*
D03*
X4112266Y4613234D02*
D03*
X5229866Y5217754D02*
D03*
X4950466D02*
D03*
X3972566Y5629234D02*
D03*
X5859786Y5448894D02*
D03*
X6360166Y3038434D02*
D03*
X4919986Y4613234D02*
D03*
X4307846D02*
D03*
X4805686Y5217754D02*
D03*
X4747266Y2842854D02*
D03*
X3223266D02*
D03*
X4612646Y4613234D02*
D03*
X5364486Y5217754D02*
D03*
X4328166Y2842854D02*
D03*
X5306066D02*
D03*
X3350266Y5845134D02*
D03*
Y5052654D02*
D03*
X4386586Y5217754D02*
D03*
X5720086Y5448894D02*
D03*
X5925826Y5217754D02*
D03*
X6497326Y3038434D02*
D03*
X6149346Y2842854D02*
D03*
X5532126Y3429594D02*
D03*
X4188466Y3234014D02*
D03*
X3360426D02*
D03*
X3982726Y3038434D02*
D03*
X5857246Y5845134D02*
D03*
X6207766Y5217754D02*
D03*
X6009646Y3234014D02*
D03*
X5801366Y3429594D02*
D03*
X3492506Y3234014D02*
D03*
X2865126Y3429594D02*
D03*
X5453386Y2842854D02*
D03*
X4188466D02*
D03*
X4541526Y3038434D02*
D03*
X3360426Y2842854D02*
D03*
X3688086Y5217754D02*
D03*
X3418846D02*
D03*
X4599946Y5052654D02*
D03*
X6141726Y5448894D02*
D03*
X5306066Y3234014D02*
D03*
X5031746D02*
D03*
X4401826Y3429594D02*
D03*
X3776986Y3234014D02*
D03*
X3009906Y3038434D02*
D03*
X3616966Y5448894D02*
D03*
X2923546D02*
D03*
X3068326D02*
D03*
X6324600Y7113220D02*
D03*
X6426200D02*
D03*
X6527800D02*
D03*
X6281420Y7948880D02*
D03*
X6418580Y7552640D02*
D03*
X6489700Y7717740D02*
D03*
X6347460Y8129220D02*
D03*
X6418580Y8345120D02*
D03*
X6347460Y7717740D02*
D03*
X6421120Y7948880D02*
D03*
X6626860Y8129220D02*
D03*
X6489700D02*
D03*
X6697980Y7552640D02*
D03*
X6555740D02*
D03*
Y8345120D02*
D03*
X6558280Y7948880D02*
D03*
X6629400Y7113220D02*
D03*
X6626860Y7717740D02*
D03*
X6731000Y7113220D02*
D03*
X6700520Y7948880D02*
D03*
X6705600Y8345120D02*
D03*
X6347460Y8543240D02*
D03*
X6278880Y8738820D02*
D03*
X6489700Y8934400D02*
D03*
X6555740Y8738820D02*
D03*
X6347460Y8934400D02*
D03*
X6489700Y8543240D02*
D03*
X6418580Y8738820D02*
D03*
X6626860Y8543240D02*
D03*
Y8934400D02*
D03*
X6705600Y8738820D02*
D03*
X5648960Y7717740D02*
D03*
X5582920Y7552640D02*
D03*
X5720080D02*
D03*
X5786120Y7717740D02*
D03*
X5996940Y7552640D02*
D03*
X5857240D02*
D03*
X5925820Y7717740D02*
D03*
X6068060D02*
D03*
X6139180Y7552640D02*
D03*
X6278880D02*
D03*
X6207760Y7717740D02*
D03*
X6019800Y7113220D02*
D03*
X6121400D02*
D03*
X6223000D02*
D03*
X5229860Y7717740D02*
D03*
X5440680Y7552640D02*
D03*
X5161280D02*
D03*
X5298440D02*
D03*
X5364480Y7717740D02*
D03*
X5509260D02*
D03*
X5633720Y7113220D02*
D03*
X5532120D02*
D03*
X5326380D02*
D03*
X5224780D02*
D03*
X5430520D02*
D03*
X5735320D02*
D03*
X5839460D02*
D03*
X5920740D02*
D03*
X4409440D02*
D03*
X4511040D02*
D03*
X4612640D02*
D03*
X4716780D02*
D03*
X4919980D02*
D03*
X4818380D02*
D03*
X5123180D02*
D03*
X5021580D02*
D03*
X5161280Y9129980D02*
D03*
X5440680D02*
D03*
X5364480Y8934400D02*
D03*
X5229860D02*
D03*
X5298440Y9129980D02*
D03*
X5364480Y8129220D02*
D03*
X5161280Y7948880D02*
D03*
Y8345120D02*
D03*
X5364480Y8543240D02*
D03*
X5229860Y8129220D02*
D03*
X5298440Y7948880D02*
D03*
Y8345120D02*
D03*
X5654040Y8129220D02*
D03*
X5440680Y7948880D02*
D03*
Y8345120D02*
D03*
X5588000Y7948880D02*
D03*
X5511800Y8129220D02*
D03*
X5575300Y8345120D02*
D03*
X5656580Y8543240D02*
D03*
X5659120Y8934400D02*
D03*
X5440680Y8738820D02*
D03*
X5511800Y8543240D02*
D03*
X5720080Y8738820D02*
D03*
X5521960Y8934400D02*
D03*
X5588000Y8738820D02*
D03*
X5590540Y9129980D02*
D03*
X5720080Y8345120D02*
D03*
Y7948880D02*
D03*
X5786120Y8129220D02*
D03*
X5999480Y8345120D02*
D03*
X5857240D02*
D03*
X5859780Y7948880D02*
D03*
X5925820Y8129220D02*
D03*
X5786120Y8934400D02*
D03*
X5725160Y9129980D02*
D03*
X5786120Y8543240D02*
D03*
X5920740D02*
D03*
X5854700Y8738820D02*
D03*
X5996940D02*
D03*
X5918200Y8934400D02*
D03*
X5859780Y9129980D02*
D03*
X6207760Y8543240D02*
D03*
Y8934400D02*
D03*
X6139180Y8738820D02*
D03*
X5999480Y9129980D02*
D03*
X6068060Y8543240D02*
D03*
Y8934400D02*
D03*
X6141720Y9129980D02*
D03*
X6068060Y8129220D02*
D03*
X6139180Y8345120D02*
D03*
X6278880D02*
D03*
X6207760Y8129220D02*
D03*
X6002020Y7948880D02*
D03*
X6141720D02*
D03*
X5229860Y8543240D02*
D03*
X5161280Y8738820D02*
D03*
X5298440D02*
D03*
X6421120Y9129980D02*
D03*
X6281420D02*
D03*
X6558280D02*
D03*
X4178300D02*
D03*
Y8738820D02*
D03*
X4386580Y8543240D02*
D03*
X4246880D02*
D03*
Y8934400D02*
D03*
X4315460Y8738820D02*
D03*
Y9129980D02*
D03*
X4386580Y8934400D02*
D03*
X4206240Y7113220D02*
D03*
X4307840D02*
D03*
X4315460Y7948880D02*
D03*
Y7552640D02*
D03*
X4178300Y7948880D02*
D03*
Y7552640D02*
D03*
Y8345120D02*
D03*
X4246880Y7717740D02*
D03*
Y8129220D02*
D03*
X4315460Y8345120D02*
D03*
X4460240D02*
D03*
X4386580Y8129220D02*
D03*
X4460240Y7948880D02*
D03*
X4599940D02*
D03*
X4528820Y8129220D02*
D03*
X4460240Y8738820D02*
D03*
X4599940Y9129980D02*
D03*
X4460240D02*
D03*
X4599940Y8738820D02*
D03*
X4528820Y8543240D02*
D03*
Y8934400D02*
D03*
X4599940Y8345120D02*
D03*
X4663440Y7717740D02*
D03*
X4734560Y7552640D02*
D03*
X4663440Y8129220D02*
D03*
X4879340Y7948880D02*
D03*
X4734560D02*
D03*
X4805680Y7717740D02*
D03*
X4734560Y8345120D02*
D03*
X4879340Y7552640D02*
D03*
X4805680Y8129220D02*
D03*
X4950460Y8934400D02*
D03*
X5090160D02*
D03*
X4879340Y9129980D02*
D03*
Y8738820D02*
D03*
X5021580Y9129980D02*
D03*
Y8738820D02*
D03*
Y7552640D02*
D03*
X4879340Y8345120D02*
D03*
X4950460Y7717740D02*
D03*
Y8129220D02*
D03*
X5090160Y7717740D02*
D03*
X5021580Y7948880D02*
D03*
Y8345120D02*
D03*
X5090160Y8129220D02*
D03*
X4663440Y8543240D02*
D03*
Y8934400D02*
D03*
X4734560Y8738820D02*
D03*
X4805680Y8543240D02*
D03*
X4734560Y9129980D02*
D03*
X4805680Y8934400D02*
D03*
X4460240Y7552640D02*
D03*
X4386580Y7717740D02*
D03*
X4599940Y7552640D02*
D03*
X4528820Y7717740D02*
D03*
X4950460Y8543240D02*
D03*
X5090160D02*
D03*
X2923540Y9129980D02*
D03*
X2712720Y8934400D02*
D03*
X2786380Y8738820D02*
D03*
Y9129980D02*
D03*
X2854960Y8934400D02*
D03*
X2923540Y8738820D02*
D03*
X2786380Y8345120D02*
D03*
X2712720Y8543240D02*
D03*
X3068320Y8345120D02*
D03*
X2854960Y8543240D02*
D03*
X2923540Y8345120D02*
D03*
X2997200Y8543240D02*
D03*
X3139440Y8129220D02*
D03*
X3418840D02*
D03*
X3139440Y8543240D02*
D03*
X3418840D02*
D03*
X3210560Y8345120D02*
D03*
X3281680Y8129220D02*
D03*
Y8543240D02*
D03*
X3350260Y8345120D02*
D03*
X3068320Y9129980D02*
D03*
X3210560D02*
D03*
X3350260D02*
D03*
X3068320Y8738820D02*
D03*
X3139440Y8934400D02*
D03*
X3418840D02*
D03*
X3210560Y8738820D02*
D03*
X3350260D02*
D03*
X3281680Y8934400D02*
D03*
X2997200D02*
D03*
X2854960Y8129220D02*
D03*
X2712720D02*
D03*
X2997200D02*
D03*
X2786380Y7552640D02*
D03*
X3484880D02*
D03*
X2923540D02*
D03*
X3616960D02*
D03*
X3068320D02*
D03*
X3210560D02*
D03*
X3350260D02*
D03*
X3807460Y7110680D02*
D03*
X3911600D02*
D03*
X3700780Y7113220D02*
D03*
X2712720Y7717740D02*
D03*
X3210560Y7948880D02*
D03*
X2786380D02*
D03*
X2997200Y7717740D02*
D03*
X2854960D02*
D03*
X3139440D02*
D03*
X2923540Y7948880D02*
D03*
X3068320D02*
D03*
X3281680Y7717740D02*
D03*
X3616960Y7948880D02*
D03*
X3418840Y7717740D02*
D03*
X3350260Y7948880D02*
D03*
X3484880D02*
D03*
X3550920Y7715200D02*
D03*
X3688080Y7717740D02*
D03*
X3759200Y7552640D02*
D03*
X3903980Y7948880D02*
D03*
X3759200D02*
D03*
X3835400Y7717740D02*
D03*
X3903980Y7552640D02*
D03*
X3972560Y7717740D02*
D03*
X4112260Y7113220D02*
D03*
X4010660Y7110680D02*
D03*
X4041140Y7552640D02*
D03*
Y7948880D02*
D03*
X4109720Y7717740D02*
D03*
X3759200Y8345120D02*
D03*
X3484880D02*
D03*
X3550920Y8129220D02*
D03*
Y8543240D02*
D03*
X3616960Y8345120D02*
D03*
X3688080Y8129220D02*
D03*
Y8543240D02*
D03*
X3835400D02*
D03*
X4041140Y8345120D02*
D03*
X3835400Y8129220D02*
D03*
X3972560D02*
D03*
X4109720Y8543240D02*
D03*
X3903980Y8345120D02*
D03*
X3972560Y8543240D02*
D03*
X4109720Y8129220D02*
D03*
X3616960Y8738820D02*
D03*
X3484880D02*
D03*
Y9129980D02*
D03*
X3759200Y8738820D02*
D03*
X3550920Y8934400D02*
D03*
X3688080D02*
D03*
X3616960Y9129980D02*
D03*
X3759200D02*
D03*
X4109720Y8934400D02*
D03*
X3835400D02*
D03*
X3903980Y8738820D02*
D03*
Y9129980D02*
D03*
X3972560Y8934400D02*
D03*
X4041140Y8738820D02*
D03*
Y9129980D02*
D03*
X10751820Y7729220D02*
D03*
X10472420D02*
D03*
X9712960Y8750300D02*
D03*
X9423400D02*
D03*
X9146540Y7960360D02*
D03*
X8440420Y8750300D02*
D03*
X7609840Y8356600D02*
D03*
X7335520Y7112000D02*
D03*
X6911340Y8750300D02*
D03*
X10683240Y9141460D02*
D03*
X10050780Y7729220D02*
D03*
X9636760Y8554720D02*
D03*
X9423400Y7564120D02*
D03*
X7406640Y8554720D02*
D03*
X10266680Y9141460D02*
D03*
X9215120Y8140700D02*
D03*
X8585200Y9141460D02*
D03*
X7960360Y8140700D02*
D03*
X7675880Y8554720D02*
D03*
X9982200Y7564120D02*
D03*
X9215120Y7729220D02*
D03*
X8788400Y8554720D02*
D03*
X8585200Y8356600D02*
D03*
X8303260Y7564120D02*
D03*
X7741920D02*
D03*
X7335520Y8356600D02*
D03*
X8166100D02*
D03*
X7884160Y7960360D02*
D03*
X10403840Y8750300D02*
D03*
X8653780Y8140700D02*
D03*
X8440420Y7564120D02*
D03*
X7919720Y7112000D02*
D03*
X7813040Y7729220D02*
D03*
X7122160Y8554720D02*
D03*
X7030720Y7112000D02*
D03*
X10614660Y8140700D02*
D03*
X9984740Y9141460D02*
D03*
X9850120D02*
D03*
X9784080Y8945880D02*
D03*
X9489440D02*
D03*
X8930640Y8140700D02*
D03*
X7424420Y7112000D02*
D03*
X6979920Y8945880D02*
D03*
X10751820Y8554720D02*
D03*
X10472420Y8945880D02*
D03*
X10406380Y9141460D02*
D03*
X10264140Y8750300D02*
D03*
X9441180Y7112000D02*
D03*
X9354820Y8140700D02*
D03*
X7543800Y7729220D02*
D03*
X10614660Y8554720D02*
D03*
X9712960Y7960360D02*
D03*
X8303260Y9141460D02*
D03*
X7741920Y7960360D02*
D03*
X9845040Y8356600D02*
D03*
X9146540Y9141460D02*
D03*
X8511540Y7729220D02*
D03*
X7830820Y7112000D02*
D03*
X7543800Y8945880D02*
D03*
X8788400Y7729220D02*
D03*
X10332720Y8140700D02*
D03*
X8628380Y7112000D02*
D03*
X8371840Y8554720D02*
D03*
X7741920Y9141460D02*
D03*
X7193280Y7960360D02*
D03*
X6911340Y8356600D02*
D03*
X10680700Y7564120D02*
D03*
X9911080Y8554720D02*
D03*
X9004300Y7564120D02*
D03*
X7960360Y8945880D02*
D03*
X10543540Y8356600D02*
D03*
X10264140D02*
D03*
X9489440Y8140700D02*
D03*
X6979920D02*
D03*
X10751820D02*
D03*
X10121900Y8750300D02*
D03*
X9715500Y9141460D02*
D03*
X9423400D02*
D03*
X9146540Y8356600D02*
D03*
X8440420Y9141460D02*
D03*
X7264400Y7729220D02*
D03*
X6911340Y9141460D02*
D03*
X10050780Y8140700D02*
D03*
X9423400Y7960360D02*
D03*
X7406640Y8945880D02*
D03*
X10403840Y7564120D02*
D03*
X9215120Y8554720D02*
D03*
X8724900Y7564120D02*
D03*
X8234680Y8554720D02*
D03*
X7960360D02*
D03*
X9984740Y7960360D02*
D03*
X9773920Y7729220D02*
D03*
X8788400Y8945880D02*
D03*
X8585200Y8750300D02*
D03*
X8303260Y7960360D02*
D03*
X7884160Y8750300D02*
D03*
X7335520D02*
D03*
X8724900Y9141460D02*
D03*
X8166100Y8750300D02*
D03*
X7884160Y8356600D02*
D03*
X9004300Y8750300D02*
D03*
X8653780Y8554720D02*
D03*
X8440420Y7960360D02*
D03*
X8097520Y7729220D02*
D03*
X6837680D02*
D03*
X9034780Y7112000D02*
D03*
X7741920Y8750300D02*
D03*
X7406640Y7729220D02*
D03*
X7233920Y7112000D02*
D03*
X10193020Y7729220D02*
D03*
X9565640Y7564120D02*
D03*
X7048500D02*
D03*
X10822940D02*
D03*
X10543540D02*
D03*
X9354820Y8554720D02*
D03*
X9075420Y7729220D02*
D03*
X7543800Y8140700D02*
D03*
X7193280Y9141460D02*
D03*
X6837680Y8554720D02*
D03*
X10614660Y8945880D02*
D03*
X10121900Y7564120D02*
D03*
X9700260Y8356600D02*
D03*
X8831580Y7112000D02*
D03*
X7475220Y8356600D02*
D03*
X10193020Y8945880D02*
D03*
X9286240Y7960360D02*
D03*
X8511540Y8945880D02*
D03*
X8028940Y7960360D02*
D03*
X7741920Y8356600D02*
D03*
X9237980Y7112000D02*
D03*
X9845040Y8750300D02*
D03*
X9286240Y7564120D02*
D03*
X8859520Y8356600D02*
D03*
X8511540Y8140700D02*
D03*
X8021320Y7112000D02*
D03*
X7960360Y7729220D02*
D03*
X7627620Y7112000D02*
D03*
X7264400Y8140700D02*
D03*
X8788400D02*
D03*
X8097520D02*
D03*
X10332720Y8554720D02*
D03*
X8028940Y9141460D02*
D03*
X7884160Y7564120D02*
D03*
X7193280Y8356600D02*
D03*
X10683240Y7960360D02*
D03*
X9911080Y8945880D02*
D03*
X9565640Y8750300D02*
D03*
X9004300Y7960360D02*
D03*
X7048500Y8750300D02*
D03*
X10543540D02*
D03*
X6979920Y8554720D02*
D03*
X10124440Y9141460D02*
D03*
X9845040Y7564120D02*
D03*
X8585200D02*
D03*
X7609840D02*
D03*
X9634220Y7729220D02*
D03*
X9565640Y8356600D02*
D03*
X7526020Y7112000D02*
D03*
X9215120Y8945880D02*
D03*
X8234680D02*
D03*
X7675880Y7726680D02*
D03*
X9779000Y8140700D02*
D03*
X9075420Y8945880D02*
D03*
X7884160Y9141460D02*
D03*
X7609840Y8750300D02*
D03*
X8859520Y7564120D02*
D03*
X8166100Y9141460D02*
D03*
X10406380Y7960360D02*
D03*
X9004300Y9141460D02*
D03*
X8653780Y8945880D02*
D03*
X8440420Y8356600D02*
D03*
X7675880Y8945880D02*
D03*
X6837680Y8140700D02*
D03*
X9745980Y7112000D02*
D03*
X9982200Y8356600D02*
D03*
X7406640Y8140700D02*
D03*
X10193020D02*
D03*
X9565640Y7960360D02*
D03*
X7048500D02*
D03*
X10825480D02*
D03*
X10546080D02*
D03*
X10045700Y8554720D02*
D03*
X9646920Y8945880D02*
D03*
X9354820D02*
D03*
X9075420Y8140700D02*
D03*
X8371840Y8945880D02*
D03*
X7335520Y7564120D02*
D03*
X6832600Y8943340D02*
D03*
X9847580Y7112000D02*
D03*
X10126980Y7960360D02*
D03*
X9354820Y7729220D02*
D03*
X7475220Y8750300D02*
D03*
X9542780Y7112000D02*
D03*
X9286240Y8356600D02*
D03*
X8326120Y7112000D02*
D03*
X8028940Y8356600D02*
D03*
X9911080Y7729220D02*
D03*
X8859520Y8750300D02*
D03*
X8511540Y8554720D02*
D03*
X8234680Y7729220D02*
D03*
X7264400Y8554720D02*
D03*
X8097520D02*
D03*
X7813040Y8140700D02*
D03*
X10332720Y8945880D02*
D03*
X8930640Y8554720D02*
D03*
X8724900Y8356600D02*
D03*
X8371840Y7729220D02*
D03*
X8166100Y7564120D02*
D03*
X7193280Y8750300D02*
D03*
X6911340Y7564120D02*
D03*
X10680700Y8356600D02*
D03*
X9339580Y7112000D02*
D03*
X9565640Y9141460D02*
D03*
X9004300Y8356600D02*
D03*
X7475220Y7564120D02*
D03*
X7048500Y9141460D02*
D03*
X10830560Y8750300D02*
D03*
X10546080Y9141460D02*
D03*
X8933180Y7112000D02*
D03*
X9949180D02*
D03*
X9644380D02*
D03*
X10264140Y7564120D02*
D03*
X9423400Y8356600D02*
D03*
X7609840Y7960360D02*
D03*
X7122160Y8945880D02*
D03*
X10680700Y8750300D02*
D03*
X9636760Y8140700D02*
D03*
X9286240Y9141460D02*
D03*
X7335520D02*
D03*
X8122920Y7112000D02*
D03*
X7675880Y8140700D02*
D03*
X9781540Y8554720D02*
D03*
X8729980Y7112000D02*
D03*
X8585200Y7960360D02*
D03*
X8028940Y7564120D02*
D03*
X7609840Y9141460D02*
D03*
X8859520Y7960360D02*
D03*
X10403840Y8356600D02*
D03*
X9146540Y7564120D02*
D03*
X7729220Y7112000D02*
D03*
X7122160Y8140700D02*
D03*
X10614660Y7729220D02*
D03*
X9979660Y8750300D02*
D03*
X9489440Y8554720D02*
D03*
X8930640Y7729220D02*
D03*
X8724900Y7960360D02*
D03*
X10472420Y8554720D02*
D03*
X10193020D02*
D03*
X7048500Y8356600D02*
D03*
X10751820Y8945880D02*
D03*
X10830560Y8356600D02*
D03*
X10043160Y8945880D02*
D03*
X9136380Y7112000D02*
D03*
X9075420Y8554720D02*
D03*
X8224520Y7112000D02*
D03*
X7335520Y7960360D02*
D03*
X7132320Y7112000D02*
D03*
X10124440Y8356600D02*
D03*
X9707880Y7564120D02*
D03*
X8529320Y7112000D02*
D03*
X7475220Y9141460D02*
D03*
X10472420Y8140700D02*
D03*
X10332720Y7729220D02*
D03*
X9286240Y8750300D02*
D03*
X8653780Y7729220D02*
D03*
X8303260Y8750300D02*
D03*
X8028940D02*
D03*
X9911080Y8140700D02*
D03*
X9845040Y7960360D02*
D03*
X9146540Y8750300D02*
D03*
X8859520Y9141460D02*
D03*
X8234680Y8140700D02*
D03*
X7813040Y8945880D02*
D03*
X7543800Y8554720D02*
D03*
X7264400Y8945880D02*
D03*
X6924040Y7112000D02*
D03*
X8427720D02*
D03*
X8097520Y8945880D02*
D03*
X7813040Y8554720D02*
D03*
X8930640Y8945880D02*
D03*
X8724900Y8750300D02*
D03*
X8371840Y8140700D02*
D03*
X8303260Y8356600D02*
D03*
X8166100Y7960360D02*
D03*
X6911340D02*
D03*
X7475220D02*
D03*
X7122160Y7729220D02*
D03*
X7193280Y7564120D02*
D03*
X10266680Y7960360D02*
D03*
X9489440Y7729220D02*
D03*
X6979920D02*
D03*
X6853146Y13946794D02*
D03*
X6850606Y14962794D02*
D03*
X6990306Y13141614D02*
D03*
X6921726Y12946034D02*
D03*
X6924266Y13337193D02*
D03*
X6990306Y13532774D02*
D03*
X6924266Y13730894D02*
D03*
X6990306Y13946794D02*
D03*
X6921726Y14127135D02*
D03*
X6990306Y14358273D02*
D03*
X6924266Y14523373D02*
D03*
X6952206Y14962794D02*
D03*
X7132546Y13141614D02*
D03*
X7058886Y12946034D02*
D03*
X7061426Y13337193D02*
D03*
X7132546Y13532774D02*
D03*
X7061426Y13730894D02*
D03*
X7132546Y13946794D02*
D03*
X7058886Y14127135D02*
D03*
X7132546Y14358273D02*
D03*
X7061426Y14523373D02*
D03*
X7053806Y14962794D02*
D03*
X7272246Y13141614D02*
D03*
X7198586Y12946034D02*
D03*
X7201126Y13337193D02*
D03*
X7272246Y13532774D02*
D03*
X7201126Y13730894D02*
D03*
X7272246Y13946794D02*
D03*
X7198586Y14127135D02*
D03*
X7272246Y14358273D02*
D03*
X7201126Y14523373D02*
D03*
X7155406Y14962794D02*
D03*
X7411946Y13141614D02*
D03*
X7338286Y12946034D02*
D03*
X7340826Y13337193D02*
D03*
X7411946Y13532774D02*
D03*
X7340826Y13730894D02*
D03*
X7411946Y13946794D02*
D03*
X7338286Y14127135D02*
D03*
X7411946Y14358273D02*
D03*
X7340826Y14523373D02*
D03*
X7257006Y14962794D02*
D03*
X7561806Y13141614D02*
D03*
X7480526Y12946034D02*
D03*
X7483066Y13337193D02*
D03*
X7559266Y13532774D02*
D03*
X7480526Y13730894D02*
D03*
X7554186Y13946794D02*
D03*
X7477986Y14127135D02*
D03*
X7554186Y14358273D02*
D03*
X7483066Y14523373D02*
D03*
X7358606Y14962794D02*
D03*
X7693886Y13141614D02*
D03*
X7620226Y12946034D02*
D03*
X7625306Y13337193D02*
D03*
X7693886Y13532774D02*
D03*
X7622766Y13730894D02*
D03*
X7693886Y13946794D02*
D03*
X7620226Y14127135D02*
D03*
X7693886Y14358273D02*
D03*
X7622766Y14523373D02*
D03*
X7460206Y14962794D02*
D03*
X7820886Y13141614D02*
D03*
X7754846Y12946034D02*
D03*
X7759926Y13337193D02*
D03*
X7823426Y13532774D02*
D03*
X7759926Y13730894D02*
D03*
X7825966Y13946794D02*
D03*
X7759926Y14127135D02*
D03*
X7831046Y14358273D02*
D03*
X7759926Y14523373D02*
D03*
X7559266Y14962794D02*
D03*
X7958046Y13141614D02*
D03*
X7889466Y12946034D02*
D03*
X7892006Y13337193D02*
D03*
X7968206Y13532774D02*
D03*
X7904706Y13730894D02*
D03*
X7968206Y13946794D02*
D03*
X7892006Y14127135D02*
D03*
X7970746Y14358273D02*
D03*
X7897086Y14523373D02*
D03*
X7640546Y14962794D02*
D03*
X8115526Y13141614D02*
D03*
X8039326Y12946034D02*
D03*
Y13337193D02*
D03*
X8115526Y13532774D02*
D03*
X8039326Y13730894D02*
D03*
X8115526Y13946794D02*
D03*
X8039326Y14127135D02*
D03*
X8115526Y14358273D02*
D03*
X8039326Y14523373D02*
D03*
X7744686Y14962794D02*
D03*
X8250146Y13141614D02*
D03*
X8181566Y12946034D02*
D03*
Y13337193D02*
D03*
X8250146Y13532774D02*
D03*
X8181566Y13730894D02*
D03*
X8250146Y13946794D02*
D03*
X8181566Y14127135D02*
D03*
X8250146Y14358273D02*
D03*
X8181566Y14523373D02*
D03*
X7846286Y14962794D02*
D03*
X8389846Y13141614D02*
D03*
X8318726Y12946034D02*
D03*
Y13337193D02*
D03*
X8389846Y13532774D02*
D03*
X8318726Y13730894D02*
D03*
X8389846Y13946794D02*
D03*
X8318726Y14127135D02*
D03*
X8389846Y14358273D02*
D03*
X8318726Y14523373D02*
D03*
X7947886Y14962794D02*
D03*
X8529546Y13141614D02*
D03*
X8458426Y12946034D02*
D03*
Y13337193D02*
D03*
X8529546Y13532774D02*
D03*
X8458426Y13730894D02*
D03*
X8529546Y13946794D02*
D03*
X8458426Y14127135D02*
D03*
X8529546Y14358273D02*
D03*
X8458426Y14523373D02*
D03*
X8049486Y14962794D02*
D03*
X8674326Y13141614D02*
D03*
X8600666Y12946034D02*
D03*
Y13337193D02*
D03*
X8674326Y13532774D02*
D03*
X8600666Y13730894D02*
D03*
X8674326Y13946794D02*
D03*
X8600666Y14127135D02*
D03*
X8674326Y14358273D02*
D03*
X8600666Y14523373D02*
D03*
X8153626Y14962794D02*
D03*
X8816566Y13141614D02*
D03*
X8745446Y12946034D02*
D03*
Y13337193D02*
D03*
X8816566Y13532774D02*
D03*
X8745446Y13730894D02*
D03*
X8816566Y13946794D02*
D03*
X8745446Y14127135D02*
D03*
X8816566Y14358273D02*
D03*
X8745446Y14523373D02*
D03*
X8255226Y14962794D02*
D03*
X8951186Y13141614D02*
D03*
X8880066Y12946034D02*
D03*
Y13337193D02*
D03*
X8951186Y13532774D02*
D03*
X8880066Y13730894D02*
D03*
X8951186Y13946794D02*
D03*
X8880066Y14127135D02*
D03*
X8951186Y14358273D02*
D03*
X8880066Y14523373D02*
D03*
X8356826Y14962794D02*
D03*
X9093426Y13141614D02*
D03*
X9019766Y12946034D02*
D03*
Y13337193D02*
D03*
X9093426Y13532774D02*
D03*
X9019766Y13730894D02*
D03*
X9093426Y13946794D02*
D03*
X9019766Y14127135D02*
D03*
X9093426Y14358273D02*
D03*
X9019766Y14523373D02*
D03*
X8458426Y14962794D02*
D03*
X9233126Y13141614D02*
D03*
X9164546Y12946034D02*
D03*
Y13337193D02*
D03*
X9233126Y13532774D02*
D03*
X9164546Y13730894D02*
D03*
X9233126Y13946794D02*
D03*
X9164546Y14127135D02*
D03*
X9233126Y14358273D02*
D03*
X9164546Y14523373D02*
D03*
X8560026Y14962794D02*
D03*
X9370286Y13141614D02*
D03*
X9301706Y12946034D02*
D03*
Y13337193D02*
D03*
X9370286Y13532774D02*
D03*
X9301706Y13730894D02*
D03*
X9370286Y13946794D02*
D03*
X9301706Y14127135D02*
D03*
X9370286Y14358273D02*
D03*
X9301706Y14523373D02*
D03*
X8661626Y14962794D02*
D03*
X9507446Y13141614D02*
D03*
X9438866Y12946034D02*
D03*
Y13337193D02*
D03*
X9507446Y13532774D02*
D03*
X9438866Y13730894D02*
D03*
X9507446Y13946794D02*
D03*
X9438866Y14127135D02*
D03*
X9507446Y14358273D02*
D03*
X9438866Y14523373D02*
D03*
X8763226Y14962794D02*
D03*
X9644606Y13141614D02*
D03*
X9576026Y12946034D02*
D03*
Y13337193D02*
D03*
X9644606Y13532774D02*
D03*
X9576026Y13730894D02*
D03*
X9644606Y13946794D02*
D03*
X9576026Y14127135D02*
D03*
X9644606Y14358273D02*
D03*
X9576026Y14523373D02*
D03*
X8867366Y14962794D02*
D03*
X9791926Y13141614D02*
D03*
X9720806Y12946034D02*
D03*
Y13337193D02*
D03*
X9791926Y13532774D02*
D03*
X9720806Y13730894D02*
D03*
X9791926Y13946794D02*
D03*
X9720806Y14127135D02*
D03*
X9791926Y14358273D02*
D03*
X9720806Y14523373D02*
D03*
X8968966Y14962794D02*
D03*
X9929086Y13141614D02*
D03*
X9863046Y12946034D02*
D03*
Y13337193D02*
D03*
X9929086Y13532774D02*
D03*
X9863046Y13730894D02*
D03*
X9929086Y13946794D02*
D03*
X9863046Y14127135D02*
D03*
X9929086Y14360814D02*
D03*
X9863046Y14523373D02*
D03*
X9070566Y14962794D02*
D03*
X10061166Y13141614D02*
D03*
X9995126Y12946034D02*
D03*
Y13337193D02*
D03*
X10061166Y13532774D02*
D03*
X9995126Y13730894D02*
D03*
X10061166Y13946794D02*
D03*
X9995126Y14127135D02*
D03*
X10061166Y14358273D02*
D03*
X9995126Y14523373D02*
D03*
X9172166Y14962794D02*
D03*
X10198326Y13141614D02*
D03*
X10129746Y12946034D02*
D03*
Y13337193D02*
D03*
X10198326Y13532774D02*
D03*
X10129746Y13730894D02*
D03*
X10198326Y13946794D02*
D03*
X10129746Y14127135D02*
D03*
X10198326Y14358273D02*
D03*
X10129746Y14523373D02*
D03*
X9273766Y14962794D02*
D03*
X10340566Y13141614D02*
D03*
X10269446Y12946034D02*
D03*
Y13337193D02*
D03*
X10340566Y13532774D02*
D03*
X10269446Y13730894D02*
D03*
X10340566Y13946794D02*
D03*
X10269446Y14127135D02*
D03*
X10340566Y14358273D02*
D03*
X10269446Y14523373D02*
D03*
X9367746Y14962794D02*
D03*
X10482806Y13141614D02*
D03*
X10411686Y12946034D02*
D03*
Y13337193D02*
D03*
X10482806Y13532774D02*
D03*
X10411686Y13730894D02*
D03*
X10482806Y13946794D02*
D03*
X10411686Y14127135D02*
D03*
X10482806Y14358273D02*
D03*
X10411686Y14523373D02*
D03*
X9469346Y14965334D02*
D03*
X10625046Y13141614D02*
D03*
X10556466Y12946034D02*
D03*
Y13337193D02*
D03*
X10625046Y13532774D02*
D03*
X10556466Y13730894D02*
D03*
X10625046Y13946794D02*
D03*
X10556466Y14127135D02*
D03*
X10625046Y14358273D02*
D03*
X10556466Y14523373D02*
D03*
X9568406Y14965334D02*
D03*
X10767286Y13141614D02*
D03*
X10693626Y12946034D02*
D03*
Y13337193D02*
D03*
X10767286Y13532774D02*
D03*
X10693626Y13730894D02*
D03*
X10767286Y13946794D02*
D03*
X10693626Y14127135D02*
D03*
X10767286Y14358273D02*
D03*
X10693626Y14523373D02*
D03*
X9672546Y14965334D02*
D03*
X9779226Y14962794D02*
D03*
X6924046Y4612014D02*
D03*
X7030726D02*
D03*
X6911346Y5064134D02*
D03*
X6837686Y5229234D02*
D03*
X6911346Y5460374D02*
D03*
X6837686Y5640714D02*
D03*
X6911346Y5856614D02*
D03*
X6723386Y2836554D02*
D03*
X6797046Y3032134D02*
D03*
X6718306Y3225174D02*
D03*
X6797046Y3423294D02*
D03*
X7132326Y4612014D02*
D03*
X7048506Y5064134D02*
D03*
X6979926Y5229234D02*
D03*
X7048506Y5460374D02*
D03*
X6979926Y5640714D02*
D03*
X7048506Y5856614D02*
D03*
X6865626Y2836554D02*
D03*
X6934206Y3032134D02*
D03*
X6865626Y3227714D02*
D03*
X6934206Y3423294D02*
D03*
X7233926Y4612014D02*
D03*
X7193286Y5064134D02*
D03*
X7122166Y5229234D02*
D03*
X7193286Y5460374D02*
D03*
X7122166Y5640714D02*
D03*
X7193286Y5856614D02*
D03*
X7007866Y2836554D02*
D03*
X7078986Y3032134D02*
D03*
X7007866Y3227714D02*
D03*
X7078986Y3423294D02*
D03*
X7335526Y4612014D02*
D03*
Y5064134D02*
D03*
X7264406Y5229234D02*
D03*
X7335526Y5460374D02*
D03*
X7264406Y5640714D02*
D03*
X7335526Y5856614D02*
D03*
X7150106Y2836554D02*
D03*
X7221226Y3032134D02*
D03*
X7150106Y3227714D02*
D03*
X7221226Y3423294D02*
D03*
X7424426Y4612014D02*
D03*
X7475226Y5064134D02*
D03*
X7406646Y5229234D02*
D03*
X7475226Y5460374D02*
D03*
X7406646Y5640714D02*
D03*
X7475226Y5856614D02*
D03*
X7292346Y2836554D02*
D03*
X7360926Y3032134D02*
D03*
X7292346Y3227714D02*
D03*
X7360926Y3423294D02*
D03*
X7526026Y4612014D02*
D03*
X7609846Y5064134D02*
D03*
X7543806Y5229234D02*
D03*
X7609846Y5460374D02*
D03*
X7543806Y5640714D02*
D03*
X7609846Y5856614D02*
D03*
X7429506Y2836554D02*
D03*
X7495546Y3032134D02*
D03*
X7429506Y3227714D02*
D03*
X7495546Y3423294D02*
D03*
X7627626Y4612014D02*
D03*
X7741926Y5064134D02*
D03*
X7675886Y5226694D02*
D03*
X7741926Y5460374D02*
D03*
X7675886Y5640714D02*
D03*
X7741926Y5856614D02*
D03*
X7561586Y2836554D02*
D03*
X7627626Y3032134D02*
D03*
X7561586Y3227714D02*
D03*
X7627626Y3423294D02*
D03*
X7729226Y4612014D02*
D03*
X7884166Y5064134D02*
D03*
X7813046Y5229234D02*
D03*
X7884166Y5460374D02*
D03*
X7813046Y5640714D02*
D03*
X7884166Y5856614D02*
D03*
X7698746Y2836554D02*
D03*
X7769866Y3032134D02*
D03*
X7698746Y3227714D02*
D03*
X7769866Y3423294D02*
D03*
X7830826Y4612014D02*
D03*
X8028946Y5064134D02*
D03*
X7960366Y5229234D02*
D03*
X8028946Y5460374D02*
D03*
X7960366Y5640714D02*
D03*
X8028946Y5856614D02*
D03*
X7846066Y2836554D02*
D03*
X7914646Y3032134D02*
D03*
X7846066Y3227714D02*
D03*
X7914646Y3423294D02*
D03*
X7919726Y4612014D02*
D03*
X8166106Y5064134D02*
D03*
X8097526Y5229234D02*
D03*
X8166106Y5460374D02*
D03*
X8097526Y5640714D02*
D03*
X8166106Y5856614D02*
D03*
X7983226Y2836554D02*
D03*
X8051806Y3032134D02*
D03*
X7983226Y3227714D02*
D03*
X8051806Y3423294D02*
D03*
X8021326Y4612014D02*
D03*
X8303266Y5064134D02*
D03*
X8234686Y5229234D02*
D03*
X8303266Y5460374D02*
D03*
X8234686Y5640714D02*
D03*
X8303266Y5856614D02*
D03*
X8120386Y2836554D02*
D03*
X8188966Y3032134D02*
D03*
X8120386Y3227714D02*
D03*
X8188966Y3423294D02*
D03*
X8122926Y4612014D02*
D03*
X8440426Y5064134D02*
D03*
X8371846Y5229234D02*
D03*
X8440426Y5460374D02*
D03*
X8371846Y5640714D02*
D03*
X8440426Y5856614D02*
D03*
X8257546Y2836554D02*
D03*
X8326126Y3032134D02*
D03*
X8257546Y3227714D02*
D03*
X8326126Y3423294D02*
D03*
X8224526Y4612014D02*
D03*
X8585206Y5064134D02*
D03*
X8511546Y5229234D02*
D03*
X8585206Y5460374D02*
D03*
X8511546Y5640714D02*
D03*
X8585206Y5856614D02*
D03*
X8397246Y2836554D02*
D03*
X8470906Y3032134D02*
D03*
X8397246Y3227714D02*
D03*
X8470906Y3423294D02*
D03*
X8326126Y4612014D02*
D03*
X8724906Y5064134D02*
D03*
X8653786Y5229234D02*
D03*
X8724906Y5460374D02*
D03*
X8653786Y5640714D02*
D03*
X8724906Y5856614D02*
D03*
X8539486Y2836554D02*
D03*
X8610606Y3032134D02*
D03*
X8539486Y3227714D02*
D03*
X8610606Y3423294D02*
D03*
X8427726Y4612014D02*
D03*
X8859526Y5064134D02*
D03*
X8788406Y5229234D02*
D03*
X8859526Y5460374D02*
D03*
X8788406Y5640714D02*
D03*
X8859526Y5856614D02*
D03*
X8674106Y2836554D02*
D03*
X8745226Y3032134D02*
D03*
X8674106Y3227714D02*
D03*
X8745226Y3423294D02*
D03*
X8529326Y4612014D02*
D03*
X9004306Y5064134D02*
D03*
X8930646Y5229234D02*
D03*
X9004306Y5460374D02*
D03*
X8930646Y5640714D02*
D03*
X9004306Y5856614D02*
D03*
X8816346Y2836554D02*
D03*
X8890006Y3032134D02*
D03*
X8816346Y3227714D02*
D03*
X8890006Y3423294D02*
D03*
X8628386Y4612014D02*
D03*
X9146546Y5064134D02*
D03*
X9075426Y5229234D02*
D03*
X9146546Y5460374D02*
D03*
X9075426Y5640714D02*
D03*
X9146546Y5856614D02*
D03*
X8961126Y2836554D02*
D03*
X9032246Y3032134D02*
D03*
X8961126Y3227714D02*
D03*
X9032246Y3423294D02*
D03*
X8729986Y4612014D02*
D03*
X9286246Y5064134D02*
D03*
X9215126Y5229234D02*
D03*
X9286246Y5460374D02*
D03*
X9215126Y5640714D02*
D03*
X9286246Y5856614D02*
D03*
X9100826Y2836554D02*
D03*
X9171946Y3032134D02*
D03*
X9100826Y3227714D02*
D03*
X9171946Y3423294D02*
D03*
X8831586Y4612014D02*
D03*
X9423406Y5064134D02*
D03*
X9354826Y5229234D02*
D03*
X9423406Y5460374D02*
D03*
X9354826Y5640714D02*
D03*
X9423406Y5856614D02*
D03*
X9240526Y2836554D02*
D03*
X9309106Y3032134D02*
D03*
X9240526Y3227714D02*
D03*
X9309106Y3423294D02*
D03*
X8933186Y4612014D02*
D03*
X9565646Y5064134D02*
D03*
X9489446Y5229234D02*
D03*
X9565646Y5460374D02*
D03*
X9489446Y5640714D02*
D03*
X9565646Y5856614D02*
D03*
X9375146Y2836554D02*
D03*
X9451346Y3032134D02*
D03*
X9375146Y3227714D02*
D03*
X9451346Y3423294D02*
D03*
X9034786Y4612014D02*
D03*
X9707886Y5064134D02*
D03*
X9634226Y5229234D02*
D03*
X9712966Y5460374D02*
D03*
X9636766Y5640714D02*
D03*
X9700266Y5856614D02*
D03*
X9522466Y2836554D02*
D03*
X9598666Y3032134D02*
D03*
X9532626Y3227714D02*
D03*
X9601206Y3423294D02*
D03*
X9136386Y4612014D02*
D03*
X9845046Y5064134D02*
D03*
X9773926Y5229234D02*
D03*
X9845046Y5460374D02*
D03*
X9779006Y5640714D02*
D03*
X9845046Y5856614D02*
D03*
X9667246Y2836554D02*
D03*
X9730746Y3032134D02*
D03*
X9669786Y3227714D02*
D03*
X9735826Y3423294D02*
D03*
X9237986Y4612014D02*
D03*
X9982206Y5064134D02*
D03*
X9911086Y5229234D02*
D03*
X9984746Y5460374D02*
D03*
X9911086Y5640714D02*
D03*
X9982206Y5856614D02*
D03*
X9796786Y2836554D02*
D03*
X9865366Y3032134D02*
D03*
X9796786Y3227714D02*
D03*
X9870446Y3423294D02*
D03*
X9339586Y4612014D02*
D03*
X10121906Y5064134D02*
D03*
X10050786Y5229234D02*
D03*
X10126986Y5460374D02*
D03*
X10050786Y5640714D02*
D03*
X10124446Y5856614D02*
D03*
X9931406Y2836554D02*
D03*
X10007606Y3032134D02*
D03*
X9928866Y3227714D02*
D03*
X10010146Y3423294D02*
D03*
X9441186Y4612014D02*
D03*
X10264146Y5064134D02*
D03*
X10193026Y5229234D02*
D03*
X10266686Y5460374D02*
D03*
X10193026Y5640714D02*
D03*
X10264146Y5856614D02*
D03*
X10078726Y2836554D02*
D03*
X10149846Y3032134D02*
D03*
X10078726Y3227714D02*
D03*
X10152386Y3423294D02*
D03*
X9542786Y4612014D02*
D03*
X10403846Y5064134D02*
D03*
X10332726Y5229234D02*
D03*
X10406386Y5460374D02*
D03*
X10332726Y5640714D02*
D03*
X10403846Y5856614D02*
D03*
X10218426Y2836554D02*
D03*
X10289546Y3032134D02*
D03*
X10218426Y3227714D02*
D03*
X10292086Y3423294D02*
D03*
X9644386Y4612014D02*
D03*
X10543546Y5064134D02*
D03*
X10472426Y5229234D02*
D03*
X10546086Y5460374D02*
D03*
X10472426Y5640714D02*
D03*
X10543546Y5856614D02*
D03*
X10358126Y2836554D02*
D03*
X10429246Y3032134D02*
D03*
X10358126Y3227714D02*
D03*
X10431786Y3423294D02*
D03*
X9745986Y4612014D02*
D03*
X10680706Y5064134D02*
D03*
X10614666Y5229234D02*
D03*
X10683246Y5460374D02*
D03*
X10614666Y5640714D02*
D03*
X10680706Y5856614D02*
D03*
X10500366Y2836554D02*
D03*
X10566406Y3032134D02*
D03*
X10500366Y3227714D02*
D03*
X10568946Y3423294D02*
D03*
X9847586Y4612014D02*
D03*
X9949186D02*
D03*
X10822946Y5064134D02*
D03*
X10751826Y5229234D02*
D03*
X10825486Y5460374D02*
D03*
X10751826Y5640714D02*
D03*
X10830566Y5856614D02*
D03*
X10637526Y2836554D02*
D03*
X10716266Y3032134D02*
D03*
X10637526Y3227714D02*
D03*
D23*
X6605446Y15110014D02*
D03*
X6694446D02*
D03*
X6605446Y15313214D02*
D03*
X6694446D02*
D03*
X6605446Y15709454D02*
D03*
X6694446D02*
D03*
Y15211613D02*
D03*
X6605446D02*
D03*
X6606665Y15910114D02*
D03*
X6695666D02*
D03*
X6694446Y15404654D02*
D03*
X6605446D02*
D03*
X6694446Y15816135D02*
D03*
X6605446D02*
D03*
Y15513873D02*
D03*
X6694446D02*
D03*
Y15612933D02*
D03*
X6605446D02*
D03*
Y18112933D02*
D03*
X6694446D02*
D03*
X6605446Y17610014D02*
D03*
X6694446D02*
D03*
X6605446Y18316135D02*
D03*
X6694446D02*
D03*
X6605446Y18209454D02*
D03*
X6694446D02*
D03*
X6605446Y17813214D02*
D03*
X6694446D02*
D03*
X6606665Y18410114D02*
D03*
X6695666D02*
D03*
X6605446Y17904654D02*
D03*
X6694446D02*
D03*
X6605446Y17711613D02*
D03*
X6694446D02*
D03*
X6605446Y18013873D02*
D03*
X6694446D02*
D03*
X9898606Y18421594D02*
D03*
X9897386Y18220934D02*
D03*
Y18327614D02*
D03*
Y18025354D02*
D03*
Y17916135D02*
D03*
Y18124414D02*
D03*
Y17621494D02*
D03*
Y17723094D02*
D03*
Y17824693D02*
D03*
X9898606Y15921594D02*
D03*
X9897386Y15624414D02*
D03*
Y15720934D02*
D03*
Y15525354D02*
D03*
Y15827614D02*
D03*
Y15223094D02*
D03*
Y15121494D02*
D03*
Y15416135D02*
D03*
Y15324693D02*
D03*
X6785560Y6463080D02*
D03*
Y6966000D02*
D03*
Y6671360D02*
D03*
Y6562140D02*
D03*
Y6864400D02*
D03*
Y6762800D02*
D03*
Y6259880D02*
D03*
Y6366560D02*
D03*
X6784340Y6165900D02*
D03*
X6785566Y4171374D02*
D03*
Y4062154D02*
D03*
Y4364414D02*
D03*
Y4262814D02*
D03*
Y4466014D02*
D03*
Y3866574D02*
D03*
Y3963094D02*
D03*
Y3759894D02*
D03*
X6784346Y3665914D02*
D03*
X3582620Y6659880D02*
D03*
Y6751320D02*
D03*
Y6550660D02*
D03*
Y6954520D02*
D03*
Y6852920D02*
D03*
Y6355080D02*
D03*
Y6248400D02*
D03*
Y6451600D02*
D03*
X3581400Y6154420D02*
D03*
X3582626Y4159894D02*
D03*
Y4251334D02*
D03*
Y4050674D02*
D03*
Y4454534D02*
D03*
Y4352934D02*
D03*
Y3855094D02*
D03*
Y3748414D02*
D03*
Y3951614D02*
D03*
X3581406Y3654434D02*
D03*
X9808386Y17621494D02*
D03*
Y17723094D02*
D03*
Y17824693D02*
D03*
Y17916135D02*
D03*
Y18025354D02*
D03*
Y18124414D02*
D03*
Y18220934D02*
D03*
Y18327614D02*
D03*
X9809606Y18421594D02*
D03*
X3670406Y3654434D02*
D03*
X3671626Y4159894D02*
D03*
Y3748414D02*
D03*
Y4050674D02*
D03*
Y3951614D02*
D03*
Y4454534D02*
D03*
Y4251334D02*
D03*
Y3855094D02*
D03*
Y4352934D02*
D03*
X3671620Y6852920D02*
D03*
Y6954520D02*
D03*
X3670400Y6154420D02*
D03*
X3671620Y6451600D02*
D03*
Y6248400D02*
D03*
Y6550660D02*
D03*
Y6659880D02*
D03*
Y6751320D02*
D03*
Y6355080D02*
D03*
X6874560Y6671360D02*
D03*
Y6864400D02*
D03*
Y6259880D02*
D03*
Y6562140D02*
D03*
Y6966000D02*
D03*
Y6366560D02*
D03*
Y6762800D02*
D03*
X6873340Y6165900D02*
D03*
X6874560Y6463080D02*
D03*
X9808386Y15827614D02*
D03*
X9809606Y15921594D02*
D03*
X9808386Y15720934D02*
D03*
Y15624414D02*
D03*
Y15525354D02*
D03*
Y15416135D02*
D03*
Y15324693D02*
D03*
Y15223094D02*
D03*
Y15121494D02*
D03*
X6874566Y4466014D02*
D03*
Y4364414D02*
D03*
Y4262814D02*
D03*
Y4171374D02*
D03*
Y4062154D02*
D03*
Y3963094D02*
D03*
Y3866574D02*
D03*
Y3759894D02*
D03*
X6873346Y3665914D02*
D03*
D24*
X12065000Y17780000D02*
D03*
Y15239999D02*
D03*
X11430000Y13970000D02*
D03*
Y11430000D02*
D03*
X12065000Y10160000D02*
D03*
Y7620000D02*
D03*
X11430000Y6350000D02*
D03*
Y3810000D02*
D03*
X10795000Y17780000D02*
D03*
Y15239999D02*
D03*
Y12700000D02*
D03*
X10160000Y11430000D02*
D03*
X10795000Y10160000D02*
D03*
X10160000Y6350000D02*
D03*
Y3810000D02*
D03*
X9525000Y12700000D02*
D03*
X8890000Y11430000D02*
D03*
X9525000Y10160000D02*
D03*
X8255000Y12700000D02*
D03*
X7620000Y11430000D02*
D03*
X8255000Y10160000D02*
D03*
X6985000Y12700000D02*
D03*
X6350000Y11430000D02*
D03*
X6985000Y10160000D02*
D03*
X5715000Y12700000D02*
D03*
X5080000Y11430000D02*
D03*
X5715000Y10160000D02*
D03*
X4445000Y12700000D02*
D03*
X3810000Y11430000D02*
D03*
X4445000Y10160000D02*
D03*
X3175000Y17780000D02*
D03*
X2540000Y16510001D02*
D03*
Y13970000D02*
D03*
X3175000Y12700000D02*
D03*
X2540000Y11430000D02*
D03*
X3175000Y10160000D02*
D03*
X2540000Y8890000D02*
D03*
Y6350000D02*
D03*
Y3810000D02*
D03*
%TF.MD5,01ddc097527e8a10485125b9bcaa9cb4*%
M02*
