%TF.GenerationSoftware,Altium Limited,Altium Designer,26.2.0 (7)*%
G04 Layer_Color=16711935*
%FSLAX45Y45*%
%MOMM*%
%TF.SameCoordinates,308F974B-A3E2-4051-A376-383C510F139A*%
%TF.FilePolarity,Negative*%
%TF.FileFunction,Soldermask,Bot*%
%TF.Part,Single*%
G01*
G75*
%TA.AperFunction,SMDPad,CuDef*%
%ADD21R,10.21080X6.40080*%
G36*
X12347162Y18793066D02*
X12347234Y18793073D01*
X12361381Y18792278D01*
X12361451Y18792264D01*
X12361524Y18792265D01*
X12375604Y18790678D01*
X12375675Y18790662D01*
X12375746Y18790659D01*
X12389714Y18788286D01*
X12389784Y18788264D01*
X12389855Y18788257D01*
X12403669Y18785104D01*
X12403736Y18785080D01*
X12403808Y18785069D01*
X12417423Y18781146D01*
X12417490Y18781117D01*
X12417560Y18781104D01*
X12430934Y18776424D01*
X12430999Y18776390D01*
X12431069Y18776372D01*
X12444159Y18770950D01*
X12444221Y18770914D01*
X12444290Y18770891D01*
X12457056Y18764743D01*
X12457116Y18764703D01*
X12457183Y18764677D01*
X12469584Y18757823D01*
X12469642Y18757780D01*
X12469708Y18757750D01*
X12481705Y18750212D01*
X12481761Y18750166D01*
X12481825Y18750133D01*
X12493380Y18741933D01*
X12493433Y18741884D01*
X12493495Y18741847D01*
X12504573Y18733012D01*
X12504623Y18732961D01*
X12504683Y18732919D01*
X12515248Y18723479D01*
X12515295Y18723424D01*
X12515352Y18723380D01*
X12525371Y18713361D01*
X12525415Y18713304D01*
X12525470Y18713255D01*
X12534911Y18702692D01*
X12534952Y18702631D01*
X12535004Y18702582D01*
X12543839Y18691504D01*
X12543876Y18691441D01*
X12543925Y18691389D01*
X12552124Y18679832D01*
X12552158Y18679768D01*
X12552204Y18679713D01*
X12559742Y18667717D01*
X12559772Y18667651D01*
X12559815Y18667593D01*
X12566669Y18655193D01*
X12566695Y18655125D01*
X12566735Y18655064D01*
X12572882Y18642299D01*
X12572905Y18642230D01*
X12572941Y18642168D01*
X12578363Y18629077D01*
X12578382Y18629007D01*
X12578415Y18628943D01*
X12583094Y18615569D01*
X12583109Y18615498D01*
X12583138Y18615433D01*
X12587060Y18601817D01*
X12587071Y18601746D01*
X12587096Y18601678D01*
X12590249Y18587865D01*
X12590256Y18587791D01*
X12590277Y18587723D01*
X12592650Y18573753D01*
X12592653Y18573683D01*
X12592671Y18573611D01*
X12594257Y18559532D01*
X12594256Y18559459D01*
X12594269Y18559389D01*
X12595063Y18545242D01*
X12595058Y18545171D01*
X12595068Y18545099D01*
Y18530930D01*
X12595058Y18530858D01*
X12595063Y18530786D01*
X12594269Y18516640D01*
X12594256Y18516570D01*
X12594257Y18516496D01*
X12592671Y18502415D01*
X12592653Y18502345D01*
X12592650Y18502274D01*
X12590277Y18488306D01*
X12590255Y18488235D01*
X12590249Y18488164D01*
X12587096Y18474352D01*
X12587071Y18474284D01*
X12587060Y18474213D01*
X12583138Y18460597D01*
X12583109Y18460530D01*
X12583094Y18460460D01*
X12578415Y18447086D01*
X12578382Y18447021D01*
X12578363Y18446951D01*
X12572941Y18433861D01*
X12572905Y18433800D01*
X12572882Y18433730D01*
X12566735Y18420964D01*
X12566695Y18420903D01*
X12566669Y18420836D01*
X12559815Y18408437D01*
X12559772Y18408379D01*
X12559742Y18408311D01*
X12552204Y18396315D01*
X12552158Y18396259D01*
X12552124Y18396194D01*
X12543925Y18384641D01*
X12543876Y18384587D01*
X12543838Y18384525D01*
X12535004Y18373447D01*
X12534952Y18373396D01*
X12534911Y18373337D01*
X12525470Y18362772D01*
X12525415Y18362724D01*
X12525371Y18362668D01*
X12515352Y18352649D01*
X12515295Y18352605D01*
X12515248Y18352550D01*
X12504683Y18343109D01*
X12504623Y18343068D01*
X12504573Y18343016D01*
X12493495Y18334183D01*
X12493433Y18334145D01*
X12493380Y18334094D01*
X12481825Y18325896D01*
X12481760Y18325862D01*
X12481705Y18325816D01*
X12469708Y18318279D01*
X12469642Y18318248D01*
X12469584Y18318205D01*
X12457183Y18311351D01*
X12457115Y18311324D01*
X12457056Y18311285D01*
X12444290Y18305138D01*
X12444221Y18305115D01*
X12444159Y18305080D01*
X12431069Y18299657D01*
X12430999Y18299638D01*
X12430934Y18299606D01*
X12417561Y18294926D01*
X12417490Y18294911D01*
X12417423Y18294882D01*
X12403808Y18290961D01*
X12403736Y18290948D01*
X12403669Y18290924D01*
X12389856Y18287772D01*
X12389783Y18287764D01*
X12389715Y18287743D01*
X12375746Y18285370D01*
X12375674Y18285367D01*
X12375603Y18285349D01*
X12361524Y18283763D01*
X12361451Y18283765D01*
X12361381Y18283751D01*
X12347234Y18282956D01*
X12347162Y18282962D01*
X12347090Y18282951D01*
X12332921D01*
X12332850Y18282962D01*
X12332778Y18282956D01*
X12318631Y18283751D01*
X12318560Y18283765D01*
X12318488Y18283763D01*
X12304408Y18285349D01*
X12304337Y18285367D01*
X12304265Y18285370D01*
X12290297Y18287743D01*
X12290227Y18287766D01*
X12290156Y18287772D01*
X12276342Y18290924D01*
X12276275Y18290948D01*
X12276203Y18290961D01*
X12262588Y18294882D01*
X12262522Y18294911D01*
X12262451Y18294926D01*
X12249077Y18299606D01*
X12249013Y18299638D01*
X12248943Y18299657D01*
X12235853Y18305080D01*
X12235790Y18305115D01*
X12235722Y18305138D01*
X12222956Y18311285D01*
X12222895Y18311325D01*
X12222828Y18311351D01*
X12210427Y18318205D01*
X12210369Y18318248D01*
X12210303Y18318279D01*
X12198306Y18325816D01*
X12198251Y18325862D01*
X12198187Y18325896D01*
X12186631Y18334094D01*
X12186578Y18334145D01*
X12186516Y18334183D01*
X12175438Y18343016D01*
X12175389Y18343068D01*
X12175329Y18343109D01*
X12164764Y18352550D01*
X12164716Y18352605D01*
X12164659Y18352649D01*
X12154640Y18362668D01*
X12154596Y18362724D01*
X12154541Y18362772D01*
X12145100Y18373337D01*
X12145059Y18373396D01*
X12145008Y18373447D01*
X12136173Y18384525D01*
X12136136Y18384587D01*
X12136087Y18384641D01*
X12127888Y18396194D01*
X12127854Y18396260D01*
X12127808Y18396315D01*
X12120270Y18408311D01*
X12120239Y18408379D01*
X12120197Y18408437D01*
X12113343Y18420836D01*
X12113316Y18420905D01*
X12113277Y18420964D01*
X12107129Y18433730D01*
X12107107Y18433800D01*
X12107071Y18433861D01*
X12101648Y18446951D01*
X12101630Y18447021D01*
X12101597Y18447086D01*
X12096917Y18460460D01*
X12096903Y18460530D01*
X12096874Y18460597D01*
X12092951Y18474213D01*
X12092940Y18474284D01*
X12092915Y18474352D01*
X12089762Y18488164D01*
X12089756Y18488235D01*
X12089734Y18488306D01*
X12087361Y18502274D01*
X12087358Y18502345D01*
X12087341Y18502417D01*
X12085754Y18516496D01*
X12085756Y18516570D01*
X12085742Y18516640D01*
X12084948Y18530786D01*
X12084953Y18530858D01*
X12084944Y18530930D01*
Y18545099D01*
X12084953Y18545171D01*
X12084948Y18545242D01*
X12085742Y18559389D01*
X12085756Y18559460D01*
X12085754Y18559532D01*
X12087341Y18573611D01*
X12087358Y18573682D01*
X12087361Y18573753D01*
X12089734Y18587723D01*
X12089756Y18587793D01*
X12089762Y18587865D01*
X12092915Y18601678D01*
X12092941Y18601746D01*
X12092951Y18601817D01*
X12096874Y18615433D01*
X12096903Y18615498D01*
X12096917Y18615569D01*
X12101597Y18628943D01*
X12101630Y18629007D01*
X12101648Y18629077D01*
X12107071Y18642168D01*
X12107107Y18642230D01*
X12107129Y18642299D01*
X12113277Y18655064D01*
X12113316Y18655125D01*
X12113343Y18655193D01*
X12120197Y18667593D01*
X12120239Y18667651D01*
X12120270Y18667717D01*
X12127808Y18679713D01*
X12127854Y18679768D01*
X12127888Y18679832D01*
X12136087Y18691389D01*
X12136136Y18691441D01*
X12136173Y18691504D01*
X12145008Y18702582D01*
X12145059Y18702631D01*
X12145100Y18702692D01*
X12154541Y18713255D01*
X12154596Y18713304D01*
X12154640Y18713361D01*
X12164659Y18723380D01*
X12164716Y18723424D01*
X12164764Y18723479D01*
X12175329Y18732919D01*
X12175389Y18732961D01*
X12175438Y18733012D01*
X12186516Y18741847D01*
X12186578Y18741884D01*
X12186631Y18741933D01*
X12198187Y18750133D01*
X12198251Y18750166D01*
X12198306Y18750212D01*
X12210303Y18757750D01*
X12210369Y18757780D01*
X12210427Y18757823D01*
X12222828Y18764677D01*
X12222895Y18764703D01*
X12222956Y18764743D01*
X12235722Y18770891D01*
X12235790Y18770914D01*
X12235853Y18770950D01*
X12248943Y18776372D01*
X12249013Y18776390D01*
X12249077Y18776424D01*
X12262451Y18781104D01*
X12262522Y18781117D01*
X12262588Y18781146D01*
X12276203Y18785069D01*
X12276275Y18785080D01*
X12276342Y18785104D01*
X12290156Y18788257D01*
X12290228Y18788264D01*
X12290297Y18788284D01*
X12304265Y18790659D01*
X12304337Y18790662D01*
X12304408Y18790678D01*
X12318488Y18792265D01*
X12318561Y18792264D01*
X12318631Y18792278D01*
X12332778Y18793073D01*
X12332850Y18793066D01*
X12332921Y18793076D01*
X12347090D01*
X12347162Y18793066D01*
D02*
G37*
G36*
X12345160Y3616740D02*
X12345329D01*
X12355232Y3615436D01*
X12355395Y3615392D01*
X12355561Y3615370D01*
X12365209Y3612785D01*
X12365364Y3612721D01*
X12365526Y3612678D01*
X12374755Y3608855D01*
X12374899Y3608772D01*
X12375056Y3608707D01*
X12383706Y3603713D01*
X12383839Y3603610D01*
X12383985Y3603526D01*
X12391909Y3597445D01*
X12392028Y3597327D01*
X12392161Y3597224D01*
X12399224Y3590161D01*
X12399326Y3590028D01*
X12399445Y3589910D01*
X12405526Y3581985D01*
X12405610Y3581839D01*
X12405713Y3581706D01*
X12410707Y3573056D01*
X12410771Y3572900D01*
X12410855Y3572755D01*
X12414677Y3563527D01*
X12414721Y3563364D01*
X12414785Y3563209D01*
X12417370Y3553561D01*
X12417392Y3553395D01*
X12417436Y3553232D01*
X12418740Y3543329D01*
Y3543161D01*
X12418762Y3542994D01*
Y3538000D01*
Y3533006D01*
X12418740Y3532840D01*
Y3532671D01*
X12417436Y3522768D01*
X12417392Y3522605D01*
X12417370Y3522439D01*
X12414785Y3512791D01*
X12414721Y3512636D01*
X12414677Y3512474D01*
X12410855Y3503245D01*
X12410772Y3503101D01*
X12410707Y3502944D01*
X12405713Y3494294D01*
X12405610Y3494161D01*
X12405526Y3494015D01*
X12399445Y3486091D01*
X12399326Y3485972D01*
X12399224Y3485839D01*
X12392161Y3478776D01*
X12392028Y3478674D01*
X12391909Y3478555D01*
X12383985Y3472474D01*
X12383839Y3472390D01*
X12383706Y3472287D01*
X12375056Y3467293D01*
X12374900Y3467229D01*
X12374755Y3467145D01*
X12365526Y3463323D01*
X12365364Y3463279D01*
X12365209Y3463215D01*
X12355561Y3460630D01*
X12355395Y3460608D01*
X12355232Y3460564D01*
X12345329Y3459260D01*
X12345160D01*
X12344994Y3459238D01*
X12335006D01*
X12334839Y3459260D01*
X12334671D01*
X12324768Y3460564D01*
X12324605Y3460608D01*
X12324439Y3460630D01*
X12314791Y3463215D01*
X12314636Y3463279D01*
X12314473Y3463323D01*
X12305245Y3467145D01*
X12305101Y3467228D01*
X12304944Y3467293D01*
X12296294Y3472287D01*
X12296161Y3472390D01*
X12296015Y3472474D01*
X12288090Y3478555D01*
X12287972Y3478674D01*
X12287839Y3478776D01*
X12280776Y3485839D01*
X12280673Y3485972D01*
X12280555Y3486091D01*
X12274474Y3494015D01*
X12274389Y3494161D01*
X12274287Y3494294D01*
X12269293Y3502944D01*
X12269229Y3503100D01*
X12269145Y3503245D01*
X12265322Y3512474D01*
X12265279Y3512636D01*
X12265215Y3512791D01*
X12262630Y3522439D01*
X12262608Y3522605D01*
X12262564Y3522768D01*
X12261260Y3532671D01*
Y3532840D01*
X12261238Y3533006D01*
Y3538000D01*
Y3542994D01*
X12261260Y3543161D01*
Y3543329D01*
X12262564Y3553232D01*
X12262608Y3553395D01*
X12262630Y3553561D01*
X12265215Y3563209D01*
X12265279Y3563364D01*
X12265322Y3563527D01*
X12269145Y3572755D01*
X12269228Y3572899D01*
X12269293Y3573056D01*
X12274287Y3581706D01*
X12274390Y3581839D01*
X12274474Y3581985D01*
X12280555Y3589910D01*
X12280673Y3590028D01*
X12280776Y3590161D01*
X12287839Y3597224D01*
X12287972Y3597327D01*
X12288090Y3597445D01*
X12296015Y3603526D01*
X12296161Y3603611D01*
X12296294Y3603713D01*
X12304944Y3608707D01*
X12305100Y3608771D01*
X12305245Y3608855D01*
X12314473Y3612678D01*
X12314636Y3612721D01*
X12314791Y3612785D01*
X12324439Y3615370D01*
X12324605Y3615392D01*
X12324768Y3615436D01*
X12334671Y3616740D01*
X12334839D01*
X12335006Y3616762D01*
X12344994D01*
X12345160Y3616740D01*
D02*
G37*
D21*
X3522980Y11041380D02*
D03*
X11866880Y12811760D02*
D03*
Y8816340D02*
D03*
Y4820920D02*
D03*
Y16807179D02*
D03*
%TF.MD5,7a6b2dcffdc6713e04c18c56f4c58d44*%
M02*
