%TF.GenerationSoftware,Altium Limited,Altium Designer,26.2.0 (7)*%
G04 Layer_Color=0*
%FSLAX45Y45*%
%MOMM*%
%TF.SameCoordinates,308F974B-A3E2-4051-A376-383C510F139A*%
%TF.FilePolarity,Positive*%
%TF.FileFunction,Plated,1,10,PTH,Drill*%
%TF.Part,Single*%
G01*
G75*
%TA.AperFunction,ComponentDrill*%
%ADD28C,0.15240*%
%TA.AperFunction,ViaDrill,NotFilled*%
%ADD29C,0.25400*%
%ADD30C,0.20320*%
D28*
X6555006Y15023013D02*
D03*
Y15123013D02*
D03*
Y15223013D02*
D03*
Y15323015D02*
D03*
Y15423015D02*
D03*
Y15523013D02*
D03*
Y15623013D02*
D03*
Y15723013D02*
D03*
Y15923013D02*
D03*
Y15823013D02*
D03*
X6455006Y15023013D02*
D03*
Y15123013D02*
D03*
Y15223013D02*
D03*
Y15323015D02*
D03*
Y15423015D02*
D03*
Y15523013D02*
D03*
Y15623013D02*
D03*
Y15723013D02*
D03*
Y15923013D02*
D03*
Y15823013D02*
D03*
X6355006Y15023013D02*
D03*
Y15123013D02*
D03*
Y15223013D02*
D03*
Y15323015D02*
D03*
Y15423015D02*
D03*
Y15523013D02*
D03*
Y15623013D02*
D03*
Y15723013D02*
D03*
Y15923013D02*
D03*
Y15823013D02*
D03*
X6255006Y15023013D02*
D03*
Y15123013D02*
D03*
Y15223013D02*
D03*
Y15323015D02*
D03*
Y15423015D02*
D03*
Y15523013D02*
D03*
Y15623013D02*
D03*
Y15723013D02*
D03*
Y15923013D02*
D03*
Y15823013D02*
D03*
X6155008Y15023013D02*
D03*
Y15123013D02*
D03*
Y15223013D02*
D03*
Y15323015D02*
D03*
Y15423015D02*
D03*
Y15523013D02*
D03*
Y15623013D02*
D03*
Y15723013D02*
D03*
Y15923013D02*
D03*
Y15823013D02*
D03*
X6055008Y15023013D02*
D03*
Y15123013D02*
D03*
Y15223013D02*
D03*
Y15323015D02*
D03*
Y15423015D02*
D03*
Y15523013D02*
D03*
Y15623013D02*
D03*
Y15723013D02*
D03*
Y15923013D02*
D03*
Y15823013D02*
D03*
X5955008Y15023013D02*
D03*
Y15123013D02*
D03*
Y15223013D02*
D03*
Y15323015D02*
D03*
Y15423015D02*
D03*
Y15523013D02*
D03*
Y15623013D02*
D03*
Y15723013D02*
D03*
Y15923013D02*
D03*
Y15823013D02*
D03*
X5855006Y15023013D02*
D03*
Y15123013D02*
D03*
Y15223013D02*
D03*
Y15323015D02*
D03*
Y15423015D02*
D03*
Y15523013D02*
D03*
Y15623013D02*
D03*
Y15723013D02*
D03*
Y15923013D02*
D03*
Y15823013D02*
D03*
X5755006Y15023013D02*
D03*
Y15123013D02*
D03*
Y15223013D02*
D03*
Y15323015D02*
D03*
Y15423015D02*
D03*
Y15523013D02*
D03*
Y15623013D02*
D03*
Y15723013D02*
D03*
Y15923013D02*
D03*
Y15823013D02*
D03*
X5655006Y15023013D02*
D03*
Y15123013D02*
D03*
Y15223013D02*
D03*
Y15323015D02*
D03*
Y15423015D02*
D03*
Y15523013D02*
D03*
Y15623013D02*
D03*
Y15723013D02*
D03*
Y15923013D02*
D03*
Y15823013D02*
D03*
X5555006Y15023013D02*
D03*
Y15123013D02*
D03*
Y15223013D02*
D03*
Y15323015D02*
D03*
Y15423015D02*
D03*
Y15523013D02*
D03*
Y15623013D02*
D03*
Y15723013D02*
D03*
Y15923013D02*
D03*
Y15823013D02*
D03*
X5455006Y15023013D02*
D03*
Y15123013D02*
D03*
Y15223013D02*
D03*
Y15323015D02*
D03*
Y15423015D02*
D03*
Y15523013D02*
D03*
Y15623013D02*
D03*
Y15723013D02*
D03*
Y15923013D02*
D03*
Y15823013D02*
D03*
X5355006Y15023013D02*
D03*
Y15123013D02*
D03*
Y15223013D02*
D03*
Y15323015D02*
D03*
Y15423015D02*
D03*
Y15523013D02*
D03*
Y15623013D02*
D03*
Y15723013D02*
D03*
Y15923013D02*
D03*
Y15823013D02*
D03*
X5255006Y15023013D02*
D03*
Y15123013D02*
D03*
Y15223013D02*
D03*
Y15323015D02*
D03*
Y15423015D02*
D03*
Y15523013D02*
D03*
Y15623013D02*
D03*
Y15723013D02*
D03*
Y15923013D02*
D03*
Y15823013D02*
D03*
X5155006Y15023013D02*
D03*
Y15123013D02*
D03*
Y15223013D02*
D03*
Y15323015D02*
D03*
Y15423015D02*
D03*
Y15523013D02*
D03*
Y15623013D02*
D03*
Y15723013D02*
D03*
Y15923013D02*
D03*
Y15823013D02*
D03*
X5055006Y15023013D02*
D03*
Y15123013D02*
D03*
Y15223013D02*
D03*
Y15323015D02*
D03*
Y15423015D02*
D03*
Y15523013D02*
D03*
Y15623013D02*
D03*
Y15723013D02*
D03*
Y15923013D02*
D03*
Y15823013D02*
D03*
X4955006Y15023013D02*
D03*
Y15123013D02*
D03*
Y15223013D02*
D03*
Y15323015D02*
D03*
Y15423015D02*
D03*
Y15523013D02*
D03*
Y15623013D02*
D03*
Y15723013D02*
D03*
Y15923013D02*
D03*
Y15823013D02*
D03*
X4855006Y15023013D02*
D03*
Y15123013D02*
D03*
Y15223013D02*
D03*
Y15323015D02*
D03*
Y15423015D02*
D03*
Y15523013D02*
D03*
Y15623013D02*
D03*
Y15723013D02*
D03*
Y15923013D02*
D03*
Y15823013D02*
D03*
X4755006Y15023013D02*
D03*
Y15123013D02*
D03*
Y15223013D02*
D03*
Y15323015D02*
D03*
Y15423015D02*
D03*
Y15523013D02*
D03*
Y15623013D02*
D03*
Y15723013D02*
D03*
Y15923013D02*
D03*
Y15823013D02*
D03*
X4655006Y15023013D02*
D03*
Y15123013D02*
D03*
Y15223013D02*
D03*
Y15323015D02*
D03*
Y15423015D02*
D03*
Y15523013D02*
D03*
Y15623013D02*
D03*
Y15723013D02*
D03*
Y15923013D02*
D03*
Y15823013D02*
D03*
X4555006Y15023013D02*
D03*
Y15123013D02*
D03*
Y15223013D02*
D03*
Y15323015D02*
D03*
Y15423015D02*
D03*
Y15523013D02*
D03*
Y15623013D02*
D03*
Y15723013D02*
D03*
Y15923013D02*
D03*
Y15823013D02*
D03*
X4455006Y15023013D02*
D03*
Y15123013D02*
D03*
Y15223013D02*
D03*
Y15323015D02*
D03*
Y15423015D02*
D03*
Y15523013D02*
D03*
Y15623013D02*
D03*
Y15723013D02*
D03*
Y15923013D02*
D03*
Y15823013D02*
D03*
X4355006Y15023013D02*
D03*
Y15123013D02*
D03*
Y15223013D02*
D03*
Y15323015D02*
D03*
Y15423015D02*
D03*
Y15523013D02*
D03*
Y15623013D02*
D03*
Y15723013D02*
D03*
Y15923013D02*
D03*
Y15823013D02*
D03*
X4255006Y15023013D02*
D03*
Y15123013D02*
D03*
Y15223013D02*
D03*
Y15323015D02*
D03*
Y15423015D02*
D03*
Y15523013D02*
D03*
Y15623013D02*
D03*
Y15723013D02*
D03*
Y15923013D02*
D03*
Y15823013D02*
D03*
X4155006Y15023013D02*
D03*
Y15123013D02*
D03*
Y15223013D02*
D03*
Y15323015D02*
D03*
Y15423015D02*
D03*
Y15523013D02*
D03*
Y15623013D02*
D03*
Y15723013D02*
D03*
Y15923013D02*
D03*
Y15823013D02*
D03*
X4055006Y15023013D02*
D03*
Y15123013D02*
D03*
Y15223013D02*
D03*
Y15323015D02*
D03*
Y15423015D02*
D03*
Y15523013D02*
D03*
Y15623013D02*
D03*
Y15723013D02*
D03*
Y15923013D02*
D03*
Y15823013D02*
D03*
X3955006Y15023013D02*
D03*
Y15123013D02*
D03*
Y15223013D02*
D03*
Y15323015D02*
D03*
Y15423015D02*
D03*
Y15523013D02*
D03*
Y15623013D02*
D03*
Y15723013D02*
D03*
Y15923013D02*
D03*
Y15823013D02*
D03*
X3855006Y15023013D02*
D03*
Y15123013D02*
D03*
Y15223013D02*
D03*
Y15323015D02*
D03*
Y15423015D02*
D03*
Y15523013D02*
D03*
Y15623013D02*
D03*
Y15723013D02*
D03*
Y15923013D02*
D03*
Y15823013D02*
D03*
X3755006Y15023013D02*
D03*
Y15123013D02*
D03*
Y15223013D02*
D03*
Y15323015D02*
D03*
Y15423015D02*
D03*
Y15523013D02*
D03*
Y15623013D02*
D03*
Y15723013D02*
D03*
Y15923013D02*
D03*
Y15823013D02*
D03*
X3655006Y15023013D02*
D03*
Y15123013D02*
D03*
Y15223013D02*
D03*
Y15323015D02*
D03*
Y15423015D02*
D03*
Y15523013D02*
D03*
Y15623013D02*
D03*
Y15723013D02*
D03*
Y15923013D02*
D03*
Y15823013D02*
D03*
X6855006Y15323015D02*
D03*
Y15123013D02*
D03*
Y15823013D02*
D03*
Y15623013D02*
D03*
Y15223013D02*
D03*
Y15423015D02*
D03*
Y15923013D02*
D03*
Y15723013D02*
D03*
X6555006Y17523013D02*
D03*
Y17623013D02*
D03*
Y17723013D02*
D03*
Y17823015D02*
D03*
Y17923015D02*
D03*
Y18023013D02*
D03*
Y18123013D02*
D03*
Y18223013D02*
D03*
Y18423013D02*
D03*
Y18323013D02*
D03*
X6455006Y17523013D02*
D03*
Y17623013D02*
D03*
Y17723013D02*
D03*
Y17823015D02*
D03*
Y17923015D02*
D03*
Y18023013D02*
D03*
Y18123013D02*
D03*
Y18223013D02*
D03*
Y18423013D02*
D03*
Y18323013D02*
D03*
X6355006Y17523013D02*
D03*
Y17623013D02*
D03*
Y17723013D02*
D03*
Y17823015D02*
D03*
Y17923015D02*
D03*
Y18023013D02*
D03*
Y18123013D02*
D03*
Y18223013D02*
D03*
Y18423013D02*
D03*
Y18323013D02*
D03*
X6255006Y17523013D02*
D03*
Y17623013D02*
D03*
Y17723013D02*
D03*
Y17823015D02*
D03*
Y17923015D02*
D03*
Y18023013D02*
D03*
Y18123013D02*
D03*
Y18223013D02*
D03*
Y18423013D02*
D03*
Y18323013D02*
D03*
X6155008Y17523013D02*
D03*
Y17623013D02*
D03*
Y17723013D02*
D03*
Y17823015D02*
D03*
Y17923015D02*
D03*
Y18023013D02*
D03*
Y18123013D02*
D03*
Y18223013D02*
D03*
Y18423013D02*
D03*
Y18323013D02*
D03*
X6055008Y17523013D02*
D03*
Y17623013D02*
D03*
Y17723013D02*
D03*
Y17823015D02*
D03*
Y17923015D02*
D03*
Y18023013D02*
D03*
Y18123013D02*
D03*
Y18223013D02*
D03*
Y18423013D02*
D03*
Y18323013D02*
D03*
X5955008Y17523013D02*
D03*
Y17623013D02*
D03*
Y17723013D02*
D03*
Y17823015D02*
D03*
Y17923015D02*
D03*
Y18023013D02*
D03*
Y18123013D02*
D03*
Y18223013D02*
D03*
Y18423013D02*
D03*
Y18323013D02*
D03*
X5855006Y17523013D02*
D03*
Y17623013D02*
D03*
Y17723013D02*
D03*
Y17823015D02*
D03*
Y17923015D02*
D03*
Y18023013D02*
D03*
Y18123013D02*
D03*
Y18223013D02*
D03*
Y18423013D02*
D03*
Y18323013D02*
D03*
X5755006Y17523013D02*
D03*
Y17623013D02*
D03*
Y17723013D02*
D03*
Y17823015D02*
D03*
Y17923015D02*
D03*
Y18023013D02*
D03*
Y18123013D02*
D03*
Y18223013D02*
D03*
Y18423013D02*
D03*
Y18323013D02*
D03*
X5655006Y17523013D02*
D03*
Y17623013D02*
D03*
Y17723013D02*
D03*
Y17823015D02*
D03*
Y17923015D02*
D03*
Y18023013D02*
D03*
Y18123013D02*
D03*
Y18223013D02*
D03*
Y18423013D02*
D03*
Y18323013D02*
D03*
X5555006Y17523013D02*
D03*
Y17623013D02*
D03*
Y17723013D02*
D03*
Y17823015D02*
D03*
Y17923015D02*
D03*
Y18023013D02*
D03*
Y18123013D02*
D03*
Y18223013D02*
D03*
Y18423013D02*
D03*
Y18323013D02*
D03*
X5455006Y17523013D02*
D03*
Y17623013D02*
D03*
Y17723013D02*
D03*
Y17823015D02*
D03*
Y17923015D02*
D03*
Y18023013D02*
D03*
Y18123013D02*
D03*
Y18223013D02*
D03*
Y18423013D02*
D03*
Y18323013D02*
D03*
X5355006Y17523013D02*
D03*
Y17623013D02*
D03*
Y17723013D02*
D03*
Y17823015D02*
D03*
Y17923015D02*
D03*
Y18023013D02*
D03*
Y18123013D02*
D03*
Y18223013D02*
D03*
Y18423013D02*
D03*
Y18323013D02*
D03*
X5255006Y17523013D02*
D03*
Y17623013D02*
D03*
Y17723013D02*
D03*
Y17823015D02*
D03*
Y17923015D02*
D03*
Y18023013D02*
D03*
Y18123013D02*
D03*
Y18223013D02*
D03*
Y18423013D02*
D03*
Y18323013D02*
D03*
X5155006Y17523013D02*
D03*
Y17623013D02*
D03*
Y17723013D02*
D03*
Y17823015D02*
D03*
Y17923015D02*
D03*
Y18023013D02*
D03*
Y18123013D02*
D03*
Y18223013D02*
D03*
Y18423013D02*
D03*
Y18323013D02*
D03*
X5055006Y17523013D02*
D03*
Y17623013D02*
D03*
Y17723013D02*
D03*
Y17823015D02*
D03*
Y17923015D02*
D03*
Y18023013D02*
D03*
Y18123013D02*
D03*
Y18223013D02*
D03*
Y18423013D02*
D03*
Y18323013D02*
D03*
X4955006Y17523013D02*
D03*
Y17623013D02*
D03*
Y17723013D02*
D03*
Y17823015D02*
D03*
Y17923015D02*
D03*
Y18023013D02*
D03*
Y18123013D02*
D03*
Y18223013D02*
D03*
Y18423013D02*
D03*
Y18323013D02*
D03*
X4855006Y17523013D02*
D03*
Y17623013D02*
D03*
Y17723013D02*
D03*
Y17823015D02*
D03*
Y17923015D02*
D03*
Y18023013D02*
D03*
Y18123013D02*
D03*
Y18223013D02*
D03*
Y18423013D02*
D03*
Y18323013D02*
D03*
X4755006Y17523013D02*
D03*
Y17623013D02*
D03*
Y17723013D02*
D03*
Y17823015D02*
D03*
Y17923015D02*
D03*
Y18023013D02*
D03*
Y18123013D02*
D03*
Y18223013D02*
D03*
Y18423013D02*
D03*
Y18323013D02*
D03*
X4655006Y17523013D02*
D03*
Y17623013D02*
D03*
Y17723013D02*
D03*
Y17823015D02*
D03*
Y17923015D02*
D03*
Y18023013D02*
D03*
Y18123013D02*
D03*
Y18223013D02*
D03*
Y18423013D02*
D03*
Y18323013D02*
D03*
X4555006Y17523013D02*
D03*
Y17623013D02*
D03*
Y17723013D02*
D03*
Y17823015D02*
D03*
Y17923015D02*
D03*
Y18023013D02*
D03*
Y18123013D02*
D03*
Y18223013D02*
D03*
Y18423013D02*
D03*
Y18323013D02*
D03*
X4455006Y17523013D02*
D03*
Y17623013D02*
D03*
Y17723013D02*
D03*
Y17823015D02*
D03*
Y17923015D02*
D03*
Y18023013D02*
D03*
Y18123013D02*
D03*
Y18223013D02*
D03*
Y18423013D02*
D03*
Y18323013D02*
D03*
X4355006Y17523013D02*
D03*
Y17623013D02*
D03*
Y17723013D02*
D03*
Y17823015D02*
D03*
Y17923015D02*
D03*
Y18023013D02*
D03*
Y18123013D02*
D03*
Y18223013D02*
D03*
Y18423013D02*
D03*
Y18323013D02*
D03*
X4255006Y17523013D02*
D03*
Y17623013D02*
D03*
Y17723013D02*
D03*
Y17823015D02*
D03*
Y17923015D02*
D03*
Y18023013D02*
D03*
Y18123013D02*
D03*
Y18223013D02*
D03*
Y18423013D02*
D03*
Y18323013D02*
D03*
X4155006Y17523013D02*
D03*
Y17623013D02*
D03*
Y17723013D02*
D03*
Y17823015D02*
D03*
Y17923015D02*
D03*
Y18023013D02*
D03*
Y18123013D02*
D03*
Y18223013D02*
D03*
Y18423013D02*
D03*
Y18323013D02*
D03*
X4055006Y17523013D02*
D03*
Y17623013D02*
D03*
Y17723013D02*
D03*
Y17823015D02*
D03*
Y17923015D02*
D03*
Y18023013D02*
D03*
Y18123013D02*
D03*
Y18223013D02*
D03*
Y18423013D02*
D03*
Y18323013D02*
D03*
X3955006Y17523013D02*
D03*
Y17623013D02*
D03*
Y17723013D02*
D03*
Y17823015D02*
D03*
Y17923015D02*
D03*
Y18023013D02*
D03*
Y18123013D02*
D03*
Y18223013D02*
D03*
Y18423013D02*
D03*
Y18323013D02*
D03*
X3855006Y17523013D02*
D03*
Y17623013D02*
D03*
Y17723013D02*
D03*
Y17823015D02*
D03*
Y17923015D02*
D03*
Y18023013D02*
D03*
Y18123013D02*
D03*
Y18223013D02*
D03*
Y18423013D02*
D03*
Y18323013D02*
D03*
X3755006Y17523013D02*
D03*
Y17623013D02*
D03*
Y17723013D02*
D03*
Y17823015D02*
D03*
Y17923015D02*
D03*
Y18023013D02*
D03*
Y18123013D02*
D03*
Y18223013D02*
D03*
Y18423013D02*
D03*
Y18323013D02*
D03*
X3655006Y17523013D02*
D03*
Y17623013D02*
D03*
Y17723013D02*
D03*
Y17823015D02*
D03*
Y17923015D02*
D03*
Y18023013D02*
D03*
Y18123013D02*
D03*
Y18223013D02*
D03*
Y18423013D02*
D03*
Y18323013D02*
D03*
X9825006Y3753014D02*
D03*
Y3653014D02*
D03*
Y3853014D02*
D03*
Y3953014D02*
D03*
Y4053014D02*
D03*
Y4153014D02*
D03*
Y4253014D02*
D03*
Y4353014D02*
D03*
Y4453014D02*
D03*
Y4553014D02*
D03*
X9725006Y3753014D02*
D03*
Y3653014D02*
D03*
Y3853014D02*
D03*
Y3953014D02*
D03*
Y4053014D02*
D03*
Y4153014D02*
D03*
Y4253014D02*
D03*
Y4353014D02*
D03*
Y4453014D02*
D03*
Y4553014D02*
D03*
X9625006Y3753014D02*
D03*
Y3653014D02*
D03*
Y3853014D02*
D03*
Y3953014D02*
D03*
Y4053014D02*
D03*
Y4153014D02*
D03*
Y4253014D02*
D03*
Y4353014D02*
D03*
Y4453014D02*
D03*
Y4553014D02*
D03*
X9525006Y3753014D02*
D03*
Y3653014D02*
D03*
Y3853014D02*
D03*
Y3953014D02*
D03*
Y4053014D02*
D03*
Y4153014D02*
D03*
Y4253014D02*
D03*
Y4353014D02*
D03*
Y4453014D02*
D03*
Y4553014D02*
D03*
X9425006Y3753014D02*
D03*
Y3653014D02*
D03*
Y3853014D02*
D03*
Y3953014D02*
D03*
Y4053014D02*
D03*
Y4153014D02*
D03*
Y4253014D02*
D03*
Y4353014D02*
D03*
Y4453014D02*
D03*
Y4553014D02*
D03*
X9325006Y3753014D02*
D03*
Y3653014D02*
D03*
Y3853014D02*
D03*
Y3953014D02*
D03*
Y4053014D02*
D03*
Y4153014D02*
D03*
Y4253014D02*
D03*
Y4353014D02*
D03*
Y4453014D02*
D03*
Y4553014D02*
D03*
X9225006Y3753014D02*
D03*
Y3653014D02*
D03*
Y3853014D02*
D03*
Y3953014D02*
D03*
Y4053014D02*
D03*
Y4153014D02*
D03*
Y4253014D02*
D03*
Y4353014D02*
D03*
Y4453014D02*
D03*
Y4553014D02*
D03*
X9125006Y3753014D02*
D03*
Y3653014D02*
D03*
Y3853014D02*
D03*
Y3953014D02*
D03*
Y4053014D02*
D03*
Y4153014D02*
D03*
Y4253014D02*
D03*
Y4353014D02*
D03*
Y4453014D02*
D03*
Y4553014D02*
D03*
X9025006Y3753014D02*
D03*
Y3653014D02*
D03*
Y3853014D02*
D03*
Y3953014D02*
D03*
Y4053014D02*
D03*
Y4153014D02*
D03*
Y4253014D02*
D03*
Y4353014D02*
D03*
Y4453014D02*
D03*
Y4553014D02*
D03*
X8925006Y3753014D02*
D03*
Y3653014D02*
D03*
Y3853014D02*
D03*
Y3953014D02*
D03*
Y4053014D02*
D03*
Y4153014D02*
D03*
Y4253014D02*
D03*
Y4353014D02*
D03*
Y4453014D02*
D03*
Y4553014D02*
D03*
X8825006Y3753014D02*
D03*
Y3653014D02*
D03*
Y3853014D02*
D03*
Y3953014D02*
D03*
Y4053014D02*
D03*
Y4153014D02*
D03*
Y4253014D02*
D03*
Y4353014D02*
D03*
Y4453014D02*
D03*
Y4553014D02*
D03*
X8725006Y3753014D02*
D03*
Y3653014D02*
D03*
Y3853014D02*
D03*
Y3953014D02*
D03*
Y4053014D02*
D03*
Y4153014D02*
D03*
Y4253014D02*
D03*
Y4353014D02*
D03*
Y4453014D02*
D03*
Y4553014D02*
D03*
X8625006Y3753014D02*
D03*
Y3653014D02*
D03*
Y3853014D02*
D03*
Y3953014D02*
D03*
Y4053014D02*
D03*
Y4153014D02*
D03*
Y4253014D02*
D03*
Y4353014D02*
D03*
Y4453014D02*
D03*
Y4553014D02*
D03*
X8525006Y3753014D02*
D03*
Y3653014D02*
D03*
Y3853014D02*
D03*
Y3953014D02*
D03*
Y4053014D02*
D03*
Y4153014D02*
D03*
Y4253014D02*
D03*
Y4353014D02*
D03*
Y4453014D02*
D03*
Y4553014D02*
D03*
X8425006Y3753014D02*
D03*
Y3653014D02*
D03*
Y3853014D02*
D03*
Y3953014D02*
D03*
Y4053014D02*
D03*
Y4153014D02*
D03*
Y4253014D02*
D03*
Y4353014D02*
D03*
Y4453014D02*
D03*
Y4553014D02*
D03*
X8325006Y3753014D02*
D03*
Y3653014D02*
D03*
Y3853014D02*
D03*
Y3953014D02*
D03*
Y4053014D02*
D03*
Y4153014D02*
D03*
Y4253014D02*
D03*
Y4353014D02*
D03*
Y4453014D02*
D03*
Y4553014D02*
D03*
X8225006Y3753014D02*
D03*
Y3653014D02*
D03*
Y3853014D02*
D03*
Y3953014D02*
D03*
Y4053014D02*
D03*
Y4153014D02*
D03*
Y4253014D02*
D03*
Y4353014D02*
D03*
Y4453014D02*
D03*
Y4553014D02*
D03*
X8125006Y3753014D02*
D03*
Y3653014D02*
D03*
Y3853014D02*
D03*
Y3953014D02*
D03*
Y4053014D02*
D03*
Y4153014D02*
D03*
Y4253014D02*
D03*
Y4353014D02*
D03*
Y4453014D02*
D03*
Y4553014D02*
D03*
X8025006Y3753014D02*
D03*
Y3653014D02*
D03*
Y3853014D02*
D03*
Y3953014D02*
D03*
Y4053014D02*
D03*
Y4153014D02*
D03*
Y4253014D02*
D03*
Y4353014D02*
D03*
Y4453014D02*
D03*
Y4553014D02*
D03*
X7925006Y3753014D02*
D03*
Y3653014D02*
D03*
Y3853014D02*
D03*
Y3953014D02*
D03*
Y4053014D02*
D03*
Y4153014D02*
D03*
Y4253014D02*
D03*
Y4353014D02*
D03*
Y4453014D02*
D03*
Y4553014D02*
D03*
X7825006Y3753014D02*
D03*
Y3653014D02*
D03*
Y3853014D02*
D03*
Y3953014D02*
D03*
Y4053014D02*
D03*
Y4153014D02*
D03*
Y4253014D02*
D03*
Y4353014D02*
D03*
Y4453014D02*
D03*
Y4553014D02*
D03*
X7725006Y3753014D02*
D03*
Y3653014D02*
D03*
Y3853014D02*
D03*
Y3953014D02*
D03*
Y4053014D02*
D03*
Y4153014D02*
D03*
Y4253014D02*
D03*
Y4353014D02*
D03*
Y4453014D02*
D03*
Y4553014D02*
D03*
X7625006Y3753014D02*
D03*
Y3653014D02*
D03*
Y3853014D02*
D03*
Y3953014D02*
D03*
Y4053014D02*
D03*
Y4153014D02*
D03*
Y4253014D02*
D03*
Y4353014D02*
D03*
Y4453014D02*
D03*
Y4553014D02*
D03*
X7525004Y3753014D02*
D03*
Y3653014D02*
D03*
Y3853014D02*
D03*
Y3953014D02*
D03*
Y4053014D02*
D03*
Y4153014D02*
D03*
Y4253014D02*
D03*
Y4353014D02*
D03*
Y4453014D02*
D03*
Y4553014D02*
D03*
X7425004Y3753014D02*
D03*
Y3653014D02*
D03*
Y3853014D02*
D03*
Y3953014D02*
D03*
Y4053014D02*
D03*
Y4153014D02*
D03*
Y4253014D02*
D03*
Y4353014D02*
D03*
Y4453014D02*
D03*
Y4553014D02*
D03*
X7325004Y3753014D02*
D03*
Y3653014D02*
D03*
Y3853014D02*
D03*
Y3953014D02*
D03*
Y4053014D02*
D03*
Y4153014D02*
D03*
Y4253014D02*
D03*
Y4353014D02*
D03*
Y4453014D02*
D03*
Y4553014D02*
D03*
X7225006Y3753014D02*
D03*
Y3653014D02*
D03*
Y3853014D02*
D03*
Y3953014D02*
D03*
Y4053014D02*
D03*
Y4153014D02*
D03*
Y4253014D02*
D03*
Y4353014D02*
D03*
Y4453014D02*
D03*
Y4553014D02*
D03*
X7125006Y3753014D02*
D03*
Y3653014D02*
D03*
Y3853014D02*
D03*
Y3953014D02*
D03*
Y4053014D02*
D03*
Y4153014D02*
D03*
Y4253014D02*
D03*
Y4353014D02*
D03*
Y4453014D02*
D03*
Y4553014D02*
D03*
X7025006Y3753014D02*
D03*
Y3653014D02*
D03*
Y3853014D02*
D03*
Y3953014D02*
D03*
Y4053014D02*
D03*
Y4153014D02*
D03*
Y4253014D02*
D03*
Y4353014D02*
D03*
Y4453014D02*
D03*
Y4553014D02*
D03*
X6925006Y3753014D02*
D03*
Y3653014D02*
D03*
Y3853014D02*
D03*
Y3953014D02*
D03*
Y4053014D02*
D03*
Y4153014D02*
D03*
Y4253014D02*
D03*
Y4353014D02*
D03*
Y4453014D02*
D03*
Y4553014D02*
D03*
X9755006Y17523013D02*
D03*
Y17623013D02*
D03*
Y17723013D02*
D03*
Y17823015D02*
D03*
Y17923015D02*
D03*
Y18023013D02*
D03*
Y18123013D02*
D03*
Y18223013D02*
D03*
Y18423013D02*
D03*
Y18323013D02*
D03*
X9655006Y17523013D02*
D03*
Y17623013D02*
D03*
Y17723013D02*
D03*
Y17823015D02*
D03*
Y17923015D02*
D03*
Y18023013D02*
D03*
Y18123013D02*
D03*
Y18223013D02*
D03*
Y18423013D02*
D03*
Y18323013D02*
D03*
X9555006Y17523013D02*
D03*
Y17623013D02*
D03*
Y17723013D02*
D03*
Y17823015D02*
D03*
Y17923015D02*
D03*
Y18023013D02*
D03*
Y18123013D02*
D03*
Y18223013D02*
D03*
Y18423013D02*
D03*
Y18323013D02*
D03*
X9455006Y17523013D02*
D03*
Y17623013D02*
D03*
Y17723013D02*
D03*
Y17823015D02*
D03*
Y17923015D02*
D03*
Y18023013D02*
D03*
Y18123013D02*
D03*
Y18223013D02*
D03*
Y18423013D02*
D03*
Y18323013D02*
D03*
X9355008Y17523013D02*
D03*
Y17623013D02*
D03*
Y17723013D02*
D03*
Y17823015D02*
D03*
Y17923015D02*
D03*
Y18023013D02*
D03*
Y18123013D02*
D03*
Y18223013D02*
D03*
Y18423013D02*
D03*
Y18323013D02*
D03*
X9255008Y17523013D02*
D03*
Y17623013D02*
D03*
Y17723013D02*
D03*
Y17823015D02*
D03*
Y17923015D02*
D03*
Y18023013D02*
D03*
Y18123013D02*
D03*
Y18223013D02*
D03*
Y18423013D02*
D03*
Y18323013D02*
D03*
X9155008Y17523013D02*
D03*
Y17623013D02*
D03*
Y17723013D02*
D03*
Y17823015D02*
D03*
Y17923015D02*
D03*
Y18023013D02*
D03*
Y18123013D02*
D03*
Y18223013D02*
D03*
Y18423013D02*
D03*
Y18323013D02*
D03*
X9055006Y17523013D02*
D03*
Y17623013D02*
D03*
Y17723013D02*
D03*
Y17823015D02*
D03*
Y17923015D02*
D03*
Y18023013D02*
D03*
Y18123013D02*
D03*
Y18223013D02*
D03*
Y18423013D02*
D03*
Y18323013D02*
D03*
X8955006Y17523013D02*
D03*
Y17623013D02*
D03*
Y17723013D02*
D03*
Y17823015D02*
D03*
Y17923015D02*
D03*
Y18023013D02*
D03*
Y18123013D02*
D03*
Y18223013D02*
D03*
Y18423013D02*
D03*
Y18323013D02*
D03*
X8855006Y17523013D02*
D03*
Y17623013D02*
D03*
Y17723013D02*
D03*
Y17823015D02*
D03*
Y17923015D02*
D03*
Y18023013D02*
D03*
Y18123013D02*
D03*
Y18223013D02*
D03*
Y18423013D02*
D03*
Y18323013D02*
D03*
X8755006Y17523013D02*
D03*
Y17623013D02*
D03*
Y17723013D02*
D03*
Y17823015D02*
D03*
Y17923015D02*
D03*
Y18023013D02*
D03*
Y18123013D02*
D03*
Y18223013D02*
D03*
Y18423013D02*
D03*
Y18323013D02*
D03*
X8655006Y17523013D02*
D03*
Y17623013D02*
D03*
Y17723013D02*
D03*
Y17823015D02*
D03*
Y17923015D02*
D03*
Y18023013D02*
D03*
Y18123013D02*
D03*
Y18223013D02*
D03*
Y18423013D02*
D03*
Y18323013D02*
D03*
X8555006Y17523013D02*
D03*
Y17623013D02*
D03*
Y17723013D02*
D03*
Y17823015D02*
D03*
Y17923015D02*
D03*
Y18023013D02*
D03*
Y18123013D02*
D03*
Y18223013D02*
D03*
Y18423013D02*
D03*
Y18323013D02*
D03*
X8455006Y17523013D02*
D03*
Y17623013D02*
D03*
Y17723013D02*
D03*
Y17823015D02*
D03*
Y17923015D02*
D03*
Y18023013D02*
D03*
Y18123013D02*
D03*
Y18223013D02*
D03*
Y18423013D02*
D03*
Y18323013D02*
D03*
X8355006Y17523013D02*
D03*
Y17623013D02*
D03*
Y17723013D02*
D03*
Y17823015D02*
D03*
Y17923015D02*
D03*
Y18023013D02*
D03*
Y18123013D02*
D03*
Y18223013D02*
D03*
Y18423013D02*
D03*
Y18323013D02*
D03*
X8255006Y17523013D02*
D03*
Y17623013D02*
D03*
Y17723013D02*
D03*
Y17823015D02*
D03*
Y17923015D02*
D03*
Y18023013D02*
D03*
Y18123013D02*
D03*
Y18223013D02*
D03*
Y18423013D02*
D03*
Y18323013D02*
D03*
X8155006Y17523013D02*
D03*
Y17623013D02*
D03*
Y17723013D02*
D03*
Y17823015D02*
D03*
Y17923015D02*
D03*
Y18023013D02*
D03*
Y18123013D02*
D03*
Y18223013D02*
D03*
Y18423013D02*
D03*
Y18323013D02*
D03*
X8055006Y17523013D02*
D03*
Y17623013D02*
D03*
Y17723013D02*
D03*
Y17823015D02*
D03*
Y17923015D02*
D03*
Y18023013D02*
D03*
Y18123013D02*
D03*
Y18223013D02*
D03*
Y18423013D02*
D03*
Y18323013D02*
D03*
X7955006Y17523013D02*
D03*
Y17623013D02*
D03*
Y17723013D02*
D03*
Y17823015D02*
D03*
Y17923015D02*
D03*
Y18023013D02*
D03*
Y18123013D02*
D03*
Y18223013D02*
D03*
Y18423013D02*
D03*
Y18323013D02*
D03*
X7855006Y17523013D02*
D03*
Y17623013D02*
D03*
Y17723013D02*
D03*
Y17823015D02*
D03*
Y17923015D02*
D03*
Y18023013D02*
D03*
Y18123013D02*
D03*
Y18223013D02*
D03*
Y18423013D02*
D03*
Y18323013D02*
D03*
X7755006Y17523013D02*
D03*
Y17623013D02*
D03*
Y17723013D02*
D03*
Y17823015D02*
D03*
Y17923015D02*
D03*
Y18023013D02*
D03*
Y18123013D02*
D03*
Y18223013D02*
D03*
Y18423013D02*
D03*
Y18323013D02*
D03*
X7655006Y17523013D02*
D03*
Y17623013D02*
D03*
Y17723013D02*
D03*
Y17823015D02*
D03*
Y17923015D02*
D03*
Y18023013D02*
D03*
Y18123013D02*
D03*
Y18223013D02*
D03*
Y18423013D02*
D03*
Y18323013D02*
D03*
X7555006Y17523013D02*
D03*
Y17623013D02*
D03*
Y17723013D02*
D03*
Y17823015D02*
D03*
Y17923015D02*
D03*
Y18023013D02*
D03*
Y18123013D02*
D03*
Y18223013D02*
D03*
Y18423013D02*
D03*
Y18323013D02*
D03*
X7455006Y17523013D02*
D03*
Y17623013D02*
D03*
Y17723013D02*
D03*
Y17823015D02*
D03*
Y17923015D02*
D03*
Y18023013D02*
D03*
Y18123013D02*
D03*
Y18223013D02*
D03*
Y18423013D02*
D03*
Y18323013D02*
D03*
X7355006Y17523013D02*
D03*
Y17623013D02*
D03*
Y17723013D02*
D03*
Y17823015D02*
D03*
Y17923015D02*
D03*
Y18023013D02*
D03*
Y18123013D02*
D03*
Y18223013D02*
D03*
Y18423013D02*
D03*
Y18323013D02*
D03*
X7255006Y17523013D02*
D03*
Y17623013D02*
D03*
Y17723013D02*
D03*
Y17823015D02*
D03*
Y17923015D02*
D03*
Y18023013D02*
D03*
Y18123013D02*
D03*
Y18223013D02*
D03*
Y18423013D02*
D03*
Y18323013D02*
D03*
X7155006Y17523013D02*
D03*
Y17623013D02*
D03*
Y17723013D02*
D03*
Y17823015D02*
D03*
Y17923015D02*
D03*
Y18023013D02*
D03*
Y18123013D02*
D03*
Y18223013D02*
D03*
Y18423013D02*
D03*
Y18323013D02*
D03*
X7055006Y17523013D02*
D03*
Y17623013D02*
D03*
Y17723013D02*
D03*
Y17823015D02*
D03*
Y17923015D02*
D03*
Y18023013D02*
D03*
Y18123013D02*
D03*
Y18223013D02*
D03*
Y18423013D02*
D03*
Y18323013D02*
D03*
X6955006Y17523013D02*
D03*
Y17623013D02*
D03*
Y17723013D02*
D03*
Y17823015D02*
D03*
Y17923015D02*
D03*
Y18023013D02*
D03*
Y18123013D02*
D03*
Y18223013D02*
D03*
Y18423013D02*
D03*
Y18323013D02*
D03*
X6855006Y17523013D02*
D03*
Y17623013D02*
D03*
Y17723013D02*
D03*
Y17823015D02*
D03*
Y17923015D02*
D03*
Y18023013D02*
D03*
Y18123013D02*
D03*
Y18223013D02*
D03*
Y18423013D02*
D03*
Y18323013D02*
D03*
X3725006Y4553014D02*
D03*
Y4453014D02*
D03*
Y4353014D02*
D03*
Y4253014D02*
D03*
Y4153014D02*
D03*
Y4053014D02*
D03*
Y3953014D02*
D03*
Y3853014D02*
D03*
Y3653014D02*
D03*
Y3753014D02*
D03*
X3825006Y4553014D02*
D03*
Y4453014D02*
D03*
Y4353014D02*
D03*
Y4253014D02*
D03*
Y4153014D02*
D03*
Y4053014D02*
D03*
Y3953014D02*
D03*
Y3853014D02*
D03*
Y3653014D02*
D03*
Y3753014D02*
D03*
X3925006Y4553014D02*
D03*
Y4453014D02*
D03*
Y4353014D02*
D03*
Y4253014D02*
D03*
Y4153014D02*
D03*
Y4053014D02*
D03*
Y3953014D02*
D03*
Y3853014D02*
D03*
Y3653014D02*
D03*
Y3753014D02*
D03*
X4025006Y4553014D02*
D03*
Y4453014D02*
D03*
Y4353014D02*
D03*
Y4253014D02*
D03*
Y4153014D02*
D03*
Y4053014D02*
D03*
Y3953014D02*
D03*
Y3853014D02*
D03*
Y3653014D02*
D03*
Y3753014D02*
D03*
X4125004Y4553014D02*
D03*
Y4453014D02*
D03*
Y4353014D02*
D03*
Y4253014D02*
D03*
Y4153014D02*
D03*
Y4053014D02*
D03*
Y3953014D02*
D03*
Y3853014D02*
D03*
Y3653014D02*
D03*
Y3753014D02*
D03*
X4225004Y4553014D02*
D03*
Y4453014D02*
D03*
Y4353014D02*
D03*
Y4253014D02*
D03*
Y4153014D02*
D03*
Y4053014D02*
D03*
Y3953014D02*
D03*
Y3853014D02*
D03*
Y3653014D02*
D03*
Y3753014D02*
D03*
X4325004Y4553014D02*
D03*
Y4453014D02*
D03*
Y4353014D02*
D03*
Y4253014D02*
D03*
Y4153014D02*
D03*
Y4053014D02*
D03*
Y3953014D02*
D03*
Y3853014D02*
D03*
Y3653014D02*
D03*
Y3753014D02*
D03*
X4425006Y4553014D02*
D03*
Y4453014D02*
D03*
Y4353014D02*
D03*
Y4253014D02*
D03*
Y4153014D02*
D03*
Y4053014D02*
D03*
Y3953014D02*
D03*
Y3853014D02*
D03*
Y3653014D02*
D03*
Y3753014D02*
D03*
X4525006Y4553014D02*
D03*
Y4453014D02*
D03*
Y4353014D02*
D03*
Y4253014D02*
D03*
Y4153014D02*
D03*
Y4053014D02*
D03*
Y3953014D02*
D03*
Y3853014D02*
D03*
Y3653014D02*
D03*
Y3753014D02*
D03*
X4625006Y4553014D02*
D03*
Y4453014D02*
D03*
Y4353014D02*
D03*
Y4253014D02*
D03*
Y4153014D02*
D03*
Y4053014D02*
D03*
Y3953014D02*
D03*
Y3853014D02*
D03*
Y3653014D02*
D03*
Y3753014D02*
D03*
X4725006Y4553014D02*
D03*
Y4453014D02*
D03*
Y4353014D02*
D03*
Y4253014D02*
D03*
Y4153014D02*
D03*
Y4053014D02*
D03*
Y3953014D02*
D03*
Y3853014D02*
D03*
Y3653014D02*
D03*
Y3753014D02*
D03*
X4825006Y4553014D02*
D03*
Y4453014D02*
D03*
Y4353014D02*
D03*
Y4253014D02*
D03*
Y4153014D02*
D03*
Y4053014D02*
D03*
Y3953014D02*
D03*
Y3853014D02*
D03*
Y3653014D02*
D03*
Y3753014D02*
D03*
X4925006Y4553014D02*
D03*
Y4453014D02*
D03*
Y4353014D02*
D03*
Y4253014D02*
D03*
Y4153014D02*
D03*
Y4053014D02*
D03*
Y3953014D02*
D03*
Y3853014D02*
D03*
Y3653014D02*
D03*
Y3753014D02*
D03*
X5025006Y4553014D02*
D03*
Y4453014D02*
D03*
Y4353014D02*
D03*
Y4253014D02*
D03*
Y4153014D02*
D03*
Y4053014D02*
D03*
Y3953014D02*
D03*
Y3853014D02*
D03*
Y3653014D02*
D03*
Y3753014D02*
D03*
X5125006Y4553014D02*
D03*
Y4453014D02*
D03*
Y4353014D02*
D03*
Y4253014D02*
D03*
Y4153014D02*
D03*
Y4053014D02*
D03*
Y3953014D02*
D03*
Y3853014D02*
D03*
Y3653014D02*
D03*
Y3753014D02*
D03*
X5225006Y4553014D02*
D03*
Y4453014D02*
D03*
Y4353014D02*
D03*
Y4253014D02*
D03*
Y4153014D02*
D03*
Y4053014D02*
D03*
Y3953014D02*
D03*
Y3853014D02*
D03*
Y3653014D02*
D03*
Y3753014D02*
D03*
X5325006Y4553014D02*
D03*
Y4453014D02*
D03*
Y4353014D02*
D03*
Y4253014D02*
D03*
Y4153014D02*
D03*
Y4053014D02*
D03*
Y3953014D02*
D03*
Y3853014D02*
D03*
Y3653014D02*
D03*
Y3753014D02*
D03*
X5425006Y4553014D02*
D03*
Y4453014D02*
D03*
Y4353014D02*
D03*
Y4253014D02*
D03*
Y4153014D02*
D03*
Y4053014D02*
D03*
Y3953014D02*
D03*
Y3853014D02*
D03*
Y3653014D02*
D03*
Y3753014D02*
D03*
X5525006Y4553014D02*
D03*
Y4453014D02*
D03*
Y4353014D02*
D03*
Y4253014D02*
D03*
Y4153014D02*
D03*
Y4053014D02*
D03*
Y3953014D02*
D03*
Y3853014D02*
D03*
Y3653014D02*
D03*
Y3753014D02*
D03*
X5625006Y4553014D02*
D03*
Y4453014D02*
D03*
Y4353014D02*
D03*
Y4253014D02*
D03*
Y4153014D02*
D03*
Y4053014D02*
D03*
Y3953014D02*
D03*
Y3853014D02*
D03*
Y3653014D02*
D03*
Y3753014D02*
D03*
X5725006Y4553014D02*
D03*
Y4453014D02*
D03*
Y4353014D02*
D03*
Y4253014D02*
D03*
Y4153014D02*
D03*
Y4053014D02*
D03*
Y3953014D02*
D03*
Y3853014D02*
D03*
Y3653014D02*
D03*
Y3753014D02*
D03*
X5825006Y4553014D02*
D03*
Y4453014D02*
D03*
Y4353014D02*
D03*
Y4253014D02*
D03*
Y4153014D02*
D03*
Y4053014D02*
D03*
Y3953014D02*
D03*
Y3853014D02*
D03*
Y3653014D02*
D03*
Y3753014D02*
D03*
X5925006Y4553014D02*
D03*
Y4453014D02*
D03*
Y4353014D02*
D03*
Y4253014D02*
D03*
Y4153014D02*
D03*
Y4053014D02*
D03*
Y3953014D02*
D03*
Y3853014D02*
D03*
Y3653014D02*
D03*
Y3753014D02*
D03*
X6025006Y4553014D02*
D03*
Y4453014D02*
D03*
Y4353014D02*
D03*
Y4253014D02*
D03*
Y4153014D02*
D03*
Y4053014D02*
D03*
Y3953014D02*
D03*
Y3853014D02*
D03*
Y3653014D02*
D03*
Y3753014D02*
D03*
X6125006Y4553014D02*
D03*
Y4453014D02*
D03*
Y4353014D02*
D03*
Y4253014D02*
D03*
Y4153014D02*
D03*
Y4053014D02*
D03*
Y3953014D02*
D03*
Y3853014D02*
D03*
Y3653014D02*
D03*
Y3753014D02*
D03*
X6225006Y4553014D02*
D03*
Y4453014D02*
D03*
Y4353014D02*
D03*
Y4253014D02*
D03*
Y4153014D02*
D03*
Y4053014D02*
D03*
Y3953014D02*
D03*
Y3853014D02*
D03*
Y3653014D02*
D03*
Y3753014D02*
D03*
X6325006Y4553014D02*
D03*
Y4453014D02*
D03*
Y4353014D02*
D03*
Y4253014D02*
D03*
Y4153014D02*
D03*
Y4053014D02*
D03*
Y3953014D02*
D03*
Y3853014D02*
D03*
Y3653014D02*
D03*
Y3753014D02*
D03*
X6425006Y4553014D02*
D03*
Y4453014D02*
D03*
Y4353014D02*
D03*
Y4253014D02*
D03*
Y4153014D02*
D03*
Y4053014D02*
D03*
Y3953014D02*
D03*
Y3853014D02*
D03*
Y3653014D02*
D03*
Y3753014D02*
D03*
X6525006Y4553014D02*
D03*
Y4453014D02*
D03*
Y4353014D02*
D03*
Y4253014D02*
D03*
Y4153014D02*
D03*
Y4053014D02*
D03*
Y3953014D02*
D03*
Y3853014D02*
D03*
Y3653014D02*
D03*
Y3753014D02*
D03*
X6625006Y4553014D02*
D03*
Y4453014D02*
D03*
Y4353014D02*
D03*
Y4253014D02*
D03*
Y4153014D02*
D03*
Y4053014D02*
D03*
Y3953014D02*
D03*
Y3853014D02*
D03*
Y3653014D02*
D03*
Y3753014D02*
D03*
X6625000Y6253000D02*
D03*
Y6153000D02*
D03*
Y6353000D02*
D03*
Y6453000D02*
D03*
Y6553000D02*
D03*
Y6652999D02*
D03*
Y6752999D02*
D03*
Y6853000D02*
D03*
Y6953000D02*
D03*
Y7053000D02*
D03*
X6525000Y6253000D02*
D03*
Y6153000D02*
D03*
Y6353000D02*
D03*
Y6453000D02*
D03*
Y6553000D02*
D03*
Y6652999D02*
D03*
Y6752999D02*
D03*
Y6853000D02*
D03*
Y6953000D02*
D03*
Y7053000D02*
D03*
X6425000Y6253000D02*
D03*
Y6153000D02*
D03*
Y6353000D02*
D03*
Y6453000D02*
D03*
Y6553000D02*
D03*
Y6652999D02*
D03*
Y6752999D02*
D03*
Y6853000D02*
D03*
Y6953000D02*
D03*
Y7053000D02*
D03*
X6325000Y6253000D02*
D03*
Y6153000D02*
D03*
Y6353000D02*
D03*
Y6453000D02*
D03*
Y6553000D02*
D03*
Y6652999D02*
D03*
Y6752999D02*
D03*
Y6853000D02*
D03*
Y6953000D02*
D03*
Y7053000D02*
D03*
X6225000Y6253000D02*
D03*
Y6153000D02*
D03*
Y6353000D02*
D03*
Y6453000D02*
D03*
Y6553000D02*
D03*
Y6652999D02*
D03*
Y6752999D02*
D03*
Y6853000D02*
D03*
Y6953000D02*
D03*
Y7053000D02*
D03*
X6125000Y6253000D02*
D03*
Y6153000D02*
D03*
Y6353000D02*
D03*
Y6453000D02*
D03*
Y6553000D02*
D03*
Y6652999D02*
D03*
Y6752999D02*
D03*
Y6853000D02*
D03*
Y6953000D02*
D03*
Y7053000D02*
D03*
X6025000Y6253000D02*
D03*
Y6153000D02*
D03*
Y6353000D02*
D03*
Y6453000D02*
D03*
Y6553000D02*
D03*
Y6652999D02*
D03*
Y6752999D02*
D03*
Y6853000D02*
D03*
Y6953000D02*
D03*
Y7053000D02*
D03*
X5925000Y6253000D02*
D03*
Y6153000D02*
D03*
Y6353000D02*
D03*
Y6453000D02*
D03*
Y6553000D02*
D03*
Y6652999D02*
D03*
Y6752999D02*
D03*
Y6853000D02*
D03*
Y6953000D02*
D03*
Y7053000D02*
D03*
X5825000Y6253000D02*
D03*
Y6153000D02*
D03*
Y6353000D02*
D03*
Y6453000D02*
D03*
Y6553000D02*
D03*
Y6652999D02*
D03*
Y6752999D02*
D03*
Y6853000D02*
D03*
Y6953000D02*
D03*
Y7053000D02*
D03*
X5725000Y6253000D02*
D03*
Y6153000D02*
D03*
Y6353000D02*
D03*
Y6453000D02*
D03*
Y6553000D02*
D03*
Y6652999D02*
D03*
Y6752999D02*
D03*
Y6853000D02*
D03*
Y6953000D02*
D03*
Y7053000D02*
D03*
X5625000Y6253000D02*
D03*
Y6153000D02*
D03*
Y6353000D02*
D03*
Y6453000D02*
D03*
Y6553000D02*
D03*
Y6652999D02*
D03*
Y6752999D02*
D03*
Y6853000D02*
D03*
Y6953000D02*
D03*
Y7053000D02*
D03*
X5525000Y6253000D02*
D03*
Y6153000D02*
D03*
Y6353000D02*
D03*
Y6453000D02*
D03*
Y6553000D02*
D03*
Y6652999D02*
D03*
Y6752999D02*
D03*
Y6853000D02*
D03*
Y6953000D02*
D03*
Y7053000D02*
D03*
X5425000Y6253000D02*
D03*
Y6153000D02*
D03*
Y6353000D02*
D03*
Y6453000D02*
D03*
Y6553000D02*
D03*
Y6652999D02*
D03*
Y6752999D02*
D03*
Y6853000D02*
D03*
Y6953000D02*
D03*
Y7053000D02*
D03*
X5325000Y6253000D02*
D03*
Y6153000D02*
D03*
Y6353000D02*
D03*
Y6453000D02*
D03*
Y6553000D02*
D03*
Y6652999D02*
D03*
Y6752999D02*
D03*
Y6853000D02*
D03*
Y6953000D02*
D03*
Y7053000D02*
D03*
X5225000Y6253000D02*
D03*
Y6153000D02*
D03*
Y6353000D02*
D03*
Y6453000D02*
D03*
Y6553000D02*
D03*
Y6652999D02*
D03*
Y6752999D02*
D03*
Y6853000D02*
D03*
Y6953000D02*
D03*
Y7053000D02*
D03*
X5125000Y6253000D02*
D03*
Y6153000D02*
D03*
Y6353000D02*
D03*
Y6453000D02*
D03*
Y6553000D02*
D03*
Y6652999D02*
D03*
Y6752999D02*
D03*
Y6853000D02*
D03*
Y6953000D02*
D03*
Y7053000D02*
D03*
X5025000Y6253000D02*
D03*
Y6153000D02*
D03*
Y6353000D02*
D03*
Y6453000D02*
D03*
Y6553000D02*
D03*
Y6652999D02*
D03*
Y6752999D02*
D03*
Y6853000D02*
D03*
Y6953000D02*
D03*
Y7053000D02*
D03*
X4925000Y6253000D02*
D03*
Y6153000D02*
D03*
Y6353000D02*
D03*
Y6453000D02*
D03*
Y6553000D02*
D03*
Y6652999D02*
D03*
Y6752999D02*
D03*
Y6853000D02*
D03*
Y6953000D02*
D03*
Y7053000D02*
D03*
X4825000Y6253000D02*
D03*
Y6153000D02*
D03*
Y6353000D02*
D03*
Y6453000D02*
D03*
Y6553000D02*
D03*
Y6652999D02*
D03*
Y6752999D02*
D03*
Y6853000D02*
D03*
Y6953000D02*
D03*
Y7053000D02*
D03*
X4725000Y6253000D02*
D03*
Y6153000D02*
D03*
Y6353000D02*
D03*
Y6453000D02*
D03*
Y6553000D02*
D03*
Y6652999D02*
D03*
Y6752999D02*
D03*
Y6853000D02*
D03*
Y6953000D02*
D03*
Y7053000D02*
D03*
X4625000Y6253000D02*
D03*
Y6153000D02*
D03*
Y6353000D02*
D03*
Y6453000D02*
D03*
Y6553000D02*
D03*
Y6652999D02*
D03*
Y6752999D02*
D03*
Y6853000D02*
D03*
Y6953000D02*
D03*
Y7053000D02*
D03*
X4525000Y6253000D02*
D03*
Y6153000D02*
D03*
Y6353000D02*
D03*
Y6453000D02*
D03*
Y6553000D02*
D03*
Y6652999D02*
D03*
Y6752999D02*
D03*
Y6853000D02*
D03*
Y6953000D02*
D03*
Y7053000D02*
D03*
X4425000Y6253000D02*
D03*
Y6153000D02*
D03*
Y6353000D02*
D03*
Y6453000D02*
D03*
Y6553000D02*
D03*
Y6652999D02*
D03*
Y6752999D02*
D03*
Y6853000D02*
D03*
Y6953000D02*
D03*
Y7053000D02*
D03*
X4324998Y6253000D02*
D03*
Y6153000D02*
D03*
Y6353000D02*
D03*
Y6453000D02*
D03*
Y6553000D02*
D03*
Y6652999D02*
D03*
Y6752999D02*
D03*
Y6853000D02*
D03*
Y6953000D02*
D03*
Y7053000D02*
D03*
X4224998Y6253000D02*
D03*
Y6153000D02*
D03*
Y6353000D02*
D03*
Y6453000D02*
D03*
Y6553000D02*
D03*
Y6652999D02*
D03*
Y6752999D02*
D03*
Y6853000D02*
D03*
Y6953000D02*
D03*
Y7053000D02*
D03*
X4124998Y6253000D02*
D03*
Y6153000D02*
D03*
Y6353000D02*
D03*
Y6453000D02*
D03*
Y6553000D02*
D03*
Y6652999D02*
D03*
Y6752999D02*
D03*
Y6853000D02*
D03*
Y6953000D02*
D03*
Y7053000D02*
D03*
X4025000Y6253000D02*
D03*
Y6153000D02*
D03*
Y6353000D02*
D03*
Y6453000D02*
D03*
Y6553000D02*
D03*
Y6652999D02*
D03*
Y6752999D02*
D03*
Y6853000D02*
D03*
Y6953000D02*
D03*
Y7053000D02*
D03*
X3925000Y6253000D02*
D03*
Y6153000D02*
D03*
Y6353000D02*
D03*
Y6453000D02*
D03*
Y6553000D02*
D03*
Y6652999D02*
D03*
Y6752999D02*
D03*
Y6853000D02*
D03*
Y6953000D02*
D03*
Y7053000D02*
D03*
X3825000Y6253000D02*
D03*
Y6153000D02*
D03*
Y6353000D02*
D03*
Y6453000D02*
D03*
Y6553000D02*
D03*
Y6652999D02*
D03*
Y6752999D02*
D03*
Y6853000D02*
D03*
Y6953000D02*
D03*
Y7053000D02*
D03*
X3725000Y6253000D02*
D03*
Y6153000D02*
D03*
Y6353000D02*
D03*
Y6453000D02*
D03*
Y6553000D02*
D03*
Y6652999D02*
D03*
Y6752999D02*
D03*
Y6853000D02*
D03*
Y6953000D02*
D03*
Y7053000D02*
D03*
X9825000Y6253000D02*
D03*
Y6153000D02*
D03*
Y6353000D02*
D03*
Y6453000D02*
D03*
Y6553000D02*
D03*
Y6652999D02*
D03*
Y6752999D02*
D03*
Y6853000D02*
D03*
Y6953000D02*
D03*
Y7053000D02*
D03*
X9725000Y6253000D02*
D03*
Y6153000D02*
D03*
Y6353000D02*
D03*
Y6453000D02*
D03*
Y6553000D02*
D03*
Y6652999D02*
D03*
Y6752999D02*
D03*
Y6853000D02*
D03*
Y6953000D02*
D03*
Y7053000D02*
D03*
X9625000Y6253000D02*
D03*
Y6153000D02*
D03*
Y6353000D02*
D03*
Y6453000D02*
D03*
Y6553000D02*
D03*
Y6652999D02*
D03*
Y6752999D02*
D03*
Y6853000D02*
D03*
Y6953000D02*
D03*
Y7053000D02*
D03*
X9525000Y6253000D02*
D03*
Y6153000D02*
D03*
Y6353000D02*
D03*
Y6453000D02*
D03*
Y6553000D02*
D03*
Y6652999D02*
D03*
Y6752999D02*
D03*
Y6853000D02*
D03*
Y6953000D02*
D03*
Y7053000D02*
D03*
X9425000Y6253000D02*
D03*
Y6153000D02*
D03*
Y6353000D02*
D03*
Y6453000D02*
D03*
Y6553000D02*
D03*
Y6652999D02*
D03*
Y6752999D02*
D03*
Y6853000D02*
D03*
Y6953000D02*
D03*
Y7053000D02*
D03*
X9325000Y6253000D02*
D03*
Y6153000D02*
D03*
Y6353000D02*
D03*
Y6453000D02*
D03*
Y6553000D02*
D03*
Y6652999D02*
D03*
Y6752999D02*
D03*
Y6853000D02*
D03*
Y6953000D02*
D03*
Y7053000D02*
D03*
X9225000Y6253000D02*
D03*
Y6153000D02*
D03*
Y6353000D02*
D03*
Y6453000D02*
D03*
Y6553000D02*
D03*
Y6652999D02*
D03*
Y6752999D02*
D03*
Y6853000D02*
D03*
Y6953000D02*
D03*
Y7053000D02*
D03*
X9125000Y6253000D02*
D03*
Y6153000D02*
D03*
Y6353000D02*
D03*
Y6453000D02*
D03*
Y6553000D02*
D03*
Y6652999D02*
D03*
Y6752999D02*
D03*
Y6853000D02*
D03*
Y6953000D02*
D03*
Y7053000D02*
D03*
X9025000Y6253000D02*
D03*
Y6153000D02*
D03*
Y6353000D02*
D03*
Y6453000D02*
D03*
Y6553000D02*
D03*
Y6652999D02*
D03*
Y6752999D02*
D03*
Y6853000D02*
D03*
Y6953000D02*
D03*
Y7053000D02*
D03*
X8925000Y6253000D02*
D03*
Y6153000D02*
D03*
Y6353000D02*
D03*
Y6453000D02*
D03*
Y6553000D02*
D03*
Y6652999D02*
D03*
Y6752999D02*
D03*
Y6853000D02*
D03*
Y6953000D02*
D03*
Y7053000D02*
D03*
X8825000Y6253000D02*
D03*
Y6153000D02*
D03*
Y6353000D02*
D03*
Y6453000D02*
D03*
Y6553000D02*
D03*
Y6652999D02*
D03*
Y6752999D02*
D03*
Y6853000D02*
D03*
Y6953000D02*
D03*
Y7053000D02*
D03*
X8725000Y6253000D02*
D03*
Y6153000D02*
D03*
Y6353000D02*
D03*
Y6453000D02*
D03*
Y6553000D02*
D03*
Y6652999D02*
D03*
Y6752999D02*
D03*
Y6853000D02*
D03*
Y6953000D02*
D03*
Y7053000D02*
D03*
X8625000Y6253000D02*
D03*
Y6153000D02*
D03*
Y6353000D02*
D03*
Y6453000D02*
D03*
Y6553000D02*
D03*
Y6652999D02*
D03*
Y6752999D02*
D03*
Y6853000D02*
D03*
Y6953000D02*
D03*
Y7053000D02*
D03*
X8525000Y6253000D02*
D03*
Y6153000D02*
D03*
Y6353000D02*
D03*
Y6453000D02*
D03*
Y6553000D02*
D03*
Y6652999D02*
D03*
Y6752999D02*
D03*
Y6853000D02*
D03*
Y6953000D02*
D03*
Y7053000D02*
D03*
X8425000Y6253000D02*
D03*
Y6153000D02*
D03*
Y6353000D02*
D03*
Y6453000D02*
D03*
Y6553000D02*
D03*
Y6652999D02*
D03*
Y6752999D02*
D03*
Y6853000D02*
D03*
Y6953000D02*
D03*
Y7053000D02*
D03*
X8325000Y6253000D02*
D03*
Y6153000D02*
D03*
Y6353000D02*
D03*
Y6453000D02*
D03*
Y6553000D02*
D03*
Y6652999D02*
D03*
Y6752999D02*
D03*
Y6853000D02*
D03*
Y6953000D02*
D03*
Y7053000D02*
D03*
X8225000Y6253000D02*
D03*
Y6153000D02*
D03*
Y6353000D02*
D03*
Y6453000D02*
D03*
Y6553000D02*
D03*
Y6652999D02*
D03*
Y6752999D02*
D03*
Y6853000D02*
D03*
Y6953000D02*
D03*
Y7053000D02*
D03*
X8125000Y6253000D02*
D03*
Y6153000D02*
D03*
Y6353000D02*
D03*
Y6453000D02*
D03*
Y6553000D02*
D03*
Y6652999D02*
D03*
Y6752999D02*
D03*
Y6853000D02*
D03*
Y6953000D02*
D03*
Y7053000D02*
D03*
X8025000Y6253000D02*
D03*
Y6153000D02*
D03*
Y6353000D02*
D03*
Y6453000D02*
D03*
Y6553000D02*
D03*
Y6652999D02*
D03*
Y6752999D02*
D03*
Y6853000D02*
D03*
Y6953000D02*
D03*
Y7053000D02*
D03*
X7925000Y6253000D02*
D03*
Y6153000D02*
D03*
Y6353000D02*
D03*
Y6453000D02*
D03*
Y6553000D02*
D03*
Y6652999D02*
D03*
Y6752999D02*
D03*
Y6853000D02*
D03*
Y6953000D02*
D03*
Y7053000D02*
D03*
X7825000Y6253000D02*
D03*
Y6153000D02*
D03*
Y6353000D02*
D03*
Y6453000D02*
D03*
Y6553000D02*
D03*
Y6652999D02*
D03*
Y6752999D02*
D03*
Y6853000D02*
D03*
Y6953000D02*
D03*
Y7053000D02*
D03*
X7725000Y6253000D02*
D03*
Y6153000D02*
D03*
Y6353000D02*
D03*
Y6453000D02*
D03*
Y6553000D02*
D03*
Y6652999D02*
D03*
Y6752999D02*
D03*
Y6853000D02*
D03*
Y6953000D02*
D03*
Y7053000D02*
D03*
X7625000Y6253000D02*
D03*
Y6153000D02*
D03*
Y6353000D02*
D03*
Y6453000D02*
D03*
Y6553000D02*
D03*
Y6652999D02*
D03*
Y6752999D02*
D03*
Y6853000D02*
D03*
Y6953000D02*
D03*
Y7053000D02*
D03*
X7524998Y6253000D02*
D03*
Y6153000D02*
D03*
Y6353000D02*
D03*
Y6453000D02*
D03*
Y6553000D02*
D03*
Y6652999D02*
D03*
Y6752999D02*
D03*
Y6853000D02*
D03*
Y6953000D02*
D03*
Y7053000D02*
D03*
X7424998Y6253000D02*
D03*
Y6153000D02*
D03*
Y6353000D02*
D03*
Y6453000D02*
D03*
Y6553000D02*
D03*
Y6652999D02*
D03*
Y6752999D02*
D03*
Y6853000D02*
D03*
Y6953000D02*
D03*
Y7053000D02*
D03*
X7324998Y6253000D02*
D03*
Y6153000D02*
D03*
Y6353000D02*
D03*
Y6453000D02*
D03*
Y6553000D02*
D03*
Y6652999D02*
D03*
Y6752999D02*
D03*
Y6853000D02*
D03*
Y6953000D02*
D03*
Y7053000D02*
D03*
X7225000Y6253000D02*
D03*
Y6153000D02*
D03*
Y6353000D02*
D03*
Y6453000D02*
D03*
Y6553000D02*
D03*
Y6652999D02*
D03*
Y6752999D02*
D03*
Y6853000D02*
D03*
Y6953000D02*
D03*
Y7053000D02*
D03*
X7125000Y6253000D02*
D03*
Y6153000D02*
D03*
Y6353000D02*
D03*
Y6453000D02*
D03*
Y6553000D02*
D03*
Y6652999D02*
D03*
Y6752999D02*
D03*
Y6853000D02*
D03*
Y6953000D02*
D03*
Y7053000D02*
D03*
X7025000Y6253000D02*
D03*
Y6153000D02*
D03*
Y6353000D02*
D03*
Y6453000D02*
D03*
Y6553000D02*
D03*
Y6652999D02*
D03*
Y6752999D02*
D03*
Y6853000D02*
D03*
Y6953000D02*
D03*
Y7053000D02*
D03*
X6925000Y6253000D02*
D03*
Y6153000D02*
D03*
Y6353000D02*
D03*
Y6453000D02*
D03*
Y6553000D02*
D03*
Y6652999D02*
D03*
Y6752999D02*
D03*
Y6853000D02*
D03*
Y6953000D02*
D03*
Y7053000D02*
D03*
X9755006Y15023013D02*
D03*
Y15123013D02*
D03*
Y15223013D02*
D03*
Y15323015D02*
D03*
Y15423015D02*
D03*
Y15523013D02*
D03*
Y15623013D02*
D03*
Y15723013D02*
D03*
Y15923013D02*
D03*
Y15823013D02*
D03*
X9655006Y15023013D02*
D03*
Y15123013D02*
D03*
Y15223013D02*
D03*
Y15323015D02*
D03*
Y15423015D02*
D03*
Y15523013D02*
D03*
Y15623013D02*
D03*
Y15723013D02*
D03*
Y15923013D02*
D03*
Y15823013D02*
D03*
X9555006Y15023013D02*
D03*
Y15123013D02*
D03*
Y15223013D02*
D03*
Y15323015D02*
D03*
Y15423015D02*
D03*
Y15523013D02*
D03*
Y15623013D02*
D03*
Y15723013D02*
D03*
Y15923013D02*
D03*
Y15823013D02*
D03*
X9455006Y15023013D02*
D03*
Y15123013D02*
D03*
Y15223013D02*
D03*
Y15323015D02*
D03*
Y15423015D02*
D03*
Y15523013D02*
D03*
Y15623013D02*
D03*
Y15723013D02*
D03*
Y15923013D02*
D03*
Y15823013D02*
D03*
X9355008Y15023013D02*
D03*
Y15123013D02*
D03*
Y15223013D02*
D03*
Y15323015D02*
D03*
Y15423015D02*
D03*
Y15523013D02*
D03*
Y15623013D02*
D03*
Y15723013D02*
D03*
Y15923013D02*
D03*
Y15823013D02*
D03*
X9255008Y15023013D02*
D03*
Y15123013D02*
D03*
Y15223013D02*
D03*
Y15323015D02*
D03*
Y15423015D02*
D03*
Y15523013D02*
D03*
Y15623013D02*
D03*
Y15723013D02*
D03*
Y15923013D02*
D03*
Y15823013D02*
D03*
X9155008Y15023013D02*
D03*
Y15123013D02*
D03*
Y15223013D02*
D03*
Y15323015D02*
D03*
Y15423015D02*
D03*
Y15523013D02*
D03*
Y15623013D02*
D03*
Y15723013D02*
D03*
Y15923013D02*
D03*
Y15823013D02*
D03*
X9055006Y15023013D02*
D03*
Y15123013D02*
D03*
Y15223013D02*
D03*
Y15323015D02*
D03*
Y15423015D02*
D03*
Y15523013D02*
D03*
Y15623013D02*
D03*
Y15723013D02*
D03*
Y15923013D02*
D03*
Y15823013D02*
D03*
X8955006Y15023013D02*
D03*
Y15123013D02*
D03*
Y15223013D02*
D03*
Y15323015D02*
D03*
Y15423015D02*
D03*
Y15523013D02*
D03*
Y15623013D02*
D03*
Y15723013D02*
D03*
Y15923013D02*
D03*
Y15823013D02*
D03*
X8855006Y15023013D02*
D03*
Y15123013D02*
D03*
Y15223013D02*
D03*
Y15323015D02*
D03*
Y15423015D02*
D03*
Y15523013D02*
D03*
Y15623013D02*
D03*
Y15723013D02*
D03*
Y15923013D02*
D03*
Y15823013D02*
D03*
X8755006Y15023013D02*
D03*
Y15123013D02*
D03*
Y15223013D02*
D03*
Y15323015D02*
D03*
Y15423015D02*
D03*
Y15523013D02*
D03*
Y15623013D02*
D03*
Y15723013D02*
D03*
Y15923013D02*
D03*
Y15823013D02*
D03*
X8655006Y15023013D02*
D03*
Y15123013D02*
D03*
Y15223013D02*
D03*
Y15323015D02*
D03*
Y15423015D02*
D03*
Y15523013D02*
D03*
Y15623013D02*
D03*
Y15723013D02*
D03*
Y15923013D02*
D03*
Y15823013D02*
D03*
X8555006Y15023013D02*
D03*
Y15123013D02*
D03*
Y15223013D02*
D03*
Y15323015D02*
D03*
Y15423015D02*
D03*
Y15523013D02*
D03*
Y15623013D02*
D03*
Y15723013D02*
D03*
Y15923013D02*
D03*
Y15823013D02*
D03*
X8455006Y15023013D02*
D03*
Y15123013D02*
D03*
Y15223013D02*
D03*
Y15323015D02*
D03*
Y15423015D02*
D03*
Y15523013D02*
D03*
Y15623013D02*
D03*
Y15723013D02*
D03*
Y15923013D02*
D03*
Y15823013D02*
D03*
X8355006Y15023013D02*
D03*
Y15123013D02*
D03*
Y15223013D02*
D03*
Y15323015D02*
D03*
Y15423015D02*
D03*
Y15523013D02*
D03*
Y15623013D02*
D03*
Y15723013D02*
D03*
Y15923013D02*
D03*
Y15823013D02*
D03*
X8255006Y15023013D02*
D03*
Y15123013D02*
D03*
Y15223013D02*
D03*
Y15323015D02*
D03*
Y15423015D02*
D03*
Y15523013D02*
D03*
Y15623013D02*
D03*
Y15723013D02*
D03*
Y15923013D02*
D03*
Y15823013D02*
D03*
X8155006Y15023013D02*
D03*
Y15123013D02*
D03*
Y15223013D02*
D03*
Y15323015D02*
D03*
Y15423015D02*
D03*
Y15523013D02*
D03*
Y15623013D02*
D03*
Y15723013D02*
D03*
Y15923013D02*
D03*
Y15823013D02*
D03*
X8055006Y15023013D02*
D03*
Y15123013D02*
D03*
Y15223013D02*
D03*
Y15323015D02*
D03*
Y15423015D02*
D03*
Y15523013D02*
D03*
Y15623013D02*
D03*
Y15723013D02*
D03*
Y15923013D02*
D03*
Y15823013D02*
D03*
X7955006Y15023013D02*
D03*
Y15123013D02*
D03*
Y15223013D02*
D03*
Y15323015D02*
D03*
Y15423015D02*
D03*
Y15523013D02*
D03*
Y15623013D02*
D03*
Y15723013D02*
D03*
Y15923013D02*
D03*
Y15823013D02*
D03*
X7855006Y15023013D02*
D03*
Y15123013D02*
D03*
Y15223013D02*
D03*
Y15323015D02*
D03*
Y15423015D02*
D03*
Y15523013D02*
D03*
Y15623013D02*
D03*
Y15723013D02*
D03*
Y15923013D02*
D03*
Y15823013D02*
D03*
X7755006Y15023013D02*
D03*
Y15123013D02*
D03*
Y15223013D02*
D03*
Y15323015D02*
D03*
Y15423015D02*
D03*
Y15523013D02*
D03*
Y15623013D02*
D03*
Y15723013D02*
D03*
Y15923013D02*
D03*
Y15823013D02*
D03*
X7655006Y15023013D02*
D03*
Y15123013D02*
D03*
Y15223013D02*
D03*
Y15323015D02*
D03*
Y15423015D02*
D03*
Y15523013D02*
D03*
Y15623013D02*
D03*
Y15723013D02*
D03*
Y15923013D02*
D03*
Y15823013D02*
D03*
X7555006Y15023013D02*
D03*
Y15123013D02*
D03*
Y15223013D02*
D03*
Y15323015D02*
D03*
Y15423015D02*
D03*
Y15523013D02*
D03*
Y15623013D02*
D03*
Y15723013D02*
D03*
Y15923013D02*
D03*
Y15823013D02*
D03*
X7455006Y15023013D02*
D03*
Y15123013D02*
D03*
Y15223013D02*
D03*
Y15323015D02*
D03*
Y15423015D02*
D03*
Y15523013D02*
D03*
Y15623013D02*
D03*
Y15723013D02*
D03*
Y15923013D02*
D03*
Y15823013D02*
D03*
X7355006Y15023013D02*
D03*
Y15123013D02*
D03*
Y15223013D02*
D03*
Y15323015D02*
D03*
Y15423015D02*
D03*
Y15523013D02*
D03*
Y15623013D02*
D03*
Y15723013D02*
D03*
Y15923013D02*
D03*
Y15823013D02*
D03*
X7255006Y15023013D02*
D03*
Y15123013D02*
D03*
Y15223013D02*
D03*
Y15323015D02*
D03*
Y15423015D02*
D03*
Y15523013D02*
D03*
Y15623013D02*
D03*
Y15723013D02*
D03*
Y15923013D02*
D03*
Y15823013D02*
D03*
X7155006Y15023013D02*
D03*
Y15123013D02*
D03*
Y15223013D02*
D03*
Y15323015D02*
D03*
Y15423015D02*
D03*
Y15523013D02*
D03*
Y15623013D02*
D03*
Y15723013D02*
D03*
Y15923013D02*
D03*
Y15823013D02*
D03*
X7055006Y15023013D02*
D03*
Y15123013D02*
D03*
Y15223013D02*
D03*
Y15323015D02*
D03*
Y15423015D02*
D03*
Y15523013D02*
D03*
Y15623013D02*
D03*
Y15723013D02*
D03*
Y15923013D02*
D03*
Y15823013D02*
D03*
X6955006Y15023013D02*
D03*
Y15123013D02*
D03*
Y15223013D02*
D03*
Y15323015D02*
D03*
Y15423015D02*
D03*
Y15523013D02*
D03*
Y15623013D02*
D03*
Y15723013D02*
D03*
Y15923013D02*
D03*
Y15823013D02*
D03*
X6855006Y15023013D02*
D03*
Y15523013D02*
D03*
D29*
X12065000Y17780000D02*
D03*
Y15239999D02*
D03*
X11430000Y13970000D02*
D03*
Y11430000D02*
D03*
X12065000Y10160000D02*
D03*
Y7620000D02*
D03*
X11430000Y6350000D02*
D03*
Y3810000D02*
D03*
X10795000Y17780000D02*
D03*
Y15239999D02*
D03*
Y12700000D02*
D03*
X10160000Y11430000D02*
D03*
X10795000Y10160000D02*
D03*
X10160000Y6350000D02*
D03*
Y3810000D02*
D03*
X9525000Y12700000D02*
D03*
X8890000Y11430000D02*
D03*
X9525000Y10160000D02*
D03*
X8255000Y12700000D02*
D03*
X7620000Y11430000D02*
D03*
X8255000Y10160000D02*
D03*
X6985000Y12700000D02*
D03*
X6350000Y11430000D02*
D03*
X6985000Y10160000D02*
D03*
X5715000Y12700000D02*
D03*
X5080000Y11430000D02*
D03*
X5715000Y10160000D02*
D03*
X4445000Y12700000D02*
D03*
X3810000Y11430000D02*
D03*
X4445000Y10160000D02*
D03*
X3175000Y17780000D02*
D03*
X2540000Y16510001D02*
D03*
Y13970000D02*
D03*
X3175000Y12700000D02*
D03*
X2540000Y11430000D02*
D03*
X3175000Y10160000D02*
D03*
X2540000Y8890000D02*
D03*
Y6350000D02*
D03*
Y3810000D02*
D03*
D30*
X3373120Y6664960D02*
D03*
X6838950Y19091528D02*
D03*
X6760210Y18908649D02*
D03*
X3634740Y17073880D02*
D03*
X3502660Y17076421D02*
D03*
X8943340Y17020540D02*
D03*
X9865360Y17089120D02*
D03*
X9933940Y17030701D02*
D03*
X3637280Y14574519D02*
D03*
X3497580Y14566901D02*
D03*
X8943340Y14531340D02*
D03*
X9809480Y14536420D02*
D03*
X9664700Y14526260D02*
D03*
X10210800Y15458440D02*
D03*
X10213340Y15262860D02*
D03*
X10223500Y15153641D02*
D03*
X3322320Y15265401D02*
D03*
X3329940Y15354300D02*
D03*
X3378200Y17866360D02*
D03*
Y17777460D02*
D03*
X10134600Y17678400D02*
D03*
X10127216Y17772144D02*
D03*
X10129520Y17965421D02*
D03*
X9768840Y5046980D02*
D03*
X9237980Y5016500D02*
D03*
X10035540Y4198620D02*
D03*
X10038080Y4267200D02*
D03*
X2649446Y13775294D02*
D03*
X2862806Y13574634D02*
D03*
X2654526Y13379054D02*
D03*
Y14168994D02*
D03*
X3007586Y14402673D02*
D03*
X3147286Y14410294D02*
D03*
X3289526Y14407755D02*
D03*
X3629886Y12985355D02*
D03*
X3634966Y13777834D02*
D03*
X3764506Y12990434D02*
D03*
X3774666Y13775294D02*
D03*
X3909286Y12992973D02*
D03*
X4188686Y13376514D02*
D03*
X4186146Y14171535D02*
D03*
X4325846D02*
D03*
X4823686Y13584795D02*
D03*
X4965926Y13577174D02*
D03*
X5110706Y13582254D02*
D03*
X5379946Y13983574D02*
D03*
X5512026Y13186014D02*
D03*
X5517106Y13996274D02*
D03*
X5664426Y13180934D02*
D03*
X5666966Y13991194D02*
D03*
X5801586Y13186014D02*
D03*
X5938746Y14407755D02*
D03*
X6002246Y13384134D02*
D03*
X6073366Y14397594D02*
D03*
X6141946Y13386674D02*
D03*
X6215606Y14404816D02*
D03*
X6286726Y13381593D02*
D03*
X6571206Y13772754D02*
D03*
X2865346Y14400134D02*
D03*
X3214596Y13771484D02*
D03*
X3363186Y12995514D02*
D03*
X3350486Y13782915D02*
D03*
X3500346Y12992973D02*
D03*
X3497806Y13777834D02*
D03*
X3769586Y14174074D02*
D03*
X3911826Y13386674D02*
D03*
Y14171535D02*
D03*
X4056606Y13384134D02*
D03*
X4054066Y14166454D02*
D03*
X4546826Y13577174D02*
D03*
X4686526Y13574634D02*
D03*
X5103086Y13186014D02*
D03*
X5105626Y13991194D02*
D03*
X5235166Y13186014D02*
D03*
X5242786Y13991194D02*
D03*
X5377406Y13188554D02*
D03*
X5593306Y13384134D02*
D03*
X5669506Y14402673D02*
D03*
X5733006Y13379054D02*
D03*
X5804126Y14405214D02*
D03*
X5865086Y13376514D02*
D03*
X6144486Y13780374D02*
D03*
X6284186Y12990434D02*
D03*
X6287996Y13776564D02*
D03*
X6434046Y12990434D02*
D03*
X6428966Y13775294D02*
D03*
X6563586Y12987894D02*
D03*
X2796766Y13767674D02*
D03*
X2936466Y12992973D02*
D03*
Y13770213D02*
D03*
X3071086Y12995514D02*
D03*
X3073626Y13775294D02*
D03*
X3213326Y12990434D02*
D03*
X3353026Y14171535D02*
D03*
X3500346Y13376514D02*
D03*
X3492726Y14179153D02*
D03*
X3632426Y13384134D02*
D03*
X3634966Y14174074D02*
D03*
X3775936Y13377785D02*
D03*
X4127726Y13579713D02*
D03*
X4263616Y13575903D02*
D03*
X4402046Y13574634D02*
D03*
X4691606Y13988654D02*
D03*
X4821146Y13186014D02*
D03*
X4831306Y13988654D02*
D03*
X4968466Y13180934D02*
D03*
X4963386Y13988654D02*
D03*
X5242786Y14405214D02*
D03*
X5311366Y13376514D02*
D03*
X5382486Y14410294D02*
D03*
X5448526Y13386674D02*
D03*
X5519646Y14402673D02*
D03*
X5875246Y12982814D02*
D03*
X5868896Y13775294D02*
D03*
X6004786Y12987894D02*
D03*
X5999706Y13782915D02*
D03*
X6141946Y12985355D02*
D03*
X6428966Y14168994D02*
D03*
X6566126Y14179153D02*
D03*
X2728186Y13186014D02*
D03*
Y13993735D02*
D03*
X2794226Y12995514D02*
D03*
X3071086Y13381593D02*
D03*
X3073626Y14174074D02*
D03*
X3215866Y13386674D02*
D03*
X3213326Y14174074D02*
D03*
X3358106Y13381593D02*
D03*
X3697196Y13580984D02*
D03*
X3843246Y13577174D02*
D03*
X3990566Y13579713D02*
D03*
X4264886Y13998814D02*
D03*
X4407126Y13188554D02*
D03*
X4399506Y13986115D02*
D03*
X4549366Y13188554D02*
D03*
Y13991194D02*
D03*
X4689066Y13186014D02*
D03*
X4826226Y14400134D02*
D03*
X4897346Y13381593D02*
D03*
X4965926Y14405214D02*
D03*
X5039586Y13376514D02*
D03*
X5108166Y14405214D02*
D03*
X5171666Y13379054D02*
D03*
X5451066Y13777834D02*
D03*
X5595846Y12992973D02*
D03*
X5598386Y13780374D02*
D03*
X5738086Y12987894D02*
D03*
X5735546Y13777834D02*
D03*
X6004786Y14179153D02*
D03*
X6141946Y14176614D02*
D03*
X6286726Y14174074D02*
D03*
X2728186Y14407755D02*
D03*
X2794226Y13381593D02*
D03*
Y14168994D02*
D03*
X2933926Y13381593D02*
D03*
Y14168994D02*
D03*
X3431766Y13587334D02*
D03*
X3568926Y13584795D02*
D03*
X3985486Y13188554D02*
D03*
X3991836Y13996274D02*
D03*
X4127726Y13183475D02*
D03*
X4125186Y13998814D02*
D03*
X4262346Y13183475D02*
D03*
X4478246Y13384134D02*
D03*
X4549366Y14397594D02*
D03*
X4617946Y13381593D02*
D03*
X4691606Y14402673D02*
D03*
X4757646Y13384134D02*
D03*
X5031966Y13775294D02*
D03*
X5174206Y12995514D02*
D03*
X5179286Y13785454D02*
D03*
X5316446Y12990434D02*
D03*
X5315176Y13780374D02*
D03*
X5453606Y12992973D02*
D03*
X5593306Y14171535D02*
D03*
X5740626Y14184235D02*
D03*
X5870166Y14179153D02*
D03*
X6357846Y13579713D02*
D03*
X6500086D02*
D03*
X6657340Y13596620D02*
D03*
X2728186Y13582254D02*
D03*
X3002506Y13579713D02*
D03*
X3147286Y13582254D02*
D03*
X3289526Y13572095D02*
D03*
X3566386Y13991194D02*
D03*
X3701006Y13188554D02*
D03*
Y13988654D02*
D03*
X3840706Y13198714D02*
D03*
Y13998814D02*
D03*
X4127726Y14402673D02*
D03*
X4264886Y14410294D02*
D03*
X4333466Y13381593D02*
D03*
X4399506Y14402673D02*
D03*
X4755106Y12990434D02*
D03*
Y13772754D02*
D03*
X4894806Y12987894D02*
D03*
X4889726Y13777834D02*
D03*
X5039586Y12987894D02*
D03*
X5316446Y14179153D02*
D03*
X5453606Y14176614D02*
D03*
X5936206Y13584795D02*
D03*
X6075906Y13577174D02*
D03*
X6210526Y13579713D02*
D03*
X6495006Y13991194D02*
D03*
X6649946Y13183475D02*
D03*
X6659880Y13987781D02*
D03*
X3149826Y13991194D02*
D03*
X3286986Y13183475D02*
D03*
X3283176Y13984843D02*
D03*
X3431766Y13183475D02*
D03*
X3426686Y13993735D02*
D03*
X3567656Y13184744D02*
D03*
X3706086Y14410294D02*
D03*
X3843246D02*
D03*
X3988026Y14402673D02*
D03*
X4330926Y13775294D02*
D03*
X4474436Y12994244D02*
D03*
X4473166Y13770213D02*
D03*
X4620486Y12992973D02*
D03*
X4617946Y13777834D02*
D03*
X4894806Y14174074D02*
D03*
X5039586Y14176614D02*
D03*
X5176746Y14174074D02*
D03*
X5664426Y13584795D02*
D03*
X5804126Y13582254D02*
D03*
X6210526Y13183475D02*
D03*
X6213066Y13993735D02*
D03*
X6357846Y13183475D02*
D03*
Y13991194D02*
D03*
X6496276Y13182204D02*
D03*
X2865346Y13186014D02*
D03*
X2866616Y13995004D02*
D03*
X3005046Y13186014D02*
D03*
X3002506Y13993735D02*
D03*
X3144746Y13183475D02*
D03*
X3431766Y14412834D02*
D03*
X3566386Y14410294D02*
D03*
X3911826Y13782915D02*
D03*
X4051526Y12992973D02*
D03*
Y13777834D02*
D03*
X4191226Y12995514D02*
D03*
X4186146Y13777834D02*
D03*
X4336006Y12992973D02*
D03*
X4475706Y14168994D02*
D03*
X4620486Y14176614D02*
D03*
X4755106Y14179153D02*
D03*
X5250406Y13582254D02*
D03*
X5379946Y13584795D02*
D03*
X5517106Y13574634D02*
D03*
X5804126Y13988654D02*
D03*
X5933666Y13178394D02*
D03*
X5936206Y13991194D02*
D03*
X6068286Y13180934D02*
D03*
X6073366Y13988654D02*
D03*
X6352766Y14405214D02*
D03*
X6428966Y13379054D02*
D03*
X6495006Y14400134D02*
D03*
X6568666Y13384134D02*
D03*
X6654800Y14411960D02*
D03*
X6774180Y13792200D02*
D03*
X6853146Y14412834D02*
D03*
X6776946Y13396834D02*
D03*
X6784566Y14577934D02*
D03*
X6779486Y14184235D02*
D03*
X6850606Y13199985D02*
D03*
X6853146Y13589874D02*
D03*
X3683000Y7561580D02*
D03*
X3812540Y7518400D02*
D03*
X4658360Y7526020D02*
D03*
X3385820Y6918960D02*
D03*
X3393440Y6832600D02*
D03*
X9817100Y7508240D02*
D03*
X9687560Y7510780D02*
D03*
X10233660Y6736080D02*
D03*
X10223500Y6822440D02*
D03*
X10226040Y5008880D02*
D03*
X10078720Y5016500D02*
D03*
X3812540Y5041900D02*
D03*
X3675380D02*
D03*
X5981931Y18723228D02*
D03*
X3944851Y18911188D02*
D03*
X4516351Y19302348D02*
D03*
X10634980Y2776220D02*
D03*
X8260080Y3162300D02*
D03*
X6642326Y16902673D02*
D03*
X6495006Y16900134D02*
D03*
X6352766Y16905214D02*
D03*
X6215606Y16904816D02*
D03*
X5938746Y16907755D02*
D03*
X5804126Y16905214D02*
D03*
X5669506Y16902673D02*
D03*
X6073366Y16897594D02*
D03*
X6566126Y16679153D02*
D03*
X6428966Y16668994D02*
D03*
X6286726Y16674074D02*
D03*
X6141946Y16676614D02*
D03*
X6004786Y16679153D02*
D03*
X5740626Y16684235D02*
D03*
X5593306Y16671535D02*
D03*
X5453606Y16676614D02*
D03*
X5870166Y16679153D02*
D03*
X6571206Y16272754D02*
D03*
X6428966Y16275294D02*
D03*
X6287996Y16276564D02*
D03*
X6144486Y16280374D02*
D03*
X5999706Y16282915D02*
D03*
X5868896Y16275294D02*
D03*
X5735546Y16277834D02*
D03*
X5598386Y16280374D02*
D03*
X5451066Y16277834D02*
D03*
X5315176Y16280374D02*
D03*
X5031966Y16275294D02*
D03*
X4889726Y16277834D02*
D03*
X4755106Y16272754D02*
D03*
X5179286Y16285454D02*
D03*
X6642326Y16491194D02*
D03*
X6495006D02*
D03*
X6357846D02*
D03*
X6213066Y16493735D02*
D03*
X6073366Y16488654D02*
D03*
X5936206Y16491194D02*
D03*
X5804126Y16488654D02*
D03*
X5666966Y16491194D02*
D03*
X5517106Y16496274D02*
D03*
X5379946Y16483574D02*
D03*
X5242786Y16491194D02*
D03*
X4963386Y16488654D02*
D03*
X4831306D02*
D03*
X4691606D02*
D03*
X5105626Y16491194D02*
D03*
X5519646Y16902673D02*
D03*
X5382486Y16910294D02*
D03*
X5242786Y16905214D02*
D03*
X5108166D02*
D03*
X4965926D02*
D03*
X4691606Y16902673D02*
D03*
X4549366Y16897594D02*
D03*
X4399506Y16902673D02*
D03*
X4264886Y16910294D02*
D03*
X4127726Y16902673D02*
D03*
X3988026D02*
D03*
X4826226Y16900134D02*
D03*
X3843246Y16910294D02*
D03*
X5316446Y16679153D02*
D03*
X5176746Y16674074D02*
D03*
X5039586Y16676614D02*
D03*
X4894806Y16674074D02*
D03*
X4755106Y16679153D02*
D03*
X4620486Y16676614D02*
D03*
X4475706Y16668994D02*
D03*
X4325846Y16671535D02*
D03*
X4186146D02*
D03*
X4054066Y16666454D02*
D03*
X3769586Y16674074D02*
D03*
X3911826Y16671535D02*
D03*
X3634966Y16674074D02*
D03*
X4549366Y16491194D02*
D03*
X4399506Y16486115D02*
D03*
X4264886Y16498814D02*
D03*
X4125186D02*
D03*
X3991836Y16496274D02*
D03*
X3840706Y16498814D02*
D03*
X3701006Y16488654D02*
D03*
X3426686Y16493735D02*
D03*
X3283176Y16484843D02*
D03*
X3002506Y16493735D02*
D03*
X2866616Y16495004D02*
D03*
X3566386Y16491194D02*
D03*
X2728186Y16493735D02*
D03*
X3353026Y16671535D02*
D03*
X3706086Y16910294D02*
D03*
X3566386D02*
D03*
X3492726Y16679153D02*
D03*
X3431766Y16912834D02*
D03*
X3289526Y16907755D02*
D03*
X3213326Y16674074D02*
D03*
X3007586Y16902673D02*
D03*
X2933926Y16668994D02*
D03*
X2865346Y16900134D02*
D03*
X2794226Y16668994D02*
D03*
X2728186Y16907755D02*
D03*
X3147286Y16910294D02*
D03*
X2654526Y16668994D02*
D03*
X4617946Y16277834D02*
D03*
X4473166Y16270213D02*
D03*
X4330926Y16275294D02*
D03*
X4186146Y16277834D02*
D03*
X4051526D02*
D03*
X3911826Y16282915D02*
D03*
X3774666Y16275294D02*
D03*
X3634966Y16277834D02*
D03*
X3497806D02*
D03*
X3073626Y16275294D02*
D03*
X2936466Y16270213D02*
D03*
X3350486Y16282915D02*
D03*
X2796766Y16267674D02*
D03*
X3187931Y18710529D02*
D03*
X2843761Y18904839D02*
D03*
X3609571Y18707988D02*
D03*
X3744191Y18710529D02*
D03*
X3214596Y16271484D02*
D03*
X3073626Y16674074D02*
D03*
X3149826Y16491194D02*
D03*
X2649446Y16275294D02*
D03*
X5219931Y18913728D02*
D03*
X5357091Y18908649D02*
D03*
X5496791Y18911188D02*
D03*
X5636491Y18908649D02*
D03*
X5786351Y18913728D02*
D03*
X5918431Y18916267D02*
D03*
X6053051D02*
D03*
X6192751Y18913728D02*
D03*
X2984731Y18908649D02*
D03*
X3119351D02*
D03*
X3259051Y18906108D02*
D03*
X3396211Y18908649D02*
D03*
X3546071Y18906108D02*
D03*
X3683231Y18911188D02*
D03*
X3810231Y18906108D02*
D03*
X4102331Y18911188D02*
D03*
X4239491D02*
D03*
X4381731Y18908649D02*
D03*
X4511271Y18911188D02*
D03*
X4663671Y18918808D02*
D03*
X4803371Y18921349D02*
D03*
X4935451Y18906108D02*
D03*
X5082771Y18916267D02*
D03*
X5291051Y18725768D02*
D03*
X5428211D02*
D03*
X5565371Y18723228D02*
D03*
X5710151Y18715608D02*
D03*
X5854931Y18718147D02*
D03*
X6114011D02*
D03*
X5009111Y19106767D02*
D03*
X5148811Y19109308D02*
D03*
X5291051Y19099149D02*
D03*
X5562831Y19104228D02*
D03*
X5707611Y19106767D02*
D03*
X5849851D02*
D03*
X5425671Y19099149D02*
D03*
X5984471Y19101688D02*
D03*
X2911071Y18718147D02*
D03*
X3052041Y18716878D02*
D03*
X3325091Y18720688D02*
D03*
X3472411Y18713068D02*
D03*
X4026131Y18734657D02*
D03*
X4168371Y18718147D02*
D03*
X4308512Y18716049D02*
D03*
X4452931Y18725848D02*
D03*
X4592551Y18723228D02*
D03*
X4732251D02*
D03*
X4866871Y18718147D02*
D03*
X5153891Y18713068D02*
D03*
X5009111D02*
D03*
X3876271Y18710529D02*
D03*
X6329911Y18918808D02*
D03*
X6256251Y18723228D02*
D03*
X6263871Y19104228D02*
D03*
X6474691Y18916267D02*
D03*
X6401031Y18723228D02*
D03*
Y19101688D02*
D03*
X6614391Y18913728D02*
D03*
X6545811Y18720688D02*
D03*
X6543271Y19109308D02*
D03*
X6685511Y19104228D02*
D03*
Y18715608D02*
D03*
X6116551Y19096608D02*
D03*
X2761211Y19101688D02*
D03*
X2905991Y19109308D02*
D03*
X3043151Y19111848D02*
D03*
X3195551Y19104228D02*
D03*
X3319835Y19107878D02*
D03*
X3469871Y19109308D02*
D03*
X3612111D02*
D03*
X3751811Y19104228D02*
D03*
X4026131Y19101688D02*
D03*
X4175991Y19109308D02*
D03*
X4305531Y19099149D02*
D03*
X4592551Y19104228D02*
D03*
X4734791Y19109308D02*
D03*
X4869411Y19111848D02*
D03*
X4450311Y19101688D02*
D03*
X3881351D02*
D03*
X2845031Y19299808D02*
D03*
X2982191D02*
D03*
X3119351Y19297269D02*
D03*
X3261591Y19299808D02*
D03*
X3401291Y19304887D02*
D03*
X3546071Y19299808D02*
D03*
X3683231D02*
D03*
X3810231Y19297269D02*
D03*
X3960091Y19304887D02*
D03*
X4104871D02*
D03*
X4239491Y19297269D02*
D03*
X4376651Y19312508D02*
D03*
X4666211Y19307428D02*
D03*
X4803371Y19309969D02*
D03*
X4943071Y19312508D02*
D03*
X5082771Y19302348D02*
D03*
X5222471D02*
D03*
X5359631Y19304887D02*
D03*
X5494251Y19302348D02*
D03*
X5633951Y19307428D02*
D03*
X5778731Y19309969D02*
D03*
X5913351Y19307428D02*
D03*
X6047971Y19315048D02*
D03*
X6190211Y19307428D02*
D03*
X6332451Y19304887D02*
D03*
X6611851Y19309969D02*
D03*
X6469611Y19315048D02*
D03*
X6759171Y19304887D02*
D03*
X6794500Y2971800D02*
D03*
X6718300Y3162300D02*
D03*
X7010400Y2760980D02*
D03*
X6868160Y2766060D02*
D03*
X6720840Y2771140D02*
D03*
X6936740Y2966720D02*
D03*
X7078980Y2974340D02*
D03*
X7216140Y2971800D02*
D03*
X7147560Y2771140D02*
D03*
X7289800Y2768600D02*
D03*
X7363460Y2979420D02*
D03*
X7432040Y2760980D02*
D03*
X7495540Y2974340D02*
D03*
X7566660Y2768600D02*
D03*
X7701280Y2766060D02*
D03*
X7630160Y2969260D02*
D03*
X7772400D02*
D03*
X7846060Y2768600D02*
D03*
X7985760Y2773680D02*
D03*
X7917180Y2971800D02*
D03*
X8120380Y2771140D02*
D03*
X8054340Y2976880D02*
D03*
X8188960D02*
D03*
X8331200Y2966720D02*
D03*
X8257540Y2773680D02*
D03*
X8397240D02*
D03*
X8470900Y2969260D02*
D03*
X8536940Y2763520D02*
D03*
X8610600Y2964180D02*
D03*
X8676640Y2766060D02*
D03*
X8745220Y2966720D02*
D03*
X8813800Y2768600D02*
D03*
X8887460Y2971800D02*
D03*
X8963660Y2773680D02*
D03*
X9029700Y2974340D02*
D03*
X9103360Y2763520D02*
D03*
X9174480Y2976880D02*
D03*
X9240520Y2778760D02*
D03*
X9304020Y2966720D02*
D03*
X9375140Y2771140D02*
D03*
X9519920D02*
D03*
X9453880Y2974340D02*
D03*
X9598660D02*
D03*
X9669780Y2778760D02*
D03*
X9728200Y2971800D02*
D03*
X9796780Y2776220D02*
D03*
X9933940D02*
D03*
X9867900Y2966720D02*
D03*
X10160176Y2968151D02*
D03*
X10010140Y2966720D02*
D03*
X10574020D02*
D03*
X10497820Y2776220D02*
D03*
X10360660Y2778760D02*
D03*
X10436860Y2964180D02*
D03*
X10284460Y2971800D02*
D03*
X10218420Y2776220D02*
D03*
X10078720Y2771140D02*
D03*
X9933940Y3169920D02*
D03*
X9453880Y3341370D02*
D03*
X9870440Y3368040D02*
D03*
X9735820Y3365500D02*
D03*
X9603740D02*
D03*
X9171500Y3359980D02*
D03*
X9027081Y3350181D02*
D03*
X7983220Y3164840D02*
D03*
X8051800Y3350260D02*
D03*
X7625080Y3357880D02*
D03*
X7498080Y3352800D02*
D03*
X10568940Y3357880D02*
D03*
X10718800Y2974340D02*
D03*
X10636250Y3171190D02*
D03*
X10495280Y3167380D02*
D03*
X10360660D02*
D03*
X10220960Y3169920D02*
D03*
X10083800Y3167380D02*
D03*
X9796780Y3164840D02*
D03*
X10427970Y3359150D02*
D03*
X10292080Y3365500D02*
D03*
X10154920Y3355340D02*
D03*
X10007600Y3362960D02*
D03*
X9669780Y3169920D02*
D03*
X9535160Y3164840D02*
D03*
X9377680D02*
D03*
X9311640Y3357880D02*
D03*
X9240520Y3164840D02*
D03*
X9098280Y3167380D02*
D03*
X8968740Y3164840D02*
D03*
X8887460Y3352800D02*
D03*
X8747760D02*
D03*
X8816340Y3157220D02*
D03*
X8676640Y3154680D02*
D03*
X8544560Y3169920D02*
D03*
X8613140Y3357880D02*
D03*
X8470900Y3362960D02*
D03*
X8326120D02*
D03*
X8397240Y3159760D02*
D03*
X8188960Y3350260D02*
D03*
X8122920Y3167380D02*
D03*
X7914640Y3352800D02*
D03*
X7843520Y3167380D02*
D03*
X7769860Y3360420D02*
D03*
X7693660Y3162300D02*
D03*
X7561580Y3159760D02*
D03*
X7426960D02*
D03*
X7366000Y3357880D02*
D03*
X7223760Y3352800D02*
D03*
X7287260Y3162300D02*
D03*
X7150100Y3157220D02*
D03*
X7078980Y3352800D02*
D03*
X7005320Y3159760D02*
D03*
X6934200Y3355340D02*
D03*
X6865620Y3162300D02*
D03*
X6794500Y3360420D02*
D03*
X10126986Y5404494D02*
D03*
X10830566Y5800734D02*
D03*
X6837686Y5173354D02*
D03*
X6913886Y5396874D02*
D03*
X6837686Y5584834D02*
D03*
X6908806Y5803274D02*
D03*
X6985006Y5175894D02*
D03*
X7051046Y5407034D02*
D03*
X6985006Y5584834D02*
D03*
X7051046Y5800734D02*
D03*
X7127246Y5170814D02*
D03*
X7193286Y5401954D02*
D03*
X7122166Y5584834D02*
D03*
X7192016Y5799464D02*
D03*
X7264406Y5171213D02*
D03*
X7338066Y5399414D02*
D03*
X7266946Y5582294D02*
D03*
X7335526Y5795654D02*
D03*
X7406646Y5178434D02*
D03*
X7475226Y5396874D02*
D03*
X7406646Y5587374D02*
D03*
X7480306Y5793114D02*
D03*
X7541266Y5168274D02*
D03*
X7609846Y5396874D02*
D03*
X7543806Y5584834D02*
D03*
X7611116Y5800734D02*
D03*
X7675886Y5170814D02*
D03*
X7739386Y5391794D02*
D03*
X7675886Y5587374D02*
D03*
X7744466Y5798194D02*
D03*
X7810506Y5173354D02*
D03*
X7886706Y5404494D02*
D03*
X7813046Y5584834D02*
D03*
X7881626Y5795654D02*
D03*
X7960366Y5173354D02*
D03*
X8026406Y5399414D02*
D03*
X7962906Y5579754D02*
D03*
X8028946Y5798194D02*
D03*
X8097526Y5165734D02*
D03*
X8163566Y5396874D02*
D03*
X8100066Y5592454D02*
D03*
X8164836Y5795654D02*
D03*
X8237226Y5170814D02*
D03*
X8303266Y5401954D02*
D03*
X8237226Y5584834D02*
D03*
X8300726Y5790574D02*
D03*
X8371846Y5170814D02*
D03*
X8440426Y5399414D02*
D03*
X8374386Y5584834D02*
D03*
X8448046Y5800734D02*
D03*
X8514086Y5170814D02*
D03*
X8585206Y5401954D02*
D03*
X8516626Y5587374D02*
D03*
X8590286Y5798194D02*
D03*
X8653786Y5175894D02*
D03*
X8724906Y5396874D02*
D03*
X8648706Y5587374D02*
D03*
X8724906Y5803274D02*
D03*
X8788406Y5173354D02*
D03*
X8859526Y5399414D02*
D03*
X8788406Y5587374D02*
D03*
X8862066Y5798194D02*
D03*
X8930646Y5178434D02*
D03*
X9004306Y5407034D02*
D03*
X8930646Y5584834D02*
D03*
X9006846Y5805814D02*
D03*
X9080506Y5173354D02*
D03*
X9154166Y5404494D02*
D03*
X9080506Y5589914D02*
D03*
X9149086Y5800734D02*
D03*
X9215126Y5165734D02*
D03*
X9293866Y5404494D02*
D03*
X9215126Y5577214D02*
D03*
X9293866Y5798194D02*
D03*
X9352286Y5173354D02*
D03*
X9425946Y5409574D02*
D03*
X9354826Y5577214D02*
D03*
X9428486Y5798194D02*
D03*
X9491986Y5173354D02*
D03*
X9568186Y5404494D02*
D03*
X9488176Y5579754D02*
D03*
X9568186Y5793114D02*
D03*
X9636766Y5165734D02*
D03*
X9710426Y5401954D02*
D03*
X9639306Y5577214D02*
D03*
X9705346Y5800734D02*
D03*
X9773926Y5165734D02*
D03*
X9845046Y5401954D02*
D03*
X9779006Y5587374D02*
D03*
X9845046Y5798194D02*
D03*
X9913626Y5165734D02*
D03*
X9987286Y5396874D02*
D03*
X9913626Y5584834D02*
D03*
X9982206Y5798194D02*
D03*
X10048246Y5163194D02*
D03*
X10053326Y5582294D02*
D03*
X10129526Y5793114D02*
D03*
X10190486Y5168274D02*
D03*
X10266686Y5401954D02*
D03*
X10196836Y5591184D02*
D03*
X10265416Y5804544D02*
D03*
X10332726Y5165734D02*
D03*
X10406386Y5401954D02*
D03*
X10330186Y5584834D02*
D03*
X10406386Y5800734D02*
D03*
X10472426Y5173354D02*
D03*
X10546086Y5407034D02*
D03*
X10477506Y5582294D02*
D03*
X10543546Y5805814D02*
D03*
X10614666Y5175894D02*
D03*
X10685786Y5407034D02*
D03*
X10613396Y5581024D02*
D03*
X10683246Y5808354D02*
D03*
X10751826Y5168274D02*
D03*
X10825486Y5407034D02*
D03*
X10751826Y5582294D02*
D03*
X10822940Y19309081D02*
D03*
X6908800Y19314160D02*
D03*
X10769826Y16915375D02*
D03*
X10686006Y16699474D02*
D03*
X10769826Y16503894D02*
D03*
X10693626Y16285454D02*
D03*
X10754592Y19096608D02*
D03*
X10825712Y18898488D02*
D03*
X10749512Y18700368D02*
D03*
X10625046Y16915375D02*
D03*
X10559006Y16696935D02*
D03*
X10625046Y16503894D02*
D03*
X10556466Y16285454D02*
D03*
X10688552Y19302348D02*
D03*
X10612352Y19101688D02*
D03*
X10683472Y18908649D02*
D03*
X10614892Y18702908D02*
D03*
X10482806Y16912834D02*
D03*
X10411686Y16686774D02*
D03*
X10482806Y16503894D02*
D03*
X10411686Y16285454D02*
D03*
X10551392Y19304887D02*
D03*
X10470112Y19099149D02*
D03*
X10541232Y18901028D02*
D03*
X10472652Y18702908D02*
D03*
X10338026Y16912834D02*
D03*
X10269446Y16684235D02*
D03*
X10340566Y16498814D02*
D03*
X10264366Y16282915D02*
D03*
X10404072Y19307428D02*
D03*
X10322792Y19096608D02*
D03*
X10398992Y18903568D02*
D03*
X10330412Y18702908D02*
D03*
X10198326Y16915375D02*
D03*
X10129746Y16684235D02*
D03*
X10198326Y16501353D02*
D03*
X10129746Y16282915D02*
D03*
X10254212Y19307428D02*
D03*
X10185632Y19099149D02*
D03*
X10259292Y18903568D02*
D03*
X10190712Y18707988D02*
D03*
X10061166Y16915375D02*
D03*
X9997666Y16689314D02*
D03*
X10061166Y16501353D02*
D03*
X9997666Y16285454D02*
D03*
X10122132Y19299808D02*
D03*
X10053552Y19096608D02*
D03*
X10119592Y18898488D02*
D03*
X10053552Y18707988D02*
D03*
X9929086Y16917914D02*
D03*
X9863046Y16681694D02*
D03*
X9931626Y16506435D02*
D03*
X9863046Y16280374D02*
D03*
X9987512Y19304887D02*
D03*
X9921472Y19099149D02*
D03*
X9987512Y18913728D02*
D03*
X9918932Y18710529D02*
D03*
X9791926Y16917914D02*
D03*
X9720806Y16689314D02*
D03*
X9791926Y16501353D02*
D03*
X9720806Y16285454D02*
D03*
X9852892Y19302348D02*
D03*
X9776692Y19096608D02*
D03*
X9847812Y18901028D02*
D03*
X9776692Y18700368D02*
D03*
X9644606Y16915375D02*
D03*
X9576026Y16689314D02*
D03*
X9644606Y16501353D02*
D03*
X9576026Y16285454D02*
D03*
X9705572Y19302348D02*
D03*
X9634452Y19086449D02*
D03*
X9703032Y18906108D02*
D03*
X9636992Y18705447D02*
D03*
X9509986Y16917914D02*
D03*
X9438866Y16686774D02*
D03*
X9509986Y16501353D02*
D03*
X9438866Y16282915D02*
D03*
X9573492Y19302348D02*
D03*
X9494752Y19096608D02*
D03*
X9562680Y18910817D02*
D03*
X9502372Y18705447D02*
D03*
X9372826Y16915375D02*
D03*
X9301706Y16686774D02*
D03*
X9367746Y16498814D02*
D03*
X9304246Y16285454D02*
D03*
X9431252Y19304887D02*
D03*
X9362672Y19096608D02*
D03*
X9426172Y18901028D02*
D03*
X9362672Y18702908D02*
D03*
X9233126Y16915375D02*
D03*
X9167086Y16681694D02*
D03*
X9233126Y16503894D02*
D03*
X9167086Y16280374D02*
D03*
X9286472Y19304887D02*
D03*
X9222972Y19109308D02*
D03*
X9289012Y18901028D02*
D03*
X9225512Y18702908D02*
D03*
X9093426Y16915375D02*
D03*
X9022306Y16684235D02*
D03*
X9090886Y16501353D02*
D03*
X9022306Y16285454D02*
D03*
X9151852Y19304887D02*
D03*
X9075652Y19099149D02*
D03*
X9149312Y18901028D02*
D03*
X9073112Y18700368D02*
D03*
X8951186Y16922993D02*
D03*
X8880066Y16684235D02*
D03*
X8951186Y16498814D02*
D03*
X8880066Y16287994D02*
D03*
X9009612Y19297269D02*
D03*
X8941032Y19111848D02*
D03*
X9012152Y18906108D02*
D03*
X8941032Y18705447D02*
D03*
X8814026Y16917914D02*
D03*
X8747986Y16684235D02*
D03*
X8814026Y16503894D02*
D03*
X8742906Y16287994D02*
D03*
X8872452Y19307428D02*
D03*
X8798792Y19106767D02*
D03*
X8869912Y18898488D02*
D03*
X8808952Y18705447D02*
D03*
X8674326Y16920454D02*
D03*
X8603206Y16684235D02*
D03*
X8671786Y16503894D02*
D03*
X8600666Y16287994D02*
D03*
X8732752Y19299808D02*
D03*
X8654012Y19101688D02*
D03*
X8730212Y18898488D02*
D03*
X8664172Y18695288D02*
D03*
X8532086Y16917914D02*
D03*
X8460966Y16684235D02*
D03*
X8529546Y16508974D02*
D03*
X8458426Y16282915D02*
D03*
X8582892Y19304887D02*
D03*
X8516852Y19101688D02*
D03*
X8587972Y18903568D02*
D03*
X8519392Y18702908D02*
D03*
X8389846Y16917914D02*
D03*
X8321266Y16684235D02*
D03*
X8389846Y16501353D02*
D03*
X8318726Y16285454D02*
D03*
X8450812Y19304887D02*
D03*
X8379692Y19101688D02*
D03*
X8448272Y18903568D02*
D03*
X8377152Y18697829D02*
D03*
X8250146Y16920454D02*
D03*
X8184106Y16686774D02*
D03*
X8250146Y16506435D02*
D03*
X8181566Y16285454D02*
D03*
X8313652Y19304887D02*
D03*
X8242532Y19109308D02*
D03*
X8313652Y18898488D02*
D03*
X8238548Y18709431D02*
D03*
X8118066Y16922993D02*
D03*
X8041866Y16686774D02*
D03*
X8112986Y16506435D02*
D03*
X8039326Y16282915D02*
D03*
X8173952Y19304887D02*
D03*
X8097752Y19114388D02*
D03*
X8168872Y18898488D02*
D03*
X8092672Y18718147D02*
D03*
X7970746Y16925534D02*
D03*
X7894546Y16689314D02*
D03*
X7968206Y16503894D02*
D03*
X7904706Y16285454D02*
D03*
X8026632Y19307428D02*
D03*
X7947892Y19109308D02*
D03*
X8019012Y18901028D02*
D03*
X7939762Y18714758D02*
D03*
X7833586Y16915375D02*
D03*
X7762466Y16684235D02*
D03*
X7825966Y16506435D02*
D03*
X7757386Y16282915D02*
D03*
X7886932Y19302348D02*
D03*
X7815812Y19106767D02*
D03*
X7879312Y18906108D02*
D03*
X7813272Y18700368D02*
D03*
X7693886Y16915375D02*
D03*
X7620226Y16684235D02*
D03*
X7691346Y16498814D02*
D03*
X7625306Y16282915D02*
D03*
X7762472Y19307428D02*
D03*
X7681192Y19106767D02*
D03*
X7749772Y18898488D02*
D03*
X7678652Y18702908D02*
D03*
X7554186Y16912834D02*
D03*
X7480526Y16681694D02*
D03*
X7556726Y16506435D02*
D03*
X7480526Y16290533D02*
D03*
X7622772Y19302348D02*
D03*
X7546572Y19111848D02*
D03*
X7615152Y18901028D02*
D03*
X7544032Y18705447D02*
D03*
X7411946Y16915375D02*
D03*
X7335746Y16679153D02*
D03*
X7411946Y16503894D02*
D03*
X7340826Y16282915D02*
D03*
X7472912Y19304887D02*
D03*
X7399252Y19099149D02*
D03*
X7475452Y18906108D02*
D03*
X7399252Y18702908D02*
D03*
X7269706Y16917914D02*
D03*
X7201126Y16681694D02*
D03*
X7269706Y16498061D02*
D03*
X7201126Y16285454D02*
D03*
X7325592Y19304887D02*
D03*
X7262092Y19109308D02*
D03*
X7330672Y18895947D02*
D03*
X7254472Y18710529D02*
D03*
X7135086Y16915375D02*
D03*
X7061426Y16684235D02*
D03*
X7132546Y16503894D02*
D03*
X7058886Y16290533D02*
D03*
X7188432Y19297269D02*
D03*
X7109692Y19101688D02*
D03*
X7188432Y18903568D02*
D03*
X7117312Y18707988D02*
D03*
X6992846Y16915375D02*
D03*
X6924266Y16684235D02*
D03*
X6987766Y16508974D02*
D03*
X6924266Y16285454D02*
D03*
X7043652Y19302348D02*
D03*
X6975072Y19101688D02*
D03*
X7046192Y18898488D02*
D03*
X6977612Y18705447D02*
D03*
X6784566Y17077934D02*
D03*
X6853146Y16912834D02*
D03*
X6779486Y16684235D02*
D03*
X6850606Y16503894D02*
D03*
X6774406Y16293074D02*
D03*
X6906492Y18895947D02*
D03*
X6504940Y2974340D02*
D03*
X3561080Y3365500D02*
D03*
X2725420Y2979420D02*
D03*
X2654300Y3177540D02*
D03*
X3220720Y3172460D02*
D03*
X3492500Y3162300D02*
D03*
X3426460Y3368040D02*
D03*
X3360420Y3177540D02*
D03*
X3149600Y3373120D02*
D03*
X3289300Y3368040D02*
D03*
X3081020Y3172460D02*
D03*
X3007360Y3373120D02*
D03*
X3632200Y3175000D02*
D03*
X3703320Y3375660D02*
D03*
X3917332Y3165212D02*
D03*
X3843020Y3370580D02*
D03*
X3776980Y3169920D02*
D03*
X3977640Y3370580D02*
D03*
X4117340Y3373120D02*
D03*
X4053840Y3175000D02*
D03*
X4191000D02*
D03*
X4254500Y3373120D02*
D03*
X4330700Y3175000D02*
D03*
X4467860Y3169920D02*
D03*
X4610100Y3177540D02*
D03*
X4406900Y3375660D02*
D03*
X4538980Y3370580D02*
D03*
X4671060D02*
D03*
X4815840Y3380740D02*
D03*
X4960620Y3373120D02*
D03*
X5102860Y3378200D02*
D03*
X5241464Y3366596D02*
D03*
X5387340Y3357880D02*
D03*
X5540249Y3361270D02*
D03*
X5666740Y3375660D02*
D03*
X5801360Y3373120D02*
D03*
X5935980Y3370580D02*
D03*
X6080760Y3373120D02*
D03*
X6225540Y3365500D02*
D03*
X6362700Y3368040D02*
D03*
X6502400Y3370580D02*
D03*
X4749800Y3177540D02*
D03*
X4892040Y3172460D02*
D03*
X5031740D02*
D03*
X5166360Y3177540D02*
D03*
X5311140D02*
D03*
X5461000Y3175000D02*
D03*
X5600700Y3169920D02*
D03*
X5730240Y3177540D02*
D03*
X5864860Y3175000D02*
D03*
X6004560Y3169920D02*
D03*
X6149340Y3180080D02*
D03*
X6573520D02*
D03*
X6433820Y3177540D02*
D03*
X6291580Y3172460D02*
D03*
X6644640Y2984500D02*
D03*
X6573520Y2766060D02*
D03*
X6436360Y2773680D02*
D03*
X6291580Y2778760D02*
D03*
X6370320Y2974340D02*
D03*
X6217920Y2966720D02*
D03*
X6154420Y2771140D02*
D03*
X6007100D02*
D03*
X6080760Y2976880D02*
D03*
X5933440Y2964180D02*
D03*
X5857240Y2773680D02*
D03*
X5664200Y2969260D02*
D03*
X5798820D02*
D03*
X5717540Y2768600D02*
D03*
X5593080Y2773680D02*
D03*
X5453380Y2768600D02*
D03*
X5532120Y2966720D02*
D03*
X5382260Y2961640D02*
D03*
X5237480Y2966720D02*
D03*
X5306060Y2771140D02*
D03*
X5166360D02*
D03*
X5029200D02*
D03*
X5100320Y2974340D02*
D03*
X4963160D02*
D03*
X4826000D02*
D03*
X4897120Y2771140D02*
D03*
X4747260Y2776220D02*
D03*
X4681220Y2969260D02*
D03*
X4538980Y2964180D02*
D03*
X4607560Y2768600D02*
D03*
X4470400Y2778760D02*
D03*
X4404360Y2976880D02*
D03*
X4257040Y2966720D02*
D03*
X4328160Y2771140D02*
D03*
X4193540D02*
D03*
X4117340Y2979420D02*
D03*
X3985260D02*
D03*
X4048760Y2771140D02*
D03*
X3906520Y2773680D02*
D03*
X3774440D02*
D03*
X3845560Y2989580D02*
D03*
X3703320Y2979420D02*
D03*
X3558540Y2976880D02*
D03*
X3627120Y2773680D02*
D03*
X3492500Y2771140D02*
D03*
X3357880Y2776220D02*
D03*
X3426460Y2979420D02*
D03*
X3294380Y2976880D02*
D03*
X3225800Y2768600D02*
D03*
X3009900Y2976880D02*
D03*
X3157220Y2979420D02*
D03*
X3075940Y2768600D02*
D03*
X2928620Y2771140D02*
D03*
X2867660Y2974340D02*
D03*
X2791460Y2773680D02*
D03*
X2654300Y2766060D02*
D03*
X2938780Y3175000D02*
D03*
X2796540Y3167380D02*
D03*
X2865120Y3373120D02*
D03*
X2730500Y3375660D02*
D03*
X6629406Y5572134D02*
D03*
X6555746Y5790574D02*
D03*
X6278886Y5394334D02*
D03*
X6144266Y5396874D02*
D03*
X5999486Y5394334D02*
D03*
X4950466Y5567054D02*
D03*
X4808226Y5572134D02*
D03*
X4665986D02*
D03*
X4386586Y5160654D02*
D03*
X4246886D02*
D03*
X4107186D02*
D03*
X3759206Y5790574D02*
D03*
X3616966Y5795654D02*
D03*
X3210566Y5391794D02*
D03*
X3068326Y5389254D02*
D03*
X6555746Y5391794D02*
D03*
X6418586D02*
D03*
X5367026Y5569594D02*
D03*
X5229866D02*
D03*
X5090166Y5574674D02*
D03*
X4805686Y5155574D02*
D03*
X4665986Y5158114D02*
D03*
X4528826Y5153034D02*
D03*
X4175766Y5790574D02*
D03*
X4041146Y5793114D02*
D03*
X3903986Y5790574D02*
D03*
X3616966Y5394334D02*
D03*
X3482346Y5386714D02*
D03*
X3350266Y5391794D02*
D03*
X6626866Y5163194D02*
D03*
X5654046Y5569594D02*
D03*
X5511806Y5572134D02*
D03*
X5090166Y5158114D02*
D03*
X4947926D02*
D03*
X4599946Y5788034D02*
D03*
X4457706Y5790574D02*
D03*
X4312926Y5795654D02*
D03*
X4041146Y5389254D02*
D03*
X3903986Y5386714D02*
D03*
X3759206D02*
D03*
X2710186Y5572134D02*
D03*
X6705606Y5782954D02*
D03*
X6068066Y5572134D02*
D03*
X5923286Y5569594D02*
D03*
X5788666Y5577214D02*
D03*
X5509266Y5150494D02*
D03*
X5361946Y5153034D02*
D03*
X5229866Y5155574D02*
D03*
X4879346Y5788034D02*
D03*
X4737106D02*
D03*
X4312926Y5394334D02*
D03*
X4178306Y5389254D02*
D03*
X3139446Y5577214D02*
D03*
X2997206Y5572134D02*
D03*
X2854966D02*
D03*
X6492246Y5567054D02*
D03*
X6347466Y5572134D02*
D03*
X6210306Y5577969D02*
D03*
X5925826Y5163194D02*
D03*
X5786126Y5160654D02*
D03*
X5646426D02*
D03*
X5298446Y5790574D02*
D03*
X5161286D02*
D03*
X5021586Y5793114D02*
D03*
X4732026Y5391794D02*
D03*
X4599946D02*
D03*
X4457706D02*
D03*
X3418846Y5574674D02*
D03*
X3281686D02*
D03*
X2854966Y5160654D02*
D03*
X2710186D02*
D03*
X6700526Y5391794D02*
D03*
X6210306Y5158114D02*
D03*
X6068066Y5160654D02*
D03*
X5722626Y5793114D02*
D03*
X5575306Y5790574D02*
D03*
X5440686Y5793114D02*
D03*
X5158746Y5391794D02*
D03*
X5019046D02*
D03*
X4876806D02*
D03*
X3835406Y5574674D02*
D03*
X3688086D02*
D03*
X3548386Y5569594D02*
D03*
X3281686Y5160654D02*
D03*
X3141986Y5163194D02*
D03*
X2997206D02*
D03*
X6695446Y4998094D02*
D03*
X6487166Y5160654D02*
D03*
X6344926D02*
D03*
X5999486Y5785494D02*
D03*
X5854706Y5793114D02*
D03*
X5438146Y5389254D02*
D03*
X5295906D02*
D03*
X4246886Y5572134D02*
D03*
X4112266Y5577214D02*
D03*
X3970026Y5574674D02*
D03*
X3688086Y5158114D02*
D03*
X3550926D02*
D03*
X3418846Y5160654D02*
D03*
X3068326Y5790574D02*
D03*
X2923546D02*
D03*
X2786386D02*
D03*
X6421126Y5785494D02*
D03*
X6278886Y5790574D02*
D03*
X6139186Y5793114D02*
D03*
X5859786Y5391794D02*
D03*
X5717546D02*
D03*
X5585466Y5386714D02*
D03*
X4528826Y5577214D02*
D03*
X4389126Y5574674D02*
D03*
X3970026Y5158114D02*
D03*
X3835406Y5160654D02*
D03*
X3482346Y5790574D02*
D03*
X3350266Y5793114D02*
D03*
X3215646D02*
D03*
X2921006Y5379094D02*
D03*
X2794006Y5376554D02*
D03*
X6705600Y8282940D02*
D03*
X3350260Y8293100D02*
D03*
X2710180Y8072120D02*
D03*
X2712720Y8483600D02*
D03*
X2786380Y8290560D02*
D03*
X2854960Y8473440D02*
D03*
Y8072120D02*
D03*
X2923540Y8290560D02*
D03*
X2997200Y8483600D02*
D03*
Y8072120D02*
D03*
X3068320Y8290560D02*
D03*
X3139440Y8077200D02*
D03*
X3141980Y8486140D02*
D03*
X3215640Y8293100D02*
D03*
X3279140Y8486140D02*
D03*
X3281680Y8074660D02*
D03*
X3616960Y7894320D02*
D03*
X2710180Y7660640D02*
D03*
X2794000Y7876540D02*
D03*
X2854960Y7660640D02*
D03*
X2921000Y7879080D02*
D03*
X2997200Y7663180D02*
D03*
X3068320Y7889240D02*
D03*
X3141980Y7663180D02*
D03*
X3210560Y7891780D02*
D03*
X3281680Y7660640D02*
D03*
X3350260Y7891780D02*
D03*
X3418840Y7660640D02*
D03*
X3482340Y7886700D02*
D03*
X4041140Y7889240D02*
D03*
X3759200Y7886700D02*
D03*
X3835400Y7660640D02*
D03*
X3903980Y7886700D02*
D03*
X3970020Y7658100D02*
D03*
X3550920D02*
D03*
X3688080D02*
D03*
X4665980D02*
D03*
X4805680Y7655560D02*
D03*
X4947920Y7658100D02*
D03*
X5090160D02*
D03*
X4528820Y8077200D02*
D03*
X4178300Y7889240D02*
D03*
X4312920Y8295640D02*
D03*
X4107180Y7660640D02*
D03*
X4108450Y8487410D02*
D03*
X4528820Y7653020D02*
D03*
X4112260Y8077200D02*
D03*
X4175760Y8290560D02*
D03*
X4246880Y8488680D02*
D03*
X4378960Y8483600D02*
D03*
X4457700Y8290560D02*
D03*
X4528820Y8493760D02*
D03*
X4879340Y8288020D02*
D03*
X5021580Y8293100D02*
D03*
X4599940Y8288020D02*
D03*
X4665980Y8488680D02*
D03*
X4947920Y8486140D02*
D03*
X4737100Y8288020D02*
D03*
X4805680Y8488680D02*
D03*
X5090160Y8486140D02*
D03*
X4389120Y8074660D02*
D03*
X4312920Y7894320D02*
D03*
X4386580Y7660640D02*
D03*
X4457700Y7891780D02*
D03*
X4246880Y7660640D02*
D03*
Y8072120D02*
D03*
X3418840Y8074660D02*
D03*
Y8488680D02*
D03*
X3482340Y8290560D02*
D03*
X3548380Y8069580D02*
D03*
X3550920Y8491220D02*
D03*
X3970020D02*
D03*
X3685540Y8493760D02*
D03*
X3688080Y8074660D02*
D03*
X3832860Y8488680D02*
D03*
X3835400Y8074660D02*
D03*
X3903980Y8290560D02*
D03*
X3616960Y8295640D02*
D03*
X3970020Y8074660D02*
D03*
X3759200Y8290560D02*
D03*
X4041140Y8293100D02*
D03*
X5019040Y7891780D02*
D03*
X4950460Y8067040D02*
D03*
X4876800Y7891780D02*
D03*
X4599940D02*
D03*
X4665980Y8072120D02*
D03*
X4732020Y7891780D02*
D03*
X4808220Y8072120D02*
D03*
X5090160Y8074660D02*
D03*
X6068060Y8072120D02*
D03*
X5923280Y8069580D02*
D03*
X5999480Y8285480D02*
D03*
X6068060Y8488680D02*
D03*
X6139180Y8293100D02*
D03*
X6207760Y8483600D02*
D03*
X6210300Y8077954D02*
D03*
X6278880Y8290560D02*
D03*
X6347460Y8072120D02*
D03*
X6350000Y8483600D02*
D03*
X6421120Y8285480D02*
D03*
X6629400Y8072120D02*
D03*
X6492240Y8067040D02*
D03*
Y8486140D02*
D03*
X6555740Y8290560D02*
D03*
X6626860Y8486140D02*
D03*
X5999480Y7894320D02*
D03*
X6210300Y7658100D02*
D03*
X5925820Y7663180D02*
D03*
X6068060Y7660640D02*
D03*
X6144260Y7896860D02*
D03*
X6278880Y7894320D02*
D03*
X6344920Y7660640D02*
D03*
X6418580Y7891780D02*
D03*
X6487160Y7660640D02*
D03*
X6555740Y7891780D02*
D03*
X6626860Y7663180D02*
D03*
X6695440Y7498080D02*
D03*
X6700520Y7891780D02*
D03*
X5509260Y7650480D02*
D03*
X5158740Y7891780D02*
D03*
X5161280Y8290560D02*
D03*
X5229860Y7655560D02*
D03*
Y8069580D02*
D03*
Y8486140D02*
D03*
X5295900Y7889240D02*
D03*
X5298440Y8290560D02*
D03*
X5361940Y7653020D02*
D03*
X5364480Y8488680D02*
D03*
X5367020Y8069580D02*
D03*
X5438140Y7889240D02*
D03*
X5440680Y8293100D02*
D03*
X5504180Y8488680D02*
D03*
X5511800Y8072120D02*
D03*
X5918200Y8486140D02*
D03*
X5575300Y8290560D02*
D03*
X5585460Y7886700D02*
D03*
X5646420Y7660640D02*
D03*
X5654040Y8488680D02*
D03*
Y8069580D02*
D03*
X5717540Y7891780D02*
D03*
X5722620Y8293100D02*
D03*
X5786120Y7660640D02*
D03*
X5788660Y8077200D02*
D03*
X5791200Y8491220D02*
D03*
X5854700Y8293100D02*
D03*
X5859780Y7891780D02*
D03*
X3616960Y8686800D02*
D03*
X3210560D02*
D03*
X4315460Y8679180D02*
D03*
X4180840D02*
D03*
X2923540D02*
D03*
X3761740Y8681720D02*
D03*
X3347720D02*
D03*
X3903980Y8684260D02*
D03*
X4734560D02*
D03*
X4041140D02*
D03*
X3065780D02*
D03*
X4462780Y8686800D02*
D03*
X4599940Y8671560D02*
D03*
X2786380Y8686800D02*
D03*
X3550920Y8877300D02*
D03*
X5019040Y8689340D02*
D03*
X3487420D02*
D03*
X3413760Y8872220D02*
D03*
X4950460D02*
D03*
X3139440Y8874760D02*
D03*
X4663440D02*
D03*
X5090160D02*
D03*
X3972560Y8877300D02*
D03*
X3688080D02*
D03*
X4521200D02*
D03*
X3281680D02*
D03*
X4381500D02*
D03*
X4805680D02*
D03*
X6421120Y8689340D02*
D03*
X5440680Y8681720D02*
D03*
X5588000D02*
D03*
X6278880D02*
D03*
X5720080Y8686800D02*
D03*
X5854700D02*
D03*
X6141720D02*
D03*
X6558280D02*
D03*
X5996940Y8689340D02*
D03*
X5918200Y8877300D02*
D03*
X6347460Y8872220D02*
D03*
X5656580D02*
D03*
X6068060Y8874760D02*
D03*
X5783580D02*
D03*
X5519420D02*
D03*
X6205220Y8877300D02*
D03*
X5725160Y9070340D02*
D03*
X2997200Y8879840D02*
D03*
X4107180D02*
D03*
X3901440Y9070340D02*
D03*
X3835400Y8879840D02*
D03*
X4246880Y8882380D02*
D03*
X4457700Y9065260D02*
D03*
X5857240D02*
D03*
X5440680Y9067800D02*
D03*
X4175760Y9070340D02*
D03*
X5590540Y9075420D02*
D03*
X5298440Y9072880D02*
D03*
X5160010Y9076690D02*
D03*
X3622040Y9072880D02*
D03*
X4038600D02*
D03*
X3756660D02*
D03*
X4312920D02*
D03*
X4597400D02*
D03*
X5996940D02*
D03*
X6558280Y9075420D02*
D03*
X5158740Y8684260D02*
D03*
X4881880Y8686800D02*
D03*
X2857500Y8877300D02*
D03*
X5227320D02*
D03*
X5295900Y8684260D02*
D03*
X6629400Y8876030D02*
D03*
X5361940Y8877300D02*
D03*
X2921000Y9070340D02*
D03*
X6421120D02*
D03*
X6281420Y9075420D02*
D03*
X6139180Y9077960D02*
D03*
X6489700Y8879840D02*
D03*
X2712720D02*
D03*
X2786380Y9075420D02*
D03*
X3205480D02*
D03*
X3068320Y9072880D02*
D03*
X3487420Y9075420D02*
D03*
X5016500D02*
D03*
X4879340D02*
D03*
X4734560D02*
D03*
X3350260D02*
D03*
X6703060Y8679180D02*
D03*
X7604760Y9093200D02*
D03*
X7741920Y9088120D02*
D03*
X7884160Y9083040D02*
D03*
X9144000D02*
D03*
X9639300Y8877300D02*
D03*
X9779000Y8887460D02*
D03*
X10474960Y8890000D02*
D03*
X10614660D02*
D03*
X10751820D02*
D03*
X10543540Y9083040D02*
D03*
X10685780Y9080500D02*
D03*
X10825480Y8696960D02*
D03*
X10335260Y8892540D02*
D03*
X10408920Y9080500D02*
D03*
X10266680Y9085580D02*
D03*
X10193020Y8892540D02*
D03*
X10048240D02*
D03*
X10116820Y9080500D02*
D03*
X9979660Y9083040D02*
D03*
X9912350Y8891270D02*
D03*
X9850120Y9090660D02*
D03*
X9715500Y9085580D02*
D03*
X9494520Y8887460D02*
D03*
X9570720Y9083040D02*
D03*
X9352280Y8892540D02*
D03*
X9217660D02*
D03*
X9428480Y9083040D02*
D03*
X9288780Y9080500D02*
D03*
X9072880Y8887460D02*
D03*
X8930640D02*
D03*
X9005570Y9081770D02*
D03*
X8859520Y9083040D02*
D03*
X8790940Y8890000D02*
D03*
X8724900Y9085580D02*
D03*
X8658860Y8890000D02*
D03*
X8585200Y9088120D02*
D03*
X8511540Y8895080D02*
D03*
X8376920Y8890000D02*
D03*
X8440420Y9088120D02*
D03*
X8305800Y9080500D02*
D03*
X8244840Y8890000D02*
D03*
X8163560Y9085580D02*
D03*
X8102600Y8887460D02*
D03*
X8026400Y9083040D02*
D03*
X7967980Y8890000D02*
D03*
X7815580Y8895080D02*
D03*
X7678420Y8890000D02*
D03*
X7546340Y8897620D02*
D03*
X7475220Y9088120D02*
D03*
X7411720Y8895080D02*
D03*
X7269480Y8892540D02*
D03*
X7338060Y9090660D02*
D03*
X7195820Y9085580D02*
D03*
X7122160Y8892540D02*
D03*
X6983730Y8893810D02*
D03*
X7045960Y9085580D02*
D03*
X6916420Y9088120D02*
D03*
X6830060Y8892540D02*
D03*
X10617200Y8501380D02*
D03*
X6979920Y8496300D02*
D03*
X6908800Y8303260D02*
D03*
X6837680Y8501380D02*
D03*
X7404100Y8498840D02*
D03*
X7193280Y8694420D02*
D03*
X7269480Y8496300D02*
D03*
X7543800Y8491220D02*
D03*
X7675880Y8493760D02*
D03*
X7611110Y8300720D02*
D03*
X8100060Y8491220D02*
D03*
X8514080Y8498840D02*
D03*
X8369300Y8493760D02*
D03*
X9352280Y8496300D02*
D03*
X9489440D02*
D03*
X9568180Y8689340D02*
D03*
X9847580Y8691880D02*
D03*
X10048240Y8488680D02*
D03*
X9911080Y8491220D02*
D03*
X10332720Y8493760D02*
D03*
X10264140Y8689340D02*
D03*
X10751820Y8493760D02*
D03*
X10830560Y8300720D02*
D03*
X10685780Y8694420D02*
D03*
X10546080D02*
D03*
X10408920D02*
D03*
X10121900D02*
D03*
X9979660Y8699500D02*
D03*
X9704070Y8698230D02*
D03*
X9423400Y8691880D02*
D03*
X9291320Y8699500D02*
D03*
X9146540Y8694420D02*
D03*
X9001760Y8691880D02*
D03*
X8862060Y8694420D02*
D03*
X8722360Y8691880D02*
D03*
X8582660Y8694420D02*
D03*
X8440420Y8699500D02*
D03*
X8308340Y8696960D02*
D03*
X8168640Y8699500D02*
D03*
X8031480Y8689340D02*
D03*
X7886700Y8691880D02*
D03*
X7747000Y8696960D02*
D03*
X7614920Y8699500D02*
D03*
X7477760Y8691880D02*
D03*
X7338060Y8689340D02*
D03*
X7051040Y8696960D02*
D03*
X6911340Y8691880D02*
D03*
X7122160Y8496300D02*
D03*
X7815580Y8491220D02*
D03*
X7962900Y8501380D02*
D03*
X8229600Y8493760D02*
D03*
X8656320Y8491220D02*
D03*
X8793480Y8501380D02*
D03*
X8933180Y8498840D02*
D03*
X9077960Y8501380D02*
D03*
X9216390Y8500110D02*
D03*
X9636760Y8498840D02*
D03*
X9782810Y8495030D02*
D03*
X10190480Y8503920D02*
D03*
X10477500Y8496300D02*
D03*
X10129520Y8293100D02*
D03*
X10053320Y8082280D02*
D03*
X9488170Y8079740D02*
D03*
X8164830Y8295640D02*
D03*
X7881620D02*
D03*
X10751820Y8082280D02*
D03*
X9705340Y8300720D02*
D03*
X9568180Y8293100D02*
D03*
X9639300Y8077200D02*
D03*
X9354820D02*
D03*
X9215120D02*
D03*
X7813040Y8084820D02*
D03*
X7051040Y8300720D02*
D03*
X6837680Y8084820D02*
D03*
X6985000D02*
D03*
X7122160D02*
D03*
X7192010Y8299450D02*
D03*
X7266940Y8082280D02*
D03*
X7335520Y8295640D02*
D03*
X7406640Y8087360D02*
D03*
X7543800Y8084820D02*
D03*
X7480300Y8293100D02*
D03*
X7675880Y8087360D02*
D03*
X7744460Y8298180D02*
D03*
X7962900Y8079740D02*
D03*
X8028940Y8298180D02*
D03*
X8100060Y8092440D02*
D03*
X8237220Y8084820D02*
D03*
X8300720Y8290560D02*
D03*
X8374380Y8084820D02*
D03*
X8448040Y8300720D02*
D03*
X8516620Y8087360D02*
D03*
X8590280Y8298180D02*
D03*
X8648700Y8087360D02*
D03*
X8724900Y8303260D02*
D03*
X8788400Y8087360D02*
D03*
X8862060Y8298180D02*
D03*
X8930640Y8084820D02*
D03*
X9006840Y8305800D02*
D03*
X9080500Y8089900D02*
D03*
X9149080Y8300720D02*
D03*
X9293860Y8298180D02*
D03*
X9428480D02*
D03*
X9982200D02*
D03*
X9913620Y8084820D02*
D03*
X9779000Y8087360D02*
D03*
X9845040Y8298180D02*
D03*
X10196830Y8091170D02*
D03*
X10265410Y8304530D02*
D03*
X10330180Y8084820D02*
D03*
X10406380Y8300720D02*
D03*
X10543540Y8305800D02*
D03*
X10477500Y8082280D02*
D03*
X10613390Y8081010D02*
D03*
X10683240Y8308340D02*
D03*
X10825480Y7907020D02*
D03*
X7541260Y7668260D02*
D03*
X7127240Y7670800D02*
D03*
X7739380Y7891780D02*
D03*
X8514080Y7670800D02*
D03*
X8653780Y7675880D02*
D03*
X8788400Y7673340D02*
D03*
X9215120Y7665720D02*
D03*
X9352280Y7673340D02*
D03*
X9491980D02*
D03*
X9710420Y7901940D02*
D03*
X9636760Y7665720D02*
D03*
X9773920D02*
D03*
X9845040Y7901940D02*
D03*
X9913620Y7665720D02*
D03*
X10048240Y7663180D02*
D03*
X10190480Y7668260D02*
D03*
X10126980Y7904480D02*
D03*
X10266680Y7901940D02*
D03*
X10406380D02*
D03*
X10332720Y7665720D02*
D03*
X10472420Y7673340D02*
D03*
X10751820Y7668260D02*
D03*
X10685780Y7907020D02*
D03*
X10614660Y7675880D02*
D03*
X10546080Y7907020D02*
D03*
X9987280Y7896860D02*
D03*
X9568180Y7904480D02*
D03*
X9425940Y7909560D02*
D03*
X9293860Y7904480D02*
D03*
X9080500Y7673340D02*
D03*
X9154160Y7904480D02*
D03*
X8026400Y7899400D02*
D03*
X8163560Y7896860D02*
D03*
X8303260Y7901940D02*
D03*
X8440420Y7899400D02*
D03*
X8585200Y7901940D02*
D03*
X8724900Y7896860D02*
D03*
X8859520Y7899400D02*
D03*
X9004300Y7907020D02*
D03*
X8930640Y7678420D02*
D03*
X8371840Y7670800D02*
D03*
X8237220D02*
D03*
X8097520Y7665720D02*
D03*
X7960360Y7673340D02*
D03*
X7886700Y7904480D02*
D03*
X7810500Y7673340D02*
D03*
X7675880Y7670800D02*
D03*
X7609840Y7896860D02*
D03*
X7475220D02*
D03*
X7406640Y7678420D02*
D03*
X7338060Y7899400D02*
D03*
X7264400Y7671198D02*
D03*
X7193280Y7901940D02*
D03*
X7051040Y7907020D02*
D03*
X6985000Y7675880D02*
D03*
X6913880Y7896860D02*
D03*
X6837680Y7673340D02*
D03*
X9301706Y14186774D02*
D03*
X9167086Y14181694D02*
D03*
X9022306Y14184235D02*
D03*
X8603206D02*
D03*
X8747986D02*
D03*
X8321266D02*
D03*
X8460966D02*
D03*
X8880066D02*
D03*
X9438866Y14186774D02*
D03*
X9647146Y13587334D02*
D03*
X9371556Y13588605D02*
D03*
X9233126Y13587334D02*
D03*
X9101046Y13592413D02*
D03*
X8951186Y13582254D02*
D03*
X8674326Y13587334D02*
D03*
X8814026D02*
D03*
X9509986Y13584795D02*
D03*
X9576026Y13391754D02*
D03*
X9438866D02*
D03*
X9164546Y13396834D02*
D03*
X9017226Y13389214D02*
D03*
X8880066Y13404454D02*
D03*
X8745446Y13391754D02*
D03*
X8598126Y13389214D02*
D03*
X8321266Y13391754D02*
D03*
X9299166Y13396834D02*
D03*
X9644606Y13196175D02*
D03*
X9578566Y13005675D02*
D03*
X9507446Y13198714D02*
D03*
X9304246Y13005675D02*
D03*
X9441406Y13003134D02*
D03*
X9233126Y13193634D02*
D03*
X9167086Y13003134D02*
D03*
X9022306Y13010754D02*
D03*
X8958806Y13198714D02*
D03*
X8882606Y13003134D02*
D03*
X9098506Y13198714D02*
D03*
X9372826Y13196175D02*
D03*
X9644606Y14415375D02*
D03*
X9576026Y14189314D02*
D03*
X9509986Y14417914D02*
D03*
X9372826Y14415375D02*
D03*
X9233126D02*
D03*
X9093426D02*
D03*
X8814026Y14417914D02*
D03*
X8532086D02*
D03*
X8389846D02*
D03*
X8184106Y14186774D02*
D03*
X8041866D02*
D03*
X9576026Y13785454D02*
D03*
X9304246D02*
D03*
X9438866Y13782915D02*
D03*
X9167086Y13780374D02*
D03*
X9022306Y13785454D02*
D03*
X8880066Y13787994D02*
D03*
X8742906D02*
D03*
X8458426Y13782915D02*
D03*
X8318726Y13785454D02*
D03*
X8181566D02*
D03*
X8600666Y13787994D02*
D03*
X8039326Y13782915D02*
D03*
X8532086Y13589874D02*
D03*
X8250146D02*
D03*
X8115526Y13587334D02*
D03*
X8389846Y13589874D02*
D03*
X8460966Y13386674D02*
D03*
X8184106Y13391754D02*
D03*
X8252686Y13198714D02*
D03*
X8118066D02*
D03*
X8039326Y13394295D02*
D03*
X7975826Y13587334D02*
D03*
X7960586Y13201254D02*
D03*
X7904706Y13785454D02*
D03*
X9644606Y14001353D02*
D03*
X9509986D02*
D03*
X9367746Y13998814D02*
D03*
X9233126Y14003894D02*
D03*
X9090886Y14001353D02*
D03*
X8951186Y13998814D02*
D03*
X8814026Y14003894D02*
D03*
X8671786D02*
D03*
X8529546Y14008974D02*
D03*
X8112986Y14006435D02*
D03*
X8389846Y14001353D02*
D03*
X8250146Y14006435D02*
D03*
X7968206Y14003894D02*
D03*
X10129746Y14184235D02*
D03*
X10061166Y14001353D02*
D03*
Y14415375D02*
D03*
X10066246Y13203793D02*
D03*
X10061166Y13587334D02*
D03*
X10129746Y13782915D02*
D03*
Y13000594D02*
D03*
X9997666Y14189314D02*
D03*
X9992586Y13386674D02*
D03*
Y13000594D02*
D03*
X9929086Y13198714D02*
D03*
X9931626Y14006435D02*
D03*
X9997666Y13785454D02*
D03*
X9929086Y13584795D02*
D03*
X9857966Y13003134D02*
D03*
X9929086Y14417914D02*
D03*
X9863046Y14181694D02*
D03*
Y13780374D02*
D03*
X9791926Y14417914D02*
D03*
Y14001353D02*
D03*
X9720806Y14189314D02*
D03*
Y13785454D02*
D03*
X9863046Y13389214D02*
D03*
X9791926Y13198714D02*
D03*
X9723346Y13003134D02*
D03*
X9718266Y13394295D02*
D03*
X9794466Y13582254D02*
D03*
X8816566Y13201254D02*
D03*
X8745446Y13000594D02*
D03*
X8674326Y13198714D02*
D03*
X8600666Y13000594D02*
D03*
X8529546Y13203793D02*
D03*
X8463506Y13000594D02*
D03*
X8389846Y13201254D02*
D03*
X8181566Y13003134D02*
D03*
X8039326Y13008214D02*
D03*
X6990306Y13196175D02*
D03*
X6921726Y13389214D02*
D03*
X6850606Y14003894D02*
D03*
X6924266Y13785454D02*
D03*
X6987766Y14008974D02*
D03*
Y13589874D02*
D03*
X6924266Y14184235D02*
D03*
X7561806Y13589874D02*
D03*
X7688806Y13584795D02*
D03*
X7411946Y13587334D02*
D03*
X7825966D02*
D03*
X8674326Y14420454D02*
D03*
X8951186Y14422993D02*
D03*
X6992846Y14415375D02*
D03*
X8250146Y14420454D02*
D03*
X7833586Y14415375D02*
D03*
X7970746Y14425534D02*
D03*
X7693886Y14415375D02*
D03*
X7554186Y14412834D02*
D03*
X7411946Y14415375D02*
D03*
X7135086D02*
D03*
X8118066Y14422993D02*
D03*
X7058886Y13005675D02*
D03*
X7340826Y13782915D02*
D03*
X7338286Y13389214D02*
D03*
X7272246Y13592413D02*
D03*
X7269706Y13998061D02*
D03*
X7201126Y13785454D02*
D03*
Y13394295D02*
D03*
X7132546Y14003894D02*
D03*
Y13203793D02*
D03*
X7130006Y13592413D02*
D03*
X7058886Y13790533D02*
D03*
Y13386674D02*
D03*
X7061426Y14184235D02*
D03*
X7274786Y13198714D02*
D03*
X7269706Y14417914D02*
D03*
X7823426Y13203793D02*
D03*
X7625306Y13389214D02*
D03*
X7622766Y13010754D02*
D03*
X7696426Y13201254D02*
D03*
X7759926Y13389214D02*
D03*
X7892006Y13394295D02*
D03*
X7561806Y13198714D02*
D03*
X7483066Y13386674D02*
D03*
X7754846Y13005675D02*
D03*
X7411946Y13201254D02*
D03*
X7757386Y13782915D02*
D03*
X7691346Y13998814D02*
D03*
X7625306Y13782915D02*
D03*
X7480526Y13790533D02*
D03*
X7825966Y14006435D02*
D03*
X7556726D02*
D03*
X7480526Y14181694D02*
D03*
X7411946Y14003894D02*
D03*
X7620226Y14184235D02*
D03*
X7762466D02*
D03*
X7201126Y14181694D02*
D03*
X7335746Y14179153D02*
D03*
X7894546Y14189314D02*
D03*
X10269446Y14184235D02*
D03*
Y13389214D02*
D03*
X10338026Y13589874D02*
D03*
X10340566Y13998814D02*
D03*
X10411686Y13785454D02*
D03*
X10482806Y14003894D02*
D03*
X10411686Y14186774D02*
D03*
X10340566Y13201254D02*
D03*
X10338026Y14412834D02*
D03*
X10264366Y13782915D02*
D03*
X10198326Y14415375D02*
D03*
X10200866Y13589874D02*
D03*
X10198326Y14001353D02*
D03*
Y13198714D02*
D03*
X10132286Y13394295D02*
D03*
X10414226Y13391754D02*
D03*
X10482806Y14412834D02*
D03*
X7340826Y12998055D02*
D03*
X7889466Y13000594D02*
D03*
X8319996Y12999324D02*
D03*
X7483066Y13003134D02*
D03*
X7198586Y13000594D02*
D03*
X10482806Y13592413D02*
D03*
X10767286D02*
D03*
X10693626Y13000594D02*
D03*
X10767286Y13196175D02*
D03*
X10693626Y13389214D02*
D03*
X10622506Y13198714D02*
D03*
X10559006Y13005675D02*
D03*
X10482806Y13196175D02*
D03*
X10411686Y13003134D02*
D03*
X10274526Y13000594D02*
D03*
X10769826Y14415375D02*
D03*
X10686006Y14199474D02*
D03*
X10769826Y14003894D02*
D03*
X10625046Y14415375D02*
D03*
X6921726Y13000594D02*
D03*
X10693626Y13785454D02*
D03*
X10625046Y13602574D02*
D03*
Y14003894D02*
D03*
X10556466Y13785454D02*
D03*
Y13396834D02*
D03*
X10559006Y14196935D02*
D03*
%TF.MD5,1869f59d607029e5c0b24e84fdee8a22*%
M02*
